<?xml version="1.0" standalone="no"?>
<!DOCTYPE svg PUBLIC "-//W3C//DTD SVG 20010904//EN"
 "http://www.w3.org/TR/2001/REC-SVG-20010904/DTD/svg10.dtd">
<svg version="1.0" xmlns="http://www.w3.org/2000/svg"
 width="960.000000pt" height="320.000000pt" viewBox="0 0 960.000000 320.000000"
 preserveAspectRatio="xMidYMid meet">

<g transform="translate(0.000000,320.000000) scale(0.100000,-0.100000)"
fill="#000000" stroke="none">
<path d="M0 1600 l0 -1600 1280 0 c843 0 1281 4 1285 10 4 6 11 7 17 4 8 -5 9
5 5 32 l-6 38 39 -42 c22 -23 40 -36 40 -28 0 8 -7 17 -15 20 -14 5 -45 62
-49 91 -1 6 -5 15 -9 22 -9 15 2 45 15 37 6 -4 5 2 -1 14 -15 28 -14 31 9 25
14 -4 20 0 20 11 0 9 -6 13 -14 10 -8 -3 -17 -1 -21 5 -3 6 -1 11 5 11 7 0 10
6 7 13 -8 21 6 37 23 27 10 -7 11 -10 3 -10 -7 0 -13 -5 -13 -10 0 -7 6 -7 19
0 12 6 18 18 16 30 -2 13 2 20 11 20 12 0 12 4 -2 25 -9 14 -14 28 -10 32 3 3
6 1 6 -6 0 -7 5 -9 10 -6 6 3 10 13 10 21 0 8 -4 12 -10 9 -5 -3 -10 1 -10 9
0 9 4 16 9 16 11 0 7 82 -5 101 -4 8 -3 10 4 5 7 -4 12 -1 12 9 0 9 4 13 10
10 5 -3 12 6 16 20 3 14 9 25 13 25 9 0 7 53 -3 69 -6 10 -5 12 2 7 19 -11 14
5 -5 19 -13 10 -14 16 -6 26 13 17 13 52 0 61 -6 3 -10 22 -9 42 1 25 -3 36
-13 36 -8 0 -13 6 -10 13 5 16 -47 112 -63 113 -6 1 -16 2 -20 3 -5 0 -14 13
-21 27 -10 22 -8 32 9 61 11 20 19 38 16 40 -2 3 -12 -10 -21 -28 -16 -29 -18
-31 -27 -14 -17 30 8 89 71 167 33 40 57 75 54 78 -3 3 -15 -7 -28 -22 -33
-38 -39 -35 -31 15 15 105 21 122 44 125 12 2 22 8 22 13 0 22 -238 481 -280
540 -57 78 -78 119 -73 139 2 8 37 35 78 59 64 38 73 47 64 63 -18 34 -14 36
212 119 74 27 142 49 151 49 10 0 24 -22 38 -62 13 -35 29 -68 37 -74 18 -15
365 -713 359 -723 -3 -4 -27 -18 -55 -31 -28 -13 -51 -29 -51 -36 0 -7 -47
-40 -104 -74 -90 -54 -105 -66 -109 -93 -2 -20 2 -36 14 -48 35 -35 60 -173
26 -152 -6 4 -8 -3 -3 -20 10 -40 25 -77 31 -77 3 0 25 19 48 43 82 81 226
177 267 177 20 0 122 98 115 110 -9 14 13 50 48 79 48 42 57 44 77 26 11 -10
24 -14 31 -9 9 5 10 2 6 -10 -5 -13 13 -42 66 -104 40 -48 79 -99 87 -114 7
-16 25 -35 39 -45 25 -16 25 -16 11 2 -14 16 -13 17 8 11 24 -8 27 0 12 38 -5
14 -16 26 -23 26 -14 0 -77 72 -77 89 0 5 -12 24 -27 41 -14 18 -28 42 -30 54
-1 11 -4 30 -5 41 -2 12 4 21 15 23 21 4 57 -24 57 -45 0 -8 4 -12 9 -8 5 3
12 -4 16 -15 3 -11 13 -20 21 -20 8 0 13 -4 9 -10 -3 -5 4 -19 15 -30 12 -12
19 -28 16 -37 -4 -10 -2 -13 7 -10 8 3 26 -6 41 -20 19 -18 31 -22 38 -15 6 6
17 7 27 2 57 -28 99 -39 170 -44 22 -2 47 -9 56 -16 18 -15 23 -12 29 16 10
46 19 64 33 64 14 0 34 20 118 115 l26 30 -28 -52 -28 -52 57 -58 c49 -49 68
-61 120 -76 35 -9 88 -25 118 -34 30 -9 73 -19 95 -22 83 -13 169 -81 214
-170 12 -22 39 -66 61 -97 34 -49 39 -62 35 -98 -3 -29 -2 -33 3 -16 4 14 11
20 14 15 14 -23 40 -176 45 -260 3 -49 11 -106 20 -125 8 -19 27 -73 43 -120
16 -47 37 -108 48 -137 16 -43 17 -53 6 -57 -26 -10 -13 -106 13 -106 12 0 14
7 10 30 -8 39 7 39 25 0 l13 -30 2172 0 2173 0 0 1600 0 1600 -4800 0 -4800 0
0 -1600z m3999 1288 c-24 -17 -51 -40 -60 -50 -9 -10 -23 -16 -32 -12 -10 3
-18 -2 -22 -15 -7 -24 -21 -27 -29 -8 -3 8 -12 3 -26 -16 -12 -15 -32 -32 -43
-39 -22 -11 -22 -11 -3 11 l20 22 -45 -19 c-24 -11 -43 -25 -41 -32 1 -6 -2
-8 -8 -5 -6 4 -20 -1 -31 -11 -10 -9 -21 -15 -24 -12 -6 5 186 138 217 150 10
4 18 3 18 -2 0 -5 30 9 68 30 82 47 101 51 41 8z m21 -43 c-7 -8 -17 -15 -23
-15 -5 0 -2 9 8 20 21 23 35 19 15 -5z m415 -137 c19 -40 5 -28 -34 29 -31 43
-32 45 -7 24 14 -14 33 -38 41 -53z m35 -9 c28 -54 17 -49 -14 6 -13 25 -21
43 -15 40 5 -4 18 -24 29 -46z m-690 24 c0 -3 -7 -3 -15 1 -8 3 -15 0 -15 -6
0 -6 -3 -9 -6 -5 -11 10 6 26 21 20 8 -3 15 -7 15 -10z m-175 -93 c-16 -17
-33 -30 -39 -30 -5 0 5 16 24 35 18 19 36 32 39 30 2 -3 -8 -19 -24 -35z m742
-105 c13 -9 33 -30 44 -48 17 -28 57 -148 73 -217 l5 -25 -84 3 c-85 3 -125
-7 -125 -32 0 -8 -7 -19 -15 -26 -27 -22 -18 -57 16 -69 40 -14 39 -14 33 7
-5 16 -5 16 6 0 16 -26 59 -23 69 4 l8 21 14 -21 c11 -15 22 -19 37 -15 12 3
22 9 22 14 0 16 -46 39 -80 39 -53 0 -71 16 -29 26 47 10 99 5 116 -12 25 -25
42 -115 47 -256 1 -31 7 -62 14 -70 6 -8 8 -24 4 -39 -6 -22 -7 -22 -13 11
l-6 35 -8 -32 c-4 -18 -16 -40 -26 -49 -23 -20 -26 -42 -4 -24 9 7 18 10 21 8
3 -3 -9 -16 -25 -28 -17 -12 -31 -28 -31 -35 0 -8 -5 -17 -12 -21 -8 -5 -9 -2
-5 10 4 10 3 15 -3 11 -6 -3 -10 2 -10 11 0 10 -3 14 -7 10 -9 -9 -11 -46 -2
-40 15 9 5 -41 -14 -68 -10 -16 -14 -28 -8 -28 6 0 11 -5 11 -11 0 -5 -4 -7
-10 -4 -5 3 -10 1 -10 -4 0 -6 6 -11 13 -12 10 0 10 -2 0 -6 -7 -2 -13 -13
-13 -24 0 -10 -6 -19 -12 -19 -9 0 -8 -4 2 -10 13 -8 12 -10 -2 -10 -10 0 -18
-4 -18 -10 0 -5 -9 -10 -21 -10 -12 0 -17 -4 -13 -11 5 -8 1 -8 -13 0 -14 7
-23 7 -33 -2 -10 -9 -14 -9 -17 1 -3 6 -9 12 -14 12 -6 0 -7 -5 -3 -11 4 -8
-1 -9 -16 -4 -17 5 -21 4 -15 -6 4 -8 -2 -4 -12 8 -10 12 -38 38 -63 59 -25
20 -45 44 -45 53 -1 9 -6 15 -13 13 -7 -1 -15 5 -18 13 -4 8 -12 15 -20 15 -8
0 -14 11 -15 28 -1 15 -2 32 -4 37 -1 6 -3 15 -4 20 -1 6 -5 5 -9 -2 -11 -18
-50 -4 -58 21 -4 11 -10 23 -15 26 -4 3 -10 19 -13 35 -2 17 -5 32 -5 34 -1 3
-7 -4 -15 -14 -8 -11 -12 -23 -10 -27 3 -5 1 -8 -5 -8 -5 0 -13 5 -16 10 -3 6
-1 10 4 10 6 0 11 7 11 15 0 8 -7 15 -16 15 -25 0 -75 33 -70 46 2 6 -5 17
-17 23 -17 9 -23 23 -25 56 -1 25 2 45 7 45 5 0 9 10 9 23 0 57 7 105 15 104
5 -1 14 6 20 15 9 14 9 23 -1 38 -9 15 -10 26 -2 40 6 11 7 20 1 20 -5 0 -6
14 -1 34 4 19 5 37 2 40 -3 4 -1 6 4 6 5 0 9 14 10 30 1 17 9 38 18 48 9 10
16 30 16 44 0 32 48 95 80 103 30 8 168 8 181 -1 5 -3 23 1 39 10 17 8 30 10
30 5 0 -5 10 -5 24 1 13 5 26 6 29 3 3 -2 14 0 24 6 23 14 77 7 110 -14z m256
-215 c-3 -12 -8 -19 -11 -16 -5 6 5 36 12 36 2 0 2 -9 -1 -20z m-2223 -10 c0
-5 -4 -10 -10 -10 -5 0 -10 5 -10 10 0 6 5 10 10 10 6 0 10 -4 10 -10z m2257
-12 c-3 -8 -6 -5 -6 6 -1 11 2 17 5 13 3 -3 4 -12 1 -19z m793 -200 c41 -28
61 -59 43 -65 -22 -8 -176 -122 -228 -168 -27 -25 -53 -45 -57 -45 -4 0 -13
20 -19 44 -6 25 -18 47 -26 51 -21 8 -63 -21 -63 -43 0 -29 78 -182 92 -182 8
0 58 45 113 100 93 94 193 180 208 180 4 0 7 -55 7 -122 0 -104 -3 -128 -20
-155 -34 -57 -68 -67 -230 -71 -138 -3 -147 -3 -179 20 -56 37 -70 71 -75 183
-5 121 6 210 31 237 46 52 69 58 224 58 135 0 149 -2 179 -22z m620 -163 l0
-185 25 0 c21 0 25 -5 25 -30 0 -28 -2 -30 -39 -30 -23 0 -48 8 -62 19 -23 19
-24 24 -27 201 -2 100 -1 188 2 196 3 8 20 14 41 14 l35 0 0 -185z m1331 175
c37 -20 18 -80 -26 -80 -27 0 -45 18 -45 45 0 40 32 55 71 35z m-353 -82 c3
-36 5 -38 38 -38 32 0 34 -2 34 -35 0 -33 -2 -35 -35 -35 l-36 0 3 -77 c3 -78
3 -78 33 -83 25 -4 30 -10 33 -38 l3 -32 -49 0 c-34 0 -57 6 -73 19 -23 18
-24 25 -27 176 -4 170 1 188 47 183 22 -3 26 -9 29 -40z m-2411 7 c0 -8 -4
-12 -9 -9 -4 3 -8 9 -8 15 0 5 4 9 8 9 5 0 9 -7 9 -15z m1277 -72 c22 -17 56
-63 56 -77 0 -3 -19 -6 -43 -6 -31 0 -45 5 -55 20 -18 30 -66 26 -91 -6 -29
-37 -27 -89 4 -119 31 -32 60 -32 89 0 29 31 86 36 86 6 0 -26 -34 -66 -70
-81 -48 -20 -125 -8 -160 25 -51 49 -59 166 -14 217 45 50 145 60 198 21z
m421 13 c45 -19 75 -69 75 -123 l0 -43 -106 0 -106 0 14 -22 c22 -33 73 -46
96 -24 11 9 36 16 61 16 l42 0 -16 -30 c-20 -39 -63 -60 -120 -60 -109 0 -173
84 -145 190 24 90 116 133 205 96z m305 4 c13 -7 21 -7 25 0 3 5 22 10 41 10
l34 0 0 -149 0 -149 -103 -1 c-84 0 -109 3 -135 19 -35 21 -57 58 -67 110 -8
46 28 117 74 147 36 24 98 30 131 13z m310 -24 c0 -34 -1 -35 -42 -38 l-43 -3
-3 -112 -3 -113 -39 0 -40 0 0 115 c0 117 12 166 42 178 7 3 39 6 71 6 l57 1
0 -34z m360 -1 c0 -34 -1 -35 -40 -35 l-40 0 0 -115 0 -115 -46 0 -46 0 4 126
c3 124 3 126 31 150 22 19 39 24 83 24 l54 0 0 -35z m100 -115 l0 -150 -40 0
-40 0 0 143 c0 79 3 147 7 150 3 4 21 7 40 7 l33 0 0 -150z m122 139 c3 -9 9
-9 25 0 77 41 194 -28 210 -122 8 -49 -28 -120 -73 -148 -29 -17 -46 -21 -94
-17 l-59 4 -3 -65 -3 -66 -42 -3 -43 -3 0 209 c0 115 3 212 7 215 11 12 71 8
75 -4z m-3917 -88 c24 -4 35 -19 35 -49 0 -13 7 -31 16 -40 15 -15 14 -17 -15
-31 -28 -13 -32 -13 -50 3 -10 9 -21 27 -24 39 -3 12 -10 37 -16 55 l-10 33
32 -31 c17 -17 33 -26 35 -20 2 6 -8 20 -22 31 -19 15 -26 30 -25 52 l0 32 12
-35 c7 -21 20 -36 32 -39z m-140 -101 c4 -6 -1 -7 -12 -3 -16 6 -16 5 -5 -10
8 -9 12 -24 9 -34 -4 -14 -5 -14 -6 4 0 12 -6 25 -11 28 -11 7 -4 25 10 25 5
0 12 -4 15 -10z m375 -14 c0 -3 -4 -8 -10 -11 -5 -3 -10 -1 -10 4 0 6 5 11 10
11 6 0 10 -2 10 -4z m-394 -124 c-17 -16 -18 -16 -5 5 7 12 15 20 18 17 3 -2
-3 -12 -13 -22z m1014 -62 c0 -5 -5 -10 -11 -10 -5 0 -7 5 -4 10 3 6 8 10 11
10 2 0 4 -4 4 -10z m-30 -40 c-6 -11 -13 -20 -16 -20 -2 0 0 9 6 20 6 11 13
20 16 20 2 0 0 -9 -6 -20z m-940 -10 c0 -5 -4 -10 -10 -10 -5 0 -10 5 -10 10
0 6 5 10 10 10 6 0 10 -4 10 -10z m31 -48 c-5 -10 -18 -25 -28 -33 -12 -10
-11 -5 6 19 24 35 38 43 22 14z m2643 -61 c3 -5 -3 -20 -13 -32 -15 -18 -22
-21 -31 -13 -9 9 -7 17 6 33 20 23 30 26 38 12z m1266 -34 c0 -7 -20 -67 -44
-133 -31 -82 -50 -120 -62 -123 -20 -4 -22 -11 37 152 25 71 47 117 55 117 8
0 14 -6 14 -13z m-1816 -10 c18 -13 18 -54 0 -50 -5 1 -26 -32 -47 -74 -21
-41 -33 -72 -27 -68 14 9 40 -13 51 -43 l9 -23 32 24 c101 76 148 68 112 -17
-6 -16 0 -15 33 9 31 22 51 51 82 115 50 102 74 135 90 126 8 -5 5 -16 -9 -36
-36 -50 -110 -215 -99 -219 6 -2 23 6 38 18 46 38 110 62 132 51 23 -13 23
-14 3 -46 -25 -38 -9 -40 31 -5 34 29 65 41 65 23 0 -11 -94 -82 -109 -82 -6
0 -14 6 -17 14 -4 11 -11 12 -35 2 -26 -9 -33 -8 -43 7 -12 15 -15 15 -26 2
-16 -20 -57 -19 -68 0 -7 14 -11 13 -34 -5 -31 -24 -47 -25 -54 -5 -5 11 -11
12 -24 5 -25 -13 -60 -13 -60 1 0 8 -5 8 -15 -1 -20 -16 -43 -6 -57 25 -16 35
-31 31 -63 -15 -15 -22 -34 -40 -41 -40 -8 0 -14 2 -14 5 0 3 32 68 70 145
l70 140 -27 0 c-59 0 -67 -8 -112 -113 -25 -56 -55 -119 -68 -139 -27 -45 -53
-50 -53 -12 0 18 4 25 14 21 10 -4 29 27 66 105 28 60 49 112 47 115 -3 2 -29
-3 -58 -11 -34 -10 -56 -13 -63 -6 -10 10 11 20 96 44 99 28 156 32 182 13z
m1086 -16 c0 -6 -5 -13 -10 -16 -6 -4 -29 -43 -51 -87 -29 -57 -36 -79 -24
-75 11 5 22 -4 36 -28 l21 -35 39 33 c21 17 39 38 39 45 0 7 12 18 26 24 23
11 29 10 46 -12 10 -13 17 -29 14 -37 -3 -7 -3 -13 -1 -13 13 0 62 27 71 39 6
8 16 11 23 7 8 -6 6 -17 -10 -42 -12 -19 -19 -37 -16 -40 3 -3 29 13 57 35 57
45 100 54 100 22 0 -23 -22 -40 -28 -22 -5 16 -32 -5 -32 -25 0 -24 22 -16 93
32 38 25 75 43 83 40 24 -9 15 -37 -16 -49 -18 -7 -30 -19 -30 -29 0 -24 4
-23 76 17 70 40 74 41 74 20 0 -18 -123 -88 -147 -83 -10 2 -22 13 -28 25 -11
22 -11 22 -41 2 -36 -24 -80 -25 -93 -2 -9 17 -10 17 -28 0 -11 -9 -32 -17
-46 -17 -25 0 -31 8 -28 37 1 7 -22 2 -60 -15 -59 -25 -62 -26 -75 -7 -13 17
-15 17 -32 2 -27 -25 -40 -21 -64 19 l-22 37 -20 -26 c-12 -14 -29 -38 -40
-52 -13 -20 -21 -24 -29 -16 -9 9 -8 17 1 32 12 19 12 19 -12 4 -14 -9 -39
-15 -58 -13 -31 3 -33 5 -31 38 2 39 34 73 66 68 24 -4 30 -17 17 -38 -9 -13
-11 -13 -20 0 -9 13 -12 12 -25 -4 -34 -45 -2 -49 60 -8 36 23 50 42 88 125
36 77 50 97 66 97 12 0 21 -4 21 -9z m-3315 -66 c-22 -18 -42 -31 -45 -28 -2
2 13 19 35 38 22 18 42 31 45 28 2 -2 -13 -19 -35 -38z m3575 -49 c0 -18 -17
-29 -30 -21 -8 5 -7 11 1 21 15 18 29 18 29 0z m-3930 -10 c0 -3 -4 -8 -10
-11 -5 -3 -10 -1 -10 4 0 6 5 11 10 11 6 0 10 -2 10 -4z m3265 -16 c4 -6 -1
-22 -10 -36 -16 -25 -16 -25 5 -14 23 12 50 7 50 -9 0 -5 -12 -12 -26 -15 -14
-4 -41 -23 -59 -42 -26 -27 -40 -35 -62 -32 -39 4 -37 36 3 57 30 16 30 18 15
40 -14 22 -14 25 8 42 25 21 66 25 76 9z m1034 -114 c9 -11 8 -18 -4 -30 -19
-19 -35 -13 -35 13 0 32 20 40 39 17z m-4635 -408 c3 -13 4 -34 2 -48 -2 -14
-4 -34 -5 -45 -2 -30 -18 -52 -30 -40 -7 7 -6 34 1 83 10 72 23 92 32 50z
m-59 -192 c11 -6 22 -12 23 -13 4 -1 -21 -62 -39 -95 -5 -10 -9 -22 -9 -27 0
-5 -5 -22 -12 -38 -6 -15 -10 -34 -9 -40 1 -7 -2 -13 -7 -13 -5 0 -22 -30 -37
-67 -15 -38 -37 -86 -47 -108 l-19 -40 6 50 c12 101 38 205 51 205 28 0 49 52
51 129 1 42 5 87 9 101 l7 25 6 -29 c3 -16 15 -34 26 -40z m2482 -38 c-2 -13
-4 -3 -4 22 0 25 2 35 4 23 2 -13 2 -33 0 -45z m-2472 -128 c-3 -5 -12 -10
-18 -10 -7 0 -6 4 3 10 19 12 23 12 15 0z"/>
<path d="M3883 2225 c-15 -11 -22 -12 -25 -3 -5 13 -48 -56 -48 -76 0 -7 -9
-25 -20 -39 -13 -16 -16 -28 -10 -32 13 -8 32 4 25 15 -3 5 10 14 29 20 19 6
36 14 38 18 9 22 68 49 109 51 48 2 129 -24 129 -41 0 -6 -7 -7 -17 -3 -10 5
-34 9 -53 11 -31 3 -32 2 -10 -5 23 -8 21 -9 -13 -10 -21 -1 -36 3 -32 8 6 11
-40 0 -71 -17 -10 -5 -24 -7 -31 -5 -6 2 -17 -5 -23 -16 -12 -24 -13 -23 57
-25 29 -1 47 2 40 6 -7 5 1 8 20 8 18 0 36 7 41 15 7 14 12 14 45 0 22 -9 37
-11 37 -5 0 20 29 10 36 -12 7 -19 9 -14 15 26 7 41 4 53 -13 77 -19 25 -28
28 -97 34 -42 3 -90 8 -106 10 -18 3 -39 -1 -52 -10z"/>
<path d="M3761 1984 c5 -6 6 -20 2 -29 -4 -12 -3 -16 4 -12 6 4 14 1 16 -5 3
-7 6 3 6 22 1 29 -3 36 -18 36 -14 0 -17 -4 -10 -12z"/>
<path d="M4076 1874 l5 -51 -31 -1 c-17 0 -38 -6 -46 -13 -8 -6 -17 -9 -21 -5
-3 3 -2 6 4 6 6 0 13 7 16 14 5 12 1 13 -15 7 -22 -8 -45 -51 -28 -51 6 0 10
-6 10 -12 0 -7 9 -26 21 -43 17 -25 19 -26 14 -7 l-7 23 39 -24 c31 -19 44
-22 71 -15 37 10 43 19 10 15 -15 -1 -23 3 -23 13 0 12 14 15 60 16 33 1 76 6
96 11 42 12 63 4 53 -20 -5 -15 -2 -15 25 -6 17 6 34 15 37 20 3 6 12 5 21 -3
21 -17 47 16 33 43 -7 12 -6 19 2 21 6 2 -2 18 -20 39 -17 18 -32 29 -32 22 0
-6 5 -15 10 -18 21 -13 -1 -23 -32 -14 -43 12 -54 25 -38 44 7 8 8 15 2 15 -5
0 -16 -7 -23 -16 -26 -31 -57 -35 -100 -13 -27 13 -50 18 -68 14 -22 -5 -30
-1 -39 17 -10 19 -11 15 -6 -28z m249 -83 c-2 -5 -26 -11 -53 -14 -26 -3 -52
-6 -57 -7 -22 -5 -78 0 -72 6 17 17 192 31 182 15z"/>
<path d="M3825 1890 c-3 -5 -1 -10 4 -10 6 0 11 5 11 10 0 6 -2 10 -4 10 -3 0
-8 -4 -11 -10z"/>
<path d="M3840 1860 c0 -5 5 -10 10 -10 6 0 10 5 10 10 0 6 -4 10 -10 10 -5 0
-10 -4 -10 -10z"/>
<path d="M3832 1830 c13 -20 28 -27 28 -12 0 4 -9 13 -20 20 -19 12 -20 11 -8
-8z"/>
<path d="M4310 1661 c0 -10 -77 -31 -115 -31 -18 0 -24 -4 -19 -12 4 -7 -2 -5
-14 5 -11 11 -26 16 -31 12 -6 -3 -11 -2 -11 3 0 5 -7 9 -15 9 -8 0 -12 -4 -9
-8 2 -4 -1 -9 -7 -11 -7 -2 23 -14 65 -26 69 -20 78 -21 92 -7 19 18 40 20 48
3 3 -7 3 -3 0 10 -3 14 0 24 10 28 17 6 30 34 16 34 -6 0 -10 -4 -10 -9z"/>
<path d="M6212 1904 c-7 -3 -17 -14 -22 -25 -10 -18 -7 -19 61 -19 l71 0 -14
23 c-15 22 -66 33 -96 21z"/>
<path d="M6512 1877 c-29 -31 -28 -72 3 -102 30 -30 64 -32 99 -4 33 26 36 79
6 109 -28 28 -81 26 -108 -3z"/>
<path d="M7542 1884 c-31 -21 -31 -83 1 -112 48 -45 121 -14 121 51 0 67 -66
100 -122 61z"/>
<path d="M5686 1149 c-15 -12 -25 -24 -22 -26 3 -3 19 6 36 21 37 31 25 35
-14 5z"/>
<path d="M5946 1149 c-15 -12 -25 -24 -22 -26 3 -3 19 6 36 21 37 31 25 35
-14 5z"/>
<path d="M6781 1193 c0 -6 -4 -20 -7 -30 -5 -14 -4 -15 5 -7 7 7 11 20 8 30
-3 11 -5 14 -6 7z"/>
<path d="M6226 1191 c-3 -5 0 -13 7 -19 10 -8 13 -6 13 9 0 20 -11 25 -20 10z"/>
<path d="M2681 2265 c39 -61 59 -80 59 -54 0 23 -66 118 -82 119 -14 0 -9 -13
23 -65z m19 1 c0 -6 -7 -1 -15 10 -8 10 -15 23 -15 28 0 6 7 1 15 -10 8 -10
15 -23 15 -28z"/>
<path d="M2850 2105 c0 -3 9 -16 21 -28 l21 -22 -13 28 c-11 23 -29 37 -29 22z"/>
<path d="M2807 2084 c-7 -8 13 -54 24 -54 5 0 5 8 2 18 -6 15 -5 15 10 4 14
-12 15 -11 4 12 -12 25 -27 33 -40 20z"/>
<path d="M2765 2060 c-9 -15 4 -50 20 -50 21 0 27 17 15 40 -12 22 -25 26 -35
10z m29 -25 c3 -8 1 -15 -3 -15 -5 0 -11 7 -15 15 -3 8 -1 15 3 15 5 0 11 -7
15 -15z"/>
<path d="M2722 2041 c-10 -6 -10 -13 -1 -34 16 -35 24 -34 26 3 2 32 -6 43
-25 31z m18 -21 c0 -5 -2 -10 -4 -10 -3 0 -8 5 -11 10 -3 6 -1 10 4 10 6 0 11
-4 11 -10z"/>
<path d="M2675 2010 c-3 -6 1 -13 10 -16 9 -4 14 -13 11 -20 -6 -16 10 -19 19
-3 4 6 -2 19 -13 30 -13 11 -23 15 -27 9z"/>
<path d="M2635 1990 c-3 -6 1 -13 10 -16 9 -4 14 -13 11 -20 -6 -16 10 -19 19
-3 4 6 -2 19 -13 30 -13 11 -23 15 -27 9z"/>
<path d="M2598 1975 c-8 -9 3 -55 14 -55 6 0 7 7 4 16 -5 14 -4 15 9 4 8 -7
15 -8 15 -3 0 13 -35 45 -42 38z"/>
<path d="M2893 1957 c3 -10 2 -17 -3 -17 -6 0 -10 5 -10 10 0 6 -4 10 -9 10
-19 0 1 -36 27 -48 21 -10 29 -10 40 2 10 9 11 16 3 20 -6 4 -11 0 -11 -8 0
-10 -6 -13 -15 -10 -10 4 -13 13 -10 24 3 10 0 22 -6 26 -9 5 -10 2 -6 -9z"/>
<path d="M2553 1954 c-14 -6 4 -54 20 -54 6 0 7 3 4 7 -4 3 -2 12 4 19 18 22
0 39 -28 28z"/>
<path d="M2754 1876 c-26 -26 -34 -42 -34 -71 0 -29 8 -45 34 -71 26 -26 42
-34 71 -34 29 0 45 8 71 34 26 26 34 42 34 71 0 29 -8 45 -34 71 -26 26 -42
34 -71 34 -29 0 -45 -8 -71 -34z m96 14 c0 -5 -2 -10 -4 -10 -3 0 -8 5 -11 10
-3 6 -1 10 4 10 6 0 11 -4 11 -10z m-24 -11 c3 -6 2 -15 -4 -21 -7 -7 -14 -3
-21 11 -10 17 -9 21 3 21 8 0 18 -5 22 -11z m74 -19 c0 -16 -22 -23 -31 -9
-16 26 -11 41 11 29 11 -6 20 -15 20 -20z m-111 1 c8 -14 7 -20 -4 -25 -11 -4
-15 2 -15 19 0 30 6 32 19 6z m67 -30 c-8 -13 -36 -15 -36 -3 0 4 5 13 12 20
14 14 34 0 24 -17z m64 -22 c0 -10 -6 -19 -14 -19 -17 0 -28 38 -12 43 17 6
26 -2 26 -24z m-110 7 c0 -18 -27 -29 -36 -14 -4 5 0 14 7 19 20 13 29 11 29
-5z m-47 -15 c6 -24 -19 -36 -27 -15 -9 24 -7 34 8 34 7 0 16 -9 19 -19z m107
-11 c-21 -14 -30 -12 -30 4 0 18 22 27 35 14 6 -6 5 -12 -5 -18z m-40 -9 c0
-5 -6 -14 -14 -20 -16 -13 -32 2 -21 19 8 12 35 13 35 1z m50 -28 c-1 -27 -1
-27 -15 -9 -12 16 -12 22 -2 28 17 11 17 11 17 -19z m30 17 c0 -5 -5 -10 -11
-10 -5 0 -7 5 -4 10 3 6 8 10 11 10 2 0 4 -4 4 -10z m-123 -15 c3 -9 3 -19 -1
-22 -8 -9 -37 18 -30 28 8 14 24 11 31 -6z m64 -17 c10 -18 9 -20 -7 -14 -10
4 -21 1 -25 -6 -4 -7 -11 -10 -14 -6 -5 5 23 48 32 48 1 0 7 -10 14 -22z"/>
<path d="M2961 1898 c-1 -12 -6 -15 -18 -11 -15 5 -16 3 -5 -8 15 -16 37 1 29
23 -4 9 -6 8 -6 -4z"/>
<path d="M2666 1855 c-19 -14 -14 -35 9 -35 18 0 24 11 16 32 -5 14 -9 15 -25
3z"/>
<path d="M2980 1849 c0 -6 -7 -8 -16 -5 -8 3 -12 2 -9 -4 10 -15 35 -12 35 5
0 8 -2 15 -5 15 -3 0 -5 -5 -5 -11z"/>
<path d="M2985 1811 c-3 -6 -11 -9 -16 -6 -5 4 -9 1 -9 -4 0 -6 6 -11 14 -11
16 0 31 18 23 26 -3 3 -8 0 -12 -5z"/>
<path d="M2686 1801 c-4 -6 -13 -8 -21 -4 -16 5 -21 -12 -6 -21 11 -7 48 20
39 29 -3 3 -9 2 -12 -4z"/>
<path d="M2950 1769 c0 -24 26 -31 42 -12 11 15 11 16 -6 10 -12 -5 -23 -3
-28 5 -6 10 -8 9 -8 -3z"/>
<path d="M2690 1754 c0 -13 -3 -14 -15 -4 -9 8 -15 9 -15 2 0 -19 22 -25 37
-9 10 10 11 17 4 21 -6 4 -11 0 -11 -10z"/>
<path d="M2710 1726 c0 -9 -8 -16 -17 -16 -13 0 -14 -3 -5 -12 8 -8 15 -8 25
1 12 9 16 8 21 -4 3 -10 0 -15 -11 -15 -13 0 -14 -3 -5 -12 10 -9 15 -9 26 2
13 13 12 19 -10 43 -16 19 -24 23 -24 13z"/>
<path d="M2931 1724 c0 -11 3 -14 6 -6 3 7 2 16 -1 19 -3 4 -6 -2 -5 -13z"/>
<path d="M2773 1678 c3 -9 0 -21 -6 -27 -8 -8 -7 -11 6 -11 19 0 23 35 5 46
-7 5 -9 2 -5 -8z"/>
<path d="M2819 1666 c9 -11 9 -15 -1 -19 -7 -2 -10 -8 -5 -12 4 -5 12 -4 18 2
14 14 5 43 -12 43 -9 0 -9 -3 0 -14z"/>
<path d="M2890 1670 c-8 -5 -12 -12 -9 -15 4 -3 12 1 19 10 14 17 11 19 -10 5z"/>
<path d="M2940 1567 c-18 -11 -28 -23 -22 -25 7 -2 12 -10 12 -18 0 -11 6 -11
35 3 19 9 35 20 35 25 0 11 -14 10 -27 -3 -7 -7 -12 -6 -16 5 -4 10 -1 13 7
10 15 -6 31 12 18 20 -4 2 -23 -5 -42 -17z m13 -21 c4 -10 1 -13 -8 -9 -8 3
-12 9 -9 14 7 12 11 11 17 -5z"/>
<path d="M4317 1253 c16 -21 49 -68 73 -105 26 -40 47 -63 51 -57 4 7 21 10
38 7 17 -2 31 -1 31 3 0 8 -11 12 -62 23 -28 6 -86 71 -74 83 3 3 1 12 -5 19
-15 18 6 27 31 14 11 -6 20 -7 20 -1 0 12 -25 21 -60 21 -15 0 -33 7 -40 15
-27 33 -30 12 -3 -22z"/>
<path d="M3849 1265 c18 -8 37 -15 42 -15 14 0 10 17 -3 17 -7 0 -26 4 -43 7
-30 7 -30 7 4 -9z"/>
<path d="M4286 1243 c16 -68 48 -135 69 -149 13 -9 26 -23 28 -32 3 -9 3 0 2
21 -2 24 -20 65 -50 112 -25 41 -48 75 -51 75 -2 0 -1 -12 2 -27z"/>
<path d="M3279 1213 c-13 -16 -12 -17 4 -4 16 13 21 21 13 21 -2 0 -10 -8 -17
-17z"/>
<path d="M3654 1212 c-36 -25 -13 -73 25 -52 24 12 28 25 6 16 -17 -6 -21 9
-5 19 6 3 10 10 10 16 0 11 -21 12 -36 1z"/>
<path d="M4450 1212 c0 -12 19 -26 26 -19 2 2 -2 10 -11 17 -9 8 -15 8 -15 2z"/>
<path d="M4509 1199 c13 -5 36 -18 52 -30 16 -11 29 -16 29 -10 0 16 -56 51
-82 50 l-23 0 24 -10z"/>
<path d="M2775 1160 c-3 -6 1 -7 9 -4 18 7 21 14 7 14 -6 0 -13 -4 -16 -10z"/>
<path d="M3378 1121 c9 -16 19 -28 21 -25 6 6 -21 54 -30 54 -5 0 0 -13 9 -29z"/>
<path d="M2719 1113 c-13 -16 -12 -17 4 -4 9 7 17 15 17 17 0 8 -8 3 -21 -13z"/>
<path d="M3080 1070 c-8 -5 -10 -10 -5 -10 6 0 17 5 25 10 8 5 11 10 5 10 -5
0 -17 -5 -25 -10z"/>
<path d="M4625 1069 c-5 -7 -21 -8 -43 -4 l-36 7 43 -49 c63 -70 156 -199 191
-264 34 -64 93 -222 81 -217 -5 2 -29 29 -56 62 -43 54 -155 261 -155 288 0 6
-3 9 -6 5 -8 -7 49 -150 84 -209 33 -58 141 -180 152 -173 10 6 -3 65 -33 149
-26 71 -132 237 -210 329 -46 55 -47 57 -23 57 26 0 43 15 27 24 -5 4 -13 1
-16 -5z"/>
<path d="M3111 1055 c1 -19 18 -51 18 -35 0 8 -4 22 -9 30 -5 8 -9 11 -9 5z"/>
<path d="M2856 1030 c-14 -16 -27 -82 -15 -75 4 3 12 -2 19 -10 7 -8 17 -15
23 -15 7 0 7 4 -1 12 -18 18 -15 27 8 21 12 -3 20 0 20 7 0 7 8 9 22 5 17 -6
20 -4 14 10 -3 9 -9 27 -12 39 -4 18 -12 23 -35 22 -17 -1 -36 -8 -43 -16z"/>
<path d="M3421 1045 c0 -5 11 -30 24 -55 13 -25 24 -40 24 -35 0 6 -11 30 -24
55 -13 25 -24 41 -24 35z"/>
<path d="M3740 959 c-36 -10 -49 -16 -30 -13 19 3 59 8 88 11 28 3 52 10 52
14 0 13 -36 9 -110 -12z"/>
<path d="M3628 933 c6 -2 18 -2 25 0 6 3 1 5 -13 5 -14 0 -19 -2 -12 -5z"/>
<path d="M3543 918 c-24 -5 -43 -13 -43 -18 0 -8 97 14 108 24 7 8 -14 6 -65
-6z"/>
<path d="M3135 881 c3 -24 8 -47 11 -50 4 -3 4 4 1 17 -3 12 -1 22 3 22 5 0
11 -12 13 -27 2 -16 4 -7 3 20 0 26 -4 47 -8 47 -4 0 -8 -6 -9 -12 0 -7 -5 -4
-10 7 -6 14 -8 8 -4 -24z"/>
<path d="M4511 885 c1 -19 18 -51 18 -35 0 8 -4 22 -9 30 -5 8 -9 11 -9 5z"/>
<path d="M3820 865 c0 -3 46 -36 103 -73 262 -176 248 -165 242 -192 -6 -24
-6 -24 13 -7 19 18 22 18 60 -2 44 -22 53 -48 41 -121 -3 -19 0 -45 6 -57 l12
-23 11 25 c17 37 14 74 -8 124 -27 58 -34 63 -272 205 -46 28 -109 67 -140 88
-56 37 -68 43 -68 33z"/>
<path d="M4890 812 c0 -4 5 -13 10 -18 18 -18 130 -344 130 -379 0 -5 -10 -15
-22 -20 -13 -6 -24 -19 -26 -30 -2 -15 -1 -17 6 -6 6 8 19 12 30 9 13 -4 23 0
26 9 7 16 -24 145 -54 226 -10 29 -26 77 -35 107 -9 30 -19 61 -21 68 -10 22
34 13 51 -10 l17 -23 -7 25 c-4 14 -12 31 -17 38 -11 13 -88 17 -88 4z"/>
<path d="M4541 784 c0 -11 3 -14 6 -6 3 7 2 16 -1 19 -3 4 -6 -2 -5 -13z"/>
<path d="M3150 769 c0 -5 5 -7 10 -4 6 3 10 8 10 11 0 2 -4 4 -10 4 -5 0 -10
-5 -10 -11z"/>
<path d="M3778 768 c9 -9 15 -9 24 0 9 9 7 12 -12 12 -19 0 -21 -3 -12 -12z"/>
<path d="M3844 766 c1 -8 9 -23 18 -33 9 -10 22 -31 28 -47 6 -16 13 -26 16
-23 7 7 -21 60 -40 76 -9 7 -14 17 -11 21 3 5 1 11 -4 14 -5 4 -8 0 -7 -8z"/>
<path d="M3272 720 c0 -30 4 -68 8 -85 7 -29 8 -28 8 10 0 22 -3 60 -7 85 l-8
45 -1 -55z"/>
<path d="M2994 705 c-5 -30 -6 -55 -1 -55 4 0 5 -6 1 -12 -4 -7 -4 -10 1 -6 8
7 65 -57 65 -73 0 -17 -14 -8 -48 31 -19 23 -37 39 -40 36 -8 -8 70 -90 87
-92 9 -1 23 -4 31 -8 19 -8 65 38 75 74 5 19 4 21 -4 10 -9 -13 -11 -13 -11 2
0 9 6 19 13 21 6 3 7 6 2 6 -7 1 -9 17 -7 39 3 20 1 34 -3 30 -4 -4 -8 -27
-10 -51 -1 -24 -6 -50 -10 -57 -4 -7 -8 -21 -9 -31 -1 -19 -14 -27 -17 -11 -1
4 -15 15 -30 24 -41 25 -61 61 -65 120 -3 28 -6 53 -7 54 -2 2 -7 -21 -13 -51z"/>
<path d="M5007 708 c8 -46 13 -48 13 -5 0 21 -4 37 -10 37 -5 0 -7 -14 -3 -32z"/>
<path d="M4561 710 c0 -8 4 -22 9 -30 12 -18 12 -2 0 25 -6 13 -9 15 -9 5z"/>
<path d="M3903 636 c4 -10 7 -33 7 -52 0 -24 5 -34 16 -34 9 0 12 -5 8 -12 -4
-6 -3 -8 3 -5 11 7 4 77 -8 77 -5 0 -9 6 -9 14 0 8 -5 18 -12 22 -8 5 -9 2 -5
-10z"/>
<path d="M3246 410 c2 -118 5 -239 7 -269 2 -37 -1 -55 -10 -58 -15 -6 -18
-33 -4 -33 5 0 12 6 14 13 3 6 3 -5 0 -26 -4 -29 -2 -37 9 -37 23 0 38 23 31
48 -3 12 -9 22 -13 22 -4 0 -11 93 -15 208 -4 114 -11 239 -15 277 -6 47 -7 0
-4 -145z"/>
<path d="M3292 570 c0 -14 2 -19 5 -12 2 6 2 18 0 25 -3 6 -5 1 -5 -13z"/>
<path d="M4617 543 c-4 -3 -7 -18 -7 -32 1 -25 1 -25 15 -7 23 30 15 63 -8 39z"/>
<path d="M3418 498 c-2 -23 0 -35 7 -31 5 3 4 0 -2 -8 -7 -7 -13 -22 -12 -33
0 -21 0 -21 10 -1 9 20 9 20 6 0 -3 -22 -32 -27 -57 -10 -13 9 -13 8 -1 -7 7
-10 24 -18 36 -18 34 0 47 45 31 102 l-13 43 -5 -37z"/>
<path d="M3100 424 c0 -5 7 -18 15 -28 8 -11 15 -16 15 -10 0 5 -7 18 -15 28
-8 11 -15 16 -15 10z"/>
<path d="M4020 393 c-29 -21 -31 -24 -10 -18 26 7 57 32 49 39 -2 2 -20 -7
-39 -21z"/>
<path d="M4670 408 c0 -16 49 -218 55 -229 5 -6 8 -33 7 -58 -1 -33 2 -40 8
-26 7 18 8 19 15 3 4 -10 11 -18 15 -18 12 0 -11 71 -32 99 -10 13 -18 38 -18
55 0 30 -34 163 -45 174 -3 3 -5 3 -5 0z"/>
<path d="M4650 349 c0 -13 4 -30 9 -38 6 -9 8 -4 6 18 -3 38 -15 54 -15 20z"/>
<path d="M3104 331 c20 -22 26 -25 26 -13 0 4 -10 13 -22 21 -23 14 -23 14 -4
-8z"/>
<path d="M5030 304 c-6 -14 -10 -30 -10 -35 0 -5 -8 -9 -17 -9 -14 0 -15 -2
-4 -12 10 -11 16 -8 31 12 18 23 28 70 15 70 -3 0 -10 -12 -15 -26z"/>
<path d="M2720 305 c-9 -10 -9 -15 -1 -15 6 0 11 4 11 10 0 5 7 7 15 4 8 -4
15 -1 15 5 0 16 -25 13 -40 -4z"/>
<path d="M3181 303 c7 -12 15 -20 18 -17 3 2 -3 12 -13 22 -17 16 -18 16 -5
-5z"/>
<path d="M4115 290 c-4 -6 -11 -25 -16 -42 -15 -55 8 -105 85 -183 38 -38 59
-58 48 -44 -12 14 -19 29 -15 34 5 4 3 5 -3 2 -7 -4 -17 0 -24 8 -10 12 -9 15
4 15 12 0 7 11 -19 46 -19 25 -35 54 -35 65 0 10 -5 19 -10 19 -14 0 16 -69
42 -97 17 -19 19 -23 6 -23 -20 0 -58 76 -65 129 -3 21 0 48 6 60 12 21 8 30
-4 11z"/>
<path d="M3200 265 c0 -5 5 -17 10 -25 5 -8 10 -10 10 -5 0 6 -5 17 -10 25 -5
8 -10 11 -10 5z"/>
<path d="M2647 249 c7 -7 15 -10 18 -7 3 3 -2 9 -12 12 -14 6 -15 5 -6 -5z"/>
<path d="M4127 254 c-3 -3 -3 -13 0 -21 5 -12 7 -12 14 -1 15 23 4 40 -14 22z"/>
<path d="M4819 174 c-28 -55 -31 -67 -21 -89 16 -35 26 -26 46 39 26 81 39 88
84 43 35 -35 37 -41 37 -102 0 -63 7 -81 19 -49 29 77 -37 220 -103 222 -27 1
-33 -6 -62 -64z"/>
<path d="M5055 89 c-4 -31 -5 -65 -2 -75 3 -11 5 -2 6 19 1 48 19 48 24 0 l4
-38 1 40 c0 22 -5 56 -12 75 l-13 35 -8 -56z"/>
<path d="M3188 73 c6 -2 18 -2 25 0 6 3 1 5 -13 5 -14 0 -19 -2 -12 -5z"/>
<path d="M4088 40 c20 -46 34 -53 22 -10 -10 36 -19 50 -30 50 -5 0 -1 -18 8
-40z"/>
<path d="M3373 53 c4 -3 2 -12 -4 -19 -13 -16 3 -26 45 -30 17 -1 25 0 19 3
-7 2 -13 9 -13 14 0 6 5 7 10 4 6 -3 10 -4 10 -1 0 3 -13 12 -30 21 -30 16
-48 20 -37 8z"/>
<path d="M4230 56 c0 -2 8 -10 18 -17 15 -13 16 -12 3 4 -13 16 -21 21 -21 13z"/>
</g>
</svg>
