<?xml version="1.0" encoding="UTF-8"?>
<!DOCTYPE svg PUBLIC "-//W3C//DTD SVG 1.1//EN" "http://www.w3.org/Graphics/SVG/1.1/DTD/svg11.dtd">
<svg xmlns="http://www.w3.org/2000/svg" version="1.1" width="300px" height="168px" style="shape-rendering:geometricPrecision; text-rendering:geometricPrecision; image-rendering:optimizeQuality; fill-rule:evenodd; clip-rule:evenodd" xmlns:xlink="http://www.w3.org/1999/xlink">
<g><path style="opacity:1" fill="#0293d8" d="M -0.5,-0.5 C 99.5,-0.5 199.5,-0.5 299.5,-0.5C 299.5,55.5 299.5,111.5 299.5,167.5C 199.5,167.5 99.5,167.5 -0.5,167.5C -0.5,111.5 -0.5,55.5 -0.5,-0.5 Z"/></g>
<g><path style="opacity:1" fill="#e2ab1c" d="M 172.5,13.5 C 173.5,13.5 174.5,13.5 175.5,13.5C 175.5,15.1667 175.5,16.8333 175.5,18.5C 174.5,18.5 173.5,18.5 172.5,18.5C 172.714,20.1439 172.38,21.6439 171.5,23C 156.837,23.4999 142.17,23.6666 127.5,23.5C 141.692,22.7839 156.025,22.1172 170.5,21.5C 170.5,20.5 170.5,19.5 170.5,18.5C 167.102,18.8583 163.935,18.1916 161,16.5C 152.154,17.8205 143.321,17.8205 134.5,16.5C 130.64,19.1921 127.307,18.8588 124.5,15.5C 140.132,13.5152 156.132,12.8486 172.5,13.5 Z"/></g>
<g><path style="opacity:1" fill="#f28f10" d="M 124.5,15.5 C 127.307,18.8588 130.64,19.1921 134.5,16.5C 143.321,17.8205 152.154,17.8205 161,16.5C 163.935,18.1916 167.102,18.8583 170.5,18.5C 170.5,19.5 170.5,20.5 170.5,21.5C 156.025,22.1172 141.692,22.7839 127.5,23.5C 127.167,23.5 126.833,23.5 126.5,23.5C 125.791,22.596 124.791,22.2627 123.5,22.5C 123.669,20.088 123.003,17.9214 121.5,16C 122.176,14.3167 123.176,14.1501 124.5,15.5 Z"/></g>
<g><path style="opacity:1" fill="#faee0e" d="M 175.5,18.5 C 176.795,19.4884 178.128,20.4884 179.5,21.5C 179.407,27.6363 178.407,33.6363 176.5,39.5C 175.818,40.2427 175.151,40.9094 174.5,41.5C 173.967,38.4752 172.133,37.1419 169,37.5C 157.458,39.2082 151.291,45.8748 150.5,57.5C 145.405,57.2213 140.405,57.5546 135.5,58.5C 134.127,58.3433 132.793,58.51 131.5,59C 133.345,60.128 135.345,60.628 137.5,60.5C 137.833,60.5 138.167,60.5 138.5,60.5C 134.392,62.3299 134.725,63.3299 139.5,63.5C 139.5,63.8333 139.5,64.1667 139.5,64.5C 136.5,64.5 133.5,64.5 130.5,64.5C 127.833,64.5 125.167,64.5 122.5,64.5C 122.5,52.8333 122.5,41.1667 122.5,29.5C 121.5,29.5 120.5,29.5 119.5,29.5C 119.5,27.5 119.5,25.5 119.5,23.5C 121.833,23.5 124.167,23.5 126.5,23.5C 126.833,23.5 127.167,23.5 127.5,23.5C 142.17,23.6666 156.837,23.4999 171.5,23C 172.38,21.6439 172.714,20.1439 172.5,18.5C 173.5,18.5 174.5,18.5 175.5,18.5 Z"/></g>
<g><path style="opacity:1" fill="#f0e8d0" d="M 135.5,31.5 C 141.554,37.9672 148.554,39.1338 156.5,35C 158.821,32.1917 160.488,29.025 161.5,25.5C 161.833,26.5 162.167,27.5 162.5,28.5C 161.345,32.9965 158.679,36.1632 154.5,38C 147.715,39.5149 141.548,38.3482 136,34.5C 135.517,33.552 135.351,32.552 135.5,31.5 Z"/></g>
<g><path style="opacity:1" fill="#f0e8cd" d="M 135.5,31.5 C 133.439,30.2486 133.106,28.5819 134.5,26.5C 135.452,28.0453 135.785,29.712 135.5,31.5 Z"/></g>
<g><path style="opacity:1" fill="#f6eb11" d="M 169.5,46.5 C 171.144,46.2865 172.644,46.6198 174,47.5C 174.615,54.2417 174.115,60.9084 172.5,67.5C 172.167,66.1667 171.833,64.8333 171.5,63.5C 170.307,65.5267 168.64,67.0267 166.5,68C 166.833,68.3333 167.167,68.6667 167.5,69C 165.579,69.3603 163.912,70.1936 162.5,71.5C 161.304,71.1543 161.304,70.6543 162.5,70C 161.552,69.5172 160.552,69.3505 159.5,69.5C 159.804,68.8501 160.137,68.1835 160.5,67.5C 166.875,67.1259 169.541,63.7926 168.5,57.5C 166.5,57.5 164.5,57.5 162.5,57.5C 162.203,54.2761 162.87,51.2761 164.5,48.5C 165.85,47.0499 167.516,46.3832 169.5,46.5 Z"/></g>
<g><path style="opacity:1" fill="#238fcf" d="M 174.5,41.5 C 174.5,42.8333 174.5,44.1667 174.5,45.5C 172.585,45.2155 170.919,45.5489 169.5,46.5C 167.516,46.3832 165.85,47.0499 164.5,48.5C 162.87,51.2761 162.203,54.2761 162.5,57.5C 164.5,57.5 166.5,57.5 168.5,57.5C 169.541,63.7926 166.875,67.1259 160.5,67.5C 160.137,68.1835 159.804,68.8501 159.5,69.5C 159.5,70.8333 159.5,72.1667 159.5,73.5C 158.596,74.209 158.263,75.209 158.5,76.5C 155.833,76.5 153.167,76.5 150.5,76.5C 149.833,74.1667 149.167,71.8333 148.5,69.5C 148.5,68.5 148.5,67.5 148.5,66.5C 145.5,65.8333 142.5,65.1667 139.5,64.5C 139.5,64.1667 139.5,63.8333 139.5,63.5C 139.737,62.209 139.404,61.209 138.5,60.5C 138.167,60.5 137.833,60.5 137.5,60.5C 136.833,59.8333 136.167,59.1667 135.5,58.5C 140.405,57.5546 145.405,57.2213 150.5,57.5C 151.291,45.8748 157.458,39.2082 169,37.5C 172.133,37.1419 173.967,38.4752 174.5,41.5 Z"/></g>
<g><path style="opacity:1" fill="#629d82" d="M 135.5,58.5 C 136.167,59.1667 136.833,59.8333 137.5,60.5C 135.345,60.628 133.345,60.128 131.5,59C 132.793,58.51 134.127,58.3433 135.5,58.5 Z"/></g>
<g><path style="opacity:1" fill="#7fb67d" d="M 138.5,60.5 C 139.404,61.209 139.737,62.209 139.5,63.5C 134.725,63.3299 134.392,62.3299 138.5,60.5 Z"/></g>
<g><path style="opacity:1" fill="#56a38f" d="M 130.5,64.5 C 133.5,64.5 136.5,64.5 139.5,64.5C 142.5,65.1667 145.5,65.8333 148.5,66.5C 142.074,67.12 136.074,66.4533 130.5,64.5 Z"/></g>
<g><path style="opacity:1" fill="#edd922" d="M 172.5,13.5 C 156.132,12.8486 140.132,13.5152 124.5,15.5C 123.176,14.1501 122.176,14.3167 121.5,16C 123.003,17.9214 123.669,20.088 123.5,22.5C 124.791,22.2627 125.791,22.596 126.5,23.5C 124.167,23.5 121.833,23.5 119.5,23.5C 119.5,25.5 119.5,27.5 119.5,29.5C 120.5,29.5 121.5,29.5 122.5,29.5C 122.5,41.1667 122.5,52.8333 122.5,64.5C 125.167,64.5 127.833,64.5 130.5,64.5C 136.074,66.4533 142.074,67.12 148.5,66.5C 148.5,67.5 148.5,68.5 148.5,69.5C 147.833,69.5 147.5,69.8333 147.5,70.5C 144.603,70.3187 141.77,70.6521 139,71.5C 138.5,71.1667 138,70.8333 137.5,70.5C 139.423,69.6922 141.423,69.1922 143.5,69C 140.131,68.3374 136.797,68.5041 133.5,69.5C 131.627,69.5177 131.294,69.0177 132.5,68C 128.168,67.4167 123.835,66.9167 119.5,66.5C 118.596,58.1966 118.096,46.5299 118,31.5C 116.653,45.7965 116.153,60.1299 116.5,74.5C 115.338,57.0048 115.171,39.3381 116,21.5C 117.154,20.2567 118.488,19.2567 120,18.5C 120.202,16.7444 120.702,15.0777 121.5,13.5C 138.628,12.1749 155.628,12.1749 172.5,13.5 Z"/></g>
<g><path style="opacity:1" fill="#f9d00d" d="M 147.5,70.5 C 147.5,72.5 147.5,74.5 147.5,76.5C 137.833,76.5 128.167,76.5 118.5,76.5C 117.5,76.1667 116.833,75.5 116.5,74.5C 116.153,60.1299 116.653,45.7965 118,31.5C 118.096,46.5299 118.596,58.1966 119.5,66.5C 123.835,66.9167 128.168,67.4167 132.5,68C 131.294,69.0177 131.627,69.5177 133.5,69.5C 136.797,68.5041 140.131,68.3374 143.5,69C 141.423,69.1922 139.423,69.6922 137.5,70.5C 138,70.8333 138.5,71.1667 139,71.5C 141.77,70.6521 144.603,70.3187 147.5,70.5 Z"/></g>
<g><path style="opacity:1" fill="#f1cc16" d="M 179.5,21.5 C 179.833,21.5 180.167,21.5 180.5,21.5C 180.667,39.1698 180.5,56.8365 180,74.5C 179.005,75.0659 178.172,75.7326 177.5,76.5C 171.5,76.5 165.5,76.5 159.5,76.5C 159.5,75.5 159.5,74.5 159.5,73.5C 159.5,72.1667 159.5,70.8333 159.5,69.5C 160.552,69.3505 161.552,69.5172 162.5,70C 161.304,70.6543 161.304,71.1543 162.5,71.5C 163.912,70.1936 165.579,69.3603 167.5,69C 167.167,68.6667 166.833,68.3333 166.5,68C 168.64,67.0267 170.307,65.5267 171.5,63.5C 171.833,64.8333 172.167,66.1667 172.5,67.5C 174.115,60.9084 174.615,54.2417 174,47.5C 172.644,46.6198 171.144,46.2865 169.5,46.5C 170.919,45.5489 172.585,45.2155 174.5,45.5C 174.5,44.1667 174.5,42.8333 174.5,41.5C 175.151,40.9094 175.818,40.2427 176.5,39.5C 178.407,33.6363 179.407,27.6363 179.5,21.5 Z"/></g>
<g><path style="opacity:1" fill="#255c84" d="M 180.5,21.5 C 181.662,39.662 181.829,57.9954 181,76.5C 180.5,77 180,77.5 179.5,78C 158.974,79.2239 138.307,79.2239 117.5,78C 118.056,77.6174 118.389,77.1174 118.5,76.5C 128.167,76.5 137.833,76.5 147.5,76.5C 147.5,74.5 147.5,72.5 147.5,70.5C 147.5,69.8333 147.833,69.5 148.5,69.5C 149.167,71.8333 149.833,74.1667 150.5,76.5C 153.167,76.5 155.833,76.5 158.5,76.5C 164.833,77.8333 171.167,77.8333 177.5,76.5C 178.172,75.7326 179.005,75.0659 180,74.5C 180.5,56.8365 180.667,39.1698 180.5,21.5 Z"/></g>
<g><path style="opacity:1" fill="#5b6d53" d="M 159.5,73.5 C 159.5,74.5 159.5,75.5 159.5,76.5C 165.5,76.5 171.5,76.5 177.5,76.5C 171.167,77.8333 164.833,77.8333 158.5,76.5C 158.263,75.209 158.596,74.209 159.5,73.5 Z"/></g>
<g><path style="opacity:1" fill="#ecf8f6" d="M 108.5,98.5 C 115.19,97.3306 116.857,99.4973 113.5,105C 107.741,106.139 106.074,103.972 108.5,98.5 Z"/></g>
<g><path style="opacity:1" fill="#f0f7f8" d="M 106.5,108.5 C 108.833,108.5 111.167,108.5 113.5,108.5C 112.579,116.2 111.412,123.867 110,131.5C 108.246,133.25 106.079,133.917 103.5,133.5C 104.11,125.118 105.11,116.785 106.5,108.5 Z"/></g>
<g><path style="opacity:1" fill="#f3f9f9" d="M 68.5,98.5 C 75.5,98.5 82.5,98.5 89.5,98.5C 89.5,100.5 89.5,102.5 89.5,104.5C 84.8215,104.334 80.1548,104.501 75.5,105C 74.5562,107.719 74.2229,110.552 74.5,113.5C 78.1667,113.5 81.8333,113.5 85.5,113.5C 85.6427,115.262 85.3094,116.929 84.5,118.5C 80.5546,119.491 76.5546,119.824 72.5,119.5C 72.2051,123.898 71.5385,128.231 70.5,132.5C 68.2573,133.474 65.924,133.808 63.5,133.5C 64.8873,121.789 66.554,110.122 68.5,98.5 Z"/></g>
<g><path style="opacity:1" fill="#f3f9f8" d="M 178.5,107.5 C 183.88,107.324 189.213,107.658 194.5,108.5C 193.499,116.508 192.332,124.508 191,132.5C 187.613,134.318 185.613,133.318 185,129.5C 180.133,134.205 175.133,134.538 170,130.5C 166.848,120.443 169.681,112.777 178.5,107.5 Z"/></g>
<g><path style="opacity:1" fill="#f2f9f7" d="M 211.5,107.5 C 212.5,107.5 213.5,107.5 214.5,107.5C 214.662,109.527 214.495,111.527 214,113.5C 210.656,115.004 207.656,117.004 205,119.5C 204.084,123.832 203.251,128.165 202.5,132.5C 200.604,133.466 198.604,133.799 196.5,133.5C 196.859,125.09 197.859,116.757 199.5,108.5C 201.167,108.5 202.833,108.5 204.5,108.5C 204.238,109.978 204.571,111.311 205.5,112.5C 207.571,110.815 209.571,109.148 211.5,107.5 Z"/></g>
<g><path style="opacity:1" fill="#f1f8f8" d="M 148.5,98.5 C 150.5,98.5 152.5,98.5 154.5,98.5C 154.379,104.225 153.713,109.891 152.5,115.5C 152.833,116.5 153.167,117.5 153.5,118.5C 157.335,116.147 159.668,112.814 160.5,108.5C 162.833,108.5 165.167,108.5 167.5,108.5C 167.657,109.873 167.49,111.207 167,112.5C 165.014,115.646 163.181,118.813 161.5,122C 163.013,125.704 164.013,129.538 164.5,133.5C 162.076,133.808 159.743,133.474 157.5,132.5C 156.199,129.573 155.199,126.573 154.5,123.5C 153.5,123.5 152.5,123.5 151.5,123.5C 151.196,126.522 150.696,129.522 150,132.5C 147.959,133.423 145.792,133.756 143.5,133.5C 144.434,121.69 146.101,110.023 148.5,98.5 Z"/></g>
<g><path style="opacity:1" fill="#f5faf9" d="M 94.5,98.5 C 96.5,98.5 98.5,98.5 100.5,98.5C 99.9694,106.882 98.9694,115.215 97.5,123.5C 97.9349,125.74 98.6015,127.906 99.5,130C 99.5879,132.744 98.2546,133.91 95.5,133.5C 91.5,133.5 89.5,131.5 89.5,127.5C 90.9237,117.768 92.5904,108.101 94.5,98.5 Z"/></g>
<g><path style="opacity:1" fill="#1a94d3" d="M 179.5,113.5 C 181.833,113.5 184.167,113.5 186.5,113.5C 187.405,120.371 184.738,125.038 178.5,127.5C 176.239,126.652 175.239,124.985 175.5,122.5C 175.686,118.923 177.02,115.923 179.5,113.5 Z"/></g>
<g><path style="opacity:1" fill="#f3f9f8" d="M 221.5,101.5 C 223.5,101.5 225.5,101.5 227.5,101.5C 227.5,103.833 227.5,106.167 227.5,108.5C 228.833,108.5 230.167,108.5 231.5,108.5C 231.5,110.167 231.5,111.833 231.5,113.5C 229.5,113.5 227.5,113.5 225.5,113.5C 225.002,118.152 224.669,122.819 224.5,127.5C 225.833,127.5 227.167,127.5 228.5,127.5C 228.739,129.467 228.406,131.301 227.5,133C 224.007,134.004 220.841,133.504 218,131.5C 217.297,126.305 217.464,121.139 218.5,116C 217.22,113.64 216.553,111.14 216.5,108.5C 217.833,108.5 219.167,108.5 220.5,108.5C 220.448,106.097 220.781,103.764 221.5,101.5 Z"/></g>
<g><path style="opacity:1" fill="#f3f9f7" d="M 127.5,107.5 C 139.718,106.912 143.885,112.578 140,124.5C 136.193,131.988 130.027,135.155 121.5,134C 120.549,137.057 120.216,140.223 120.5,143.5C 118.167,143.5 115.833,143.5 113.5,143.5C 114.485,132.44 115.985,121.44 118,110.5C 119.401,108.808 121.234,108.141 123.5,108.5C 123.281,109.675 123.614,110.675 124.5,111.5C 126.55,110.923 127.55,109.59 127.5,107.5 Z"/></g>
<g><path style="opacity:1" fill="#1f93d3" d="M 128.5,113.5 C 130.144,113.286 131.644,113.62 133,114.5C 135.583,124.061 132.083,128.394 122.5,127.5C 122.399,121.87 124.399,117.204 128.5,113.5 Z"/></g>
</svg>
