<?xml version="1.0" encoding="utf-8"?>
<!-- Generator: Adobe Illustrator 19.2.1, SVG Export Plug-In . SVG Version: 6.00 Build 0)  -->
<svg version="1.1" id="layer" xmlns="http://www.w3.org/2000/svg" xmlns:xlink="http://www.w3.org/1999/xlink" x="0px" y="0px"
	 viewBox="0 0 652 652" style="enable-background:new 0 0 652 652;" xml:space="preserve">
<style type="text/css">
	.st0{fill:#0070BF;}
</style>
<g>
	<path class="st0" d="M81,329.1l-0.2,0h-0.2c-7.2,0-13.1-1.6-17.4-4.1c4.3-2.5,10.2-4.1,17.4-4.1H81c7.2,0,13.1,1.6,17.4,4.1
		C94.1,327.4,88.2,329.1,81,329.1z M115.7,325c12.1-4.9,20.1-12.2,20.5-20.4c0,0-3.2-2.3-13.6-5.8c-9.1-3.1-16-3.8-16-3.8l0,18.2
		c0,2.7-1.2,5.5-3.4,7.9c-6.9-1.5-14.5-2.4-22.4-2.4h0c-8,0-15.6,0.9-22.4,2.4c-2.2-2.5-3.4-5.2-3.4-7.9l0-18.2c0,0-6.9,0.7-16,3.8
		c-10.4,3.5-13.6,5.8-13.6,5.8c0.4,8.2,8.4,15.5,20.5,20.4c-12.1,4.9-20.1,12.2-20.5,20.4c0,0,3.2,2.3,13.6,5.8
		c9.1,3.1,16,3.8,16,3.8l0-18.2c0-2.7,1.2-5.5,3.4-7.9c6.9,1.5,14.5,2.4,22.4,2.4h0c8,0,15.6-0.9,22.4-2.4c2.2,2.5,3.4,5.2,3.4,7.9
		l0,18.2c0,0,6.9-0.7,16-3.8c10.3-3.5,13.6-5.8,13.6-5.8C135.8,337.2,127.8,329.9,115.7,325L115.7,325z M215.7,304.6
		c-2.5,0-4.7,0.5-6.8,1.6c-2.1,1.1-4,2.9-5.9,5.3c-0.8-2.3-2.1-4-3.9-5.2c-1.9-1.2-4.2-1.8-7.2-1.8c-2.2,0-4.4,0.6-6.3,1.6
		c-2,1.1-3.8,2.8-5.3,5v-5.4h-10.5v40.3h10.8v-24.3c0-2.2,0.8-4.3,2.4-5.9c0.9-0.9,1.8-1.5,2.7-1.9c0.9-0.4,1.9-0.5,3-0.5
		c0.7,0,1.3,0.1,1.9,0.3c0.6,0.2,1.1,0.6,1.6,1.1c0.4,0.5,0.8,1.2,1,2.1c0.3,0.9,0.4,2.1,0.4,3.5v25.5h10.8v-24.7c0-1,0.2-2,0.7-2.9
		c0.4-0.9,1-1.7,1.7-2.5c0.9-0.9,1.8-1.5,2.7-1.9c0.9-0.4,1.9-0.5,3-0.5c0.7,0,1.3,0.1,1.9,0.3c0.6,0.2,1.1,0.6,1.6,1.1
		c0.4,0.5,0.8,1.2,1,2.1c0.3,0.9,0.4,2.1,0.4,3.5v25.5h10.8v-27c0-5.2-1-8.9-3.1-11.2C223,305.7,219.8,304.6,215.7,304.6
		 M253.1,332.3l-9.4-26.5h-12.5l16.8,38.6l-1.2,3.4c-0.6,1.8-1.4,3-2.2,3.7c-0.9,0.7-2,1-3.5,1c-1.5,0-3.1-0.2-4.6-0.6l-1.8,8
		c1.4,0.5,2.8,0.8,4.1,1c1.3,0.2,2.6,0.3,4,0.3c2.2,0,4-0.3,5.5-0.9c1.4-0.6,2.7-1.4,3.8-2.6c1.1-1.2,2-2.6,2.8-4.3
		c0.8-1.7,1.7-3.8,2.6-6.1l16.3-41.5H262L253.1,332.3 M308.9,305.8h10.8v40.3h-10.8V305.8z M308.7,291h11.1v9.7h-11.1V291z
		 M296.2,290.4c-2,0-3.9,0.3-5.6,0.8c-1.6,0.5-3.2,1.4-4.4,2.5c-1.3,1.1-2.3,2.6-3,4.4c-0.7,1.8-1.1,3.9-1.1,6.4v1.3h-6.3v8.4h6.3
		v31.9h10.8v-31.9h9.4v-8.4h-9.4v-1.5c0-2.1,0.6-3.5,1.7-4.3c1.1-0.8,2.4-1.2,3.8-1.2c1.5,0,3.1,0.2,4.7,0.6l1.5-7.9
		c-1.4-0.5-2.9-0.8-4.4-0.9C298.9,290.5,297.5,290.4,296.2,290.4 M348.3,338.2c-0.7,0.1-1.5,0.1-2.2,0.1c-1.4,0-2.5-0.4-3.4-1.1
		c-0.9-0.7-1.3-2.2-1.3-4.3v-18.6h9.3v-8.4h-9.3v-10.7h-10.8v10.7h-6.3v8.4h6.3v18.9c0,5,1.1,8.5,3.2,10.7c2.1,2.1,5.4,3.2,9.9,3.2
		c1.3,0,2.6-0.1,4.1-0.3c1.5-0.2,2.9-0.5,4.4-1l-1.5-8C349.8,337.9,349,338.1,348.3,338.2 M379.2,304.6c-2.4,0-4.6,0.5-6.8,1.6
		c-2.2,1.1-4.1,2.8-5.7,5.2v-5.6h-10.5v40.3H367v-24.3c0-1.2,0.2-2.3,0.7-3.3c0.5-1,1.1-1.9,1.8-2.6c0.9-0.8,1.8-1.4,2.8-1.8
		c1-0.4,2.2-0.6,3.6-0.6c1.8,0,3.2,0.5,4.3,1.5c1.1,1,1.6,3,1.6,5.8v25.2h10.8v-26.7c0-5.1-1.1-8.9-3.3-11.3
		C387.2,305.8,383.8,304.6,379.2,304.6 M410.2,321.5c0-1.2,0.3-2.3,0.7-3.4c0.4-1.1,1-2,1.7-2.8c0.8-0.8,1.7-1.5,2.7-1.9
		c1.1-0.5,2.3-0.7,3.8-0.7c2.9,0,5,0.8,6.4,2.3c1.4,1.5,2,3.7,2,6.5L410.2,321.5L410.2,321.5z M419.4,304.6c-3,0-5.7,0.5-8.2,1.4
		c-2.4,0.9-4.6,2.4-6.4,4.2c-1.8,1.9-3.2,4.1-4.1,6.8c-1,2.7-1.5,5.7-1.5,9.1c0,6.8,1.7,12.1,5.1,15.8c3.4,3.7,8.4,5.6,15.1,5.6
		c5.6,0,9.8-1.2,12.7-3.5c2.9-2.3,4.7-5.8,5.4-10.3h-10.5c-0.8,3.6-3.3,5.4-7.6,5.4c-3.1,0-5.4-0.9-7-2.7c-1.5-1.8-2.4-4.4-2.5-7.6
		h28v-4.3c0-6-1.6-10.8-4.7-14.4C430.3,306.4,425.6,304.6,419.4,304.6L419.4,304.6z M476,326c-1.1-1.1-2.6-1.9-4.4-2.7
		c-1.9-0.7-4.2-1.3-7-1.8l-5.1-0.8c-2.3-0.4-3.9-0.9-4.7-1.5c-0.8-0.6-1.2-1.5-1.2-2.8c0-0.4,0.1-0.9,0.4-1.3
		c0.2-0.5,0.6-0.9,1.2-1.2c0.5-0.4,1.3-0.7,2.2-0.9c1-0.2,2.2-0.3,3.6-0.3c2.6,0,4.4,0.4,5.6,1.3c1.2,0.9,2,2.2,2.4,4.1l9.7-1.2
		c-0.3-1.7-0.8-3.3-1.5-4.8c-0.7-1.5-1.8-2.8-3.1-3.9c-1.4-1.1-3.1-1.9-5.3-2.6c-2.2-0.6-4.8-1-8-1c-2.6,0-4.9,0.3-7.1,0.9
		c-2.1,0.6-4,1.4-5.5,2.5c-1.5,1-2.7,2.4-3.6,3.9c-0.9,1.5-1.3,3.3-1.3,5.3c0,3.8,1.2,6.7,3.6,8.5c2.4,1.9,6,3.2,10.9,4l5.6,0.9
		c2,0.3,3.3,0.8,4,1.6c0.7,0.8,1,1.7,1,2.7c0,1.4-0.6,2.5-1.7,3.1c-1.1,0.6-2.9,1-5.5,1c-2.2,0-4-0.4-5.6-1.1
		c-1.5-0.7-2.5-2.3-2.9-4.6h-10.4c0.2,2.7,0.8,5,1.9,6.8c1.1,1.8,2.5,3.2,4.2,4.3c1.7,1.1,3.7,1.8,5.9,2.3c2.2,0.4,4.5,0.7,6.9,0.7
		c6,0,10.5-1.1,13.4-3.4c2.9-2.3,4.3-5.3,4.3-9.2c0-1.9-0.2-3.6-0.7-5C477.9,328.3,477.1,327.1,476,326 M516.3,326
		c-1.1-1.1-2.6-1.9-4.4-2.7c-1.9-0.7-4.2-1.3-7-1.8l-5.1-0.8c-2.3-0.4-3.9-0.9-4.7-1.5c-0.8-0.6-1.2-1.5-1.2-2.8
		c0-0.4,0.1-0.9,0.4-1.3c0.2-0.5,0.6-0.9,1.2-1.2c0.5-0.4,1.3-0.7,2.2-0.9c1-0.2,2.2-0.3,3.6-0.3c2.6,0,4.4,0.4,5.6,1.3
		c1.2,0.9,2,2.2,2.4,4.1l9.7-1.2c-0.3-1.7-0.8-3.3-1.5-4.8c-0.7-1.5-1.8-2.8-3.1-3.9c-1.4-1.1-3.1-1.9-5.3-2.6c-2.2-0.6-4.8-1-8-1
		c-2.6,0-4.9,0.3-7.1,0.9c-2.1,0.6-4,1.4-5.5,2.5c-1.5,1-2.7,2.4-3.6,3.9c-0.9,1.5-1.3,3.3-1.3,5.3c0,3.8,1.2,6.7,3.6,8.5
		c2.4,1.9,6,3.2,10.9,4l5.6,0.9c2,0.3,3.3,0.8,4,1.6c0.7,0.8,1,1.7,1,2.7c0,1.4-0.6,2.5-1.7,3.1c-1.1,0.6-2.9,1-5.5,1
		c-2.2,0-4-0.4-5.6-1.1c-1.5-0.7-2.5-2.3-2.9-4.6h-10.4c0.2,2.7,0.8,5,1.9,6.8c1.1,1.8,2.5,3.2,4.2,4.3c1.8,1.1,3.8,1.9,5.9,2.3
		c2.2,0.4,4.5,0.7,6.9,0.7c6,0,10.5-1.1,13.4-3.4c2.9-2.3,4.3-5.3,4.3-9.2c0-1.9-0.2-3.6-0.7-5C518.2,328.3,517.4,327.1,516.3,326
		 M553.4,331.9c-0.5,1.6-1.1,2.9-1.9,3.9c-0.7,1-1.7,1.7-2.8,2.2c-1.1,0.5-2.2,0.7-3.4,0.7c-1.1,0-2.2-0.1-3.2-0.4
		c-1.1-0.3-2.1-0.9-3.1-1.8c-1-1-1.7-2.3-2.1-3.8c-0.4-1.6-0.7-3.7-0.7-6.3v-1.2c0-2.3,0.2-4.2,0.7-5.7c0.4-1.4,1.2-2.7,2.3-3.7
		c0.9-0.8,1.9-1.3,2.9-1.7c1-0.4,2.1-0.5,3.5-0.5c1.2,0,2.3,0.2,3.4,0.7c1.1,0.4,2,1.2,2.7,2.2c0.8,1,1.4,2.3,1.8,3.9
		c0.4,1.6,0.7,3.6,0.7,5.9C554.1,328.3,553.9,330.3,553.4,331.9L553.4,331.9z M548.6,304.6c-5.4,0-9.6,2.2-12.7,6.6v-5.3h-10.5v55.3
		h10.8V342c1.7,2.2,3.6,3.6,5.6,4.3c1.9,0.7,3.9,1.1,6,1.1c2.7,0,5.2-0.5,7.3-1.5c2.1-1,4-2.5,5.5-4.4c1.5-1.9,2.7-4.1,3.5-6.8
		c0.8-2.6,1.2-5.5,1.2-8.7c0-6.6-1.4-11.9-4.2-15.7C558.4,306.5,554.2,304.6,548.6,304.6L548.6,304.6z M596.1,330.2
		c0,1.6-0.3,3-0.9,4.1c-0.6,1.1-1.4,2-2.4,2.7c-1.8,1.3-4,1.9-6.8,1.9c-1.6,0-2.9-0.4-3.9-1.2c-0.9-0.8-1.4-1.8-1.4-3.2
		c0-0.8,0.1-1.6,0.4-2.4c0.3-0.7,0.8-1.4,1.5-1.9c0.7-0.5,1.8-1,3.2-1.4c1.4-0.4,3.2-0.6,5.5-0.7l4.8-0.2V330.2z M602.8,308.9
		c-1.3-1.4-3-2.5-5.2-3.2c-2.2-0.7-4.8-1.1-7.9-1.1c-5.1,0-9.1,0.9-12.1,2.8c-3,1.9-4.8,4.9-5.6,9.2l9.9,0.9
		c0.6-3.2,3.1-4.9,7.3-4.9c1.9,0,3.5,0.5,4.8,1.4c1.4,0.9,2,2.6,2,5.1v2l-5.2,0.2c-2.6,0.1-5.1,0.4-7.6,0.8
		c-2.3,0.4-4.6,1.1-6.8,2.1c-1.9,0.9-3.6,2.3-4.9,4.1c-1.2,1.8-1.9,4-1.9,6.8c0,2.1,0.4,3.9,1.1,5.4c0.7,1.5,1.7,2.7,2.9,3.7
		c1.3,1,2.7,1.7,4.2,2.2c1.6,0.5,3.3,0.7,5.1,0.7c3.1,0,5.7-0.6,7.7-1.7c2-1.2,3.8-2.7,5.4-4.4v5.1h10.2v-25.5
		c0-2.5-0.3-4.7-0.9-6.7C605.1,312.1,604.1,310.4,602.8,308.9z M614.5,291h10.8v55.2h-10.8V291z"/>
</g>
</svg>
