<?xml version="1.0" standalone="no"?>
<!DOCTYPE svg PUBLIC "-//W3C//DTD SVG 20010904//EN"
 "http://www.w3.org/TR/2001/REC-SVG-20010904/DTD/svg10.dtd">
<svg version="1.0" xmlns="http://www.w3.org/2000/svg"
 width="800.000000pt" height="599.000000pt" viewBox="0 0 800.000000 599.000000"
 preserveAspectRatio="xMidYMid meet">

<g transform="translate(0.000000,599.000000) scale(0.100000,-0.100000)"
fill="#000000" stroke="none">
<path d="M0 2995 l0 -2995 4000 0 4000 0 0 2995 0 2995 -4000 0 -4000 0 0
-2995z m3422 2146 c13 -11 30 -38 38 -60 13 -39 107 -161 371 -479 61 -73 117
-136 125 -139 25 -9 63 14 70 43 4 17 -1 40 -16 70 -16 33 -19 48 -11 58 6 7
49 32 96 56 98 48 128 49 185 1 31 -26 35 -34 35 -79 0 -58 -22 -94 -76 -129
-41 -26 -83 -63 -77 -69 3 -2 34 11 71 30 59 29 78 34 179 40 106 6 119 9 213
52 154 71 359 119 404 95 26 -14 27 -41 2 -72 -17 -21 -22 -22 -56 -12 -34 11
-43 9 -104 -21 -36 -18 -83 -36 -103 -40 -20 -4 -74 -24 -120 -46 -46 -21
-139 -55 -208 -76 -162 -48 -176 -63 -250 -268 -31 -86 -32 -90 -16 -123 9
-19 30 -52 47 -72 16 -21 38 -60 47 -86 9 -26 24 -51 32 -55 94 -43 143 -71
185 -106 145 -117 190 -144 327 -188 126 -42 259 -105 358 -171 63 -43 103
-55 193 -62 70 -5 80 -9 97 -33 24 -33 26 -58 6 -66 -8 -3 -61 -1 -118 4 -92
8 -109 13 -162 45 -32 20 -84 43 -115 52 -132 37 -445 140 -551 182 -191 75
-246 90 -373 98 -129 8 -121 10 -280 -88 -32 -19 -101 -54 -155 -77 -53 -23
-144 -73 -202 -110 -58 -37 -127 -74 -155 -83 -106 -34 -205 -56 -295 -67
-123 -15 -176 -38 -215 -96 -27 -40 -34 -44 -72 -44 -23 0 -45 5 -49 11 -4 8
-31 9 -86 4 -65 -5 -84 -4 -104 10 -31 20 -22 35 33 54 21 7 72 30 113 51 41
21 104 46 140 56 173 47 420 155 491 214 32 26 102 74 156 106 54 31 131 79
171 106 40 27 93 58 117 68 25 11 45 25 45 32 0 7 5 45 11 83 29 194 29 225 7
352 -21 118 -21 124 -4 159 14 29 16 51 10 108 l-7 71 -195 285 c-107 157
-211 299 -230 315 -72 60 -70 57 -61 93 8 26 14 32 38 32 16 0 39 -9 53 -19z
m343 -2642 c3 -4 3 -25 -1 -48 -6 -40 -7 -41 -47 -41 -44 0 -77 -22 -77 -52 0
-15 8 -18 50 -18 l50 0 0 -50 0 -50 -50 0 -50 0 0 -175 0 -175 -65 0 -65 0 0
175 0 175 -30 0 c-29 0 -30 1 -30 50 0 49 1 50 30 50 27 0 30 4 36 39 15 94
70 133 176 129 37 -2 70 -6 73 -9z m175 -55 l0 -54 -65 0 -65 0 0 55 0 54 58
3 c31 2 60 2 65 0 4 -2 7 -28 7 -58z m3390 -249 l0 -305 -60 0 -60 0 0 305 0
305 60 0 60 0 0 -305z m-6330 132 c6 -156 9 -161 95 -147 77 13 293 13 370 0
86 -14 89 -9 95 148 l5 127 35 -3 c50 -4 196 -50 253 -78 43 -22 47 -27 41
-52 -17 -65 -69 -119 -168 -173 l-48 -27 47 -23 c89 -44 174 -139 175 -196 0
-25 -290 -123 -326 -109 -11 4 -14 30 -14 125 0 98 -3 122 -17 140 -16 19 -22
20 -63 9 -58 -14 -342 -14 -400 0 -41 11 -47 10 -62 -9 -15 -18 -18 -42 -18
-140 0 -94 -3 -121 -14 -125 -31 -12 -291 70 -315 100 -31 38 62 154 163 205
l48 23 -48 27 c-99 54 -151 108 -168 173 -6 25 -2 30 41 52 69 34 248 87 278
81 6 -1 12 -56 15 -128z m3180 73 l0 -60 50 0 50 0 0 -50 0 -50 -50 0 -50 0 0
-120 c0 -132 4 -140 69 -140 30 0 32 -2 45 -62 5 -23 2 -29 -19 -34 -14 -3
-55 -4 -90 -2 -112 7 -135 47 -135 241 l0 117 -35 0 -35 0 0 50 0 50 35 0 35
0 0 53 c0 30 3 57 7 60 3 4 33 7 65 7 l58 0 0 -60z m-1590 -65 c16 -8 33 -22
38 -31 8 -15 14 -14 47 12 53 40 146 47 189 13 49 -39 56 -71 56 -264 l0 -176
-62 3 -63 3 -5 167 c-3 91 -8 170 -12 174 -16 16 -69 7 -93 -16 -25 -23 -25
-26 -25 -177 l0 -153 -65 0 -65 0 0 160 c0 147 -2 162 -20 180 -23 23 -30 24
-65 8 -46 -21 -55 -53 -55 -208 l0 -140 -60 0 -60 0 0 225 0 225 60 0 c58 0
60 -1 60 -25 l0 -26 23 22 c12 11 31 25 42 29 33 14 104 11 135 -5z m2101 -8
c50 -33 58 -69 58 -264 l1 -173 -65 0 -65 0 0 158 c0 182 -5 197 -65 195 -26
-1 -46 -9 -64 -27 -25 -26 -26 -30 -29 -176 -4 -163 0 -152 -62 -152 -66 0
-60 -21 -60 227 l0 225 60 0 c58 0 60 -1 60 -27 l0 -26 23 20 c38 34 60 42
118 43 42 0 64 -6 90 -23z m446 8 c77 -33 112 -93 113 -192 l0 -63 -154 0
-154 0 5 -22 c19 -88 106 -119 163 -58 25 27 35 30 85 30 54 0 56 -1 49 -22
-31 -101 -106 -146 -226 -135 -117 10 -185 78 -195 196 -12 129 25 213 111
256 59 30 146 34 203 10z m480 -5 c42 -19 83 -69 83 -102 0 -12 -13 -18 -48
-23 -45 -6 -51 -4 -80 24 -32 33 -69 39 -116 21 -18 -7 -26 -17 -26 -34 0 -27
11 -32 132 -56 97 -19 148 -67 148 -138 0 -52 -26 -96 -73 -123 -59 -34 -191
-34 -255 -1 -46 24 -82 73 -82 110 0 20 4 22 59 22 51 0 61 -3 66 -21 13 -41
110 -54 145 -19 16 16 18 25 10 40 -11 21 -24 26 -95 36 -76 10 -143 42 -161
76 -22 42 -20 105 3 137 50 68 196 94 290 51z m450 1 c43 -20 67 -48 78 -92 6
-26 5 -27 -45 -34 -50 -7 -54 -6 -75 21 -20 25 -30 29 -74 29 -60 0 -89 -21
-73 -52 8 -14 31 -23 84 -33 146 -26 190 -60 191 -150 1 -87 -54 -136 -165
-147 -119 -11 -209 33 -237 116 -6 19 -11 36 -11 37 0 2 29 4 65 4 50 0 65 -3
65 -14 0 -37 94 -61 141 -36 26 15 25 54 -3 67 -13 6 -51 16 -85 21 -123 21
-167 59 -167 143 0 57 25 91 89 120 55 25 166 25 222 0z m520 -9 c54 -38 78
-103 78 -207 -1 -101 -20 -152 -74 -198 -62 -52 -160 -59 -215 -16 l-25 20 -3
-98 -3 -98 -62 -3 -63 -3 0 311 0 310 60 0 c58 0 60 -1 60 -27 l0 -26 23 21
c34 32 67 42 132 39 44 -2 70 -9 92 -25z m470 2 c59 -44 67 -71 71 -261 l5
-173 -62 0 c-54 0 -61 2 -61 20 0 25 -4 25 -39 -1 -86 -63 -219 -33 -249 56
-37 112 37 183 211 200 66 6 67 7 67 35 0 60 -82 81 -128 33 -24 -25 -33 -28
-80 -25 -53 3 -54 4 -47 30 19 80 81 114 202 110 64 -2 87 -7 110 -24z m-3915
-123 c26 -74 50 -136 52 -138 2 -2 25 59 51 136 l47 141 64 0 c45 0 64 -4 64
-13 0 -23 -200 -519 -221 -548 -32 -45 -73 -62 -140 -57 -32 2 -61 7 -65 10
-3 4 -2 26 3 50 9 42 10 43 45 40 27 -3 42 2 57 17 42 42 39 60 -55 278 -49
113 -91 210 -92 215 -2 5 28 8 69 6 l74 -3 47 -134z m798 -84 c0 -123 -2 -226
-4 -228 -2 -2 -32 -2 -65 -1 l-61 4 0 224 0 224 65 0 65 0 0 -223z"/>
<path d="M1175 2155 c-80 -21 -87 -31 -39 -52 55 -24 233 -24 288 0 23 10 36
21 30 26 -37 34 -191 48 -279 26z"/>
<path d="M5010 2253 c-29 -11 -60 -47 -60 -70 0 -22 2 -23 90 -23 84 0 90 1
90 21 0 53 -64 92 -120 72z"/>
<path d="M6379 2221 c-30 -31 -35 -54 -30 -141 4 -59 15 -79 57 -96 29 -12 39
-12 68 0 41 17 55 41 63 106 15 127 -81 207 -158 131z"/>
<path d="M6960 2083 c-14 -2 -39 -6 -57 -9 -40 -6 -63 -28 -63 -59 0 -31 33
-49 78 -41 48 7 82 41 82 83 0 18 -3 32 -7 32 -5 -1 -19 -3 -33 -6z"/>
</g>
</svg>
