<?xml version="1.0" standalone="no"?>
<!DOCTYPE svg PUBLIC "-//W3C//DTD SVG 20010904//EN"
 "http://www.w3.org/TR/2001/REC-SVG-20010904/DTD/svg10.dtd">
<svg version="1.0" xmlns="http://www.w3.org/2000/svg"
 width="400.000000pt" height="225.000000pt" viewBox="0 0 400.000000 225.000000"
 preserveAspectRatio="xMidYMid meet">

<g transform="translate(0.000000,225.000000) scale(0.100000,-0.100000)"
fill="#000000" stroke="none">
<path d="M0 1125 l0 -1125 2000 0 2000 0 0 1125 0 1125 -2000 0 -2000 0 0
-1125z m821 469 c241 -72 392 -307 349 -544 -47 -262 -291 -441 -548 -402
-182 28 -327 149 -388 322 -77 223 27 484 238 591 95 48 247 63 349 33z m809
-312 c49 -24 80 -89 80 -164 0 -116 -54 -178 -153 -178 l-56 0 -3 -62 -3 -63
-47 -3 -48 -3 0 234 0 235 38 10 c62 17 153 14 192 -6z m220 -47 l5 -60 56 0
c114 -2 139 -44 139 -235 l0 -130 -40 0 c-53 0 -60 16 -60 141 0 81 -3 106
-17 121 -20 22 -69 24 -77 2 -3 -9 -6 -72 -6 -140 l0 -124 -44 0 -43 0 -6 68
c-4 54 -3 239 2 395 1 27 3 28 44 25 l42 -3 5 -60z m1514 51 c18 -8 45 -29 60
-48 23 -31 26 -44 26 -117 0 -95 -14 -129 -63 -160 -24 -15 -51 -21 -91 -21
l-56 0 0 -66 0 -65 -47 3 -48 3 -3 228 -2 228 32 14 c43 18 149 19 192 1z
m-1024 -131 c47 -25 60 -61 60 -174 0 -92 -2 -102 -26 -130 -46 -55 -161 -66
-224 -21 -42 30 -52 67 -48 174 3 89 5 97 33 126 16 17 43 35 60 40 38 12 107
5 145 -15z m342 5 c14 -7 35 -29 47 -50 18 -33 21 -54 21 -169 l0 -131 -40 0
c-53 0 -60 16 -60 144 0 119 -10 139 -64 134 l-31 -3 -3 -137 -3 -138 -44 0
c-40 0 -45 3 -46 23 -5 211 -5 297 1 307 21 34 162 47 222 20z m349 -1 c38
-20 59 -69 59 -136 l0 -63 -77 -1 c-43 -1 -86 -1 -95 0 -13 2 -18 -5 -18 -21
0 -39 16 -53 57 -50 114 8 108 10 111 -24 3 -30 0 -33 -43 -49 -32 -13 -60
-16 -95 -12 -99 12 -130 57 -130 187 0 119 20 155 99 181 31 10 104 4 132 -12z
m691 -5 c38 -19 58 -68 58 -138 l0 -55 -92 -3 -93 -3 -3 -27 c-5 -40 36 -54
94 -35 50 16 74 7 74 -28 0 -39 -43 -60 -121 -60 -73 0 -112 19 -136 66 -18
33 -17 191 1 234 29 68 134 92 218 49z"/>
<path d="M568 1463 c-10 -2 -18 -8 -18 -11 0 -4 37 -42 82 -84 l83 -78 -122 0
c-109 0 -123 -2 -132 -19 -13 -24 4 -46 42 -55 27 -6 27 -6 27 -97 0 -143 31
-184 141 -184 l69 0 0 -47 c0 -55 18 -78 61 -78 l29 0 0 199 c0 215 -1 211 56
211 17 0 24 6 24 19 0 30 -28 51 -68 51 -34 1 -44 9 -115 90 -81 93 -94 100
-159 83z m170 -342 c3 -102 -1 -111 -50 -111 -51 0 -68 30 -68 118 0 43 3 82
7 86 4 4 30 6 58 4 l50 -3 3 -94z"/>
<path d="M1500 1121 c0 -72 3 -90 16 -95 28 -11 44 -6 69 19 20 19 25 34 25
72 0 67 -20 93 -71 93 l-39 0 0 -89z"/>
<path d="M3258 1213 c-16 -4 -18 -17 -18 -94 0 -85 1 -89 24 -95 14 -3 37 1
55 10 30 16 31 19 31 81 0 61 -14 95 -40 95 -5 0 -14 2 -22 4 -7 2 -21 2 -30
-1z"/>
<path d="M2217 1072 c-21 -23 -24 -151 -5 -170 18 -18 75 -15 82 4 11 29 6
160 -6 172 -18 18 -53 15 -71 -6z"/>
<path d="M2912 1078 c-7 -7 -12 -22 -12 -35 0 -21 4 -23 50 -23 46 0 50 2 50
23 0 13 -5 28 -12 35 -15 15 -61 15 -76 0z"/>
<path d="M3596 1074 c-16 -42 -8 -54 38 -54 52 0 60 8 46 44 -8 21 -16 26 -44
26 -22 0 -36 -6 -40 -16z"/>
</g>
</svg>
