<?xml version="1.0" encoding="UTF-8"?>
<!DOCTYPE svg PUBLIC "-//W3C//DTD SVG 1.1//EN" "http://www.w3.org/Graphics/SVG/1.1/DTD/svg11.dtd">
<svg xmlns="http://www.w3.org/2000/svg" version="1.1" width="567px" height="482px" style="shape-rendering:geometricPrecision; text-rendering:geometricPrecision; image-rendering:optimizeQuality; fill-rule:evenodd; clip-rule:evenodd" xmlns:xlink="http://www.w3.org/1999/xlink">
<g><path style="opacity:1" fill="#fbf9fc" d="M -0.5,-0.5 C 188.167,-0.5 376.833,-0.5 565.5,-0.5C 565.5,79.5 565.5,159.5 565.5,239.5C 376.764,239.168 188.097,239.501 -0.5,240.5C -0.5,160.167 -0.5,79.8333 -0.5,-0.5 Z"/></g>
<g><path style="opacity:1" fill="#67379a" d="M 14.5,12.5 C 14.5,85.1667 14.5,157.833 14.5,230.5C 193.167,230.5 371.833,230.5 550.5,230.5C 550.5,157.833 550.5,85.1667 550.5,12.5C 551.499,85.3314 551.833,158.331 551.5,231.5C 372.167,231.5 192.833,231.5 13.5,231.5C 13.1674,158.331 13.5008,85.3314 14.5,12.5 Z"/></g>
<g><path style="opacity:1" fill="#5e249e" d="M 14.5,12.5 C 193.167,12.5 371.833,12.5 550.5,12.5C 550.5,85.1667 550.5,157.833 550.5,230.5C 371.833,230.5 193.167,230.5 14.5,230.5C 14.5,157.833 14.5,85.1667 14.5,12.5 Z"/></g>
<g><path style="opacity:1" fill="#602f96" d="M 160.5,160.5 C 157.059,168.429 151.725,174.929 144.5,180C 146.671,181.174 147.671,183.007 147.5,185.5C 144.761,185.293 142.427,184.293 140.5,182.5C 137.466,183.277 134.8,184.611 132.5,186.5C 129.215,187.324 125.882,187.824 122.5,188C 108.829,188.242 95.1619,187.909 81.5,187C 80.2341,186.691 79.0674,186.191 78,185.5C 77.6339,183.548 76.8005,181.882 75.5,180.5C 77.2161,180.629 78.8828,180.962 80.5,181.5C 81.1667,181.5 81.8333,181.5 82.5,181.5C 86.3049,184.176 90.6382,185.676 95.5,186C 104.01,186.823 112.344,186.657 120.5,185.5C 126.343,186.477 131.343,184.977 135.5,181C 137.74,180.023 140.073,179.523 142.5,179.5C 142.5,178.5 142.5,177.5 142.5,176.5C 143.833,175.833 144.833,174.833 145.5,173.5C 150.777,171.223 154.777,167.556 157.5,162.5C 158.5,161.833 159.5,161.167 160.5,160.5 Z"/></g>
<g><path style="opacity:1" fill="#bd9fd7" d="M 82.5,181.5 C 94.9143,184.95 107.581,186.283 120.5,185.5C 112.344,186.657 104.01,186.823 95.5,186C 90.6382,185.676 86.3049,184.176 82.5,181.5 Z"/></g>
<g><path style="opacity:1" fill="#704d93" d="M 142.5,176.5 C 142.5,177.5 142.5,178.5 142.5,179.5C 140.073,179.523 137.74,180.023 135.5,181C 131.343,184.977 126.343,186.477 120.5,185.5C 120.5,185.167 120.5,184.833 120.5,184.5C 127.193,183.034 133.526,180.701 139.5,177.5C 140.609,177.443 141.609,177.11 142.5,176.5 Z"/></g>
<g><path style="opacity:1" fill="#efdef5" d="M 140.5,175.5 C 140.167,176.167 139.833,176.833 139.5,177.5C 133.526,180.701 127.193,183.034 120.5,184.5C 121.355,181.703 123.021,181.036 125.5,182.5C 129.617,178.452 134.617,176.119 140.5,175.5 Z"/></g>
<g><path style="opacity:1" fill="#a287bb" d="M 145.5,173.5 C 144.833,174.833 143.833,175.833 142.5,176.5C 141.609,177.11 140.609,177.443 139.5,177.5C 139.833,176.833 140.167,176.167 140.5,175.5C 142.167,174.833 143.833,174.167 145.5,173.5 Z"/></g>
<g><path style="opacity:1" fill="#cfbae3" d="M 61.5,167.5 C 68.3558,171.341 74.6891,176.008 80.5,181.5C 78.8828,180.962 77.2161,180.629 75.5,180.5C 73.4687,178.478 71.1354,176.811 68.5,175.5C 66.1667,172.833 63.8333,170.167 61.5,167.5 Z"/></g>
<g><path style="opacity:1" fill="#694395" d="M 41.5,136.5 C 43.0252,139.079 44.3586,141.746 45.5,144.5C 45.8923,146.179 46.3923,147.846 47,149.5C 50.1077,153.089 52.941,156.755 55.5,160.5C 56.0637,164.064 58.0637,166.397 61.5,167.5C 63.8333,170.167 66.1667,172.833 68.5,175.5C 62.294,175.358 58.4607,172.358 57,166.5C 52.9159,161.265 49.0826,155.931 45.5,150.5C 43.5732,145.986 42.2398,141.32 41.5,136.5 Z"/></g>
<g><path style="opacity:1" fill="#693798" d="M 333.5,159.5 C 333.131,161.441 332.464,163.275 331.5,165C 326.346,166.994 321.013,168.494 315.5,169.5C 315.5,168.167 315.5,166.833 315.5,165.5C 312.941,165.802 310.607,165.468 308.5,164.5C 314.167,164.5 319.833,164.5 325.5,164.5C 328.475,163.345 331.142,161.678 333.5,159.5 Z"/></g>
<g><path style="opacity:1" fill="#8b6dae" d="M 157.5,162.5 C 154.777,167.556 150.777,171.223 145.5,173.5C 149.474,169.862 153.474,166.195 157.5,162.5 Z"/></g>
<g><path style="opacity:1" fill="#ddc7ee" d="M 302.5,160.5 C 309.817,163.253 317.484,164.253 325.5,163.5C 325.5,163.833 325.5,164.167 325.5,164.5C 319.833,164.5 314.167,164.5 308.5,164.5C 308.167,164.5 307.833,164.5 307.5,164.5C 305.833,163.167 304.167,161.833 302.5,160.5 Z"/></g>
<g><path style="opacity:1" fill="#bba2d1" d="M 277.5,161.5 C 280.552,163.178 283.885,163.845 287.5,163.5C 287.5,163.833 287.5,164.167 287.5,164.5C 284.833,164.5 282.167,164.5 279.5,164.5C 278.833,163.5 278.167,162.5 277.5,161.5 Z"/></g>
<g><path style="opacity:1" fill="#f6e9fb" d="M 353.5,117.5 C 353.5,117.167 353.5,116.833 353.5,116.5C 363.403,115.074 372.403,117.074 380.5,122.5C 380.971,124.579 381.637,126.579 382.5,128.5C 382.5,140.167 382.5,151.833 382.5,163.5C 379.167,163.5 375.833,163.5 372.5,163.5C 372.443,162.391 372.11,161.391 371.5,160.5C 371.5,150.5 371.5,140.5 371.5,130.5C 372.33,140.325 372.83,150.325 373,160.5C 375.481,162.314 378.315,162.98 381.5,162.5C 381.666,152.494 381.5,142.494 381,132.5C 380.167,129.5 379.333,126.5 378.5,123.5C 374.258,122.203 370.258,120.537 366.5,118.5C 362.366,117.515 358.032,117.182 353.5,117.5 Z"/></g>
<g><path style="opacity:1" fill="#5b2a91" d="M 369.5,130.5 C 369.168,141.187 369.501,151.854 370.5,162.5C 371.183,162.863 371.85,163.196 372.5,163.5C 375.287,164.477 378.287,164.81 381.5,164.5C 376.996,166.139 372.329,166.472 367.5,165.5C 367.674,153.999 367.174,142.665 366,131.5C 363.959,130.577 361.792,130.244 359.5,130.5C 359.199,134.247 359.866,137.747 361.5,141C 360.598,148.325 359.598,155.492 358.5,162.5C 358.333,151.495 358.5,140.495 359,129.5C 362.611,128.238 366.111,128.571 369.5,130.5 Z"/></g>
<g><path style="opacity:1" fill="#f1e0f9" d="M 233.5,100.5 C 233.5,100.833 233.5,101.167 233.5,101.5C 232.167,101.5 230.833,101.5 229.5,101.5C 226.183,100.835 222.683,100.501 219,100.5C 214.014,100.298 209.181,100.965 204.5,102.5C 203.5,122.489 203.167,142.489 203.5,162.5C 206.5,162.5 209.5,162.5 212.5,162.5C 213.167,157.167 213.833,151.833 214.5,146.5C 214.5,152.167 214.5,157.833 214.5,163.5C 210.5,163.5 206.5,163.5 202.5,163.5C 202.5,142.833 202.5,122.167 202.5,101.5C 204.403,101.204 206.07,100.537 207.5,99.5C 216.277,97.8797 224.944,98.2131 233.5,100.5 Z"/></g>
<g><path style="opacity:1" fill="#a184be" d="M 333.5,155.5 C 334.167,155.5 334.833,155.5 335.5,155.5C 335.267,157.062 334.6,158.395 333.5,159.5C 331.142,161.678 328.475,163.345 325.5,164.5C 325.5,164.167 325.5,163.833 325.5,163.5C 329.188,161.812 331.855,159.145 333.5,155.5 Z"/></g>
<g><path style="opacity:1" fill="#5d2798" d="M 248.5,99.5 C 248.169,121.007 248.503,142.34 249.5,163.5C 249.833,163.5 250.167,163.5 250.5,163.5C 253.962,164.482 257.629,164.815 261.5,164.5C 259.777,165.8 257.61,166.467 255,166.5C 251.451,166.082 247.951,165.416 244.5,164.5C 238.593,164.413 232.593,164.746 226.5,165.5C 221.936,164.359 221.269,162.025 224.5,158.5C 225.446,158.013 226.446,157.68 227.5,157.5C 229.003,158.523 230.503,159.523 232,160.5C 235.353,158.329 238.853,156.329 242.5,154.5C 241.044,152.199 240.711,149.865 241.5,147.5C 240.675,146.614 239.675,146.281 238.5,146.5C 238.5,147.5 238.5,148.5 238.5,149.5C 237.5,149.5 236.5,149.5 235.5,149.5C 236.907,147.692 238.074,145.692 239,143.5C 239.667,144.167 240.333,144.833 241,145.5C 242.144,142.92 242.978,140.253 243.5,137.5C 244.407,134.942 245.407,132.442 246.5,130C 245.192,123.837 245.192,117.67 246.5,111.5C 246.167,110.5 245.833,109.5 245.5,108.5C 244.261,108.058 243.261,107.391 242.5,106.5C 244.144,106.714 245.644,106.38 247,105.5C 247.191,103.292 247.691,101.292 248.5,99.5 Z"/></g>
<g><path style="opacity:1" fill="#5b2b92" d="M 200.5,104.5 C 200.17,124.007 200.503,143.341 201.5,162.5C 203.223,163.8 205.39,164.467 208,164.5C 210.361,164.496 212.527,164.163 214.5,163.5C 215.488,158.36 215.821,153.026 215.5,147.5C 220.032,147.818 224.366,147.485 228.5,146.5C 231.912,145.925 234.912,144.592 237.5,142.5C 238.688,141.316 239.855,141.316 241,142.5C 241.05,140.256 241.883,138.589 243.5,137.5C 242.978,140.253 242.144,142.92 241,145.5C 240.333,144.833 239.667,144.167 239,143.5C 238.074,145.692 236.907,147.692 235.5,149.5C 234.406,150.582 233.073,151.248 231.5,151.5C 227.869,150.485 224.202,150.319 220.5,151C 219.703,154.745 219.203,158.579 219,162.5C 217.406,163.716 215.906,165.049 214.5,166.5C 209.518,165.881 204.518,165.214 199.5,164.5C 198.845,154.378 198.512,144.211 198.5,134C 198.501,123.81 199.168,113.977 200.5,104.5 Z"/></g>
<g><path style="opacity:1" fill="#8563a5" d="M 296.5,128.5 C 296.334,136.84 296.5,145.173 297,153.5C 297.66,155.324 298.827,156.657 300.5,157.5C 300.5,158.167 300.5,158.833 300.5,159.5C 299.292,158.766 297.959,158.433 296.5,158.5C 295.608,148.866 295.275,139.199 295.5,129.5C 295.5,128.833 295.833,128.5 296.5,128.5 Z"/></g>
<g><path style="opacity:1" fill="#603194" d="M 443.5,98.5 C 443.5,99.1667 443.167,99.5 442.5,99.5C 440.738,99.3573 439.071,99.6906 437.5,100.5C 436.5,121.156 436.167,141.823 436.5,162.5C 436.167,162.5 435.833,162.5 435.5,162.5C 434.549,160.882 433.216,159.549 431.5,158.5C 430.06,159.952 428.394,160.952 426.5,161.5C 428.513,155.238 426.513,152.238 420.5,152.5C 418.958,153.301 417.292,153.634 415.5,153.5C 413.143,153.663 410.81,153.497 408.5,153C 406.398,151.267 406.065,149.267 407.5,147C 413.914,146.793 420.247,146.293 426.5,145.5C 424.783,151.46 427.117,154.126 433.5,153.5C 433.636,150.449 433.302,147.449 432.5,144.5C 434.359,136.977 435.026,129.31 434.5,121.5C 433.5,121.5 432.5,121.5 431.5,121.5C 431.666,128.841 431.5,136.174 431,143.5C 429.989,144.337 428.822,144.67 427.5,144.5C 428.167,143.833 428.833,143.167 429.5,142.5C 430.603,135.324 430.603,127.991 429.5,120.5C 426.033,120.554 423.366,119.054 421.5,116C 419.527,115.505 417.527,115.338 415.5,115.5C 415.167,115.5 414.833,115.5 414.5,115.5C 412.696,114.838 410.696,114.505 408.5,114.5C 405.186,114.343 402.186,115.009 399.5,116.5C 397.223,117.449 395.223,118.782 393.5,120.5C 392.833,120.5 392.167,120.5 391.5,120.5C 391.67,119.178 391.337,118.011 390.5,117C 392.554,114.088 395.221,111.921 398.5,110.5C 399.5,111 400.5,111.5 401.5,112C 409.529,112.335 417.529,113.002 425.5,114C 428.007,114.093 430.174,114.926 432,116.5C 432.048,110.686 432.881,105.019 434.5,99.5C 437.428,98.5159 440.428,98.1826 443.5,98.5 Z"/></g>
<g><path style="opacity:1" fill="#5d2c94" d="M 486.5,159.5 C 487.922,160.925 489.589,161.925 491.5,162.5C 493.026,164.13 495.026,164.963 497.5,165C 501.358,165.81 505.024,165.643 508.5,164.5C 512.384,164.14 515.884,162.807 519,160.5C 519.982,157.225 519.149,154.559 516.5,152.5C 516.209,151.351 515.376,150.684 514,150.5C 509.023,152.622 503.856,152.955 498.5,151.5C 497.652,149.591 497.318,147.591 497.5,145.5C 505.167,145.5 512.833,145.5 520.5,145.5C 517.528,149.011 518.028,152.011 522,154.5C 522.96,162.874 519.127,166.707 510.5,166C 509.809,167.067 509.309,168.234 509,169.5C 503.253,167.809 497.419,166.309 491.5,165C 486.645,163.495 482.812,160.662 480,156.5C 479.667,150.5 479.333,144.5 479,138.5C 477.48,141.522 475.313,144.022 472.5,146C 472.664,148.699 472.83,151.532 473,154.5C 475.834,157.808 476.667,161.475 475.5,165.5C 472.404,166.093 470.071,165.093 468.5,162.5C 469.813,159.752 470.813,156.919 471.5,154C 470.833,153.333 470.167,152.667 469.5,152C 464.292,150.603 458.959,150.103 453.5,150.5C 453.827,155.544 453.494,160.544 452.5,165.5C 447.122,169.383 441.788,169.383 436.5,165.5C 435.873,164.583 435.539,163.583 435.5,162.5C 435.833,162.5 436.167,162.5 436.5,162.5C 436.5,163.167 436.833,163.5 437.5,163.5C 441.298,164.483 445.298,164.817 449.5,164.5C 449.5,163.5 449.5,162.5 449.5,161.5C 450.486,157.03 450.819,152.363 450.5,147.5C 454.702,147.817 458.702,147.483 462.5,146.5C 467.592,146.026 471.592,143.693 474.5,139.5C 474.263,138.209 474.596,137.209 475.5,136.5C 476.167,136.167 476.833,135.833 477.5,135.5C 478.15,135.196 478.817,134.863 479.5,134.5C 480.331,141.142 480.831,147.809 481,154.5C 482.084,155.665 482.917,156.998 483.5,158.5C 484.325,159.386 485.325,159.719 486.5,159.5 Z"/></g>
<g><path style="opacity:1" fill="#ba94d6" d="M 491.5,162.5 C 492.167,162.5 492.833,162.5 493.5,162.5C 494.919,163.451 496.585,163.784 498.5,163.5C 501.625,164.479 504.958,164.813 508.5,164.5C 505.024,165.643 501.358,165.81 497.5,165C 495.026,164.963 493.026,164.13 491.5,162.5 Z"/></g>
<g><path style="opacity:1" fill="#d2bae7" d="M 403.5,145.5 C 403.976,152.959 407.976,155.959 415.5,154.5C 410.674,156.495 406.507,155.495 403,151.5C 402.211,149.288 402.378,147.288 403.5,145.5 Z"/></g>
<g><path style="opacity:1" fill="#fbfdf4" d="M 308.5,117.5 C 315.624,117.103 322.124,118.77 328,122.5C 329.37,126.245 331.037,129.912 333,133.5C 333.027,136.911 333.194,140.244 333.5,143.5C 332.786,145.811 331.786,147.978 330.5,150C 332.292,155.388 330.292,158.221 324.5,158.5C 324.343,157.127 324.51,155.793 325,154.5C 329.947,151.377 330.78,147.377 327.5,142.5C 328.29,137.938 328.624,133.438 328.5,129C 327.87,127.108 326.87,125.441 325.5,124C 322.851,123.548 320.351,122.714 318,121.5C 315.925,123.648 313.592,123.982 311,122.5C 306.023,124.448 303.523,128.115 303.5,133.5C 305.496,138.276 305.829,143.109 304.5,148C 306.538,154.043 310.872,157.21 317.5,157.5C 317.884,159.665 317.217,161.332 315.5,162.5C 313.333,161.208 311,160.375 308.5,160C 307.252,158.041 305.585,156.541 303.5,155.5C 301.759,149.347 300.426,142.847 299.5,136C 299.79,132.882 300.456,129.882 301.5,127C 300.748,126.329 300.414,125.496 300.5,124.5C 301.833,122.833 303.167,121.167 304.5,119.5C 305.833,118.833 307.167,118.167 308.5,117.5 Z"/></g>
<g><path style="opacity:1" fill="#e4cff1" d="M 516.5,152.5 C 519.149,154.559 519.982,157.225 519,160.5C 515.884,162.807 512.384,164.14 508.5,164.5C 504.958,164.813 501.625,164.479 498.5,163.5C 502.182,163.665 505.848,163.499 509.5,163C 512.454,162.094 515.287,160.927 518,159.5C 518.711,157.633 518.211,156.133 516.5,155C 511.332,155.295 506.332,155.128 501.5,154.5C 506.567,154.253 511.567,153.587 516.5,152.5 Z"/></g>
<g><path style="opacity:1" fill="#d9c4e7" d="M 449.5,146.5 C 449.5,151.5 449.5,156.5 449.5,161.5C 449.5,162.5 449.5,163.5 449.5,164.5C 445.298,164.817 441.298,164.483 437.5,163.5C 438.167,163.5 438.833,163.5 439.5,163.5C 441.735,163.795 443.735,163.461 445.5,162.5C 446.5,162.5 447.5,162.5 448.5,162.5C 448.179,156.974 448.512,151.64 449.5,146.5 Z"/></g>
<g><path style="opacity:1" fill="#ceaedf" d="M 420.5,152.5 C 426.513,152.238 428.513,155.238 426.5,161.5C 425.167,161.833 423.833,162.167 422.5,162.5C 422.833,161.833 423.167,161.167 423.5,160.5C 424.649,160.209 425.316,159.376 425.5,158C 425.071,154.939 423.405,153.106 420.5,152.5 Z"/></g>
<g><path style="opacity:1" fill="#876da6" d="M 449.5,146.5 C 453.833,146.5 458.167,146.5 462.5,146.5C 458.702,147.483 454.702,147.817 450.5,147.5C 450.819,152.363 450.486,157.03 449.5,161.5C 449.5,156.5 449.5,151.5 449.5,146.5 Z"/></g>
<g><path style="opacity:1" fill="#dec7ea" d="M 45.5,144.5 C 46.9663,145.347 47.7996,146.68 48,148.5C 49.129,150.141 50.629,151.141 52.5,151.5C 53.2134,154.594 54.2134,157.594 55.5,160.5C 52.941,156.755 50.1077,153.089 47,149.5C 46.3923,147.846 45.8923,146.179 45.5,144.5 Z"/></g>
<g><path style="opacity:1" fill="#5b26a4" d="M 426.5,145.5 C 427.167,145.5 427.5,145.167 427.5,144.5C 428.822,144.67 429.989,144.337 431,143.5C 431.5,136.174 431.666,128.841 431.5,121.5C 432.5,121.5 433.5,121.5 434.5,121.5C 435.026,129.31 434.359,136.977 432.5,144.5C 433.302,147.449 433.636,150.449 433.5,153.5C 427.117,154.126 424.783,151.46 426.5,145.5 Z"/></g>
<g><path style="opacity:1" fill="#66369a" d="M 379.5,119.5 C 381.017,119.511 382.184,120.177 383,121.5C 384.247,124.329 385.747,126.995 387.5,129.5C 388.182,128.757 388.849,128.091 389.5,127.5C 389.174,136.349 389.507,145.016 390.5,153.5C 392.494,157.494 395.494,160.494 399.5,162.5C 399.5,162.833 399.5,163.167 399.5,163.5C 406.311,165.905 413.311,166.071 420.5,164C 421.056,163.617 421.389,163.117 421.5,162.5C 421.833,162.5 422.167,162.5 422.5,162.5C 423.833,162.167 425.167,161.833 426.5,161.5C 424.779,165.434 421.946,167.101 418,166.5C 417.5,167 417,167.5 416.5,168C 412.089,168.017 407.923,168.85 404,170.5C 401.363,169.899 400.196,168.233 400.5,165.5C 398.473,165.662 396.473,165.495 394.5,165C 391.72,160.505 389.387,155.838 387.5,151C 388.549,147.138 388.549,143.305 387.5,139.5C 386.808,140.025 386.308,140.692 386,141.5C 385.667,148.5 385.333,155.5 385,162.5C 384.617,163.056 384.117,163.389 383.5,163.5C 383.828,151.655 383.495,139.988 382.5,128.5C 381.637,126.579 380.971,124.579 380.5,122.5C 380.443,121.391 380.11,120.391 379.5,119.5 Z"/></g>
<g><path style="opacity:1" fill="#d3b4e8" d="M 421.5,162.5 C 421.389,163.117 421.056,163.617 420.5,164C 413.311,166.071 406.311,165.905 399.5,163.5C 406.89,163.764 414.223,163.43 421.5,162.5 Z"/></g>
<g><path style="opacity:1" fill="#7d59a2" d="M 520.5,144.5 C 520.5,144.833 520.5,145.167 520.5,145.5C 512.833,145.5 505.167,145.5 497.5,145.5C 497.318,147.591 497.652,149.591 498.5,151.5C 503.856,152.955 509.023,152.622 514,150.5C 515.376,150.684 516.209,151.351 516.5,152.5C 511.567,153.587 506.567,154.253 501.5,154.5C 500.167,154.167 498.833,153.833 497.5,153.5C 496.701,150.57 496.368,147.57 496.5,144.5C 504.5,144.5 512.5,144.5 520.5,144.5 Z"/></g>
<g><path style="opacity:1" fill="#72509a" d="M 171.5,131.5 C 172.11,137.511 171.11,143.178 168.5,148.5C 165.985,150.862 164.485,153.862 164,157.5C 162.961,158.71 161.794,159.71 160.5,160.5C 159.5,161.167 158.5,161.833 157.5,162.5C 160.088,158.326 162.421,153.993 164.5,149.5C 165.315,148.571 166.148,147.571 167,146.5C 168.079,141.119 169.579,136.119 171.5,131.5 Z"/></g>
<g><path style="opacity:1" fill="#694493" d="M 403.5,144.5 C 411.5,144.5 419.5,144.5 427.5,144.5C 427.5,145.167 427.167,145.5 426.5,145.5C 420.247,146.293 413.914,146.793 407.5,147C 406.065,149.267 406.398,151.267 408.5,153C 410.81,153.497 413.143,153.663 415.5,153.5C 415.5,153.833 415.5,154.167 415.5,154.5C 407.976,155.959 403.976,152.959 403.5,145.5C 403.5,145.167 403.5,144.833 403.5,144.5 Z"/></g>
<g><path style="opacity:1" fill="#7e5aa3" d="M 369.5,130.5 C 370.167,140.5 370.833,150.5 371.5,160.5C 372.11,161.391 372.443,162.391 372.5,163.5C 371.85,163.196 371.183,162.863 370.5,162.5C 369.501,151.854 369.168,141.187 369.5,130.5 Z"/></g>
<g><path style="opacity:1" fill="#5c308f" d="M 276.5,160.5 C 276.833,160.5 277.167,160.5 277.5,160.5C 277.5,160.833 277.5,161.167 277.5,161.5C 278.167,162.5 278.833,163.5 279.5,164.5C 277.856,164.714 276.356,164.38 275,163.5C 274.667,153.833 274.333,144.167 274,134.5C 266.333,128.138 263.833,129.971 266.5,140C 265.953,147.662 265.286,155.162 264.5,162.5C 264.333,151.828 264.5,141.161 265,130.5C 267.153,128.556 269.653,128.056 272.5,129C 273.147,130.609 273.98,132.109 275,133.5C 275.17,142.676 275.67,151.676 276.5,160.5 Z"/></g>
<g><path style="opacity:1" fill="#977cb4" d="M 214.5,146.5 C 219.167,146.5 223.833,146.5 228.5,146.5C 224.366,147.485 220.032,147.818 215.5,147.5C 215.821,153.026 215.488,158.36 214.5,163.5C 214.5,157.833 214.5,152.167 214.5,146.5 Z"/></g>
<g><path style="opacity:1" fill="#a98fc3" d="M 486.5,120.5 C 486.833,120.5 487.167,120.5 487.5,120.5C 486.892,123.327 485.892,125.993 484.5,128.5C 483.507,136.65 483.174,144.983 483.5,153.5C 482.343,145.01 482.176,136.343 483,127.5C 484.262,125.216 485.428,122.882 486.5,120.5 Z"/></g>
<g><path style="opacity:1" fill="#a787c9" d="M 474.5,139.5 C 471.592,143.693 467.592,146.026 462.5,146.5C 466.677,144.544 470.677,142.211 474.5,139.5 Z"/></g>
<g><path style="opacity:1" fill="#9a81b7" d="M 349.5,116.5 C 347.909,117.219 346.409,118.219 345,119.5C 344.5,134.163 344.333,148.83 344.5,163.5C 343.339,148.672 343.172,133.672 344,118.5C 345.444,116.845 347.278,116.178 349.5,116.5 Z"/></g>
<g><path style="opacity:1" fill="#a67cc3" d="M 236.5,141.5 C 236.833,141.5 237.167,141.5 237.5,141.5C 237.5,141.833 237.5,142.167 237.5,142.5C 234.912,144.592 231.912,145.925 228.5,146.5C 230.794,144.347 233.46,142.68 236.5,141.5 Z"/></g>
<g><path style="opacity:1" fill="#fbf7fc" d="M 308.5,117.5 C 312.97,116.514 317.637,116.181 322.5,116.5C 326.731,116.404 330.065,118.07 332.5,121.5C 334.99,126.973 335.99,132.806 335.5,139C 335.686,144.656 335.019,150.156 333.5,155.5C 331.855,159.145 329.188,161.812 325.5,163.5C 317.484,164.253 309.817,163.253 302.5,160.5C 302.158,159.662 301.492,159.328 300.5,159.5C 300.5,158.833 300.5,158.167 300.5,157.5C 297.565,148.431 296.732,139.098 298,129.5C 298.757,127.685 299.59,126.019 300.5,124.5C 300.414,125.496 300.748,126.329 301.5,127C 300.456,129.882 299.79,132.882 299.5,136C 300.426,142.847 301.759,149.347 303.5,155.5C 305.585,156.541 307.252,158.041 308.5,160C 311,160.375 313.333,161.208 315.5,162.5C 317.217,161.332 317.884,159.665 317.5,157.5C 310.872,157.21 306.538,154.043 304.5,148C 305.829,143.109 305.496,138.276 303.5,133.5C 303.523,128.115 306.023,124.448 311,122.5C 313.592,123.982 315.925,123.648 318,121.5C 320.351,122.714 322.851,123.548 325.5,124C 326.87,125.441 327.87,127.108 328.5,129C 328.624,133.438 328.29,137.938 327.5,142.5C 330.78,147.377 329.947,151.377 325,154.5C 324.51,155.793 324.343,157.127 324.5,158.5C 330.292,158.221 332.292,155.388 330.5,150C 331.786,147.978 332.786,145.811 333.5,143.5C 333.194,140.244 333.027,136.911 333,133.5C 331.037,129.912 329.37,126.245 328,122.5C 322.124,118.77 315.624,117.103 308.5,117.5 Z"/></g>
<g><path style="opacity:1" fill="#e4d6f1" d="M 308.5,129.5 C 308.176,136.354 308.509,143.021 309.5,149.5C 311.104,150.287 311.771,151.62 311.5,153.5C 314.833,153.5 318.167,153.5 321.5,153.5C 317.187,156.215 312.854,155.881 308.5,152.5C 307.18,144.677 307.18,137.01 308.5,129.5 Z"/></g>
<g><path style="opacity:1" fill="#582890" d="M 321.5,150.5 C 318.482,150.665 315.482,150.498 312.5,150C 311.748,149.329 311.414,148.496 311.5,147.5C 318.806,151.321 321.806,148.988 320.5,140.5C 321.999,133.335 319.333,130.501 312.5,132C 311.577,134.041 311.244,136.208 311.5,138.5C 310.319,135.638 310.319,132.638 311.5,129.5C 315.283,127.601 318.45,128.268 321,131.5C 321.5,137.825 321.666,144.158 321.5,150.5 Z"/></g>
<g><path style="opacity:1" fill="#653e92" d="M 311.5,129.5 C 310.319,132.638 310.319,135.638 311.5,138.5C 311.5,141.5 311.5,144.5 311.5,147.5C 311.414,148.496 311.748,149.329 312.5,150C 315.482,150.498 318.482,150.665 321.5,150.5C 321.5,151.167 321.5,151.833 321.5,152.5C 321.5,152.833 321.5,153.167 321.5,153.5C 318.167,153.5 314.833,153.5 311.5,153.5C 311.771,151.62 311.104,150.287 309.5,149.5C 309.334,143.158 309.5,136.825 310,130.5C 310.383,129.944 310.883,129.611 311.5,129.5 Z"/></g>
<g><path style="opacity:1" fill="#dcc3ee" d="M 262.5,115.5 C 266.167,115.5 269.833,115.5 273.5,115.5C 275.527,115.338 277.527,115.505 279.5,116C 281.001,117.252 282.668,118.252 284.5,119C 285.926,121.844 287.426,124.678 289,127.5C 289.167,133.5 289.333,139.5 289.5,145.5C 289.496,151.872 288.829,157.872 287.5,163.5C 287.832,151.482 287.499,139.482 286.5,127.5C 285.719,126.271 285.219,124.938 285,123.5C 283.118,121.151 280.952,119.151 278.5,117.5C 273.015,116.833 267.681,116.167 262.5,115.5 Z"/></g>
<g><path style="opacity:1" fill="#e1cbeb" d="M 520.5,127.5 C 521.488,132.64 521.821,137.974 521.5,143.5C 521.5,144.167 521.167,144.5 520.5,144.5C 512.5,144.5 504.5,144.5 496.5,144.5C 496.368,147.57 496.701,150.57 497.5,153.5C 495.124,152.488 494.124,150.655 494.5,148C 494.354,145.966 495.02,144.299 496.5,143C 500.821,142.501 505.154,142.334 509.5,142.5C 513.167,142.5 516.833,142.5 520.5,142.5C 520.5,137.5 520.5,132.5 520.5,127.5 Z"/></g>
<g><path style="opacity:1" fill="#fbfaf9" d="M 495.5,137.5 C 499.97,138.486 504.637,138.819 509.5,138.5C 509.5,139.833 509.5,141.167 509.5,142.5C 505.154,142.334 500.821,142.501 496.5,143C 495.02,144.299 494.354,145.966 494.5,148C 494.124,150.655 495.124,152.488 497.5,153.5C 498.833,153.833 500.167,154.167 501.5,154.5C 506.332,155.128 511.332,155.295 516.5,155C 518.211,156.133 518.711,157.633 518,159.5C 515.287,160.927 512.454,162.094 509.5,163C 505.848,163.499 502.182,163.665 498.5,163.5C 496.585,163.784 494.919,163.451 493.5,162.5C 492.452,160.466 490.786,159.133 488.5,158.5C 484.85,149.911 483.517,140.911 484.5,131.5C 485.497,131.53 486.164,131.03 486.5,130C 487.406,127.209 488.073,124.376 488.5,121.5C 493.457,120.323 498.29,118.989 503,117.5C 506.649,117.111 509.816,118.111 512.5,120.5C 509.178,123.162 505.844,123.162 502.5,120.5C 498.463,121.08 495.129,122.913 492.5,126C 493.068,127.296 493.068,128.796 492.5,130.5C 492.555,133.36 493.555,135.693 495.5,137.5 Z"/></g>
<g><path style="opacity:1" fill="#ebd8f6" d="M 484.5,128.5 C 484.5,129.5 484.5,130.5 484.5,131.5C 483.517,140.911 484.85,149.911 488.5,158.5C 490.786,159.133 492.452,160.466 493.5,162.5C 492.833,162.5 492.167,162.5 491.5,162.5C 489.589,161.925 487.922,160.925 486.5,159.5C 486.008,157.181 485.008,155.181 483.5,153.5C 483.174,144.983 483.507,136.65 484.5,128.5 Z"/></g>
<g><path style="opacity:1" fill="#f8edfb" d="M 475.5,112.5 C 476.784,120.371 476.784,128.371 475.5,136.5C 474.596,137.209 474.263,138.209 474.5,139.5C 470.677,142.211 466.677,144.544 462.5,146.5C 458.167,146.5 453.833,146.5 449.5,146.5C 448.512,151.64 448.179,156.974 448.5,162.5C 447.5,162.5 446.5,162.5 445.5,162.5C 446.575,161.287 447.241,159.787 447.5,158C 446.342,154.215 445.842,150.381 446,146.5C 447.991,143.848 450.658,142.515 454,142.5C 457.425,143.601 460.925,144.101 464.5,144C 466.179,141.435 466.846,138.602 466.5,135.5C 468.257,136.292 469.591,137.625 470.5,139.5C 475.08,131.106 476.747,122.106 475.5,112.5 Z"/></g>
<g><path style="opacity:1" fill="#8259ac" d="M 391.5,120.5 C 392.167,120.5 392.833,120.5 393.5,120.5C 392.061,122.588 391.394,124.921 391.5,127.5C 391.5,128.167 391.5,128.833 391.5,129.5C 390.508,137.316 390.174,145.316 390.5,153.5C 389.507,145.016 389.174,136.349 389.5,127.5C 390.268,125.285 390.935,122.952 391.5,120.5 Z"/></g>
<g><path style="opacity:1" fill="#bb9dd9" d="M 313.5,126.5 C 312.833,127.5 312.167,128.5 311.5,129.5C 310.883,129.611 310.383,129.944 310,130.5C 309.5,136.825 309.334,143.158 309.5,149.5C 308.509,143.021 308.176,136.354 308.5,129.5C 309.922,128.075 311.589,127.075 313.5,126.5 Z"/></g>
<g><path style="opacity:1" fill="#835aa8" d="M 336.5,129.5 C 337.657,137.656 337.823,145.99 337,154.5C 336.617,155.056 336.117,155.389 335.5,155.5C 336.442,146.887 336.775,138.221 336.5,129.5 Z"/></g>
<g><path style="opacity:1" fill="#9a7db2" d="M 41.5,131.5 C 41.8333,131.5 42.1667,131.5 42.5,131.5C 43.9678,135.706 44.9678,140.039 45.5,144.5C 44.3586,141.746 43.0252,139.079 41.5,136.5C 41.5,134.833 41.5,133.167 41.5,131.5 Z"/></g>
<g><path style="opacity:1" fill="#6321a3" d="M 311.5,147.5 C 311.5,144.5 311.5,141.5 311.5,138.5C 311.244,136.208 311.577,134.041 312.5,132C 319.333,130.501 321.999,133.335 320.5,140.5C 321.806,148.988 318.806,151.321 311.5,147.5 Z"/></g>
<g><path style="opacity:1" fill="#60348e" d="M 273.5,115.5 C 273.5,115.167 273.5,114.833 273.5,114.5C 282.137,113.835 287.803,117.501 290.5,125.5C 290.5,125.833 290.5,126.167 290.5,126.5C 290.58,131.033 292.246,132.033 295.5,129.5C 295.275,139.199 295.608,148.866 296.5,158.5C 297.959,158.433 299.292,158.766 300.5,159.5C 301.492,159.328 302.158,159.662 302.5,160.5C 304.167,161.833 305.833,163.167 307.5,164.5C 301.751,164.292 297.084,161.959 293.5,157.5C 291.912,159.113 290.912,161.113 290.5,163.5C 289.675,164.386 288.675,164.719 287.5,164.5C 287.5,164.167 287.5,163.833 287.5,163.5C 288.829,157.872 289.496,151.872 289.5,145.5C 289.333,139.5 289.167,133.5 289,127.5C 287.426,124.678 285.926,121.844 284.5,119C 282.668,118.252 281.001,117.252 279.5,116C 277.527,115.505 275.527,115.338 273.5,115.5 Z"/></g>
<g><path style="opacity:1" fill="#5c318f" d="M 379.5,119.5 C 376.136,117.317 372.47,115.984 368.5,115.5C 366.022,114.836 363.355,114.503 360.5,114.5C 356.531,114.294 352.865,114.961 349.5,116.5C 347.278,116.178 345.444,116.845 344,118.5C 343.172,133.672 343.339,148.672 344.5,163.5C 347.962,164.482 351.629,164.815 355.5,164.5C 351.689,165.645 347.689,165.812 343.5,165C 343,164.5 342.5,164 342,163.5C 340.959,150.823 340.792,138.157 341.5,125.5C 341.33,123.285 340.663,121.285 339.5,119.5C 340,118.5 340.5,117.5 341,116.5C 351.977,113.139 363.143,112.305 374.5,114C 375.665,115.084 376.998,115.917 378.5,116.5C 379.386,117.325 379.719,118.325 379.5,119.5 Z"/></g>
<g><path style="opacity:1" fill="#decaeb" d="M 332.5,121.5 C 333.5,122.167 334.5,122.833 335.5,123.5C 336.15,125.435 336.483,127.435 336.5,129.5C 336.775,138.221 336.442,146.887 335.5,155.5C 334.833,155.5 334.167,155.5 333.5,155.5C 335.019,150.156 335.686,144.656 335.5,139C 335.99,132.806 334.99,126.973 332.5,121.5 Z"/></g>
<g><path style="opacity:1" fill="#cfb5e7" d="M 382.5,128.5 C 383.495,139.988 383.828,151.655 383.5,163.5C 383.158,164.338 382.492,164.672 381.5,164.5C 378.287,164.81 375.287,164.477 372.5,163.5C 375.833,163.5 379.167,163.5 382.5,163.5C 382.5,151.833 382.5,140.167 382.5,128.5 Z"/></g>
<g><path style="opacity:1" fill="#dfceec" d="M 349.5,116.5 C 350.833,116.5 352.167,116.5 353.5,116.5C 353.5,116.833 353.5,117.167 353.5,117.5C 350.626,117.623 348.126,118.623 346,120.5C 345.333,134.5 345.333,148.5 346,162.5C 349.057,163.451 352.223,163.784 355.5,163.5C 355.5,163.833 355.5,164.167 355.5,164.5C 351.629,164.815 347.962,164.482 344.5,163.5C 344.333,148.83 344.5,134.163 345,119.5C 346.409,118.219 347.909,117.219 349.5,116.5 Z"/></g>
<g><path style="opacity:1" fill="#643e8e" d="M 313.5,126.5 C 315.5,126.5 317.5,126.5 319.5,126.5C 320.458,127.962 321.624,129.295 323,130.5C 323.667,136.833 323.667,143.167 323,149.5C 322.617,150.056 322.117,150.389 321.5,150.5C 321.666,144.158 321.5,137.825 321,131.5C 318.45,128.268 315.283,127.601 311.5,129.5C 312.167,128.5 312.833,127.5 313.5,126.5 Z"/></g>
<g><path style="opacity:1" fill="#c3a9d7" d="M 442.5,99.5 C 440.897,100.596 439.397,101.93 438,103.5C 437.5,123.497 437.333,143.497 437.5,163.5C 436.833,163.5 436.5,163.167 436.5,162.5C 436.167,141.823 436.5,121.156 437.5,100.5C 439.071,99.6906 440.738,99.3573 442.5,99.5 Z"/></g>
<g><path style="opacity:1" fill="#744e9b" d="M 415.5,115.5 C 417.527,115.338 419.527,115.505 421.5,116C 423.366,119.054 426.033,120.554 429.5,120.5C 430.603,127.991 430.603,135.324 429.5,142.5C 429.782,137.073 429.449,131.74 428.5,126.5C 428.88,124.302 428.213,122.635 426.5,121.5C 423.223,118.745 419.557,116.745 415.5,115.5 Z"/></g>
<g><path style="opacity:1" fill="#cfb3e8" d="M 391.5,129.5 C 391.334,136.841 391.5,144.174 392,151.5C 393.549,155.87 396.049,159.537 399.5,162.5C 395.494,160.494 392.494,157.494 390.5,153.5C 390.174,145.316 390.508,137.316 391.5,129.5 Z"/></g>
<g><path style="opacity:1" fill="#b8a0d1" d="M 319.5,126.5 C 321.371,126.859 322.871,127.859 324,129.5C 324.667,136.5 324.667,143.5 324,150.5C 323.292,151.381 322.458,152.047 321.5,152.5C 321.5,151.833 321.5,151.167 321.5,150.5C 322.117,150.389 322.617,150.056 323,149.5C 323.667,143.167 323.667,136.833 323,130.5C 321.624,129.295 320.458,127.962 319.5,126.5 Z"/></g>
<g><path style="opacity:1" fill="#e9d3f6" d="M 304.5,119.5 C 303.167,121.167 301.833,122.833 300.5,124.5C 299.59,126.019 298.757,127.685 298,129.5C 296.732,139.098 297.565,148.431 300.5,157.5C 298.827,156.657 297.66,155.324 297,153.5C 296.5,145.173 296.334,136.84 296.5,128.5C 297.639,125.566 299.306,122.9 301.5,120.5C 302.391,119.89 303.391,119.557 304.5,119.5 Z"/></g>
<g><path style="opacity:1" fill="#eedff5" d="M 260.5,99.5 C 261.167,99.8333 261.833,100.167 262.5,100.5C 262.5,105.5 262.5,110.5 262.5,115.5C 261.674,111.018 261.174,106.351 261,101.5C 257.943,100.549 254.777,100.216 251.5,100.5C 251.5,121.167 251.5,141.833 251.5,162.5C 254.5,162.5 257.5,162.5 260.5,162.5C 260.333,151.162 260.5,139.828 261,128.5C 261.278,127.584 261.778,126.918 262.5,126.5C 262.5,138.5 262.5,150.5 262.5,162.5C 262.167,163.167 261.833,163.833 261.5,164.5C 257.629,164.815 253.962,164.482 250.5,163.5C 250.5,142.167 250.5,120.833 250.5,99.5C 253.833,99.5 257.167,99.5 260.5,99.5 Z"/></g>
<g><path style="opacity:1" fill="#ba9ecd" d="M 229.5,129.5 C 229.586,132.958 227.919,134.958 224.5,135.5C 226.144,133.519 227.81,131.519 229.5,129.5 Z"/></g>
<g><path style="opacity:1" fill="#714d9c" d="M 272.5,127.5 C 273.794,128.29 274.961,129.29 276,130.5C 276.5,140.494 276.666,150.494 276.5,160.5C 275.67,151.676 275.17,142.676 275,133.5C 273.98,132.109 273.147,130.609 272.5,129C 269.653,128.056 267.153,128.556 265,130.5C 264.5,141.161 264.333,151.828 264.5,162.5C 264.027,163.906 263.027,164.573 261.5,164.5C 261.833,163.833 262.167,163.167 262.5,162.5C 263.495,151.012 263.828,139.345 263.5,127.5C 266.5,127.5 269.5,127.5 272.5,127.5 Z"/></g>
<g><path style="opacity:1" fill="#f9eefb" d="M 46.5,102.5 C 46.9382,102.435 47.2716,102.601 47.5,103C 42.4343,119.949 44.1009,136.116 52.5,151.5C 50.629,151.141 49.129,150.141 48,148.5C 47.7996,146.68 46.9663,145.347 45.5,144.5C 44.9678,140.039 43.9678,135.706 42.5,131.5C 42.3339,125.824 42.5006,120.157 43,114.5C 44.2756,110.471 45.4423,106.471 46.5,102.5 Z"/></g>
<g><path style="opacity:1" fill="#673c94" d="M 465.5,99.5 C 465.5,99.1667 465.5,98.8333 465.5,98.5C 467.527,98.3379 469.527,98.5045 471.5,99C 473.657,102.156 476.157,104.989 479,107.5C 479.17,113.196 479.67,118.862 480.5,124.5C 482.007,122.31 484.007,120.976 486.5,120.5C 485.428,122.882 484.262,125.216 483,127.5C 482.176,136.343 482.343,145.01 483.5,153.5C 485.008,155.181 486.008,157.181 486.5,159.5C 485.325,159.719 484.325,159.386 483.5,158.5C 482.917,156.998 482.084,155.665 481,154.5C 480.831,147.809 480.331,141.142 479.5,134.5C 478.817,134.863 478.15,135.196 477.5,135.5C 477.666,127.16 477.5,118.827 477,110.5C 476.303,108.416 475.136,106.749 473.5,105.5C 472.57,101.907 470.237,100.241 466.5,100.5C 466.5,99.8333 466.167,99.5 465.5,99.5 Z"/></g>
<g><path style="opacity:1" fill="#b897d3" d="M 260.5,99.5 C 257.167,99.5 253.833,99.5 250.5,99.5C 250.5,120.833 250.5,142.167 250.5,163.5C 250.167,163.5 249.833,163.5 249.5,163.5C 249.333,141.831 249.5,120.164 250,98.5C 251.4,97.8841 252.9,97.5507 254.5,97.5C 256.883,97.361 258.883,98.0277 260.5,99.5 Z"/></g>
<g><path style="opacity:1" fill="#b89dcf" d="M 202.5,101.5 C 202.5,122.167 202.5,142.833 202.5,163.5C 206.5,163.5 210.5,163.5 214.5,163.5C 212.527,164.163 210.361,164.496 208,164.5C 205.39,164.467 203.223,163.8 201.5,162.5C 201.17,141.993 201.503,121.66 202.5,101.5 Z"/></g>
<g><path style="opacity:1" fill="#ddceef" d="M 369.5,128.5 C 365.546,126.289 361.38,125.956 357,127.5C 356.831,139.674 356.331,151.674 355.5,163.5C 355.5,151.5 355.5,139.5 355.5,127.5C 355.611,126.883 355.944,126.383 356.5,126C 360.821,125.501 365.154,125.334 369.5,125.5C 369.5,126.5 369.5,127.5 369.5,128.5 Z"/></g>
<g><path style="opacity:1" fill="#f7f0f9" d="M 229.5,101.5 C 230.833,101.5 232.167,101.5 233.5,101.5C 235.461,102.46 237.127,103.793 238.5,105.5C 241.466,114.17 242.3,123.17 241,132.5C 238.832,135.173 237.332,138.173 236.5,141.5C 233.46,142.68 230.794,144.347 228.5,146.5C 223.833,146.5 219.167,146.5 214.5,146.5C 213.833,151.833 213.167,157.167 212.5,162.5C 212.887,158.141 212.22,153.975 210.5,150C 211.728,147.435 213.394,145.269 215.5,143.5C 219.5,142.833 223.5,142.167 227.5,141.5C 223.619,138.727 219.285,137.394 214.5,137.5C 214.5,136.5 214.5,135.5 214.5,134.5C 217.786,135.207 221.119,135.54 224.5,135.5C 227.919,134.958 229.586,132.958 229.5,129.5C 229.5,124.5 229.5,119.5 229.5,114.5C 229.5,113.833 229.5,113.167 229.5,112.5C 232.148,112.738 233.982,114.072 235,116.5C 234.135,122.387 233.468,128.387 233,134.5C 236.404,132.652 238.57,129.819 239.5,126C 239.484,121.641 239.317,117.141 239,112.5C 237.612,108.222 234.779,105.389 230.5,104C 229.748,103.329 229.414,102.496 229.5,101.5 Z"/></g>
<g><path style="opacity:1" fill="#74519b" d="M 369.5,128.5 C 369.5,129.167 369.5,129.833 369.5,130.5C 366.111,128.571 362.611,128.238 359,129.5C 358.5,140.495 358.333,151.495 358.5,162.5C 358.179,164.048 357.179,164.715 355.5,164.5C 355.5,164.167 355.5,163.833 355.5,163.5C 356.331,151.674 356.831,139.674 357,127.5C 361.38,125.956 365.546,126.289 369.5,128.5 Z"/></g>
<g><path style="opacity:1" fill="#ad95c5" d="M 399.5,116.5 C 398.139,118.527 396.473,120.194 394.5,121.5C 394.008,123.819 393.008,125.819 391.5,127.5C 391.394,124.921 392.061,122.588 393.5,120.5C 395.223,118.782 397.223,117.449 399.5,116.5 Z"/></g>
<g><path style="opacity:1" fill="#fdf9fd" d="M 353.5,117.5 C 358.032,117.182 362.366,117.515 366.5,118.5C 362.154,118.334 357.821,118.501 353.5,119C 351.631,120.501 349.797,122.001 348,123.5C 348.14,129.468 348.473,135.468 349,141.5C 349.414,141.957 349.914,142.291 350.5,142.5C 351.668,147.49 351.668,152.49 350.5,157.5C 350.76,159.618 351.76,161.284 353.5,162.5C 354.167,150.674 354.833,139.007 355.5,127.5C 355.5,139.5 355.5,151.5 355.5,163.5C 352.223,163.784 349.057,163.451 346,162.5C 345.333,148.5 345.333,134.5 346,120.5C 348.126,118.623 350.626,117.623 353.5,117.5 Z"/></g>
<g><path style="opacity:1" fill="#a589b7" d="M 426.5,121.5 C 428.213,122.635 428.88,124.302 428.5,126.5C 426.787,125.365 426.12,123.698 426.5,121.5 Z"/></g>
<g><path style="opacity:1" fill="#ceb4ec" d="M 473.5,105.5 C 475.136,106.749 476.303,108.416 477,110.5C 477.5,118.827 477.666,127.16 477.5,135.5C 476.833,135.833 476.167,136.167 475.5,136.5C 476.784,128.371 476.784,120.371 475.5,112.5C 474.067,110.442 473.4,108.108 473.5,105.5 Z"/></g>
<g><path style="opacity:1" fill="#fdfbfb" d="M 366.5,118.5 C 370.258,120.537 374.258,122.203 378.5,123.5C 379.333,126.5 380.167,129.5 381,132.5C 381.5,142.494 381.666,152.494 381.5,162.5C 378.315,162.98 375.481,162.314 373,160.5C 372.83,150.325 372.33,140.325 371.5,130.5C 371.167,129.5 370.5,128.833 369.5,128.5C 369.5,127.5 369.5,126.5 369.5,125.5C 365.154,125.334 360.821,125.501 356.5,126C 355.944,126.383 355.611,126.883 355.5,127.5C 354.833,139.007 354.167,150.674 353.5,162.5C 351.76,161.284 350.76,159.618 350.5,157.5C 351.668,152.49 351.668,147.49 350.5,142.5C 349.914,142.291 349.414,141.957 349,141.5C 348.473,135.468 348.14,129.468 348,123.5C 349.797,122.001 351.631,120.501 353.5,119C 357.821,118.501 362.154,118.334 366.5,118.5 Z"/></g>
<g><path style="opacity:1" fill="#c3a8da" d="M 369.5,128.5 C 370.5,128.833 371.167,129.5 371.5,130.5C 371.5,140.5 371.5,150.5 371.5,160.5C 370.833,150.5 370.167,140.5 369.5,130.5C 369.5,129.833 369.5,129.167 369.5,128.5 Z"/></g>
<g><path style="opacity:1" fill="#fbf5fc" d="M 417.5,118.5 C 412.786,118.173 408.12,118.507 403.5,119.5C 402.754,120.736 402.421,122.07 402.5,123.5C 406.263,123.468 410.096,123.135 414,122.5C 414.667,123.167 415.333,123.833 416,124.5C 416.718,123.549 417.551,123.383 418.5,124C 419.199,127.8 419.865,131.633 420.5,135.5C 419.96,136.748 419.293,137.915 418.5,139C 412.843,139.499 407.176,139.666 401.5,139.5C 401.285,141.179 401.952,142.179 403.5,142.5C 403.5,143.167 403.5,143.833 403.5,144.5C 403.5,144.833 403.5,145.167 403.5,145.5C 402.378,147.288 402.211,149.288 403,151.5C 406.507,155.495 410.674,156.495 415.5,154.5C 415.5,154.167 415.5,153.833 415.5,153.5C 417.292,153.634 418.958,153.301 420.5,152.5C 423.405,153.106 425.071,154.939 425.5,158C 425.316,159.376 424.649,160.209 423.5,160.5C 423.167,161.167 422.833,161.833 422.5,162.5C 422.167,162.5 421.833,162.5 421.5,162.5C 414.223,163.43 406.89,163.764 399.5,163.5C 399.5,163.167 399.5,162.833 399.5,162.5C 396.049,159.537 393.549,155.87 392,151.5C 391.5,144.174 391.334,136.841 391.5,129.5C 391.5,128.833 391.5,128.167 391.5,127.5C 393.008,125.819 394.008,123.819 394.5,121.5C 398.169,122.303 400.836,121.136 402.5,118C 407.684,117.184 412.684,117.35 417.5,118.5 Z"/></g>
<g><path style="opacity:1" fill="#fbfcf8" d="M 423.5,160.5 C 416.062,162.653 408.562,162.987 401,161.5C 400.667,159.5 400.333,157.5 400,155.5C 398.933,154.809 397.766,154.309 396.5,154C 396.833,153.667 397.167,153.333 397.5,153C 395.667,152.5 394.5,151.333 394,149.5C 393.742,141.674 394.409,134.007 396,126.5C 399.305,132.945 399.805,139.612 397.5,146.5C 397.529,148.029 398.196,149.196 399.5,150C 398.549,150.718 398.383,151.551 399,152.5C 405.292,156.544 412.126,157.544 419.5,155.5C 421.58,156.579 422.913,158.245 423.5,160.5 Z"/></g>
<g><path style="opacity:1" fill="#a589c1" d="M 415.5,127.5 C 416.117,127.611 416.617,127.944 417,128.5C 417.497,131.146 417.664,133.813 417.5,136.5C 412.57,136.803 407.737,136.469 403,135.5C 401.851,126.663 405.684,123.496 414.5,126C 415.056,126.383 415.389,126.883 415.5,127.5 Z"/></g>
<g><path style="opacity:1" fill="#5c3386" d="M 415.5,127.5 C 416.265,130.096 416.599,132.763 416.5,135.5C 412.5,135.5 408.5,135.5 404.5,135.5C 403.575,126.791 407.241,124.124 415.5,127.5 Z"/></g>
<g><path style="opacity:1" fill="#622599" d="M 407.5,128.5 C 412.931,127.094 415.265,129.094 414.5,134.5C 412.076,134.808 409.743,134.474 407.5,133.5C 406.185,131.801 406.185,130.135 407.5,128.5 Z"/></g>
<g><path style="opacity:1" fill="#64408f" d="M 225.5,97.5 C 220.489,97.3341 215.489,97.5007 210.5,98C 209.263,98.2321 208.263,98.7321 207.5,99.5C 206.07,100.537 204.403,101.204 202.5,101.5C 201.503,121.66 201.17,141.993 201.5,162.5C 200.503,143.341 200.17,124.007 200.5,104.5C 200.178,102.278 200.845,100.444 202.5,99C 210.151,96.4035 217.818,95.9035 225.5,97.5 Z"/></g>
<g><path style="opacity:1" fill="#fbf5fb" d="M 508.5,116.5 C 515.048,117.381 519.048,121.048 520.5,127.5C 520.5,132.5 520.5,137.5 520.5,142.5C 516.833,142.5 513.167,142.5 509.5,142.5C 509.5,141.167 509.5,139.833 509.5,138.5C 504.637,138.819 499.97,138.486 495.5,137.5C 493.555,135.693 492.555,133.36 492.5,130.5C 493.068,128.796 493.068,127.296 492.5,126C 495.129,122.913 498.463,121.08 502.5,120.5C 505.844,123.162 509.178,123.162 512.5,120.5C 509.816,118.111 506.649,117.111 503,117.5C 498.29,118.989 493.457,120.323 488.5,121.5C 488.073,124.376 487.406,127.209 486.5,130C 486.164,131.03 485.497,131.53 484.5,131.5C 484.5,130.5 484.5,129.5 484.5,128.5C 485.892,125.993 486.892,123.327 487.5,120.5C 489.936,120.251 491.936,119.251 493.5,117.5C 498.456,116.506 503.456,116.173 508.5,116.5 Z"/></g>
<g><path style="opacity:1" fill="#cab6db" d="M 506.5,126.5 C 508.411,126.574 509.578,127.574 510,129.5C 510.667,131.833 510.667,134.167 510,136.5C 505.263,137.469 500.43,137.803 495.5,137.5C 494.931,133.671 495.598,130.337 497.5,127.5C 496.597,130.391 496.264,133.391 496.5,136.5C 500.702,136.817 504.702,136.483 508.5,135.5C 508.935,132.162 508.268,129.162 506.5,126.5 Z"/></g>
<g><path style="opacity:1" fill="#886ba7" d="M 505.5,126.5 C 499.674,126.157 497.174,128.824 498,134.5C 501.394,135.456 504.894,135.789 508.5,135.5C 504.702,136.483 500.702,136.817 496.5,136.5C 496.264,133.391 496.597,130.391 497.5,127.5C 498.334,126.252 499.667,125.585 501.5,125.5C 503.045,125.511 504.378,125.844 505.5,126.5 Z"/></g>
<g><path style="opacity:1" fill="#5b3289" d="M 505.5,126.5 C 505.833,126.5 506.167,126.5 506.5,126.5C 508.268,129.162 508.935,132.162 508.5,135.5C 504.894,135.789 501.394,135.456 498,134.5C 497.174,128.824 499.674,126.157 505.5,126.5 Z"/></g>
<g><path style="opacity:1" fill="#5c269d" d="M 500.5,128.5 C 505.931,127.094 508.265,129.094 507.5,134.5C 505.08,134.708 502.747,134.374 500.5,133.5C 499.334,131.833 499.334,130.166 500.5,128.5 Z"/></g>
<g><path style="opacity:1" fill="#7b509b" d="M 301.5,118.5 C 301.5,119.167 301.5,119.833 301.5,120.5C 299.306,122.9 297.639,125.566 296.5,128.5C 296.804,125.478 297.304,122.478 298,119.5C 299.011,118.663 300.178,118.33 301.5,118.5 Z"/></g>
<g><path style="opacity:1" fill="#d6c0e9" d="M 238.5,105.5 C 239.167,105.833 239.833,106.167 240.5,106.5C 241.787,108.637 242.621,110.97 243,113.5C 245.099,123.78 243.266,133.114 237.5,141.5C 237.167,141.5 236.833,141.5 236.5,141.5C 237.332,138.173 238.832,135.173 241,132.5C 242.3,123.17 241.466,114.17 238.5,105.5 Z"/></g>
<g><path style="opacity:1" fill="#fcfbf9" d="M 229.5,101.5 C 229.414,102.496 229.748,103.329 230.5,104C 234.779,105.389 237.612,108.222 239,112.5C 239.317,117.141 239.484,121.641 239.5,126C 238.57,129.819 236.404,132.652 233,134.5C 233.468,128.387 234.135,122.387 235,116.5C 233.982,114.072 232.148,112.738 229.5,112.5C 228.97,110.076 228.136,107.743 227,105.5C 225.333,108.167 223.667,108.167 222,105.5C 218.502,105.797 215.502,107.13 213,109.5C 212.333,117.5 212.333,125.5 213,133.5C 213.383,134.056 213.883,134.389 214.5,134.5C 214.5,135.5 214.5,136.5 214.5,137.5C 219.285,137.394 223.619,138.727 227.5,141.5C 223.5,142.167 219.5,142.833 215.5,143.5C 213.394,145.269 211.728,147.435 210.5,150C 212.22,153.975 212.887,158.141 212.5,162.5C 209.5,162.5 206.5,162.5 203.5,162.5C 203.167,142.489 203.5,122.489 204.5,102.5C 209.181,100.965 214.014,100.298 219,100.5C 222.683,100.501 226.183,100.835 229.5,101.5 Z"/></g>
<g><path style="opacity:1" fill="#5b2d93" d="M 520.5,145.5 C 520.5,145.167 520.5,144.833 520.5,144.5C 521.167,144.5 521.5,144.167 521.5,143.5C 522.893,136.93 522.726,130.263 521,123.5C 518.453,118.09 514.286,115.424 508.5,115.5C 503.276,114.205 497.943,114.372 492.5,116C 490.382,117.049 488.716,118.549 487.5,120.5C 487.167,120.5 486.833,120.5 486.5,120.5C 486.238,119.022 486.571,117.689 487.5,116.5C 491.218,114.386 495.052,112.72 499,111.5C 506.03,111.763 512.863,112.929 519.5,115C 520.337,116.011 520.67,117.178 520.5,118.5C 522.842,118.504 524.842,119.337 526.5,121C 526.363,128.075 526.197,135.242 526,142.5C 524.259,143.758 522.426,144.758 520.5,145.5 Z"/></g>
<g><path style="opacity:1" fill="#fdfdf6" d="M 475.5,112.5 C 476.747,122.106 475.08,131.106 470.5,139.5C 469.591,137.625 468.257,136.292 466.5,135.5C 466.735,126.544 466.401,117.544 465.5,108.5C 461.415,108.418 458.748,106.418 457.5,102.5C 459.466,101.628 461.466,101.795 463.5,103C 467.418,106.435 471.418,109.602 475.5,112.5 Z"/></g>
<g><path style="opacity:1" fill="#eedff5" d="M 414.5,115.5 C 414.833,115.5 415.167,115.5 415.5,115.5C 419.557,116.745 423.223,118.745 426.5,121.5C 426.12,123.698 426.787,125.365 428.5,126.5C 429.449,131.74 429.782,137.073 429.5,142.5C 428.833,143.167 428.167,143.833 427.5,144.5C 419.5,144.5 411.5,144.5 403.5,144.5C 403.5,143.833 403.5,143.167 403.5,142.5C 411.154,141.93 418.821,141.596 426.5,141.5C 426.665,137.818 426.499,134.152 426,130.5C 424.848,128.351 423.348,126.518 421.5,125C 422.299,123.251 421.632,121.918 419.5,121C 419.833,120.667 420.167,120.333 420.5,120C 419.263,119.768 418.263,119.268 417.5,118.5C 412.684,117.35 407.684,117.184 402.5,118C 400.836,121.136 398.169,122.303 394.5,121.5C 396.473,120.194 398.139,118.527 399.5,116.5C 404.463,115.746 409.463,115.413 414.5,115.5 Z"/></g>
<g><path style="opacity:1" fill="#9073b1" d="M 508.5,116.5 C 508.5,116.167 508.5,115.833 508.5,115.5C 514.286,115.424 518.453,118.09 521,123.5C 522.726,130.263 522.893,136.93 521.5,143.5C 521.821,137.974 521.488,132.64 520.5,127.5C 519.048,121.048 515.048,117.381 508.5,116.5 Z"/></g>
<g><path style="opacity:1" fill="#fbfcf9" d="M 417.5,118.5 C 418.263,119.268 419.263,119.768 420.5,120C 420.167,120.333 419.833,120.667 419.5,121C 421.632,121.918 422.299,123.251 421.5,125C 423.348,126.518 424.848,128.351 426,130.5C 426.499,134.152 426.665,137.818 426.5,141.5C 418.821,141.596 411.154,141.93 403.5,142.5C 401.952,142.179 401.285,141.179 401.5,139.5C 407.176,139.666 412.843,139.499 418.5,139C 419.293,137.915 419.96,136.748 420.5,135.5C 419.865,131.633 419.199,127.8 418.5,124C 417.551,123.383 416.718,123.549 416,124.5C 415.333,123.833 414.667,123.167 414,122.5C 410.096,123.135 406.263,123.468 402.5,123.5C 402.421,122.07 402.754,120.736 403.5,119.5C 408.12,118.507 412.786,118.173 417.5,118.5 Z"/></g>
<g><path style="opacity:1" fill="#673c93" d="M 329.5,114.5 C 333.057,116.402 335.057,119.402 335.5,123.5C 334.5,122.833 333.5,122.167 332.5,121.5C 330.065,118.07 326.731,116.404 322.5,116.5C 316.933,115.196 311.266,115.196 305.5,116.5C 306.589,114.883 308.256,114.05 310.5,114C 316.87,113.294 323.203,113.461 329.5,114.5 Z"/></g>
<g><path style="opacity:1" fill="#c7acdc" d="M 322.5,116.5 C 317.637,116.181 312.97,116.514 308.5,117.5C 307.167,118.167 305.833,118.833 304.5,119.5C 303.391,119.557 302.391,119.89 301.5,120.5C 301.5,119.833 301.5,119.167 301.5,118.5C 303.062,118.267 304.395,117.6 305.5,116.5C 311.266,115.196 316.933,115.196 322.5,116.5 Z"/></g>
<g><path style="opacity:1" fill="#bea0d7" d="M 353.5,116.5 C 358.305,115.513 363.305,115.179 368.5,115.5C 372.47,115.984 376.136,117.317 379.5,119.5C 380.11,120.391 380.443,121.391 380.5,122.5C 372.403,117.074 363.403,115.074 353.5,116.5 Z"/></g>
<g><path style="opacity:1" fill="#fcfafb" d="M 262.5,115.5 C 267.681,116.167 273.015,116.833 278.5,117.5C 280.952,119.151 283.118,121.151 285,123.5C 285.219,124.938 285.719,126.271 286.5,127.5C 287.499,139.482 287.832,151.482 287.5,163.5C 283.885,163.845 280.552,163.178 277.5,161.5C 277.5,161.167 277.5,160.833 277.5,160.5C 277.666,150.161 277.5,139.828 277,129.5C 275.833,128.333 274.667,127.167 273.5,126C 269.642,125.19 265.976,125.357 262.5,126.5C 261.778,126.918 261.278,127.584 261,128.5C 260.5,139.828 260.333,151.162 260.5,162.5C 257.5,162.5 254.5,162.5 251.5,162.5C 251.5,141.833 251.5,121.167 251.5,100.5C 254.777,100.216 257.943,100.549 261,101.5C 261.174,106.351 261.674,111.018 262.5,115.5 Z"/></g>
<g><path style="opacity:1" fill="#8e71af" d="M 262.5,126.5 C 266.042,126.187 269.375,126.521 272.5,127.5C 269.5,127.5 266.5,127.5 263.5,127.5C 263.828,139.345 263.495,151.012 262.5,162.5C 262.5,150.5 262.5,138.5 262.5,126.5 Z"/></g>
<g><path style="opacity:1" fill="#d4bce9" d="M 262.5,126.5 C 265.976,125.357 269.642,125.19 273.5,126C 274.667,127.167 275.833,128.333 277,129.5C 277.5,139.828 277.666,150.161 277.5,160.5C 277.167,160.5 276.833,160.5 276.5,160.5C 276.666,150.494 276.5,140.494 276,130.5C 274.961,129.29 273.794,128.29 272.5,127.5C 269.375,126.521 266.042,126.187 262.5,126.5 Z"/></g>
<g><path style="opacity:1" fill="#5b2d89" d="M 166.5,93.5 C 167.552,93.3505 168.552,93.5172 169.5,94C 170.304,95.7713 171.471,97.2713 173,98.5C 173.667,113.5 173.667,128.5 173,143.5C 171.933,145.692 170.433,147.358 168.5,148.5C 171.11,143.178 172.11,137.511 171.5,131.5C 171.5,130.833 171.5,130.167 171.5,129.5C 172.628,119.646 172.461,109.646 171,99.5C 170.021,97.0324 168.521,95.0324 166.5,93.5 Z"/></g>
<g><path style="opacity:1" fill="#bfa8db" d="M 508.5,115.5 C 508.5,115.833 508.5,116.167 508.5,116.5C 503.456,116.173 498.456,116.506 493.5,117.5C 491.936,119.251 489.936,120.251 487.5,120.5C 488.716,118.549 490.382,117.049 492.5,116C 497.943,114.372 503.276,114.205 508.5,115.5 Z"/></g>
<g><path style="opacity:1" fill="#9274b5" d="M 414.5,115.5 C 409.463,115.413 404.463,115.746 399.5,116.5C 402.186,115.009 405.186,114.343 408.5,114.5C 410.696,114.505 412.696,114.838 414.5,115.5 Z"/></g>
<g><path style="opacity:1" fill="#8c6db0" d="M 368.5,115.5 C 363.305,115.179 358.305,115.513 353.5,116.5C 352.167,116.5 350.833,116.5 349.5,116.5C 352.865,114.961 356.531,114.294 360.5,114.5C 363.355,114.503 366.022,114.836 368.5,115.5 Z"/></g>
<g><path style="opacity:1" fill="#5f378f" d="M 240.5,106.5 C 241.167,106.5 241.833,106.5 242.5,106.5C 243.261,107.391 244.261,108.058 245.5,108.5C 245.833,109.5 246.167,110.5 246.5,111.5C 245.192,117.67 245.192,123.837 246.5,130C 245.407,132.442 244.407,134.942 243.5,137.5C 241.883,138.589 241.05,140.256 241,142.5C 239.855,141.316 238.688,141.316 237.5,142.5C 237.5,142.167 237.5,141.833 237.5,141.5C 243.266,133.114 245.099,123.78 243,113.5C 242.621,110.97 241.787,108.637 240.5,106.5 Z"/></g>
<g><path style="opacity:1" fill="#592991" d="M 48.5,87.5 C 48.2964,89.6854 47.6298,91.6854 46.5,93.5C 45.113,96.0528 43.2797,98.3861 41,100.5C 40.1754,110.342 40.342,120.009 41.5,129.5C 41.5,130.167 41.5,130.833 41.5,131.5C 41.5,133.167 41.5,134.833 41.5,136.5C 42.2398,141.32 43.5732,145.986 45.5,150.5C 43.2711,148.384 41.2711,146.051 39.5,143.5C 38.5801,136.547 37.2468,129.714 35.5,123C 37.5865,115.32 39.0865,107.487 40,99.5C 42.6964,95.3197 45.5298,91.3197 48.5,87.5 Z"/></g>
<g><path style="opacity:1" fill="#f3e5f8" d="M 229.5,112.5 C 225.182,109.38 220.515,108.714 215.5,110.5C 214.508,118.316 214.174,126.316 214.5,134.5C 213.883,134.389 213.383,134.056 213,133.5C 212.333,125.5 212.333,117.5 213,109.5C 215.502,107.13 218.502,105.797 222,105.5C 223.667,108.167 225.333,108.167 227,105.5C 228.136,107.743 228.97,110.076 229.5,112.5 Z"/></g>
<g><path style="opacity:1" fill="#632f9a" d="M 290.5,125.5 C 287.803,117.501 282.137,113.835 273.5,114.5C 270.167,114.5 266.833,114.5 263.5,114.5C 263.819,109.637 263.486,104.97 262.5,100.5C 261.833,100.167 261.167,99.8333 260.5,99.5C 258.883,98.0277 256.883,97.361 254.5,97.5C 252.9,97.5507 251.4,97.8841 250,98.5C 249.5,120.164 249.333,141.831 249.5,163.5C 248.503,142.34 248.169,121.007 248.5,99.5C 248.665,97.1732 249.331,95.0065 250.5,93C 253.971,91.964 257.471,91.1307 261,90.5C 263.505,92.1963 265.005,94.5297 265.5,97.5C 267.374,98.935 269.374,100.102 271.5,101C 270.315,102.353 268.981,103.52 267.5,104.5C 266.548,106.045 266.215,107.712 266.5,109.5C 271.957,111.445 277.623,112.612 283.5,113C 285.156,114.829 287.156,116.163 289.5,117C 290.444,119.719 290.777,122.552 290.5,125.5 Z"/></g>
<g><path style="opacity:1" fill="#8b71ad" d="M 262.5,100.5 C 263.486,104.97 263.819,109.637 263.5,114.5C 266.833,114.5 270.167,114.5 273.5,114.5C 273.5,114.833 273.5,115.167 273.5,115.5C 269.833,115.5 266.167,115.5 262.5,115.5C 262.5,110.5 262.5,105.5 262.5,100.5 Z"/></g>
<g><path style="opacity:1" fill="#6c4594" d="M 215.5,110.5 C 218.85,110.335 222.183,110.502 225.5,111C 226.381,111.708 227.047,112.542 227.5,113.5C 228.167,113.833 228.833,114.167 229.5,114.5C 229.5,119.5 229.5,124.5 229.5,129.5C 227.81,131.519 226.144,133.519 224.5,135.5C 221.119,135.54 217.786,135.207 214.5,134.5C 214.174,126.316 214.508,118.316 215.5,110.5 Z"/></g>
<g><path style="opacity:1" fill="#5e249a" d="M 227.5,113.5 C 228.084,118.499 228.251,123.499 228,128.5C 224.96,131.966 221.126,133.3 216.5,132.5C 216.334,126.491 216.501,120.491 217,114.5C 220.231,112.16 223.731,111.827 227.5,113.5 Z"/></g>
<g><path style="opacity:1" fill="#a78cc1" d="M 215.5,110.5 C 220.515,108.714 225.182,109.38 229.5,112.5C 229.5,113.167 229.5,113.833 229.5,114.5C 228.833,114.167 228.167,113.833 227.5,113.5C 227.047,112.542 226.381,111.708 225.5,111C 222.183,110.502 218.85,110.335 215.5,110.5 Z"/></g>
<g><path style="opacity:1" fill="#fcfcfa" d="M 466.5,135.5 C 466.846,138.602 466.179,141.435 464.5,144C 460.925,144.101 457.425,143.601 454,142.5C 450.658,142.515 447.991,143.848 446,146.5C 445.842,150.381 446.342,154.215 447.5,158C 447.241,159.787 446.575,161.287 445.5,162.5C 443.735,163.461 441.735,163.795 439.5,163.5C 438.348,146.24 438.182,128.907 439,111.5C 440.366,109.63 441.533,107.63 442.5,105.5C 444.167,104.167 445.833,104.167 447.5,105.5C 445.121,108.751 444.121,112.418 444.5,116.5C 445.5,116.5 446.5,116.5 447.5,116.5C 448.01,123.504 448.677,130.504 449.5,137.5C 450.784,138.585 452.284,139.252 454,139.5C 458.657,139.347 462.824,138.014 466.5,135.5 Z"/></g>
<g><path style="opacity:1" fill="#e2ceec" d="M 48.5,94.5 C 48.3067,97.3085 47.64,99.9752 46.5,102.5C 45.4423,106.471 44.2756,110.471 43,114.5C 42.5006,120.157 42.3339,125.824 42.5,131.5C 42.1667,131.5 41.8333,131.5 41.5,131.5C 41.5,130.833 41.5,130.167 41.5,129.5C 40.5451,118.757 41.8784,108.424 45.5,98.5C 46.8571,97.4097 47.8571,96.0764 48.5,94.5 Z"/></g>
<g><path style="opacity:1" fill="#69448e" d="M 46.5,93.5 C 46.3713,95.2161 46.038,96.8828 45.5,98.5C 41.8784,108.424 40.5451,118.757 41.5,129.5C 40.342,120.009 40.1754,110.342 41,100.5C 43.2797,98.3861 45.113,96.0528 46.5,93.5 Z"/></g>
<g><path style="opacity:1" fill="#f1e3f8" d="M 154.5,78.5 C 156.5,80.8333 158.5,83.1667 160.5,85.5C 161.728,86.3065 162.728,87.3065 163.5,88.5C 165.117,94.3966 167.284,100.063 170,105.5C 171.098,113.464 171.598,121.464 171.5,129.5C 171.5,130.167 171.5,130.833 171.5,131.5C 169.579,136.119 168.079,141.119 167,146.5C 166.148,147.571 165.315,148.571 164.5,149.5C 165.052,143.904 166.052,138.404 167.5,133C 166.919,132.107 166.585,131.107 166.5,130C 168.441,123.965 168.941,117.798 168,111.5C 166.271,105.051 164.271,98.7181 162,92.5C 158.732,91.2069 156.565,88.8736 155.5,85.5C 155.931,84.7065 156.265,83.8732 156.5,83C 155.586,81.5936 154.92,80.0936 154.5,78.5 Z"/></g>
<g><path style="opacity:1" fill="#9b79ba" d="M 466.5,100.5 C 470.237,100.241 472.57,101.907 473.5,105.5C 471.4,103.384 469.067,101.717 466.5,100.5 Z"/></g>
<g><path style="opacity:1" fill="#f7effa" d="M 443.5,98.5 C 450.876,98.2743 458.209,98.6076 465.5,99.5C 466.167,99.5 466.5,99.8333 466.5,100.5C 469.067,101.717 471.4,103.384 473.5,105.5C 473.4,108.108 474.067,110.442 475.5,112.5C 471.418,109.602 467.418,106.435 463.5,103C 461.466,101.795 459.466,101.628 457.5,102.5C 458.748,106.418 461.415,108.418 465.5,108.5C 466.401,117.544 466.735,126.544 466.5,135.5C 462.824,138.014 458.657,139.347 454,139.5C 452.284,139.252 450.784,138.585 449.5,137.5C 448.677,130.504 448.01,123.504 447.5,116.5C 446.5,116.5 445.5,116.5 444.5,116.5C 444.121,112.418 445.121,108.751 447.5,105.5C 445.833,104.167 444.167,104.167 442.5,105.5C 441.533,107.63 440.366,109.63 439,111.5C 438.182,128.907 438.348,146.24 439.5,163.5C 438.833,163.5 438.167,163.5 437.5,163.5C 437.333,143.497 437.5,123.497 438,103.5C 439.397,101.93 440.897,100.596 442.5,99.5C 443.167,99.5 443.5,99.1667 443.5,98.5 Z"/></g>
<g><path style="opacity:1" fill="#c2a9d5" d="M 464.5,128.5 C 464.657,129.873 464.49,131.207 464,132.5C 459.452,136.833 454.618,137.5 449.5,134.5C 450.167,134.5 450.833,134.5 451.5,134.5C 457.449,136.256 461.783,134.256 464.5,128.5 Z"/></g>
<g><path style="opacity:1" fill="#663f8f" d="M 459.5,110.5 C 461.371,110.859 462.871,111.859 464,113.5C 464.499,118.489 464.666,123.489 464.5,128.5C 461.783,134.256 457.449,136.256 451.5,134.5C 450.533,126.586 450.199,118.586 450.5,110.5C 453.5,110.5 456.5,110.5 459.5,110.5 Z"/></g>
<g><path style="opacity:1" fill="#5d2798" d="M 459.5,129.5 C 459.666,125.154 459.499,120.821 459,116.5C 457.556,114.845 455.722,114.178 453.5,114.5C 453.347,117.577 454.014,120.411 455.5,123C 453.928,125.919 453.261,129.085 453.5,132.5C 454.833,132.5 456.167,132.5 457.5,132.5C 455.923,135.017 454.09,135.017 452,132.5C 451.5,125.508 451.334,118.508 451.5,111.5C 453.833,111.5 456.167,111.5 458.5,111.5C 458.5,112.5 458.5,113.5 458.5,114.5C 461.907,115.174 463.24,117.341 462.5,121C 462.607,124.335 461.607,127.168 459.5,129.5 Z"/></g>
<g><path style="opacity:1" fill="#621fa8" d="M 459.5,129.5 C 459.573,131.027 458.906,132.027 457.5,132.5C 456.167,132.5 454.833,132.5 453.5,132.5C 453.261,129.085 453.928,125.919 455.5,123C 454.014,120.411 453.347,117.577 453.5,114.5C 455.722,114.178 457.556,114.845 459,116.5C 459.499,120.821 459.666,125.154 459.5,129.5 Z"/></g>
<g><path style="opacity:1" fill="#8b70a6" d="M 459.5,110.5 C 456.5,110.5 453.5,110.5 450.5,110.5C 450.199,118.586 450.533,126.586 451.5,134.5C 450.833,134.5 450.167,134.5 449.5,134.5C 449.169,126.14 449.502,117.807 450.5,109.5C 453.961,107.812 456.961,108.146 459.5,110.5 Z"/></g>
<g><path style="opacity:1" fill="#5f2698" d="M 329.5,114.5 C 323.203,113.461 316.87,113.294 310.5,114C 308.256,114.05 306.589,114.883 305.5,116.5C 304.395,117.6 303.062,118.267 301.5,118.5C 300.178,118.33 299.011,118.663 298,119.5C 297.304,122.478 296.804,125.478 296.5,128.5C 295.833,128.5 295.5,128.833 295.5,129.5C 292.246,132.033 290.58,131.033 290.5,126.5C 292.144,126.714 293.644,126.38 295,125.5C 294.347,119.073 297.514,114.906 304.5,113C 309.5,112.667 314.5,112.333 319.5,112C 320.876,109.46 320.21,107.46 317.5,106C 311.861,104.526 306.528,105.526 301.5,109C 297.981,109.377 294.481,109.877 291,110.5C 289.123,109.747 287.289,108.914 285.5,108C 291.403,104.949 297.737,103.282 304.5,103C 307.612,99.981 311.279,98.981 315.5,100C 316.567,103.975 319.233,105.475 323.5,104.5C 327.261,104.294 330.761,103.294 334,101.5C 338.271,103.496 342.771,103.996 347.5,103C 351.135,100.557 355.135,99.3901 359.5,99.5C 359.5,101.167 359.5,102.833 359.5,104.5C 353.83,104.801 348.497,106.301 343.5,109C 338.833,109 334.167,109 329.5,109C 328.464,110.776 328.464,112.609 329.5,114.5 Z"/></g>
<g><path style="opacity:1" fill="#653894" d="M 232.5,98.5 C 238.646,97.5129 241.313,100.18 240.5,106.5C 239.833,106.167 239.167,105.833 238.5,105.5C 237.127,103.793 235.461,102.46 233.5,101.5C 233.5,101.167 233.5,100.833 233.5,100.5C 233.167,99.8333 232.833,99.1667 232.5,98.5 Z"/></g>
<g><path style="opacity:1" fill="#7b529e" d="M 163.5,88.5 C 165.047,89.7682 166.047,91.4348 166.5,93.5C 168.521,95.0324 170.021,97.0324 171,99.5C 172.461,109.646 172.628,119.646 171.5,129.5C 171.598,121.464 171.098,113.464 170,105.5C 167.284,100.063 165.117,94.3966 163.5,88.5 Z"/></g>
<g><path style="opacity:1" fill="#956cba" d="M 443.5,98.5 C 450.833,97.1667 458.167,97.1667 465.5,98.5C 465.5,98.8333 465.5,99.1667 465.5,99.5C 458.209,98.6076 450.876,98.2743 443.5,98.5 Z"/></g>
<g><path style="opacity:1" fill="#946cb9" d="M 225.5,97.5 C 227.861,97.6741 230.194,98.0074 232.5,98.5C 232.833,99.1667 233.167,99.8333 233.5,100.5C 224.944,98.2131 216.277,97.8797 207.5,99.5C 208.263,98.7321 209.263,98.2321 210.5,98C 215.489,97.5007 220.489,97.3341 225.5,97.5 Z"/></g>
<g><path style="opacity:1" fill="#b498c6" d="M 48.5,92.5 C 48.5,93.1667 48.5,93.8333 48.5,94.5C 47.8571,96.0764 46.8571,97.4097 45.5,98.5C 46.038,96.8828 46.3713,95.2161 46.5,93.5C 47.1667,93.1667 47.8333,92.8333 48.5,92.5 Z"/></g>
<g><path style="opacity:1" fill="#b99bd2" d="M 53.5,83.5 C 52.5324,86.1003 51.1991,88.4336 49.5,90.5C 49.7247,87.4542 51.058,85.1209 53.5,83.5 Z"/></g>
<g><path style="opacity:1" fill="#5f3294" d="M 163.5,88.5 C 162.728,87.3065 161.728,86.3065 160.5,85.5C 158.649,79.6478 154.983,75.3145 149.5,72.5C 147.125,70.7762 144.792,69.1095 142.5,67.5C 140.598,63.943 137.598,61.943 133.5,61.5C 128.185,60.004 122.852,58.504 117.5,57C 111.509,56.5005 105.509,56.3338 99.5,56.5C 94.7732,56.779 90.1065,57.4456 85.5,58.5C 86.4525,56.39 88.1192,55.2233 90.5,55C 101.5,54.3333 112.5,54.3333 123.5,55C 136.675,58.2491 148.008,64.5824 157.5,74C 158.448,74.4828 159.448,74.6495 160.5,74.5C 161.43,79.133 162.43,83.7997 163.5,88.5 Z"/></g>
<g><path style="opacity:1" fill="#997fbe" d="M 149.5,72.5 C 154.983,75.3145 158.649,79.6478 160.5,85.5C 158.5,83.1667 156.5,80.8333 154.5,78.5C 152.833,76.5 151.167,74.5 149.5,72.5 Z"/></g>
<g><path style="opacity:1" fill="#633a92" d="M 85.5,58.5 C 83.9275,59.6873 82.2608,60.6873 80.5,61.5C 78.8333,62.1667 77.1667,62.8333 75.5,63.5C 68.9472,66.4288 63.6139,70.7621 59.5,76.5C 58.1103,77.8993 57.1103,79.5659 56.5,81.5C 55.5,82.1667 54.5,82.8333 53.5,83.5C 51.058,85.1209 49.7247,87.4542 49.5,90.5C 49.1667,91.1667 48.8333,91.8333 48.5,92.5C 47.8333,92.8333 47.1667,93.1667 46.5,93.5C 47.6298,91.6854 48.2964,89.6854 48.5,87.5C 49.8847,84.804 51.2181,82.1373 52.5,79.5C 53.552,79.6495 54.552,79.4828 55.5,79C 56.9256,76.1556 58.4256,73.3223 60,70.5C 65.0252,68.8109 68.8585,65.6442 71.5,61C 76.1913,60.2281 80.8579,59.3948 85.5,58.5 Z"/></g>
<g><path style="opacity:1" fill="#f7eefa" d="M 99.5,57.5 C 94.1711,60.0935 88.5044,62.2602 82.5,64C 85.1667,65 85.1667,66 82.5,67C 80.1009,67.711 77.7676,67.5443 75.5,66.5C 74.316,68.0461 73.316,69.7127 72.5,71.5C 67.5012,72.1616 64.1679,74.8283 62.5,79.5C 61.8333,79.1667 61.1667,78.8333 60.5,78.5C 59.1482,79.5244 57.8149,80.5244 56.5,81.5C 57.1103,79.5659 58.1103,77.8993 59.5,76.5C 64.8728,72.156 70.2061,67.8227 75.5,63.5C 77.1667,62.8333 78.8333,62.1667 80.5,61.5C 86.6441,59.4042 92.9775,58.0709 99.5,57.5 Z"/></g>
<g><path style="opacity:1" fill="#aa8fcb" d="M 75.5,63.5 C 70.2061,67.8227 64.8728,72.156 59.5,76.5C 63.6139,70.7621 68.9472,66.4288 75.5,63.5 Z"/></g>
<g><path style="opacity:1" fill="#9576b7" d="M 133.5,61.5 C 137.598,61.943 140.598,63.943 142.5,67.5C 141.391,67.4431 140.391,67.1098 139.5,66.5C 137.131,65.31 135.131,63.6433 133.5,61.5 Z"/></g>
<g><path style="opacity:1" fill="#eee1f4" d="M 99.5,57.5 C 99.5,57.1667 99.5,56.8333 99.5,56.5C 105.509,56.3338 111.509,56.5005 117.5,57C 122.852,58.504 128.185,60.004 133.5,61.5C 135.131,63.6433 137.131,65.31 139.5,66.5C 137.418,66.528 135.584,65.8613 134,64.5C 133.667,64.8333 133.333,65.1667 133,65.5C 128.973,61.6375 124.306,60.6375 119,62.5C 115.782,62.1039 113.282,60.6039 111.5,58C 107.514,57.5012 103.514,57.3345 99.5,57.5 Z"/></g>
<g><path style="opacity:1" fill="#b092c9" d="M 99.5,56.5 C 99.5,56.8333 99.5,57.1667 99.5,57.5C 92.9775,58.0709 86.6441,59.4042 80.5,61.5C 82.2608,60.6873 83.9275,59.6873 85.5,58.5C 90.1065,57.4456 94.7732,56.779 99.5,56.5 Z"/></g>
<g><path style="opacity:1" fill="#fdfdfc" d="M 99.5,57.5 C 103.514,57.3345 107.514,57.5012 111.5,58C 113.282,60.6039 115.782,62.1039 119,62.5C 124.306,60.6375 128.973,61.6375 133,65.5C 133.333,65.1667 133.667,64.8333 134,64.5C 135.584,65.8613 137.418,66.528 139.5,66.5C 140.391,67.1098 141.391,67.4431 142.5,67.5C 144.792,69.1095 147.125,70.7762 149.5,72.5C 151.167,74.5 152.833,76.5 154.5,78.5C 154.92,80.0936 155.586,81.5936 156.5,83C 156.265,83.8732 155.931,84.7065 155.5,85.5C 156.565,88.8736 158.732,91.2069 162,92.5C 164.271,98.7181 166.271,105.051 168,111.5C 168.941,117.798 168.441,123.965 166.5,130C 166.585,131.107 166.919,132.107 167.5,133C 166.052,138.404 165.052,143.904 164.5,149.5C 162.421,153.993 160.088,158.326 157.5,162.5C 153.474,166.195 149.474,169.862 145.5,173.5C 143.833,174.167 142.167,174.833 140.5,175.5C 134.617,176.119 129.617,178.452 125.5,182.5C 123.021,181.036 121.355,181.703 120.5,184.5C 120.5,184.833 120.5,185.167 120.5,185.5C 107.581,186.283 94.9143,184.95 82.5,181.5C 81.8333,181.5 81.1667,181.5 80.5,181.5C 74.6891,176.008 68.3558,171.341 61.5,167.5C 58.0637,166.397 56.0637,164.064 55.5,160.5C 54.2134,157.594 53.2134,154.594 52.5,151.5C 44.1009,136.116 42.4343,119.949 47.5,103C 47.2716,102.601 46.9382,102.435 46.5,102.5C 47.64,99.9752 48.3067,97.3085 48.5,94.5C 48.5,93.8333 48.5,93.1667 48.5,92.5C 48.8333,91.8333 49.1667,91.1667 49.5,90.5C 51.1991,88.4336 52.5324,86.1003 53.5,83.5C 54.5,82.8333 55.5,82.1667 56.5,81.5C 57.8149,80.5244 59.1482,79.5244 60.5,78.5C 61.1667,78.8333 61.8333,79.1667 62.5,79.5C 64.1679,74.8283 67.5012,72.1616 72.5,71.5C 73.316,69.7127 74.316,68.0461 75.5,66.5C 77.7676,67.5443 80.1009,67.711 82.5,67C 85.1667,66 85.1667,65 82.5,64C 88.5044,62.2602 94.1711,60.0935 99.5,57.5 Z"/></g>
<g><path style="opacity:1" fill="#d4bce6" d="M 92.5,146.5 C 99.3828,148.769 106.383,149.102 113.5,147.5C 113.334,152.179 113.501,156.845 114,161.5C 117.243,163.263 120.743,163.929 124.5,163.5C 120.288,164.997 116.121,164.664 112,162.5C 111.517,161.552 111.351,160.552 111.5,159.5C 111.5,155.833 111.5,152.167 111.5,148.5C 106.528,149.422 101.528,149.588 96.5,149C 94.6803,148.8 93.347,147.966 92.5,146.5 Z"/></g>
<g><path style="opacity:1" fill="#613590" d="M 124.5,111.5 C 124.5,128.833 124.5,146.167 124.5,163.5C 120.743,163.929 117.243,163.263 114,161.5C 113.501,156.845 113.334,152.179 113.5,147.5C 106.383,149.102 99.3828,148.769 92.5,146.5C 91.5,145.167 90.5,143.833 89.5,142.5C 92.3554,143.117 95.0221,144.117 97.5,145.5C 99.5,145.5 101.5,145.5 103.5,145.5C 107.463,144.56 111.463,144.393 115.5,145C 116.358,146.57 117.025,148.237 117.5,150C 116,153.998 116.333,157.832 118.5,161.5C 120.045,162.452 121.712,162.785 123.5,162.5C 123.17,145.325 123.503,128.325 124.5,111.5 Z"/></g>
<g><path style="opacity:1" fill="#5c269a" d="M 102.5,78.5 C 102.387,81.0488 103.054,83.3821 104.5,85.5C 107.492,86.8873 110.325,88.5539 113,90.5C 113.535,95.5452 116.369,98.5452 121.5,99.5C 125.295,100.617 129.295,101.283 133.5,101.5C 133.85,104.453 132.85,106.787 130.5,108.5C 129.5,108.5 128.5,108.5 127.5,108.5C 125.5,108.5 124.5,109.5 124.5,111.5C 123.503,128.325 123.17,145.325 123.5,162.5C 121.712,162.785 120.045,162.452 118.5,161.5C 116.333,157.832 116,153.998 117.5,150C 117.025,148.237 116.358,146.57 115.5,145C 111.463,144.393 107.463,144.56 103.5,145.5C 104.429,144.685 105.429,143.852 106.5,143C 105.29,141.961 104.29,140.794 103.5,139.5C 107.884,140.424 111.218,139.091 113.5,135.5C 114.309,133.972 114.976,132.306 115.5,130.5C 116.167,127.5 116.833,124.5 117.5,121.5C 117.839,126.93 117.339,132.264 116,137.5C 113.444,138.219 112.277,139.886 112.5,142.5C 115.634,143.241 118.634,144.241 121.5,145.5C 122.65,134.662 122.65,123.828 121.5,113C 122.497,110.167 123.497,107.334 124.5,104.5C 123.127,104.343 121.793,104.51 120.5,105C 121.03,107.136 120.197,108.97 118,110.5C 117.505,112.473 117.338,114.473 117.5,116.5C 116.681,113.695 116.181,110.695 116,107.5C 114.6,106.884 113.1,106.551 111.5,106.5C 106.059,106.875 100.726,107.709 95.5,109C 91.9585,111.537 90.9585,114.703 92.5,118.5C 91.2106,116.752 89.7106,116.419 88,117.5C 87.3333,121.833 87.3333,126.167 88,130.5C 89.3095,134.07 90.1428,137.737 90.5,141.5C 93.6145,141.555 95.9478,142.888 97.5,145.5C 95.0221,144.117 92.3554,143.117 89.5,142.5C 86.1627,131.481 84.8293,120.148 85.5,108.5C 84.1667,108.5 82.8333,108.5 81.5,108.5C 78.5201,107.171 77.1868,104.837 77.5,101.5C 87.8387,101.666 98.172,101.5 108.5,101C 109.985,99.2435 109.652,98.0768 107.5,97.5C 105.241,94.0622 102.741,90.7289 100,87.5C 95.8463,86.0129 93.0129,83.1796 91.5,79C 92.0439,77.0532 93.3772,76.2199 95.5,76.5C 97.9322,76.8864 100.266,77.5531 102.5,78.5 Z"/></g>
<g><path style="opacity:1" fill="#5f23a2" d="M 92.5,118.5 C 93.3267,123.651 93.8267,128.984 94,134.5C 94.3826,135.056 94.8826,135.389 95.5,135.5C 96.2674,136.172 96.9341,137.005 97.5,138C 99.7078,138.191 101.708,138.691 103.5,139.5C 104.29,140.794 105.29,141.961 106.5,143C 105.429,143.852 104.429,144.685 103.5,145.5C 101.5,145.5 99.5,145.5 97.5,145.5C 95.9478,142.888 93.6145,141.555 90.5,141.5C 90.1428,137.737 89.3095,134.07 88,130.5C 87.3333,126.167 87.3333,121.833 88,117.5C 89.7106,116.419 91.2106,116.752 92.5,118.5 Z"/></g>
<g><path style="opacity:1" fill="#613789" d="M 96.5,111.5 C 96.176,118.354 96.5093,125.021 97.5,131.5C 99.4134,137.19 103.08,138.856 108.5,136.5C 109.791,136.737 110.791,136.404 111.5,135.5C 112.167,135.5 112.833,135.5 113.5,135.5C 111.218,139.091 107.884,140.424 103.5,139.5C 101.708,138.691 99.7078,138.191 97.5,138C 96.9341,137.005 96.2674,136.172 95.5,135.5C 95.1743,127.316 95.5076,119.316 96.5,111.5 Z"/></g>
<g><path style="opacity:1" fill="#ebdbf2" d="M 76.5,109.5 C 79.1194,109.232 81.6194,109.565 84,110.5C 84.3333,119.167 84.6667,127.833 85,136.5C 86.2425,138.859 87.7425,140.859 89.5,142.5C 90.5,143.833 91.5,145.167 92.5,146.5C 93.347,147.966 94.6803,148.8 96.5,149C 101.528,149.588 106.528,149.422 111.5,148.5C 111.5,152.167 111.5,155.833 111.5,159.5C 110.523,156.713 110.19,153.713 110.5,150.5C 104.789,150.405 99.2889,150.405 94,150.5C 92.8289,149.107 91.3289,148.273 89.5,148C 88.0237,145.357 86.0237,143.19 83.5,141.5C 82.5248,131.553 82.1915,121.553 82.5,111.5C 80.1016,111.741 78.1016,111.074 76.5,109.5 Z"/></g>
<g><path style="opacity:1" fill="#5f23a2" d="M 117.5,121.5 C 117.5,119.833 117.5,118.167 117.5,116.5C 117.338,114.473 117.505,112.473 118,110.5C 120.197,108.97 121.03,107.136 120.5,105C 121.793,104.51 123.127,104.343 124.5,104.5C 123.497,107.334 122.497,110.167 121.5,113C 122.65,123.828 122.65,134.662 121.5,145.5C 118.634,144.241 115.634,143.241 112.5,142.5C 112.277,139.886 113.444,138.219 116,137.5C 117.339,132.264 117.839,126.93 117.5,121.5 Z"/></g>
<g><path style="opacity:1" fill="#8762a9" d="M 127.5,108.5 C 127.167,109.167 126.833,109.833 126.5,110.5C 126.5,128.167 126.5,145.833 126.5,163.5C 125.833,163.5 125.167,163.5 124.5,163.5C 124.5,146.167 124.5,128.833 124.5,111.5C 124.5,109.5 125.5,108.5 127.5,108.5 Z"/></g>
<g><path style="opacity:1" fill="#592b90" d="M 117.5,116.5 C 117.5,118.167 117.5,119.833 117.5,121.5C 116.833,124.5 116.167,127.5 115.5,130.5C 115.666,124.158 115.5,117.825 115,111.5C 114.583,110.244 113.75,109.577 112.5,109.5C 106.729,108.887 101.396,109.554 96.5,111.5C 95.5076,119.316 95.1743,127.316 95.5,135.5C 94.8826,135.389 94.3826,135.056 94,134.5C 93.8267,128.984 93.3267,123.651 92.5,118.5C 90.9585,114.703 91.9585,111.537 95.5,109C 100.726,107.709 106.059,106.875 111.5,106.5C 113.1,106.551 114.6,106.884 116,107.5C 116.181,110.695 116.681,113.695 117.5,116.5 Z"/></g>
<g><path style="opacity:1" fill="#644091" d="M 112.5,110.5 C 112.5,110.167 112.5,109.833 112.5,109.5C 113.75,109.577 114.583,110.244 115,111.5C 115.5,117.825 115.666,124.158 115.5,130.5C 114.976,132.306 114.309,133.972 113.5,135.5C 113.826,126.983 113.493,118.65 112.5,110.5 Z"/></g>
<g><path style="opacity:1" fill="#d6c0ea" d="M 112.5,110.5 C 113.493,118.65 113.826,126.983 113.5,135.5C 112.833,135.5 112.167,135.5 111.5,135.5C 111.5,127.5 111.5,119.5 111.5,111.5C 107.167,111.5 102.833,111.5 98.5,111.5C 98.1156,118.589 98.6156,125.589 100,132.5C 101.812,135.821 104.645,137.155 108.5,136.5C 103.08,138.856 99.4134,137.19 97.5,131.5C 97.5,124.5 97.5,117.5 97.5,110.5C 102.5,110.5 107.5,110.5 112.5,110.5 Z"/></g>
<g><path style="opacity:1" fill="#77529a" d="M 75.5,107.5 C 77.4352,108.15 79.4352,108.483 81.5,108.5C 82.8333,108.5 84.1667,108.5 85.5,108.5C 84.8293,120.148 86.1627,131.481 89.5,142.5C 87.7425,140.859 86.2425,138.859 85,136.5C 84.6667,127.833 84.3333,119.167 84,110.5C 81.6194,109.565 79.1194,109.232 76.5,109.5C 76.1667,108.833 75.8333,108.167 75.5,107.5 Z"/></g>
<g><path style="opacity:1" fill="#ab8ec8" d="M 112.5,109.5 C 112.5,109.833 112.5,110.167 112.5,110.5C 107.5,110.5 102.5,110.5 97.5,110.5C 97.5,117.5 97.5,124.5 97.5,131.5C 96.5093,125.021 96.176,118.354 96.5,111.5C 101.396,109.554 106.729,108.887 112.5,109.5 Z"/></g>
<g><path style="opacity:1" fill="#faeffc" d="M 136.5,101.5 C 137.641,104.64 137.808,107.973 137,111.5C 134.787,112.802 132.454,113.802 130,114.5C 129.809,124.547 129.309,134.547 128.5,144.5C 128.772,150.574 129.105,156.407 129.5,162C 128.756,163.039 127.756,163.539 126.5,163.5C 126.5,145.833 126.5,128.167 126.5,110.5C 134.327,112.336 137.66,109.336 136.5,101.5 Z"/></g>
<g><path style="opacity:1" fill="#fdfafa" d="M 111.5,135.5 C 110.791,136.404 109.791,136.737 108.5,136.5C 104.645,137.155 101.812,135.821 100,132.5C 98.6156,125.589 98.1156,118.589 98.5,111.5C 102.833,111.5 107.167,111.5 111.5,111.5C 111.5,119.5 111.5,127.5 111.5,135.5 Z"/></g>
<g><path style="opacity:1" fill="#9274b0" d="M 134.5,100.5 C 135.167,100.833 135.833,101.167 136.5,101.5C 137.66,109.336 134.327,112.336 126.5,110.5C 126.833,109.833 127.167,109.167 127.5,108.5C 128.5,108.5 129.5,108.5 130.5,108.5C 131.833,108.5 133.167,108.5 134.5,108.5C 134.5,105.833 134.5,103.167 134.5,100.5 Z"/></g>
<g><path style="opacity:1" fill="#6d4593" d="M 121.5,99.5 C 125.898,99.2941 130.232,99.6274 134.5,100.5C 134.5,103.167 134.5,105.833 134.5,108.5C 133.167,108.5 131.833,108.5 130.5,108.5C 132.85,106.787 133.85,104.453 133.5,101.5C 129.295,101.283 125.295,100.617 121.5,99.5 Z"/></g>
<g><path style="opacity:1" fill="#6d3b99" d="M 107.5,97.5 C 109.652,98.0768 109.985,99.2435 108.5,101C 98.172,101.5 87.8387,101.666 77.5,101.5C 77.1868,104.837 78.5201,107.171 81.5,108.5C 79.4352,108.483 77.4352,108.15 75.5,107.5C 75.2436,105.208 75.5769,103.041 76.5,101C 87.0081,100.83 97.3415,100.33 107.5,99.5C 107.5,98.8333 107.5,98.1667 107.5,97.5 Z"/></g>
<g><path style="opacity:1" fill="#9974b8" d="M 107.5,99.5 C 97.3415,100.33 87.0081,100.83 76.5,101C 75.5769,103.041 75.2436,105.208 75.5,107.5C 74.1857,105.105 74.1857,102.605 75.5,100C 86.1615,99.5002 96.8281,99.3335 107.5,99.5 Z"/></g>
<g><path style="opacity:1" fill="#ecdef4" d="M 136.5,101.5 C 135.833,101.167 135.167,100.833 134.5,100.5C 130.232,99.6274 125.898,99.2941 121.5,99.5C 116.242,91.9055 110.242,84.9055 103.5,78.5C 101.731,76.5737 99.5648,75.2403 97,74.5C 93.8365,75.2497 90.6699,75.9164 87.5,76.5C 87.3505,77.552 87.5172,78.552 88,79.5C 94.6704,85.3379 101.17,91.3379 107.5,97.5C 107.5,98.1667 107.5,98.8333 107.5,99.5C 96.8281,99.3335 86.1615,99.5002 75.5,100C 74.1857,102.605 74.1857,105.105 75.5,107.5C 75.8333,108.167 76.1667,108.833 76.5,109.5C 75.5041,109.586 74.6708,109.252 74,108.5C 73.2165,105.24 73.3832,102.073 74.5,99C 84.1609,98.5002 93.8276,98.3335 103.5,98.5C 103.5,97.5 103.5,96.5 103.5,95.5C 102.167,95.5 100.833,95.5 99.5,95.5C 99.6303,92.7625 98.4636,90.7625 96,89.5C 94.7387,89.7591 93.7387,90.4258 93,91.5C 91.152,89.982 89.652,88.1487 88.5,86C 86.3825,85.7398 84.7158,84.7398 83.5,83C 84.1667,82.6667 84.8333,82.3333 85.5,82C 84.7069,80.9148 84.0402,79.7481 83.5,78.5C 84.9814,77.5197 86.3147,76.353 87.5,75C 91.0334,74.6942 94.3667,73.8609 97.5,72.5C 99.6113,72.4858 101.445,73.1525 103,74.5C 107.288,73.763 109.621,75.763 110,80.5C 111.333,81.8333 112.667,83.1667 114,84.5C 114.333,84.1667 114.667,83.8333 115,83.5C 115.667,86.1667 116.333,88.8333 117,91.5C 118.11,93.0368 119.61,93.7035 121.5,93.5C 121.297,95.3904 121.963,96.8904 123.5,98C 127.5,98.3333 131.5,98.6667 135.5,99C 136.252,99.6708 136.586,100.504 136.5,101.5 Z"/></g>
<g><path style="opacity:1" fill="#643795" d="M 102.5,78.5 C 102.833,78.5 103.167,78.5 103.5,78.5C 110.242,84.9055 116.242,91.9055 121.5,99.5C 116.369,98.5452 113.535,95.5452 113,90.5C 110.325,88.5539 107.492,86.8873 104.5,85.5C 103.054,83.3821 102.387,81.0488 102.5,78.5 Z"/></g>
<g><path style="opacity:1" fill="#714c97" d="M 103.5,78.5 C 103.167,78.5 102.833,78.5 102.5,78.5C 100.266,77.5531 97.9322,76.8864 95.5,76.5C 93.3772,76.2199 92.0439,77.0532 91.5,79C 93.0129,83.1796 95.8463,86.0129 100,87.5C 102.741,90.7289 105.241,94.0622 107.5,97.5C 101.17,91.3379 94.6704,85.3379 88,79.5C 87.5172,78.552 87.3505,77.552 87.5,76.5C 90.6699,75.9164 93.8365,75.2497 97,74.5C 99.5648,75.2403 101.731,76.5737 103.5,78.5 Z"/></g>
<g><path style="opacity:1" fill="#e7e7e7" d="M 565.5,239.5 C 377.5,240.167 189.5,240.833 1.5,241.5C 0.565525,242.568 0.232191,243.901 0.5,245.5C 0.166667,245.5 -0.166667,245.5 -0.5,245.5C -0.5,243.833 -0.5,242.167 -0.5,240.5C 188.097,239.501 376.764,239.168 565.5,239.5 Z"/></g>
<g><path style="opacity:1" fill="#c4c4c4" d="M 565.5,-0.5 C 565.833,-0.5 566.167,-0.5 566.5,-0.5C 566.5,80.1667 566.5,160.833 566.5,241.5C 378.167,241.5 189.833,241.5 1.5,241.5C 189.5,240.833 377.5,240.167 565.5,239.5C 565.5,159.5 565.5,79.5 565.5,-0.5 Z"/></g>
<g><path style="opacity:1" fill="#fefefe" d="M 1.5,241.5 C 189.833,241.5 378.167,241.5 566.5,241.5C 566.5,321.5 566.5,401.5 566.5,481.5C 378.167,481.5 189.833,481.5 1.5,481.5C 1.83262,402.665 1.49929,323.998 0.5,245.5C 0.232191,243.901 0.565525,242.568 1.5,241.5 Z"/></g>
<g><path style="opacity:1" fill="#959595" d="M -0.5,245.5 C -0.166667,245.5 0.166667,245.5 0.5,245.5C 1.49929,323.998 1.83262,402.665 1.5,481.5C 0.833333,481.5 0.166667,481.5 -0.5,481.5C -0.5,402.833 -0.5,324.167 -0.5,245.5 Z"/></g>
<g><path style="opacity:1" fill="#515151" d="M 558.5,256.5 C 377.5,256.5 196.5,256.5 15.5,256.5C 15.5,326.833 15.5,397.167 15.5,467.5C 196.5,467.5 377.5,467.5 558.5,467.5C 377.334,468.5 196.001,468.833 14.5,468.5C 14.5,397.5 14.5,326.5 14.5,255.5C 196.001,255.167 377.334,255.5 558.5,256.5 Z"/></g>
<g><path style="opacity:1" fill="#010101" d="M 558.5,256.5 C 558.5,326.833 558.5,397.167 558.5,467.5C 377.5,467.5 196.5,467.5 15.5,467.5C 15.5,397.167 15.5,326.833 15.5,256.5C 196.5,256.5 377.5,256.5 558.5,256.5 Z"/></g>
<g><path style="opacity:1" fill="#fbfbfb" d="M 81.5,283.5 C 81.3333,317.168 81.5,350.835 82,384.5C 82.1981,386.382 82.6981,388.048 83.5,389.5C 85.97,402.144 92.97,411.144 104.5,416.5C 106.102,418.074 108.102,418.741 110.5,418.5C 117.116,419.707 123.782,419.707 130.5,418.5C 134.236,418.459 137.236,417.126 139.5,414.5C 150.111,406.974 156.444,396.641 158.5,383.5C 159.498,350.671 159.832,317.671 159.5,284.5C 166.5,284.5 173.5,284.5 180.5,284.5C 180.5,335.167 180.5,385.833 180.5,436.5C 173.5,436.5 166.5,436.5 159.5,436.5C 159.5,432.167 159.5,427.833 159.5,423.5C 158.209,423.263 157.209,423.596 156.5,424.5C 155.5,425.833 154.5,427.167 153.5,428.5C 132.103,442.703 109.77,444.203 86.5,433C 70.6078,422.393 61.4411,407.56 59,388.5C 58.5,353.502 58.3333,318.502 58.5,283.5C 66.1667,283.5 73.8333,283.5 81.5,283.5 Z"/></g>
<g><path style="opacity:1" fill="#636363" d="M 81.5,283.5 C 82.2065,318.68 82.8732,354.013 83.5,389.5C 82.6981,388.048 82.1981,386.382 82,384.5C 81.5,350.835 81.3333,317.168 81.5,283.5 Z"/></g>
<g><path style="opacity:1" fill="#cdcdcd" d="M 180.5,283.5 C 181.499,334.664 181.832,385.997 181.5,437.5C 173.833,437.5 166.167,437.5 158.5,437.5C 159.097,432.706 158.43,428.373 156.5,424.5C 157.209,423.596 158.209,423.263 159.5,423.5C 159.5,427.833 159.5,432.167 159.5,436.5C 166.5,436.5 173.5,436.5 180.5,436.5C 180.5,385.833 180.5,335.167 180.5,284.5C 180.5,284.167 180.5,283.833 180.5,283.5 Z"/></g>
<g><path style="opacity:1" fill="#fafafa" d="M 199.5,283.5 C 206.5,283.5 213.5,283.5 220.5,283.5C 220.167,302.179 220.5,320.845 221.5,339.5C 222.107,339.376 222.44,339.043 222.5,338.5C 222.833,337.833 223.167,337.167 223.5,336.5C 237.829,324.848 254.162,320.515 272.5,323.5C 274.515,324.924 276.848,325.59 279.5,325.5C 279.833,325.5 280.167,325.5 280.5,325.5C 282.033,327.245 284.033,328.245 286.5,328.5C 305.261,337.051 316.594,351.384 320.5,371.5C 320.77,380.582 320.103,389.582 318.5,398.5C 310.38,421.454 294.38,435.287 270.5,440C 263.654,440.821 256.987,440.654 250.5,439.5C 246.089,437.303 241.422,435.636 236.5,434.5C 231.182,432.508 226.516,429.508 222.5,425.5C 222.44,424.957 222.107,424.624 221.5,424.5C 220.508,428.783 220.174,433.116 220.5,437.5C 213.5,437.5 206.5,437.5 199.5,437.5C 199.5,386.167 199.5,334.833 199.5,283.5 Z"/></g>
<g><path style="opacity:1" fill="#a1a1a1" d="M 220.5,283.5 C 220.833,283.5 221.167,283.5 221.5,283.5C 221.17,302.008 221.503,320.341 222.5,338.5C 222.44,339.043 222.107,339.376 221.5,339.5C 220.5,320.845 220.167,302.179 220.5,283.5 Z"/></g>
<g><path style="opacity:1" fill="#2a2a2a" d="M 221.5,283.5 C 222.167,301.167 222.833,318.833 223.5,336.5C 223.167,337.167 222.833,337.833 222.5,338.5C 221.503,320.341 221.17,302.008 221.5,283.5 Z"/></g>
<g><path style="opacity:1" fill="#e5e5e5" d="M 180.5,283.5 C 180.5,283.833 180.5,284.167 180.5,284.5C 173.5,284.5 166.5,284.5 159.5,284.5C 159.832,317.671 159.498,350.671 158.5,383.5C 158.5,350.167 158.5,316.833 158.5,283.5C 165.833,283.5 173.167,283.5 180.5,283.5 Z"/></g>
<g><path style="opacity:1" fill="#606060" d="M 272.5,323.5 C 275.152,323.41 277.485,324.076 279.5,325.5C 276.848,325.59 274.515,324.924 272.5,323.5 Z"/></g>
<g><path style="opacity:1" fill="#fafafa" d="M 411.5,327.5 C 411.973,328.906 412.973,329.573 414.5,329.5C 425.945,335.612 434.278,344.612 439.5,356.5C 440.256,360.767 441.589,364.767 443.5,368.5C 443.5,375.167 443.5,381.833 443.5,388.5C 413.167,388.5 382.833,388.5 352.5,388.5C 352.138,392.081 353.138,395.081 355.5,397.5C 360.893,411.232 370.893,418.898 385.5,420.5C 389.981,421.648 394.648,421.815 399.5,421C 400.056,420.617 400.389,420.117 400.5,419.5C 409.274,416.366 416.774,411.366 423,404.5C 426.463,407.805 430.296,410.472 434.5,412.5C 435.925,413.922 436.925,415.589 437.5,417.5C 430.94,425.444 422.94,431.444 413.5,435.5C 411.62,435.229 410.287,435.896 409.5,437.5C 390.574,443.161 372.574,440.994 355.5,431C 343.6,422.624 335.934,411.457 332.5,397.5C 331.177,389.561 330.511,381.561 330.5,373.5C 330.205,371.265 330.539,369.265 331.5,367.5C 332.924,365.485 333.59,363.152 333.5,360.5C 339.044,345.624 349.044,334.957 363.5,328.5C 367.533,327.975 371.2,326.642 374.5,324.5C 386.975,322.582 399.308,323.582 411.5,327.5 Z"/></g>
<g><path style="opacity:1" fill="#bdbdbd" d="M 457.5,326.5 C 464.648,325.508 471.981,325.175 479.5,325.5C 479.183,329.702 479.517,333.702 480.5,337.5C 480.44,338.043 480.107,338.376 479.5,338.5C 478.509,334.555 478.176,330.555 478.5,326.5C 471.5,326.5 464.5,326.5 457.5,326.5 Z"/></g>
<g><path style="opacity:1" fill="#fbfbfb" d="M 512.5,344.5 C 507.821,344.334 503.155,344.501 498.5,345C 496.509,345.374 494.842,346.207 493.5,347.5C 489.167,349.833 485.833,353.167 483.5,357.5C 482.094,357.973 481.427,358.973 481.5,360.5C 481.291,361.922 480.791,363.255 480,364.5C 479.5,388.831 479.333,413.164 479.5,437.5C 472.167,437.5 464.833,437.5 457.5,437.5C 457.5,400.5 457.5,363.5 457.5,326.5C 464.5,326.5 471.5,326.5 478.5,326.5C 478.176,330.555 478.509,334.555 479.5,338.5C 480.107,338.376 480.44,338.043 480.5,337.5C 482.913,332.752 486.58,329.419 491.5,327.5C 498.349,325.775 505.349,325.109 512.5,325.5C 512.5,331.833 512.5,338.167 512.5,344.5 Z"/></g>
<g><path style="opacity:1" fill="#cdcdcd" d="M 513.5,324.5 C 513.824,331.354 513.491,338.021 512.5,344.5C 512.5,338.167 512.5,331.833 512.5,325.5C 505.349,325.109 498.349,325.775 491.5,327.5C 492.842,326.207 494.509,325.374 496.5,325C 502.157,324.501 507.824,324.334 513.5,324.5 Z"/></g>
<g><path style="opacity:1" fill="#7f7f7f" d="M 280.5,325.5 C 282.967,325.755 284.967,326.755 286.5,328.5C 284.033,328.245 282.033,327.245 280.5,325.5 Z"/></g>
<g><path style="opacity:1" fill="#b1b1b1" d="M 374.5,324.5 C 371.2,326.642 367.533,327.975 363.5,328.5C 366.66,326 370.327,324.667 374.5,324.5 Z"/></g>
<g><path style="opacity:1" fill="#838383" d="M 479.5,325.5 C 471.981,325.175 464.648,325.508 457.5,326.5C 457.5,363.5 457.5,400.5 457.5,437.5C 464.833,437.5 472.167,437.5 479.5,437.5C 472.018,438.492 464.352,438.825 456.5,438.5C 456.5,400.5 456.5,362.5 456.5,324.5C 464.352,324.175 472.018,324.508 479.5,325.5 Z"/></g>
<g><path style="opacity:1" fill="#6e6e6e" d="M 411.5,327.5 C 413.027,327.427 414.027,328.094 414.5,329.5C 412.973,329.573 411.973,328.906 411.5,327.5 Z"/></g>
<g><path style="opacity:1" fill="#4a4a4a" d="M 265.5,343.5 C 259.072,343.443 252.739,344.109 246.5,345.5C 248.026,343.87 250.026,343.037 252.5,343C 257.02,342.186 261.354,342.353 265.5,343.5 Z"/></g>
<g><path style="opacity:1" fill="#020202" d="M 265.5,343.5 C 268.947,343.814 272.28,344.648 275.5,346C 278.059,347.777 280.726,349.277 283.5,350.5C 284.833,352.5 286.5,354.167 288.5,355.5C 298.831,367.212 301.331,380.545 296,395.5C 290.774,408.536 281.274,416.536 267.5,419.5C 259.685,419.924 252.018,419.257 244.5,417.5C 240.048,416.377 236.381,414.044 233.5,410.5C 232.167,408.5 230.5,406.833 228.5,405.5C 227.18,402.86 225.847,400.193 224.5,397.5C 224.065,394.843 223.065,392.509 221.5,390.5C 221.5,389.167 221.5,387.833 221.5,386.5C 221.375,380.797 221.708,375.13 222.5,369.5C 223.11,368.609 223.443,367.609 223.5,366.5C 224.906,366.027 225.573,365.027 225.5,363.5C 229.167,356.5 234.5,351.167 241.5,347.5C 243.027,347.573 244.027,346.906 244.5,345.5C 245.167,345.5 245.833,345.5 246.5,345.5C 252.739,344.109 259.072,343.443 265.5,343.5 Z"/></g>
<g><path style="opacity:1" fill="#646464" d="M 400.5,345.5 C 391.495,342.876 382.495,342.876 373.5,345.5C 374.842,344.207 376.509,343.374 378.5,343C 384.5,342.333 390.5,342.333 396.5,343C 398.32,343.2 399.653,344.034 400.5,345.5 Z"/></g>
<g><path style="opacity:1" fill="#040404" d="M 400.5,345.5 C 402.713,346.773 405.046,347.773 407.5,348.5C 409.167,350.833 411.167,352.833 413.5,354.5C 417.076,358.099 419.41,362.432 420.5,367.5C 420.5,368.5 420.5,369.5 420.5,370.5C 398.5,370.5 376.5,370.5 354.5,370.5C 354.993,368.194 355.326,365.861 355.5,363.5C 359.167,355.167 365.167,349.167 373.5,345.5C 382.495,342.876 391.495,342.876 400.5,345.5 Z"/></g>
<g><path style="opacity:1" fill="#848484" d="M 513.5,324.5 C 514.491,331.313 514.825,338.313 514.5,345.5C 507.349,345.109 500.349,345.775 493.5,347.5C 494.842,346.207 496.509,345.374 498.5,345C 503.155,344.501 507.821,344.334 512.5,344.5C 513.491,338.021 513.824,331.354 513.5,324.5 Z"/></g>
<g><path style="opacity:1" fill="#6f6f6f" d="M 244.5,345.5 C 244.027,346.906 243.027,347.573 241.5,347.5C 241.973,346.094 242.973,345.427 244.5,345.5 Z"/></g>
<g><path style="opacity:1" fill="#a3a3a3" d="M 407.5,348.5 C 410.5,349.5 412.5,351.5 413.5,354.5C 411.167,352.833 409.167,350.833 407.5,348.5 Z"/></g>
<g><path style="opacity:1" fill="#a7a7a7" d="M 283.5,350.5 C 286.167,351.167 287.833,352.833 288.5,355.5C 286.5,354.167 284.833,352.5 283.5,350.5 Z"/></g>
<g><path style="opacity:1" fill="#787878" d="M 483.5,357.5 C 483.573,359.027 482.906,360.027 481.5,360.5C 481.427,358.973 482.094,357.973 483.5,357.5 Z"/></g>
<g><path style="opacity:1" fill="#9c9c9c" d="M 333.5,360.5 C 333.59,363.152 332.924,365.485 331.5,367.5C 331.41,364.848 332.076,362.515 333.5,360.5 Z"/></g>
<g><path style="opacity:1" fill="#848484" d="M 225.5,363.5 C 225.573,365.027 224.906,366.027 223.5,366.5C 223.427,364.973 224.094,363.973 225.5,363.5 Z"/></g>
<g><path style="opacity:1" fill="#868686" d="M 439.5,356.5 C 441.806,360.085 443.139,364.085 443.5,368.5C 441.589,364.767 440.256,360.767 439.5,356.5 Z"/></g>
<g><path style="opacity:1" fill="#626262" d="M 355.5,363.5 C 355.326,365.861 354.993,368.194 354.5,370.5C 376.5,370.5 398.5,370.5 420.5,370.5C 420.5,369.5 420.5,368.5 420.5,367.5C 421.434,368.568 421.768,369.901 421.5,371.5C 398.5,371.5 375.5,371.5 352.5,371.5C 352.733,368.458 353.733,365.792 355.5,363.5 Z"/></g>
<g><path style="opacity:1" fill="#505050" d="M 320.5,371.5 C 321.653,377.653 321.82,383.986 321,390.5C 320.902,393.522 320.068,396.189 318.5,398.5C 320.103,389.582 320.77,380.582 320.5,371.5 Z"/></g>
<g><path style="opacity:1" fill="#7d7d7d" d="M 222.5,369.5 C 221.708,375.13 221.375,380.797 221.5,386.5C 220.837,384.359 220.503,382.025 220.5,379.5C 220.315,375.859 220.981,372.526 222.5,369.5 Z"/></g>
<g><path style="opacity:1" fill="#c4c4c4" d="M 330.5,373.5 C 330.511,381.561 331.177,389.561 332.5,397.5C 329.654,389.65 328.987,381.65 330.5,373.5 Z"/></g>
<g><path style="opacity:1" fill="#6c6c6c" d="M 443.5,368.5 C 444.491,375.313 444.825,382.313 444.5,389.5C 414.167,389.5 383.833,389.5 353.5,389.5C 353.963,392.221 354.629,394.888 355.5,397.5C 353.138,395.081 352.138,392.081 352.5,388.5C 382.833,388.5 413.167,388.5 443.5,388.5C 443.5,381.833 443.5,375.167 443.5,368.5 Z"/></g>
<g><path style="opacity:1" fill="#8e8e8e" d="M 221.5,390.5 C 223.065,392.509 224.065,394.843 224.5,397.5C 222.166,395.824 221.166,393.491 221.5,390.5 Z"/></g>
<g><path style="opacity:1" fill="#a6a6a6" d="M 228.5,405.5 C 230.5,406.833 232.167,408.5 233.5,410.5C 230.833,409.833 229.167,408.167 228.5,405.5 Z"/></g>
<g><path style="opacity:1" fill="#484848" d="M 434.5,412.5 C 437.821,413.098 438.821,414.765 437.5,417.5C 436.925,415.589 435.925,413.922 434.5,412.5 Z"/></g>
<g><path style="opacity:1" fill="#a7a7a7" d="M 139.5,414.5 C 137.236,417.126 134.236,418.459 130.5,418.5C 133.256,416.796 136.256,415.463 139.5,414.5 Z"/></g>
<g><path style="opacity:1" fill="#555555" d="M 104.5,416.5 C 106.898,416.259 108.898,416.926 110.5,418.5C 108.102,418.741 106.102,418.074 104.5,416.5 Z"/></g>
<g><path style="opacity:1" fill="#3a3a3a" d="M 244.5,417.5 C 252.018,419.257 259.685,419.924 267.5,419.5C 261.681,420.653 255.681,420.819 249.5,420C 247.509,419.626 245.842,418.793 244.5,417.5 Z"/></g>
<g><path style="opacity:1" fill="#bfbfbf" d="M 400.5,419.5 C 400.389,420.117 400.056,420.617 399.5,421C 394.648,421.815 389.981,421.648 385.5,420.5C 390.537,420.587 395.537,420.254 400.5,419.5 Z"/></g>
<g><path style="opacity:1" fill="#3d3d3d" d="M 156.5,424.5 C 158.43,428.373 159.097,432.706 158.5,437.5C 157.677,434.023 157.177,430.356 157,426.5C 156.184,427.823 155.017,428.489 153.5,428.5C 154.5,427.167 155.5,425.833 156.5,424.5 Z"/></g>
<g><path style="opacity:1" fill="#787878" d="M 222.5,425.5 C 221.833,429.5 221.167,433.5 220.5,437.5C 220.174,433.116 220.508,428.783 221.5,424.5C 222.107,424.624 222.44,424.957 222.5,425.5 Z"/></g>
<g><path style="opacity:1" fill="#b1b1b1" d="M 236.5,434.5 C 241.422,435.636 246.089,437.303 250.5,439.5C 245.331,439.001 240.664,437.334 236.5,434.5 Z"/></g>
<g><path style="opacity:1" fill="#828282" d="M 413.5,435.5 C 412.486,436.674 411.153,437.34 409.5,437.5C 410.287,435.896 411.62,435.229 413.5,435.5 Z"/></g>
<g><path style="opacity:1" fill="#787878" d="M 199.5,283.5 C 199.5,334.833 199.5,386.167 199.5,437.5C 206.5,437.5 213.5,437.5 220.5,437.5C 213.352,438.492 206.019,438.825 198.5,438.5C 198.168,386.664 198.501,334.997 199.5,283.5 Z"/></g>
</svg>
