<?xml version="1.0" encoding="UTF-8"?>
<!DOCTYPE svg PUBLIC "-//W3C//DTD SVG 1.1//EN" "http://www.w3.org/Graphics/SVG/1.1/DTD/svg11.dtd">
<svg xmlns="http://www.w3.org/2000/svg" version="1.1" width="512px" height="512px" style="shape-rendering:geometricPrecision; text-rendering:geometricPrecision; image-rendering:optimizeQuality; fill-rule:evenodd; clip-rule:evenodd" xmlns:xlink="http://www.w3.org/1999/xlink">
<g><path style="opacity:0.974" fill="#020201" d="M 350.5,-0.5 C 355.167,-0.5 359.833,-0.5 364.5,-0.5C 377.124,3.29195 385.291,11.6253 389,24.5C 392,25.8333 395,25.8333 398,24.5C 401.709,11.6253 409.876,3.29195 422.5,-0.5C 427.167,-0.5 431.833,-0.5 436.5,-0.5C 451.828,4.26992 460.161,14.7699 461.5,31C 460.95,37.1507 459.283,42.984 456.5,48.5C 457.982,50.4829 459.649,52.3163 461.5,54C 467.595,52.0656 473.928,50.899 480.5,50.5C 496.128,51.1371 506.461,58.8038 511.5,73.5C 511.5,78.8333 511.5,84.1667 511.5,89.5C 507.376,101.123 499.376,108.956 487.5,113C 486.213,116.125 486.213,119.291 487.5,122.5C 499.481,126.15 507.481,133.817 511.5,145.5C 511.5,150.833 511.5,156.167 511.5,161.5C 501.699,184.108 485.366,190.441 462.5,180.5C 459.963,182.202 457.963,184.369 456.5,187C 458.977,192.431 460.644,198.097 461.5,204C 460.683,209.951 459.35,215.785 457.5,221.5C 471.801,273.546 468.801,324.546 448.5,374.5C 453.802,375.329 459.136,375.829 464.5,376C 466.286,376.785 467.786,377.951 469,379.5C 483.03,399.68 497.196,419.68 511.5,439.5C 511.5,442.167 511.5,444.833 511.5,447.5C 505.749,455.765 499.749,463.932 493.5,472C 490.546,473.719 487.546,473.885 484.5,472.5C 481.695,469.754 480.861,466.421 482,462.5C 485.276,456.892 488.943,451.558 493,446.5C 493.982,445.241 494.315,443.908 494,442.5C 482.29,425.579 470.456,408.746 458.5,392C 452.167,391.333 445.833,391.333 439.5,392C 413.288,439.384 375.288,473.551 325.5,494.5C 324.527,494.987 323.527,495.487 322.5,496C 368.002,496.831 413.335,496.665 458.5,495.5C 461.475,491.051 464.809,486.884 468.5,483C 471.192,482.57 473.859,482.737 476.5,483.5C 479.036,486.007 479.869,489.007 479,492.5C 474.982,499.214 470.482,505.547 465.5,511.5C 316.833,511.5 168.167,511.5 19.5,511.5C 9.89853,508.231 3.23187,501.898 -0.5,492.5C -0.5,460.167 -0.5,427.833 -0.5,395.5C 5.43456,380.953 16.4346,373.953 32.5,374.5C 2.3066,296.472 10.4733,222.806 57,153.5C 85.8981,114.445 123.398,87.1117 169.5,71.5C 172.691,72.0317 175.024,73.6983 176.5,76.5C 176.794,80.115 175.794,83.2816 173.5,86C 105.465,111.212 60.2987,158.379 38,227.5C 26.382,272.784 28.382,317.451 44,361.5C 45.9418,366.377 48.1085,371.044 50.5,375.5C 95.3315,376.665 140.331,376.831 185.5,376C 184.956,375.283 184.289,374.783 183.5,374.5C 147.972,349.175 132.139,314.508 136,270.5C 146.591,220.909 176.758,191.076 226.5,181C 215.333,165.167 204.167,149.333 193,133.5C 191,129.833 191,126.167 193,122.5C 203.5,107.5 214,92.5 224.5,77.5C 223.311,76.5713 221.978,76.238 220.5,76.5C 212.755,76.8445 205.088,77.8445 197.5,79.5C 196.5,79.3333 195.5,79.1667 194.5,79C 192.7,77.1881 191.033,75.3548 189.5,73.5C 189.623,70.626 190.623,68.126 192.5,66C 198.288,63.812 204.288,62.4787 210.5,62C 233.574,59.6447 256.574,60.1447 279.5,63.5C 292.506,49.3807 307.673,46.714 325,55.5C 327.087,53.2602 328.921,50.9268 330.5,48.5C 323.542,33.2564 325.542,19.4231 336.5,7C 340.815,3.67822 345.482,1.17822 350.5,-0.5 Z M 387.5,86.5 C 413.74,86.3084 425.907,99.3084 424,125.5C 422.181,131.81 418.848,137.143 414,141.5C 408.573,134.069 402.407,127.236 395.5,121C 386.79,113.288 377.79,105.955 368.5,99C 373.608,92.7915 379.942,88.6248 387.5,86.5 Z M 239.5,195.5 C 285.088,198.597 314.588,221.93 328,265.5C 335.385,313.234 317.552,347.734 274.5,369C 231.22,383.346 195.387,372.846 167,337.5C 143.449,299.095 145.449,262.095 173,226.5C 190.997,207.083 213.163,196.75 239.5,195.5 Z"/></g>
<g><path style="opacity:1" fill="#3e6e90" d="M 361.5,15.5 C 359.408,15.5614 357.908,16.5614 357,18.5C 354.822,22.3761 353.656,26.5427 353.5,31C 355.564,38.178 357.398,45.3447 359,52.5C 354.833,56 351,59.8333 347.5,64C 344.518,64.498 341.518,64.6646 338.5,64.5C 341.129,61.3694 343.962,58.3694 347,55.5C 347.875,54.1268 348.375,52.6268 348.5,51C 346.866,46.4334 345.032,41.9334 343,37.5C 339.933,24.5676 344.933,16.901 358,14.5C 359.385,14.5143 360.551,14.8476 361.5,15.5 Z"/></g>
<g><path style="opacity:1" fill="#497ea8" d="M 361.5,219.5 C 360.178,219.67 359.011,219.337 358,218.5C 355.192,214.242 353.692,209.575 353.5,204.5C 355.099,197.013 356.933,189.68 359,182.5C 354.5,179.333 350.667,175.5 347.5,171C 344.183,170.502 340.85,170.335 337.5,170.5C 335.967,168.645 334.3,166.812 332.5,165C 330.801,164.042 328.967,163.542 327,163.5C 320.79,165.355 314.623,167.355 308.5,169.5C 299.753,156.904 300.753,145.237 311.5,134.5C 312.833,133.833 314.167,133.167 315.5,132.5C 319.479,130.846 323.479,129.179 327.5,127.5C 328.497,120.866 328.83,114.2 328.5,107.5C 323.319,105.886 318.319,103.886 313.5,101.5C 312.508,101.672 311.842,101.338 311.5,100.5C 302.208,91.4659 300.375,81.1326 306,69.5C 306.908,67.5614 308.408,66.5614 310.5,66.5C 316.028,68.3985 321.528,70.3985 327,72.5C 328.627,72.3749 330.127,71.8749 331.5,71C 333.703,68.6278 336.037,66.4611 338.5,64.5C 341.518,64.6646 344.518,64.498 347.5,64C 351,59.8333 354.833,56 359,52.5C 357.398,45.3447 355.564,38.178 353.5,31C 353.656,26.5427 354.822,22.3761 357,18.5C 357.908,16.5614 359.408,15.5614 361.5,15.5C 364.854,16.261 367.687,17.9277 370,20.5C 372.923,26.0151 375.59,31.6818 378,37.5C 378.833,38.3333 379.667,39.1667 380.5,40C 384.833,40.1667 389.167,40.3333 393.5,40.5C 398.609,40.6141 403.609,40.1141 408.5,39C 411.456,32.123 414.789,25.4563 418.5,19C 429.684,11.5058 438.517,13.6725 445,25.5C 445.667,28.8333 445.667,32.1667 445,35.5C 441.059,41.6465 439.392,48.3132 440,55.5C 445.833,60 451,65.1667 455.5,71C 456.729,71.7811 458.062,72.2811 459.5,72.5C 465.278,70.6294 470.945,68.4627 476.5,66C 488.266,64.7057 494.933,69.8723 496.5,81.5C 496.415,87.1696 494.082,91.6696 489.5,95C 482.942,97.5284 476.775,100.695 471,104.5C 470.333,113.167 470.333,121.833 471,130.5C 472.167,131.667 473.333,132.833 474.5,134C 479.916,136.139 485.249,138.472 490.5,141C 498.797,149.993 498.464,158.66 489.5,167C 486.55,168.65 483.383,169.483 480,169.5C 474.258,168.475 468.758,166.642 463.5,164C 460.366,163.21 457.366,163.543 454.5,165C 449.977,170.52 445.144,175.687 440,180.5C 439.333,182.833 439.333,185.167 440,187.5C 442.746,192.903 444.579,198.569 445.5,204.5C 442.655,218.925 434.321,223.425 420.5,218C 415.572,212.313 412.072,205.813 410,198.5C 409.167,197.667 408.333,196.833 407.5,196C 402.944,194.891 398.278,194.391 393.5,194.5C 388.722,194.391 384.056,194.891 379.5,196C 376.282,201.603 373.449,207.437 371,213.5C 368.703,216.98 365.536,218.98 361.5,219.5 Z M 387.5,86.5 C 379.942,88.6248 373.608,92.7915 368.5,99C 377.79,105.955 386.79,113.288 395.5,121C 402.407,127.236 408.573,134.069 414,141.5C 418.848,137.143 422.181,131.81 424,125.5C 425.907,99.3084 413.74,86.3084 387.5,86.5 Z"/></g>
<g><path style="opacity:1" fill="#3e6c8e" d="M 310.5,66.5 C 308.408,66.5614 306.908,67.5614 306,69.5C 300.375,81.1326 302.208,91.4659 311.5,100.5C 304.814,99.1082 298.981,96.1082 294,91.5C 287.758,79.4854 290.925,70.9854 303.5,66C 306.039,65.2042 308.372,65.3709 310.5,66.5 Z"/></g>
<g><path style="opacity:0.975" fill="#010202" d="M 386.5,70.5 C 415.143,69.6699 432.976,83.0033 440,110.5C 442.059,134.731 432.059,151.731 410,161.5C 385.033,168.737 365.699,161.403 352,139.5C 341.496,114.68 346.996,94.1798 368.5,78C 374.328,74.7883 380.328,72.2883 386.5,70.5 Z M 387.5,86.5 C 379.942,88.6248 373.608,92.7915 368.5,99C 377.79,105.955 386.79,113.288 395.5,121C 402.407,127.236 408.573,134.069 414,141.5C 418.848,137.143 422.181,131.81 424,125.5C 425.907,99.3084 413.74,86.3084 387.5,86.5 Z"/></g>
<g><path style="opacity:1" fill="#efc985" d="M 189.5,73.5 C 191.033,75.3548 192.7,77.1881 194.5,79C 195.5,79.1667 196.5,79.3333 197.5,79.5C 205.088,77.8445 212.755,76.8445 220.5,76.5C 158.904,95.9259 113.738,134.593 85,192.5C 58.2185,253.274 57.7185,314.274 83.5,375.5C 72.5,375.5 61.5,375.5 50.5,375.5C 48.1085,371.044 45.9418,366.377 44,361.5C 28.382,317.451 26.382,272.784 38,227.5C 60.2987,158.379 105.465,111.212 173.5,86C 175.794,83.2816 176.794,80.115 176.5,76.5C 180.874,75.6564 185.207,74.6564 189.5,73.5 Z"/></g>
<g><path style="opacity:1" fill="#fedf7c" d="M 220.5,76.5 C 221.978,76.238 223.311,76.5713 224.5,77.5C 214,92.5 203.5,107.5 193,122.5C 191,126.167 191,129.833 193,133.5C 204.167,149.333 215.333,165.167 226.5,181C 176.758,191.076 146.591,220.909 136,270.5C 132.139,314.508 147.972,349.175 183.5,374.5C 150.338,375.498 117.004,375.832 83.5,375.5C 57.7185,314.274 58.2185,253.274 85,192.5C 113.738,134.593 158.904,95.9259 220.5,76.5 Z"/></g>
<g><path style="opacity:1" fill="#a0df9d" d="M 326.5,198.5 C 311.683,191.342 296.016,187.675 279.5,187.5C 268.127,183.754 256.461,181.254 244.5,180C 231.921,162.843 219.588,145.509 207.5,128C 219.623,110.921 231.623,93.7541 243.5,76.5C 253.863,75.6678 264.196,76.1678 274.5,78C 275.307,95.4549 283.973,106.955 300.5,112.5C 301.657,115.784 301.824,119.118 301,122.5C 285.261,127.146 276.761,137.646 275.5,154C 278.766,175.935 291.433,185.935 313.5,184C 317.474,182.231 321.474,180.897 325.5,180C 327.684,182.016 329.684,184.183 331.5,186.5C 329.808,190.6 328.141,194.6 326.5,198.5 Z"/></g>
<g><path style="opacity:1" fill="#3f6e91" d="M 313.5,101.5 C 318.319,103.886 323.319,105.886 328.5,107.5C 328.83,114.2 328.497,120.866 327.5,127.5C 323.479,129.179 319.479,130.846 315.5,132.5C 316.613,123.214 316.78,113.881 316,104.5C 314.955,103.627 314.122,102.627 313.5,101.5 Z"/></g>
<g><path style="opacity:1" fill="#9cd899" d="M 361.5,114.5 C 366.792,117.488 371.792,120.988 376.5,125C 385.018,132.018 392.685,139.851 399.5,148.5C 375.28,150.287 362.613,138.954 361.5,114.5 Z"/></g>
<g><path style="opacity:1" fill="#3e6d8f" d="M 311.5,134.5 C 300.753,145.237 299.753,156.904 308.5,169.5C 297.615,169.452 291.615,163.952 290.5,153C 291.079,148.841 292.746,145.175 295.5,142C 300.525,138.826 305.858,136.326 311.5,134.5 Z"/></g>
<g><path style="opacity:1" fill="#3e6e90" d="M 337.5,170.5 C 340.85,170.335 344.183,170.502 347.5,171C 350.667,175.5 354.5,179.333 359,182.5C 356.933,189.68 355.099,197.013 353.5,204.5C 353.692,209.575 355.192,214.242 358,218.5C 359.011,219.337 360.178,219.67 361.5,219.5C 347.837,221.009 341.337,214.676 342,200.5C 344.366,195.066 346.533,189.566 348.5,184C 348.375,182.373 347.875,180.873 347,179.5C 343.472,176.831 340.305,173.831 337.5,170.5 Z"/></g>
<g><path style="opacity:1" fill="#95cd90" d="M 279.5,187.5 C 296.016,187.675 311.683,191.342 326.5,198.5C 325.51,216.661 333.51,228.828 350.5,235C 355.552,235.726 360.552,235.559 365.5,234.5C 380.12,259.239 383.62,285.572 376,313.5C 359.493,358.806 326.993,382.473 278.5,384.5C 320.788,365.473 343.121,332.64 345.5,286C 343.541,239.543 321.541,206.709 279.5,187.5 Z"/></g>
<g><path style="opacity:1" fill="#a1e09e" d="M 254.5,495.5 C 224.329,495.831 194.329,495.498 164.5,494.5C 175.113,478.714 185.946,463.047 197,447.5C 197.667,444.833 197.667,442.167 197,439.5C 185.71,423.754 174.544,407.921 163.5,392C 191.833,391.667 220.167,391.333 248.5,391C 258.747,389.794 268.747,387.627 278.5,384.5C 326.993,382.473 359.493,358.806 376,313.5C 383.62,285.572 380.12,259.239 365.5,234.5C 377.212,230.453 384.879,222.453 388.5,210.5C 391.833,209.167 395.167,209.167 398.5,210.5C 406.87,232.351 422.203,239.685 444.5,232.5C 460.75,304.158 445.583,368.158 399,424.5C 360.35,467.241 312.183,490.908 254.5,495.5 Z"/></g>
<g><path style="opacity:1" fill="#a89254" d="M 183.5,374.5 C 184.289,374.783 184.956,375.283 185.5,376C 140.331,376.831 95.3315,376.665 50.5,375.5C 61.5,375.5 72.5,375.5 83.5,375.5C 117.004,375.832 150.338,375.498 183.5,374.5 Z"/></g>
<g><path style="opacity:1" fill="#dc626d" d="M 35.5,391.5 C 33.8196,393.527 32.6529,395.861 32,398.5C 31.3333,428.167 31.3333,457.833 32,487.5C 32.3747,490 33.2081,492.333 34.5,494.5C 30.8927,495.489 27.226,495.823 23.5,495.5C 19.2553,494.424 16.4219,491.758 15,487.5C 14.3333,457.833 14.3333,428.167 15,398.5C 16.5,395.667 18.6667,393.5 21.5,392C 26.1548,391.501 30.8215,391.334 35.5,391.5 Z"/></g>
<g><path style="opacity:1" fill="#e17f85" d="M 35.5,391.5 C 72.1727,391.167 108.839,391.5 145.5,392.5C 157.5,409.5 169.5,426.5 181.5,443.5C 169.044,460.912 156.71,478.412 144.5,496C 103.998,496.831 63.6646,496.665 23.5,495.5C 27.226,495.823 30.8927,495.489 34.5,494.5C 33.2081,492.333 32.3747,490 32,487.5C 31.3333,457.833 31.3333,428.167 32,398.5C 32.6529,395.861 33.8196,393.527 35.5,391.5 Z"/></g>
<g><path style="opacity:0.999" fill="#9cc5f9" d="M 484.5,472.5 C 481.801,476.19 479.135,479.857 476.5,483.5C 473.859,482.737 471.192,482.57 468.5,483C 464.809,486.884 461.475,491.051 458.5,495.5C 413.997,495.832 369.664,495.499 325.5,494.5C 375.288,473.551 413.288,439.384 439.5,392C 445.833,391.333 452.167,391.333 458.5,392C 470.456,408.746 482.29,425.579 494,442.5C 494.315,443.908 493.982,445.241 493,446.5C 488.943,451.558 485.276,456.892 482,462.5C 480.861,466.421 481.695,469.754 484.5,472.5 Z"/></g>
<g><path style="opacity:1" fill="#689066" d="M 164.5,494.5 C 194.329,495.498 224.329,495.831 254.5,495.5C 224.331,496.83 193.997,496.83 163.5,495.5C 163.624,494.893 163.957,494.56 164.5,494.5 Z"/></g>
<g><path style="opacity:1" fill="#6883a6" d="M 325.5,494.5 C 369.664,495.499 413.997,495.832 458.5,495.5C 413.335,496.665 368.002,496.831 322.5,496C 323.527,495.487 324.527,494.987 325.5,494.5 Z"/></g>
</svg>
