<?xml version="1.0" encoding="UTF-8"?>
<!DOCTYPE svg PUBLIC "-//W3C//DTD SVG 1.1//EN" "http://www.w3.org/Graphics/SVG/1.1/DTD/svg11.dtd">
<svg xmlns="http://www.w3.org/2000/svg" version="1.1" width="512px" height="512px" style="shape-rendering:geometricPrecision; text-rendering:geometricPrecision; image-rendering:optimizeQuality; fill-rule:evenodd; clip-rule:evenodd" xmlns:xlink="http://www.w3.org/1999/xlink">
<g><path style="opacity:0.972" fill="#010001" d="M 97.5,-0.5 C 107.5,-0.5 117.5,-0.5 127.5,-0.5C 178.167,9.43205 210,39.4321 223,89.5C 230.853,142.281 212.353,182.781 167.5,211C 126.867,231.514 87.2005,229.848 48.5,206C 21.6261,186.42 5.29276,160.253 -0.5,127.5C -0.5,117.167 -0.5,106.833 -0.5,96.5C 6.84379,55.3119 29.5105,25.8119 67.5,8C 77.3597,4.20575 87.3597,1.37242 97.5,-0.5 Z"/></g>
<g><path style="opacity:0.974" fill="#000000" d="M 264.5,-0.5 C 282.167,-0.5 299.833,-0.5 317.5,-0.5C 318.836,1.01027 320.003,2.67694 321,4.5C 321.667,21.1667 321.667,37.8333 321,54.5C 320.215,56.286 319.049,57.786 317.5,59C 299.833,59.6667 282.167,59.6667 264.5,59C 262.951,57.786 261.785,56.286 261,54.5C 260.333,37.8333 260.333,21.1667 261,4.5C 261.997,2.67694 263.164,1.01027 264.5,-0.5 Z"/></g>
<g><path style="opacity:0.936" fill="#000000" d="M 511.5,8.5 C 511.5,11.1667 511.5,13.8333 511.5,16.5C 510.254,18.9015 508.254,20.4015 505.5,21C 452.5,21.6667 399.5,21.6667 346.5,21C 340.905,18.646 339.072,14.4793 341,8.5C 342.167,7.33333 343.333,6.16667 344.5,5C 398.833,4.33333 453.167,4.33333 507.5,5C 508.705,6.37561 510.038,7.54227 511.5,8.5 Z"/></g>
<g><path style="opacity:1" fill="#85c1f4" d="M 276.5,15.5 C 286.167,15.5 295.833,15.5 305.5,15.5C 305.5,24.8333 305.5,34.1667 305.5,43.5C 295.833,43.5 286.167,43.5 276.5,43.5C 276.5,34.1667 276.5,24.8333 276.5,15.5 Z"/></g>
<g><path style="opacity:1" fill="#5db1f6" d="M 99.5,16.5 C 100.833,16.5 102.167,16.5 103.5,16.5C 103.5,18.1667 103.5,19.8333 103.5,21.5C 57.7742,28.0554 30.2742,54.0554 21,99.5C 17.8251,146.007 37.3251,178.84 79.5,198C 101.952,205.609 124.285,205.275 146.5,197C 148.544,196.502 149.878,195.335 150.5,193.5C 152.534,195.365 153.201,197.532 152.5,200C 102.313,218.712 61.4796,206.545 30,163.5C 5.73419,117.942 11.5675,76.7758 47.5,40C 62.4693,27.0168 79.8026,19.1834 99.5,16.5 Z"/></g>
<g><path style="opacity:1" fill="#f7ca61" d="M 124.5,16.5 C 164.911,23.0761 191.744,45.7427 205,84.5C 206.314,88.7536 207.147,93.087 207.5,97.5C 207.5,99.5 207.5,101.5 207.5,103.5C 206.167,103.5 204.833,103.5 203.5,103.5C 196.866,60.0299 172.199,32.8632 129.5,22C 126.518,21.502 123.518,21.3354 120.5,21.5C 120.5,19.8333 120.5,18.1667 120.5,16.5C 121.833,16.5 123.167,16.5 124.5,16.5 Z"/></g>
<g><path style="opacity:1" fill="#89c8fd" d="M 103.5,21.5 C 103.169,52.3379 103.502,83.0045 104.5,113.5C 119.406,140.408 134.739,167.074 150.5,193.5C 149.878,195.335 148.544,196.502 146.5,197C 124.285,205.275 101.952,205.609 79.5,198C 37.3251,178.84 17.8251,146.007 21,99.5C 30.2742,54.0554 57.7742,28.0554 103.5,21.5 Z"/></g>
<g><path style="opacity:1" fill="#517898" d="M 99.5,16.5 C 100.919,15.5489 102.585,15.2155 104.5,15.5C 104.5,48.1667 104.5,80.8333 104.5,113.5C 103.502,83.0045 103.169,52.3379 103.5,21.5C 103.5,19.8333 103.5,18.1667 103.5,16.5C 102.167,16.5 100.833,16.5 99.5,16.5 Z"/></g>
<g><path style="opacity:1" fill="#64572d" d="M 124.5,16.5 C 123.167,16.5 121.833,16.5 120.5,16.5C 120.5,18.1667 120.5,19.8333 120.5,21.5C 120.5,48.8333 120.5,76.1667 120.5,103.5C 120.5,103.833 120.5,104.167 120.5,104.5C 119.502,75.0047 119.169,45.338 119.5,15.5C 121.415,15.2155 123.081,15.5489 124.5,16.5 Z"/></g>
<g><path style="opacity:1" fill="#ffe076" d="M 120.5,21.5 C 123.518,21.3354 126.518,21.502 129.5,22C 172.199,32.8632 196.866,60.0299 203.5,103.5C 175.833,103.5 148.167,103.5 120.5,103.5C 120.5,76.1667 120.5,48.8333 120.5,21.5 Z"/></g>
<g><path style="opacity:0.93" fill="#000000" d="M 346.5,37.5 C 373.835,37.3334 401.169,37.5 428.5,38C 434.543,40.8844 436.043,45.3844 433,51.5C 432.097,52.7014 430.931,53.5348 429.5,54C 401.5,54.6667 373.5,54.6667 345.5,54C 340.262,50.7262 339.096,46.2262 342,40.5C 343.652,39.6006 345.152,38.6006 346.5,37.5 Z"/></g>
<g><path style="opacity:0.955" fill="#010100" d="M 266.5,81.5 C 282.837,81.3334 299.17,81.5001 315.5,82C 318.333,82.8333 320.167,84.6667 321,87.5C 321.667,104.167 321.667,120.833 321,137.5C 320.535,138.931 319.701,140.097 318.5,141C 300.924,142.639 283.258,142.972 265.5,142C 264.069,141.535 262.903,140.701 262,139.5C 260.362,122.258 260.029,104.925 261,87.5C 262.021,84.6499 263.854,82.6499 266.5,81.5 Z"/></g>
<g><path style="opacity:0.936" fill="#000000" d="M 511.5,91.5 C 511.5,94.1667 511.5,96.8333 511.5,99.5C 510.684,101.144 509.35,102.31 507.5,103C 453.167,103.667 398.833,103.667 344.5,103C 340.212,99.2288 339.379,94.7288 342,89.5C 343.648,88.283 345.481,87.4497 347.5,87C 399.833,86.3333 452.167,86.3333 504.5,87C 507.585,87.5303 509.918,89.0303 511.5,91.5 Z"/></g>
<g><path style="opacity:1" fill="#a48f4b" d="M 207.5,97.5 C 208.468,99.6074 208.802,101.941 208.5,104.5C 179.167,104.5 149.833,104.5 120.5,104.5C 120.5,104.167 120.5,103.833 120.5,103.5C 148.167,103.5 175.833,103.5 203.5,103.5C 204.833,103.5 206.167,103.5 207.5,103.5C 207.5,101.5 207.5,99.5 207.5,97.5 Z"/></g>
<g><path style="opacity:1" fill="#5a2226" d="M 126.5,120.5 C 153.662,119.502 180.995,119.169 208.5,119.5C 208.784,121.415 208.451,123.081 207.5,124.5C 207.5,123.167 207.5,121.833 207.5,120.5C 205.833,120.5 204.167,120.5 202.5,120.5C 177.167,120.5 151.833,120.5 126.5,120.5 Z"/></g>
<g><path style="opacity:1" fill="#fd636e" d="M 126.5,120.5 C 151.833,120.5 177.167,120.5 202.5,120.5C 200.041,148.089 187.708,170.089 165.5,186.5C 152.011,164.865 139.011,142.865 126.5,120.5 Z"/></g>
<g><path style="opacity:1" fill="#f54553" d="M 202.5,120.5 C 204.167,120.5 205.833,120.5 207.5,120.5C 207.5,121.833 207.5,123.167 207.5,124.5C 203.899,151.599 191.233,173.432 169.5,190C 167.159,190.168 165.826,189.001 165.5,186.5C 187.708,170.089 200.041,148.089 202.5,120.5 Z"/></g>
<g><path style="opacity:0.929" fill="#000000" d="M 345.5,120.5 C 373.502,120.333 401.502,120.5 429.5,121C 434.609,124.366 435.776,128.866 433,134.5C 431.581,135.46 430.081,136.293 428.5,137C 401.167,137.667 373.833,137.667 346.5,137C 342.334,136.015 340.334,133.348 340.5,129C 340.525,125.105 342.192,122.272 345.5,120.5 Z"/></g>
<g><path style="opacity:1" fill="#89793f" d="M 277.5,98.5 C 277.5,107.5 277.5,116.5 277.5,125.5C 286.5,125.5 295.5,125.5 304.5,125.5C 304.5,116.5 304.5,107.5 304.5,98.5C 305.494,107.652 305.827,116.985 305.5,126.5C 295.833,126.5 286.167,126.5 276.5,126.5C 276.173,116.985 276.506,107.652 277.5,98.5 Z"/></g>
<g><path style="opacity:1" fill="#fee176" d="M 277.5,98.5 C 286.5,98.5 295.5,98.5 304.5,98.5C 304.5,107.5 304.5,116.5 304.5,125.5C 295.5,125.5 286.5,125.5 277.5,125.5C 277.5,116.5 277.5,107.5 277.5,98.5 Z"/></g>
<g><path style="opacity:0.973" fill="#010101" d="M 511.5,446.5 C 511.5,450.833 511.5,455.167 511.5,459.5C 503.2,469.211 494.533,478.711 485.5,488C 479.958,491.301 473.958,492.301 467.5,491C 463.89,489.056 460.557,486.723 457.5,484C 439.638,465.805 421.472,447.971 403,430.5C 399.639,424.881 398.639,418.881 400,412.5C 393.5,406 387,399.5 380.5,393C 372.373,397.894 363.706,402.061 354.5,405.5C 354.667,439.502 354.5,473.502 354,507.5C 352.624,508.705 351.458,510.038 350.5,511.5C 329.833,511.5 309.167,511.5 288.5,511.5C 287.164,509.99 285.997,508.323 285,506.5C 284.667,474.5 284.333,442.5 284,410.5C 275.58,407.858 267.414,404.525 259.5,400.5C 258.667,435.495 258.167,470.495 258,505.5C 257.401,508.254 255.901,510.254 253.5,511.5C 233.167,511.5 212.833,511.5 192.5,511.5C 190.856,510.684 189.69,509.35 189,507.5C 188.333,452.833 188.333,398.167 189,343.5C 190.167,342.333 191.333,341.167 192.5,340C 197.533,339.829 202.533,339.329 207.5,338.5C 193.36,289.537 205.36,248.371 243.5,215C 248.662,211.251 253.996,207.751 259.5,204.5C 260.333,192.848 260.833,181.181 261,169.5C 261.465,168.069 262.299,166.903 263.5,166C 281.076,164.361 298.742,164.028 316.5,165C 318.667,165.833 320.167,167.333 321,169.5C 321.5,176.826 321.666,184.159 321.5,191.5C 336.271,192.526 350.271,196.359 363.5,203C 385.833,203.333 408.167,203.667 430.5,204C 435.833,209 435.833,214 430.5,219C 416.5,219.333 402.5,219.667 388.5,220C 423.939,255.937 433.106,297.77 416,345.5C 413.873,350.564 411.373,355.398 408.5,360C 415.5,367 422.5,374 429.5,381C 435.677,379.818 441.677,380.485 447.5,383C 461.5,396.333 475.5,409.667 489.5,423C 497.433,430.428 504.766,438.261 511.5,446.5 Z"/></g>
<g><path style="opacity:0.935" fill="#000000" d="M 511.5,173.5 C 511.5,176.5 511.5,179.5 511.5,182.5C 509.99,183.836 508.323,185.003 506.5,186C 452.833,186.667 399.167,186.667 345.5,186C 340.391,182.634 339.224,178.134 342,172.5C 342.903,171.299 344.069,170.465 345.5,170C 399.167,169.333 452.833,169.333 506.5,170C 508.323,170.997 509.99,172.164 511.5,173.5 Z"/></g>
<g><path style="opacity:1" fill="#9e3e45" d="M 304.5,191.5 C 304.5,188.167 304.5,184.833 304.5,181.5C 295.5,181.5 286.5,181.5 277.5,181.5C 276.892,186.944 277.558,191.944 279.5,196.5C 278.791,197.404 277.791,197.737 276.5,197.5C 276.5,191.833 276.5,186.167 276.5,180.5C 286.167,180.5 295.833,180.5 305.5,180.5C 305.815,184.371 305.482,188.038 304.5,191.5 Z"/></g>
<g><path style="opacity:1" fill="#fb636e" d="M 304.5,191.5 C 296.111,192.244 287.777,193.911 279.5,196.5C 277.558,191.944 276.892,186.944 277.5,181.5C 286.5,181.5 295.5,181.5 304.5,181.5C 304.5,184.833 304.5,188.167 304.5,191.5 Z"/></g>
<g><path style="opacity:1" fill="#e6e9eb" d="M 403.5,274.5 C 404.874,283.787 405.874,293.12 406.5,302.5C 406.149,312.645 404.815,322.645 402.5,332.5C 389.005,369.598 362.672,391.098 323.5,397C 284.367,399.683 253.867,384.849 232,352.5C 207.806,306.034 214.64,264.867 252.5,229C 286.55,203.734 322.55,200.734 360.5,220C 381.906,232.674 396.239,250.841 403.5,274.5 Z"/></g>
<g><path style="opacity:1" fill="#030303" d="M 301.5,219.5 C 343.88,217.103 373.713,235.103 391,273.5C 402.977,315.576 391.144,349.076 355.5,374C 315.378,393.923 279.878,387.756 249,355.5C 228.561,327.964 224.894,298.297 238,266.5C 251.688,240.635 272.855,224.968 301.5,219.5 Z"/></g>
<g><path style="opacity:1" fill="#817481" d="M 354.5,250.5 C 364.433,262.035 370.933,275.368 374,290.5C 374.824,300.212 374.491,309.879 373,319.5C 371.679,324.996 369.512,329.996 366.5,334.5C 360.16,322.16 350.827,312.827 338.5,306.5C 348.856,293.276 350.022,279.276 342,264.5C 331.272,250.591 317.439,246.091 300.5,251C 280.527,261.447 274.36,277.28 282,298.5C 283.586,301.341 285.42,304.007 287.5,306.5C 273.779,313.722 263.613,324.389 257,338.5C 247.508,323.517 244.175,307.184 247,289.5C 253.623,262.209 270.457,244.709 297.5,237C 318.77,232.603 337.77,237.103 354.5,250.5 Z"/></g>
<g><path style="opacity:1" fill="#655b65" d="M 354.5,250.5 C 374.51,266.667 382.677,287.667 379,313.5C 377.416,322.596 374.083,330.93 369,338.5C 367.905,337.307 367.072,335.973 366.5,334.5C 369.512,329.996 371.679,324.996 373,319.5C 374.491,309.879 374.824,300.212 374,290.5C 370.933,275.368 364.433,262.035 354.5,250.5 Z"/></g>
<g><path style="opacity:0.973" fill="#000000" d="M 157.5,511.5 C 136.833,511.5 116.167,511.5 95.5,511.5C 94.1639,509.99 92.9973,508.323 92,506.5C 91.3333,427.833 91.3333,349.167 92,270.5C 93.1094,268.185 94.9427,266.685 97.5,266C 116.833,265.333 136.167,265.333 155.5,266C 158.057,266.685 159.891,268.185 161,270.5C 161.667,349.5 161.667,428.5 161,507.5C 159.624,508.705 158.458,510.038 157.5,511.5 Z"/></g>
<g><path style="opacity:1" fill="#f1d8c9" d="M 308.5,264.5 C 319.444,263.718 326.944,268.385 331,278.5C 332.028,295.137 324.195,302.637 307.5,301C 295.341,295.194 291.841,286.027 297,273.5C 300.161,269.491 303.994,266.491 308.5,264.5 Z"/></g>
<g><path style="opacity:1" fill="#476f91" d="M 144.5,495.5 C 144.833,424.331 144.499,353.331 143.5,282.5C 131.833,282.5 120.167,282.5 108.5,282.5C 108.5,352.833 108.5,423.167 108.5,493.5C 108.5,494.167 108.5,494.833 108.5,495.5C 107.501,424.335 107.167,353.002 107.5,281.5C 120.167,281.5 132.833,281.5 145.5,281.5C 145.833,353.002 145.499,424.335 144.5,495.5 Z"/></g>
<g><path style="opacity:1" fill="#89c8fe" d="M 143.5,282.5 C 143.667,350.501 143.5,418.501 143,486.5C 141.413,489.756 138.913,491.923 135.5,493C 126.506,493.5 117.506,493.666 108.5,493.5C 108.5,423.167 108.5,352.833 108.5,282.5C 120.167,282.5 131.833,282.5 143.5,282.5 Z"/></g>
<g><path style="opacity:1" fill="#60b7fe" d="M 143.5,282.5 C 144.499,353.331 144.833,424.331 144.5,495.5C 132.5,495.5 120.5,495.5 108.5,495.5C 108.5,494.833 108.5,494.167 108.5,493.5C 117.506,493.666 126.506,493.5 135.5,493C 138.913,491.923 141.413,489.756 143,486.5C 143.5,418.501 143.667,350.501 143.5,282.5 Z"/></g>
<g><path style="opacity:1" fill="#b0b0b4" d="M 403.5,274.5 C 410.338,293.946 410.005,313.279 402.5,332.5C 404.815,322.645 406.149,312.645 406.5,302.5C 405.874,293.12 404.874,283.787 403.5,274.5 Z"/></g>
<g><path style="opacity:0.975" fill="#000101" d="M 64.5,511.5 C 44.1667,511.5 23.8333,511.5 3.5,511.5C 1.83333,510.5 0.5,509.167 -0.5,507.5C -0.5,443.833 -0.5,380.167 -0.5,316.5C 0.961599,315.542 2.29493,314.376 3.5,313C 23.8333,312.333 44.1667,312.333 64.5,313C 66.7261,314.227 68.2261,316.061 69,318.5C 69.6667,380.833 69.6667,443.167 69,505.5C 68.4015,508.254 66.9015,510.254 64.5,511.5 Z"/></g>
<g><path style="opacity:1" fill="#88c7fb" d="M 339.5,326.5 C 345.641,335.578 349.641,345.578 351.5,356.5C 344.496,362.167 336.496,366 327.5,368C 305.956,372.323 286.789,367.489 270,353.5C 274.384,334.449 286.217,322.616 305.5,318C 317.932,316.775 329.266,319.608 339.5,326.5 Z"/></g>
<g><path style="opacity:1" fill="#6bf4c1" d="M 52.5,329.5 C 50.67,381.49 49.8367,433.824 50,486.5C 49.0271,490.406 46.5271,492.573 42.5,493C 33.5062,493.5 24.5062,493.666 15.5,493.5C 15.5,438.5 15.5,383.5 15.5,328.5C 28.0113,328.171 40.3446,328.505 52.5,329.5 Z"/></g>
<g><path style="opacity:1" fill="#09e59b" d="M 52.5,329.5 C 52.5,384.833 52.5,440.167 52.5,495.5C 39.788,496.146 27.4547,495.48 15.5,493.5C 24.5062,493.666 33.5062,493.5 42.5,493C 46.5271,492.573 49.0271,490.406 50,486.5C 49.8367,433.824 50.67,381.49 52.5,329.5 Z"/></g>
<g><path style="opacity:1" fill="#5db0f5" d="M 339.5,326.5 C 348.026,333.039 353.692,341.539 356.5,352C 355.601,354.401 353.934,355.901 351.5,356.5C 349.641,345.578 345.641,335.578 339.5,326.5 Z"/></g>
<g><path style="opacity:1" fill="#fee076" d="M 239.5,385.5 C 239.667,419.502 239.5,453.502 239,487.5C 237.749,490.381 235.583,492.214 232.5,493C 223.173,493.5 213.839,493.666 204.5,493.5C 204.5,447.5 204.5,401.5 204.5,355.5C 208.182,355.335 211.848,355.501 215.5,356C 221.85,367.182 229.85,377.016 239.5,385.5 Z"/></g>
<g><path style="opacity:1" fill="#a095a0" d="M 396.5,374.5 C 397.552,374.351 398.552,374.517 399.5,375C 405.531,381.366 411.864,387.366 418.5,393C 416.273,395.935 413.606,397.935 410.5,399C 403.864,393.366 397.531,387.366 391.5,381C 393.79,379.223 395.457,377.056 396.5,374.5 Z"/></g>
<g><path style="opacity:1" fill="#fed065" d="M 239.5,385.5 C 240.117,385.611 240.617,385.944 241,386.5C 241.5,422.832 241.667,459.165 241.5,495.5C 228.788,496.146 216.455,495.48 204.5,493.5C 213.839,493.666 223.173,493.5 232.5,493C 235.583,492.214 237.749,490.381 239,487.5C 239.5,453.502 239.667,419.502 239.5,385.5 Z"/></g>
<g><path style="opacity:1" fill="#eeb882" d="M 436.5,396.5 C 457.063,414.394 476.73,433.394 495.5,453.5C 488.5,461.167 481.167,468.5 473.5,475.5C 453.836,457.17 434.503,438.503 415.5,419.5C 422.891,412.113 429.891,404.446 436.5,396.5 Z"/></g>
<g><path style="opacity:1" fill="#fd636e" d="M 334.5,411.5 C 335.167,411.5 335.833,411.5 336.5,411.5C 336.667,436.502 336.5,461.502 336,486.5C 334.413,489.756 331.913,491.923 328.5,493C 319.506,493.5 310.506,493.666 301.5,493.5C 301.5,466.833 301.5,440.167 301.5,413.5C 302.833,413.5 304.167,413.5 305.5,413.5C 315.211,413.421 324.878,412.754 334.5,411.5 Z"/></g>
<g><path style="opacity:1" fill="#fd4755" d="M 336.5,411.5 C 337.498,439.328 337.831,467.328 337.5,495.5C 325.5,495.5 313.5,495.5 301.5,495.5C 301.5,494.833 301.5,494.167 301.5,493.5C 310.506,493.666 319.506,493.5 328.5,493C 331.913,491.923 334.413,489.756 336,486.5C 336.5,461.502 336.667,436.502 336.5,411.5 Z"/></g>
<g><path style="opacity:1" fill="#cc3945" d="M 334.5,411.5 C 335.568,410.566 336.901,410.232 338.5,410.5C 338.831,439.005 338.498,467.338 337.5,495.5C 337.831,467.328 337.498,439.328 336.5,411.5C 335.833,411.5 335.167,411.5 334.5,411.5 Z"/></g>
<g><path style="opacity:1" fill="#65272b" d="M 305.5,413.5 C 304.167,413.5 302.833,413.5 301.5,413.5C 301.5,440.167 301.5,466.833 301.5,493.5C 301.5,494.167 301.5,494.833 301.5,495.5C 300.502,468.005 300.169,440.338 300.5,412.5C 302.415,412.216 304.081,412.549 305.5,413.5 Z"/></g>
</svg>
