<?xml version="1.0" encoding="UTF-8"?>
<!DOCTYPE svg PUBLIC "-//W3C//DTD SVG 1.1//EN" "http://www.w3.org/Graphics/SVG/1.1/DTD/svg11.dtd">
<svg xmlns="http://www.w3.org/2000/svg" version="1.1" width="512px" height="512px" style="shape-rendering:geometricPrecision; text-rendering:geometricPrecision; image-rendering:optimizeQuality; fill-rule:evenodd; clip-rule:evenodd" xmlns:xlink="http://www.w3.org/1999/xlink">
<g><path style="opacity:0.978" fill="#020201" d="M 55.5,-0.5 C 194.833,-0.5 334.167,-0.5 473.5,-0.5C 484.151,2.65172 490.984,9.65172 494,20.5C 494.667,109.5 494.667,198.5 494,287.5C 490.257,300.907 481.424,308.074 467.5,309C 414.168,309.5 360.834,309.667 307.5,309.5C 310.347,323.556 313.514,337.556 317,351.5C 327.423,352.321 337.923,352.821 348.5,353C 349.931,353.465 351.097,354.299 352,355.5C 352.752,358.894 352.585,362.227 351.5,365.5C 350.335,366.584 349.002,367.417 347.5,368C 292.5,368.667 237.5,368.667 182.5,368C 175.422,363.99 174.756,358.99 180.5,353C 191.41,352.821 202.243,352.321 213,351.5C 216.171,337.486 219.337,323.486 222.5,309.5C 178.167,309.5 133.833,309.5 89.5,309.5C 89.3334,332.836 89.5,356.169 90,379.5C 138.291,418.789 186.291,458.456 234,498.5C 236.652,503.961 235.486,508.294 230.5,511.5C 164.5,511.5 98.5,511.5 32.5,511.5C 14.8221,505.154 3.8221,492.82 -0.5,474.5C -0.5,405.167 -0.5,335.833 -0.5,266.5C 0.316435,264.856 1.64977,263.69 3.5,263C 13.828,262.5 24.1613,262.334 34.5,262.5C 34.3333,205.499 34.5,148.499 35,91.5C 35.8987,87.4295 38.3987,85.4295 42.5,85.5C 45.617,85.6423 48.117,86.9756 50,89.5C 50.5,135.165 50.6667,180.832 50.5,226.5C 137.998,227.499 225.665,227.833 313.5,227.5C 313.833,156.331 313.499,85.3314 312.5,14.5C 228.166,14.3333 143.833,14.5 59.5,15C 55.3333,16.5 52.5,19.3333 51,23.5C 50.6667,34.1667 50.3333,44.8333 50,55.5C 48.4583,58.8923 45.9583,60.8923 42.5,61.5C 38.2291,61.0624 35.7291,58.7291 35,54.5C 34.1681,42.7945 34.5014,31.1278 36,19.5C 39.3514,9.64981 45.8514,2.98314 55.5,-0.5 Z M 86.5,442.5 C 94.2922,448.453 101.959,454.62 109.5,461C 101.841,461.5 94.1739,461.666 86.5,461.5C 86.5,455.167 86.5,448.833 86.5,442.5 Z"/></g>
<g><path style="opacity:1" fill="#fdf4da" d="M 312.5,14.5 C 312.5,85.1667 312.5,155.833 312.5,226.5C 225.167,226.5 137.833,226.5 50.5,226.5C 50.6667,180.832 50.5,135.165 50,89.5C 48.117,86.9756 45.617,85.6423 42.5,85.5C 42.5,77.5 42.5,69.5 42.5,61.5C 45.9583,60.8923 48.4583,58.8923 50,55.5C 50.3333,44.8333 50.6667,34.1667 51,23.5C 52.5,19.3333 55.3333,16.5 59.5,15C 143.833,14.5 228.166,14.3333 312.5,14.5 Z"/></g>
<g><path style="opacity:1" fill="#fdb737" d="M 442.5,14.5 C 443.653,16.8068 444.82,19.1401 446,21.5C 446.5,33.4954 446.667,45.4954 446.5,57.5C 418.542,56.3503 390.542,56.1837 362.5,57C 359.098,60.719 358.598,64.8857 361,69.5C 361.75,70.1258 362.584,70.6258 363.5,71C 390.167,71.6667 416.833,71.6667 443.5,71C 444.527,70.4867 445.527,69.9867 446.5,69.5C 446.5,78.1667 446.5,86.8333 446.5,95.5C 418.542,94.3503 390.542,94.1837 362.5,95C 358.285,99.9581 358.619,104.625 363.5,109C 390.167,109.667 416.833,109.667 443.5,109C 444.527,108.487 445.527,107.987 446.5,107.5C 446.5,130.833 446.5,154.167 446.5,177.5C 407.167,177.5 367.833,177.5 328.5,177.5C 328.5,123.167 328.5,68.8333 328.5,14.5C 366.5,14.5 404.5,14.5 442.5,14.5 Z"/></g>
<g><path style="opacity:1" fill="#fba80f" d="M 442.5,14.5 C 451.839,14.3335 461.173,14.5002 470.5,15C 474.667,16.5 477.5,19.3333 479,23.5C 479.5,74.8323 479.667,126.166 479.5,177.5C 468.5,177.5 457.5,177.5 446.5,177.5C 446.5,154.167 446.5,130.833 446.5,107.5C 449.167,103.5 449.167,99.5 446.5,95.5C 446.5,86.8333 446.5,78.1667 446.5,69.5C 449.157,65.4678 449.157,61.4678 446.5,57.5C 446.667,45.4954 446.5,33.4954 446,21.5C 444.82,19.1401 443.653,16.8068 442.5,14.5 Z"/></g>
<g><path style="opacity:1" fill="#030302" d="M 126.5,56.5 C 155.169,56.3334 183.835,56.5 212.5,57C 213.667,58.1667 214.833,59.3333 216,60.5C 216.667,88.8333 216.667,117.167 216,145.5C 202.167,160.667 187.667,175.167 172.5,189C 144.167,189.667 115.833,189.667 87.5,189C 85.4476,188.07 83.9476,186.57 83,184.5C 82.3333,156.833 82.3333,129.167 83,101.5C 97.3395,86.3274 111.84,71.3274 126.5,56.5 Z"/></g>
<g><path style="opacity:1" fill="#090807" d="M 233.5,56.5 C 247.171,56.3334 260.837,56.5001 274.5,57C 278.124,59.1613 279.291,62.328 278,66.5C 277.167,68.6667 275.667,70.1667 273.5,71C 260.5,71.6667 247.5,71.6667 234.5,71C 229.577,66.4565 229.244,61.6231 233.5,56.5 Z"/></g>
<g><path style="opacity:1" fill="#060300" d="M 446.5,57.5 C 449.157,61.4678 449.157,65.4678 446.5,69.5C 445.527,69.9867 444.527,70.4867 443.5,71C 416.833,71.6667 390.167,71.6667 363.5,71C 362.584,70.6258 361.75,70.1258 361,69.5C 358.598,64.8857 359.098,60.719 362.5,57C 390.542,56.1837 418.542,56.3503 446.5,57.5 Z"/></g>
<g><path style="opacity:1" fill="#121f43" d="M 132.5,71.5 C 151.671,70.1722 171.004,70.1722 190.5,71.5C 190.376,72.1067 190.043,72.44 189.5,72.5C 170.674,71.503 151.674,71.1697 132.5,71.5 Z"/></g>
<g><path style="opacity:1" fill="#355cc8" d="M 132.5,71.5 C 151.674,71.1697 170.674,71.503 189.5,72.5C 182.167,80.5 174.5,88.1667 166.5,95.5C 147.326,95.8303 128.326,95.497 109.5,94.5C 117.5,87.1667 125.167,79.5 132.5,71.5 Z"/></g>
<g><path style="opacity:1" fill="#fdb737" d="M 178.5,162.5 C 177.503,144.007 177.17,125.341 177.5,106.5C 185.131,98.3684 192.964,90.3684 201,82.5C 201.667,101.833 201.667,121.167 201,140.5C 193.632,148.036 186.132,155.369 178.5,162.5 Z"/></g>
<g><path style="opacity:1" fill="#060505" d="M 255.5,85.5 C 257.989,85.2978 260.323,85.7978 262.5,87C 268.667,93.1667 274.833,99.3333 281,105.5C 282.467,111.905 279.967,115.572 273.5,116.5C 270.345,115.85 267.845,114.183 266,111.5C 265.667,126.5 265.333,141.5 265,156.5C 259.359,162.304 254.692,161.637 251,154.5C 250.667,140.167 250.333,125.833 250,111.5C 243.168,118.9 238.002,117.9 234.5,108.5C 240.442,99.8903 247.442,92.2237 255.5,85.5 Z"/></g>
<g><path style="opacity:1" fill="#090601" d="M 446.5,95.5 C 449.167,99.5 449.167,103.5 446.5,107.5C 445.527,107.987 444.527,108.487 443.5,109C 416.833,109.667 390.167,109.667 363.5,109C 358.619,104.625 358.285,99.9581 362.5,95C 390.542,94.1837 418.542,94.3503 446.5,95.5 Z"/></g>
<g><path style="opacity:1" fill="#0b1328" d="M 109.5,94.5 C 128.326,95.497 147.326,95.8303 166.5,95.5C 147.329,96.8278 127.996,96.8278 108.5,95.5C 108.624,94.8933 108.957,94.56 109.5,94.5 Z"/></g>
<g><path style="opacity:1" fill="#79581b" d="M 177.5,106.5 C 177.17,125.341 177.503,144.007 178.5,162.5C 178.44,163.043 178.107,163.376 177.5,163.5C 176.172,144.338 176.172,125.338 177.5,106.5 Z"/></g>
<g><path style="opacity:1" fill="#fafafa" d="M 97.5,110.5 C 119.167,110.5 140.833,110.5 162.5,110.5C 162.5,131.833 162.5,153.167 162.5,174.5C 140.833,174.5 119.167,174.5 97.5,174.5C 97.5,153.167 97.5,131.833 97.5,110.5 Z"/></g>
<g><path style="opacity:1" fill="#010000" d="M 362.5,132.5 C 381.503,132.333 400.503,132.5 419.5,133C 423.5,137.333 423.5,141.667 419.5,146C 400.5,146.667 381.5,146.667 362.5,146C 358.541,141.501 358.541,137.001 362.5,132.5 Z"/></g>
<g><path style="opacity:1" fill="#060605" d="M 206.5,174.5 C 228.836,174.333 251.169,174.5 273.5,175C 278.689,177.913 279.856,182.08 277,187.5C 276.25,188.126 275.416,188.626 274.5,189C 251.5,189.667 228.5,189.667 205.5,189C 200.003,183.683 200.336,178.85 206.5,174.5 Z"/></g>
<g><path style="opacity:1" fill="#1a2e66" d="M 479.5,193.5 C 468.5,193.5 457.5,193.5 446.5,193.5C 407.167,193.5 367.833,193.5 328.5,193.5C 328.5,204.5 328.5,215.5 328.5,226.5C 367.833,226.5 407.167,226.5 446.5,226.5C 457.5,226.5 468.5,226.5 479.5,226.5C 429.003,227.499 378.336,227.832 327.5,227.5C 327.5,215.833 327.5,204.167 327.5,192.5C 378.336,192.168 429.003,192.501 479.5,193.5 Z"/></g>
<g><path style="opacity:1" fill="#365cca" d="M 446.5,193.5 C 446.5,204.5 446.5,215.5 446.5,226.5C 407.167,226.5 367.833,226.5 328.5,226.5C 328.5,215.5 328.5,204.5 328.5,193.5C 367.833,193.5 407.167,193.5 446.5,193.5 Z"/></g>
<g><path style="opacity:1" fill="#284db7" d="M 446.5,193.5 C 457.5,193.5 468.5,193.5 479.5,193.5C 479.5,204.5 479.5,215.5 479.5,226.5C 468.5,226.5 457.5,226.5 446.5,226.5C 446.5,215.5 446.5,204.5 446.5,193.5 Z"/></g>
<g><path style="opacity:1" fill="#aaa492" d="M 312.5,14.5 C 313.499,85.3314 313.833,156.331 313.5,227.5C 225.665,227.833 137.998,227.499 50.5,226.5C 137.833,226.5 225.167,226.5 312.5,226.5C 312.5,155.833 312.5,85.1667 312.5,14.5 Z"/></g>
<g><path style="opacity:1" fill="#e7f3fe" d="M 446.5,242.5 C 446.667,257.17 446.5,271.837 446,286.5C 445.041,288.953 443.874,291.286 442.5,293.5C 324.5,293.5 206.5,293.5 88.5,293.5C 88.6664,284.827 88.4998,276.16 88,267.5C 87.5348,266.069 86.7014,264.903 85.5,264C 73.9349,262.543 62.2682,262.043 50.5,262.5C 50.5,255.833 50.5,249.167 50.5,242.5C 182.5,242.5 314.5,242.5 446.5,242.5 Z"/></g>
<g><path style="opacity:1" fill="#dbe9f6" d="M 446.5,242.5 C 457.5,242.5 468.5,242.5 479.5,242.5C 479.667,256.171 479.5,269.837 479,283.5C 477.833,288.667 474.667,291.833 469.5,293C 460.506,293.5 451.506,293.666 442.5,293.5C 443.874,291.286 445.041,288.953 446,286.5C 446.5,271.837 446.667,257.17 446.5,242.5 Z"/></g>
<g><path style="opacity:1" fill="#bdcfdf" d="M 73.5,278.5 C 73.5,283.167 73.5,287.833 73.5,292.5C 54.1667,292.5 34.8333,292.5 15.5,292.5C 15.5,287.833 15.5,283.167 15.5,278.5C 34.8333,278.5 54.1667,278.5 73.5,278.5 Z"/></g>
<g><path style="opacity:1" fill="#96a3b0" d="M 73.5,278.5 C 54.1667,278.5 34.8333,278.5 15.5,278.5C 15.5,283.167 15.5,287.833 15.5,292.5C 34.8333,292.5 54.1667,292.5 73.5,292.5C 54.0071,293.497 34.3404,293.83 14.5,293.5C 14.5,288.167 14.5,282.833 14.5,277.5C 34.3404,277.17 54.0071,277.503 73.5,278.5 Z"/></g>
<g><path style="opacity:1" fill="#98ecfd" d="M 14.5,308.5 C 34.1667,308.5 53.8333,308.5 73.5,308.5C 73.5,316.833 73.5,325.167 73.5,333.5C 53.8333,333.5 34.1667,333.5 14.5,333.5C 14.5,325.167 14.5,316.833 14.5,308.5 Z"/></g>
<g><path style="opacity:1" fill="#bccede" d="M 238.5,309.5 C 245.5,309.5 252.5,309.5 259.5,309.5C 262.344,323.875 265.344,338.208 268.5,352.5C 255.167,352.5 241.833,352.5 228.5,352.5C 231.667,338.161 235.001,323.828 238.5,309.5 Z"/></g>
<g><path style="opacity:1" fill="#acc0d2" d="M 238.5,309.5 C 255.992,308.503 273.659,308.17 291.5,308.5C 294.498,322.491 297.498,336.491 300.5,350.5C 290.219,352.476 279.552,353.143 268.5,352.5C 265.344,338.208 262.344,323.875 259.5,309.5C 252.5,309.5 245.5,309.5 238.5,309.5 Z"/></g>
<g><path style="opacity:0.971" fill="#010102" d="M 511.5,414.5 C 511.5,445.5 511.5,476.5 511.5,507.5C 510.167,508.833 508.833,510.167 507.5,511.5C 505.167,511.5 502.833,511.5 500.5,511.5C 497.706,510.03 496.039,507.696 495.5,504.5C 496.664,476.003 496.83,447.336 496,418.5C 494.402,413.901 491.235,411.068 486.5,410C 471.661,409.172 456.994,409.339 442.5,410.5C 438.036,414.463 433.702,418.63 429.5,423C 426.384,424.971 423.384,424.805 420.5,422.5C 418.132,418.948 417.965,415.281 420,411.5C 427.833,403.667 435.667,395.833 443.5,388C 441,385.5 438.5,383 436,380.5C 415.333,401.167 394.667,421.833 374,442.5C 372.519,448.857 375.019,451.357 381.5,450C 385.866,445.299 390.533,440.966 395.5,437C 398.611,436.388 401.277,437.221 403.5,439.5C 405.953,442.303 406.12,445.303 404,448.5C 399.5,453 395,457.5 390.5,462C 383.822,465.394 376.822,466.394 369.5,465C 366.797,468.038 363.797,470.705 360.5,473C 352.212,474.291 349.045,470.791 351,462.5C 353.667,459.833 356.333,457.167 359,454.5C 358.562,449.203 358.562,443.87 359,438.5C 365.924,428.408 374.091,419.408 383.5,411.5C 384.043,411.44 384.376,411.107 384.5,410.5C 350.669,409.17 317.002,409.17 283.5,410.5C 278.713,411.156 275.546,413.822 274,418.5C 273.17,447.336 273.336,476.003 274.5,504.5C 273.956,507.7 272.29,510.033 269.5,511.5C 267.5,511.5 265.5,511.5 263.5,511.5C 261.897,510.404 260.397,509.07 259,507.5C 258.333,476.833 258.333,446.167 259,415.5C 261.305,405.86 267.138,399.36 276.5,396C 317.454,394.689 358.454,394.023 399.5,394C 416.56,376.272 434.226,359.272 452.5,343C 465.217,339.014 474.717,342.847 481,354.5C 483.455,361.501 482.788,368.168 479,374.5C 472.5,381 466,387.5 459.5,394C 469.833,394.333 480.167,394.667 490.5,395C 500.92,397.923 507.92,404.423 511.5,414.5 Z"/></g>
<g><path style="opacity:1" fill="#68aad1" d="M 14.5,348.5 C 21.8333,348.5 29.1667,348.5 36.5,348.5C 36.5,356.833 36.5,365.167 36.5,373.5C 29.1667,373.5 21.8333,373.5 14.5,373.5C 14.5,365.167 14.5,356.833 14.5,348.5 Z"/></g>
<g><path style="opacity:1" fill="#68a9d0" d="M 52.5,349.5 C 59.3134,348.509 66.3134,348.175 73.5,348.5C 73.8288,354.206 73.4954,359.872 72.5,365.5C 66.103,359.763 59.4363,354.43 52.5,349.5 Z"/></g>
<g><path style="opacity:1" fill="#30363b" d="M 300.5,350.5 C 301.404,351.209 301.737,352.209 301.5,353.5C 276.994,353.831 252.661,353.498 228.5,352.5C 241.833,352.5 255.167,352.5 268.5,352.5C 279.552,353.143 290.219,352.476 300.5,350.5 Z"/></g>
<g><path style="opacity:1" fill="#f5b235" d="M 459.5,356.5 C 465.33,356.161 467.83,358.827 467,364.5C 462.667,368.833 458.333,373.167 454,377.5C 451.317,374.984 448.817,372.317 446.5,369.5C 451.188,365.479 455.521,361.146 459.5,356.5 Z"/></g>
<g><path style="opacity:1" fill="#f2d30c" d="M 204.5,494.5 C 191.677,495.495 178.677,495.829 165.5,495.5C 158.025,488.865 150.358,482.365 142.5,476C 140.859,474.871 139.859,473.371 139.5,471.5C 139.93,468.138 138.93,465.305 136.5,463C 118.122,447.62 99.4557,432.62 80.5,418C 78.1152,417.444 75.7819,417.61 73.5,418.5C 66.1667,412.5 58.8333,406.5 51.5,400.5C 51.168,389.813 51.5013,379.146 52.5,368.5C 103.502,410.176 154.169,452.176 204.5,494.5 Z"/></g>
<g><path style="opacity:1" fill="#e5f1fc" d="M 420.5,422.5 C 414.5,427.833 408.833,433.5 403.5,439.5C 401.277,437.221 398.611,436.388 395.5,437C 390.533,440.966 385.866,445.299 381.5,450C 375.019,451.357 372.519,448.857 374,442.5C 394.667,421.833 415.333,401.167 436,380.5C 438.5,383 441,385.5 443.5,388C 435.667,395.833 427.833,403.667 420,411.5C 417.965,415.281 418.132,418.948 420.5,422.5 Z"/></g>
<g><path style="opacity:1" fill="#355bc7" d="M 14.5,388.5 C 21.8333,388.5 29.1667,388.5 36.5,388.5C 36.5,396.833 36.5,405.167 36.5,413.5C 29.1667,413.5 21.8333,413.5 14.5,413.5C 14.5,405.167 14.5,396.833 14.5,388.5 Z"/></g>
<g><path style="opacity:1" fill="#fbe243" d="M 51.5,400.5 C 58.8333,406.5 66.1667,412.5 73.5,418.5C 73.0133,419.473 72.5133,420.473 72,421.5C 71.3333,438.5 71.3333,455.5 72,472.5C 72.3742,473.416 72.8742,474.25 73.5,475C 94.0774,476.643 114.744,476.976 135.5,476C 137.07,474.603 138.404,473.103 139.5,471.5C 139.859,473.371 140.859,474.871 142.5,476C 150.358,482.365 158.025,488.865 165.5,495.5C 127.5,495.5 89.5,495.5 51.5,495.5C 51.5,463.833 51.5,432.167 51.5,400.5 Z"/></g>
<g><path style="opacity:1" fill="#1c316b" d="M 283.5,410.5 C 317.002,409.17 350.669,409.17 384.5,410.5C 384.376,411.107 384.043,411.44 383.5,411.5C 350.338,410.502 317.004,410.168 283.5,410.5 Z"/></g>
<g><path style="opacity:1" fill="#355cc9" d="M 283.5,410.5 C 317.004,410.168 350.338,410.502 383.5,411.5C 374.091,419.408 365.924,428.408 359,438.5C 358.562,443.87 358.562,449.203 359,454.5C 356.333,457.167 353.667,459.833 351,462.5C 349.045,470.791 352.212,474.291 360.5,473C 363.797,470.705 366.797,468.038 369.5,465C 376.822,466.394 383.822,465.394 390.5,462C 395,457.5 399.5,453 404,448.5C 406.12,445.303 405.953,442.303 403.5,439.5C 408.833,433.5 414.5,427.833 420.5,422.5C 423.384,424.805 426.384,424.971 429.5,423C 433.702,418.63 438.036,414.463 442.5,410.5C 448.509,410.334 454.509,410.501 460.5,411C 463.014,414.413 464.014,418.247 463.5,422.5C 457.824,422.334 452.157,422.501 446.5,423C 440.781,426.592 440.114,430.926 444.5,436C 445.745,436.791 447.078,437.291 448.5,437.5C 453.305,438.487 458.305,438.821 463.5,438.5C 463.5,460.5 463.5,482.5 463.5,504.5C 400.5,504.5 337.5,504.5 274.5,504.5C 273.336,476.003 273.17,447.336 274,418.5C 275.546,413.822 278.713,411.156 283.5,410.5 Z"/></g>
<g><path style="opacity:1" fill="#274db5" d="M 442.5,410.5 C 456.994,409.339 471.661,409.172 486.5,410C 491.235,411.068 494.402,413.901 496,418.5C 496.83,447.336 496.664,476.003 495.5,504.5C 484.833,504.5 474.167,504.5 463.5,504.5C 463.5,482.5 463.5,460.5 463.5,438.5C 458.305,438.821 453.305,438.487 448.5,437.5C 459.936,437.956 471.269,437.456 482.5,436C 485.448,431.659 485.115,427.659 481.5,424C 475.621,422.59 469.621,422.09 463.5,422.5C 464.014,418.247 463.014,414.413 460.5,411C 454.509,410.501 448.509,410.334 442.5,410.5 Z"/></g>
<g><path style="opacity:0.983" fill="#010100" d="M 139.5,471.5 C 138.404,473.103 137.07,474.603 135.5,476C 114.744,476.976 94.0774,476.643 73.5,475C 72.8742,474.25 72.3742,473.416 72,472.5C 71.3333,455.5 71.3333,438.5 72,421.5C 72.5133,420.473 73.0133,419.473 73.5,418.5C 75.7819,417.61 78.1152,417.444 80.5,418C 99.4557,432.62 118.122,447.62 136.5,463C 138.93,465.305 139.93,468.138 139.5,471.5 Z M 86.5,442.5 C 86.5,448.833 86.5,455.167 86.5,461.5C 94.1739,461.666 101.841,461.5 109.5,461C 101.959,454.62 94.2922,448.453 86.5,442.5 Z"/></g>
<g><path style="opacity:1" fill="#010103" d="M 290.5,422.5 C 301.172,422.333 311.839,422.5 322.5,423C 328.281,425.072 329.781,428.906 327,434.5C 326.097,435.701 324.931,436.535 323.5,437C 312.167,437.667 300.833,437.667 289.5,437C 283.954,431.676 284.288,426.843 290.5,422.5 Z"/></g>
<g><path style="opacity:1" fill="#010104" d="M 463.5,422.5 C 469.621,422.09 475.621,422.59 481.5,424C 485.115,427.659 485.448,431.659 482.5,436C 471.269,437.456 459.936,437.956 448.5,437.5C 447.078,437.291 445.745,436.791 444.5,436C 440.114,430.926 440.781,426.592 446.5,423C 452.157,422.501 457.824,422.334 463.5,422.5 Z"/></g>
<g><path style="opacity:1" fill="#b2bbc4" d="M 36.5,429.5 C 29.5,429.5 22.5,429.5 15.5,429.5C 15.5,443.833 15.5,458.167 15.5,472.5C 14.504,458.01 14.1707,443.343 14.5,428.5C 22.0191,428.175 29.3524,428.508 36.5,429.5 Z"/></g>
<g><path style="opacity:1" fill="#e7f3fe" d="M 36.5,429.5 C 36.6666,451.503 36.5,473.503 36,495.5C 24.7441,491.746 17.9108,484.079 15.5,472.5C 15.5,458.167 15.5,443.833 15.5,429.5C 22.5,429.5 29.5,429.5 36.5,429.5 Z"/></g>
<g><path style="opacity:1" fill="#a89628" d="M 204.5,494.5 C 205.289,494.783 205.956,495.283 206.5,496C 154.665,496.832 102.998,496.665 51.5,495.5C 89.5,495.5 127.5,495.5 165.5,495.5C 178.677,495.829 191.677,495.495 204.5,494.5 Z"/></g>
</svg>
