<?xml version="1.0" encoding="UTF-8"?>
<!DOCTYPE svg PUBLIC "-//W3C//DTD SVG 1.1//EN" "http://www.w3.org/Graphics/SVG/1.1/DTD/svg11.dtd">
<svg xmlns="http://www.w3.org/2000/svg" version="1.1" width="512px" height="512px" style="shape-rendering:geometricPrecision; text-rendering:geometricPrecision; image-rendering:optimizeQuality; fill-rule:evenodd; clip-rule:evenodd" xmlns:xlink="http://www.w3.org/1999/xlink">
<g><path style="opacity:0.975" fill="#020201" d="M 400.5,3.5 C 432.968,-0.266466 461.468,8.4002 486,29.5C 504.274,49.6689 511.274,73.3355 507,100.5C 505.226,113.719 500.892,126.052 494,137.5C 484.878,149.963 476.544,162.963 469,176.5C 467.384,180.347 466.384,184.347 466,188.5C 465.932,199.572 465.265,210.572 464,221.5C 462,224.833 459.333,227.5 456,229.5C 457.517,241.835 452.517,249.835 441,253.5C 441.193,262.979 437.026,269.479 428.5,273C 419.833,273.667 411.167,273.667 402.5,273C 394.189,269.221 390.356,262.721 391,253.5C 386.255,252.46 382.255,250.127 379,246.5C 376.393,240.799 374.893,234.799 374.5,228.5C 369.662,225.493 366.828,221.16 366,215.5C 365.667,205.5 365.333,195.5 365,185.5C 363.453,178.403 360.786,171.736 357,165.5C 347.084,152.679 338.418,139.012 331,124.5C 320.425,98.1905 321.092,72.1905 333,46.5C 343.236,29.2922 357.736,17.1255 376.5,10C 384.459,7.17941 392.459,5.01274 400.5,3.5 Z"/></g>
<g><path style="opacity:1" fill="#fde985" d="M 448.5,23.5 C 474.484,41.1546 485.651,65.8213 482,97.5C 480.402,110.294 476.402,122.294 470,133.5C 463,143.833 456,154.167 449,164.5C 443.638,173.086 440.804,182.419 440.5,192.5C 439.167,192.5 437.833,192.5 436.5,192.5C 436.333,172.164 436.5,151.831 437,131.5C 459.135,121.233 469.469,103.899 468,79.5C 464.296,70.1408 457.463,66.6408 447.5,69C 438.403,74.0961 432.237,81.5961 429,91.5C 425.176,100.788 423.343,110.454 423.5,120.5C 418.547,121.329 413.547,121.663 408.5,121.5C 408.318,105.457 403.818,90.7905 395,77.5C 388.029,68.7228 379.529,66.5561 369.5,71C 363.176,76.4885 361.009,83.3218 363,91.5C 366.334,110.648 376.834,123.981 394.5,131.5C 394.5,151.833 394.5,172.167 394.5,192.5C 389.833,192.5 385.167,192.5 380.5,192.5C 379.764,179.024 375.598,166.691 368,155.5C 360.258,145.686 353.258,135.352 347,124.5C 337.353,103.322 336.019,81.6549 343,59.5C 354.277,36.9096 372.443,23.4096 397.5,19C 414.95,16.153 431.95,17.653 448.5,23.5 Z"/></g>
<g><path style="opacity:0.922" fill="#000000" d="M 278.5,19.5 C 280.179,19.8923 281.846,20.3923 283.5,21C 290.698,27.8638 297.532,35.0305 304,42.5C 305.378,46.8981 304.212,50.3981 300.5,53C 293.833,57 287.167,61 280.5,65C 271.912,68.394 267.746,65.5606 268,56.5C 269.167,54 271,52.1667 273.5,51C 192.69,45.9919 129.19,76.4919 83,142.5C 75.6987,154.787 68.8653,167.287 62.5,180C 55.8327,183.332 51.8327,181.332 50.5,174C 78.3306,106.506 127.331,62.5065 197.5,42C 223.468,35.3362 249.801,33.0029 276.5,35C 269.833,28.8459 270.5,23.6792 278.5,19.5 Z"/></g>
<g><path style="opacity:1" fill="#f7d736" d="M 448.5,23.5 C 477.341,34.022 492.341,54.6887 493.5,85.5C 493.368,97.9936 490.868,109.994 486,121.5C 477.831,135.174 469.165,148.508 460,161.5C 455.249,169.919 452.416,178.919 451.5,188.5C 450.566,189.568 450.232,190.901 450.5,192.5C 447.167,192.5 443.833,192.5 440.5,192.5C 440.804,182.419 443.638,173.086 449,164.5C 456,154.167 463,143.833 470,133.5C 476.402,122.294 480.402,110.294 482,97.5C 485.651,65.8213 474.484,41.1546 448.5,23.5 Z"/></g>
<g><path style="opacity:1" fill="#f4e181" d="M 377.5,82.5 C 382.391,84.2211 385.891,87.5545 388,92.5C 390.066,97.3634 391.732,102.363 393,107.5C 393.814,109.902 393.647,112.235 392.5,114.5C 381.494,106.496 376.494,95.8292 377.5,82.5 Z"/></g>
<g><path style="opacity:1" fill="#f3e081" d="M 451.5,82.5 C 452.5,82.5 453.5,82.5 454.5,82.5C 455.372,96.7321 449.872,107.732 438,115.5C 438.334,102.633 442.834,91.6332 451.5,82.5 Z"/></g>
<g><path style="opacity:0.974" fill="#020101" d="M 244.5,133.5 C 248.105,133.799 251.439,134.965 254.5,137C 286.749,155.707 318.915,174.541 351,193.5C 352.156,214.08 352.656,234.747 352.5,255.5C 352.656,276.253 352.156,296.92 351,317.5C 316.7,338.401 281.867,358.401 246.5,377.5C 211.081,358.289 176.081,338.289 141.5,317.5C 140.902,316.205 140.402,314.872 140,313.5C 139.333,274.833 139.333,236.167 140,197.5C 140.402,196.128 140.902,194.795 141.5,193.5C 175.765,173.207 210.098,153.207 244.5,133.5 Z"/></g>
<g><path style="opacity:1" fill="#8a7f49" d="M 394.5,131.5 C 395.497,151.993 395.831,172.66 395.5,193.5C 390.305,193.821 385.305,193.487 380.5,192.5C 385.167,192.5 389.833,192.5 394.5,192.5C 394.5,172.167 394.5,151.833 394.5,131.5 Z"/></g>
<g><path style="opacity:1" fill="#7a7040" d="M 422.5,135.5 C 418.167,135.5 413.833,135.5 409.5,135.5C 409.5,154.5 409.5,173.5 409.5,192.5C 413.833,192.5 418.167,192.5 422.5,192.5C 418.03,193.486 413.363,193.819 408.5,193.5C 408.5,173.833 408.5,154.167 408.5,134.5C 413.363,134.181 418.03,134.514 422.5,135.5 Z"/></g>
<g><path style="opacity:1" fill="#feeb86" d="M 422.5,135.5 C 422.5,154.5 422.5,173.5 422.5,192.5C 418.167,192.5 413.833,192.5 409.5,192.5C 409.5,173.5 409.5,154.5 409.5,135.5C 413.833,135.5 418.167,135.5 422.5,135.5 Z"/></g>
<g><path style="opacity:1" fill="#e67d6d" d="M 245.5,149.5 C 252.934,152.718 259.934,156.718 266.5,161.5C 238.5,177.833 210.5,194.167 182.5,210.5C 175.571,206.898 168.905,202.898 162.5,198.5C 190.03,181.903 217.696,165.57 245.5,149.5 Z"/></g>
<g><path style="opacity:1" fill="#c45443" d="M 280.5,169.5 C 285.77,171.803 290.77,174.636 295.5,178C 268.495,194.505 241.162,210.505 213.5,226C 207.778,225.396 202.612,223.229 198,219.5C 197.911,217.887 198.745,216.72 200.5,216C 227.393,200.726 254.06,185.226 280.5,169.5 Z"/></g>
<g><path style="opacity:1" fill="#e67d6d" d="M 308.5,186.5 C 316.376,189.439 323.71,193.439 330.5,198.5C 302.5,214.833 274.5,231.167 246.5,247.5C 239.369,243.532 232.369,239.366 225.5,235C 253.558,219.311 281.225,203.145 308.5,186.5 Z"/></g>
<g><path style="opacity:1" fill="#9a872b" d="M 451.5,188.5 C 451.5,190.167 451.5,191.833 451.5,193.5C 446.305,193.821 441.305,193.487 436.5,192.5C 437.833,192.5 439.167,192.5 440.5,192.5C 443.833,192.5 447.167,192.5 450.5,192.5C 450.232,190.901 450.566,189.568 451.5,188.5 Z"/></g>
<g><path style="opacity:0.909" fill="#000000" d="M 42.5,203.5 C 48.9789,201.784 52.9789,204.117 54.5,210.5C 51.8739,223.049 50.0406,235.716 49,248.5C 46.487,252.212 42.987,253.378 38.5,252C 35.6842,249.868 34.3509,247.035 34.5,243.5C 35.3545,231.019 37.1878,218.685 40,206.5C 41.045,205.627 41.8783,204.627 42.5,203.5 Z"/></g>
<g><path style="opacity:1" fill="#41465a" d="M 380.5,207.5 C 403.994,206.502 427.661,206.169 451.5,206.5C 451.806,209.385 451.473,212.052 450.5,214.5C 450.5,212.167 450.5,209.833 450.5,207.5C 427.167,207.5 403.833,207.5 380.5,207.5 Z"/></g>
<g><path style="opacity:1" fill="#99a5d4" d="M 380.5,207.5 C 403.833,207.5 427.167,207.5 450.5,207.5C 450.5,209.833 450.5,212.167 450.5,214.5C 450.389,215.117 450.056,215.617 449.5,216C 426.833,216.667 404.167,216.667 381.5,216C 380.556,213.281 380.223,210.448 380.5,207.5 Z"/></g>
<g><path style="opacity:1" fill="#fdccbe" d="M 154.5,210.5 C 161.224,214.615 168.057,218.615 175,222.5C 175.333,237.167 175.667,251.833 176,266.5C 177.765,269.473 180.265,271.64 183.5,273C 191.995,277.413 200.328,282.08 208.5,287C 213.12,288.538 216.287,287.038 218,282.5C 218.333,270.833 218.667,259.167 219,247.5C 225.667,251.5 232.333,255.5 239,259.5C 239.667,292.167 239.667,324.833 239,357.5C 210.836,341.419 182.836,325.086 155,308.5C 154.5,275.835 154.333,243.168 154.5,210.5 Z"/></g>
<g><path style="opacity:1" fill="#f19887" d="M 336.5,211.5 C 337.498,243.662 337.832,275.996 337.5,308.5C 309.648,324.681 281.814,341.014 254,357.5C 253.333,324.833 253.333,292.167 254,259.5C 281.388,243.273 308.888,227.273 336.5,211.5 Z"/></g>
<g><path style="opacity:1" fill="#aa6c60" d="M 336.5,211.5 C 336.56,210.957 336.893,210.624 337.5,210.5C 338.83,243.331 338.83,275.998 337.5,308.5C 337.832,275.996 337.498,243.662 336.5,211.5 Z"/></g>
<g><path style="opacity:1" fill="#7380b8" d="M 390.5,230.5 C 407.5,230.5 424.5,230.5 441.5,230.5C 441.768,233.119 441.435,235.619 440.5,238C 424.167,238.667 407.833,238.667 391.5,238C 390.565,235.619 390.232,233.119 390.5,230.5 Z"/></g>
<g><path style="opacity:1" fill="#ec9584" d="M 189.5,231.5 C 194.52,233.762 199.353,236.428 204,239.5C 204.832,249.184 204.665,258.851 203.5,268.5C 199.13,265.634 194.63,262.968 190,260.5C 189.5,250.839 189.334,241.172 189.5,231.5 Z"/></g>
<g><path style="opacity:1" fill="#434f7a" d="M 405.5,252.5 C 412.167,252.5 418.833,252.5 425.5,252.5C 425.756,254.792 425.423,256.959 424.5,259C 418.472,259.83 412.472,259.664 406.5,258.5C 405.652,256.591 405.318,254.591 405.5,252.5 Z"/></g>
<g><path style="opacity:0.902" fill="#000000" d="M 466.5,256.5 C 473.493,256.16 476.826,259.493 476.5,266.5C 475.887,277.625 474.387,288.625 472,299.5C 468.414,305.029 464.081,305.695 459,301.5C 458.077,299.966 457.577,298.299 457.5,296.5C 459.592,284.575 461.092,272.575 462,260.5C 463.397,258.93 464.897,257.596 466.5,256.5 Z"/></g>
<g><path style="opacity:0.905" fill="#000000" d="M 39.5,271.5 C 42.1873,271.336 44.854,271.503 47.5,272C 48.7014,272.903 49.5348,274.069 50,275.5C 51.7356,287.247 53.9023,298.914 56.5,310.5C 55.4271,316.712 51.7605,318.879 45.5,317C 43.6667,316.5 42.5,315.333 42,313.5C 38.4776,301.034 36.4776,288.367 36,275.5C 37.0319,273.973 38.1986,272.64 39.5,271.5 Z"/></g>
<g><path style="opacity:0.896" fill="#000000" d="M 453.5,320.5 C 462.386,319.891 465.553,323.891 463,332.5C 458.864,342.771 454.197,352.771 449,362.5C 443.879,366.875 439.545,366.209 436,360.5C 435.333,358.5 435.333,356.5 436,354.5C 441.472,344.553 446.139,334.22 450,323.5C 451.145,322.364 452.312,321.364 453.5,320.5 Z"/></g>
<g><path style="opacity:0.961" fill="#010100" d="M 83.5,321.5 C 93.233,321.109 102.9,321.609 112.5,323C 115.381,324.251 117.214,326.417 118,329.5C 118.539,332.529 119.206,335.529 120,338.5C 124.333,340.5 128.667,342.5 133,344.5C 137.792,339.354 143.625,337.521 150.5,339C 157.636,345.135 164.469,351.635 171,358.5C 173.906,365.992 172.406,372.492 166.5,378C 168.306,382.418 170.306,386.751 172.5,391C 186.928,392.466 192.594,400.466 189.5,415C 192.601,430.045 186.601,437.879 171.5,438.5C 170.331,443.174 168.664,447.674 166.5,452C 172.529,457.424 174.029,463.924 171,471.5C 164.469,478.365 157.636,484.865 150.5,491C 143.537,492.354 137.537,490.52 132.5,485.5C 128.366,487.766 124.033,489.432 119.5,490.5C 118.952,505.723 111.118,511.389 96,507.5C 80.9067,511.399 73.0734,505.732 72.5,490.5C 68.0876,489.131 63.7543,487.464 59.5,485.5C 56.6319,487.532 53.6319,489.365 50.5,491C 46.7054,491.837 43.0387,491.504 39.5,490C 32.6349,483.469 26.1349,476.636 20,469.5C 18.6462,462.537 20.4796,456.537 25.5,451.5C 23.536,447.246 21.8693,442.912 20.5,438.5C 5.26762,437.927 -0.399048,430.093 3.5,415C -0.38932,399.882 5.27735,392.048 20.5,391.5C 21.5678,386.967 23.2345,382.634 25.5,378.5C 23.4682,375.632 21.6349,372.632 20,369.5C 19.1628,365.705 19.4961,362.039 21,358.5C 27.5307,351.635 34.364,345.135 41.5,339C 44.8333,338.333 48.1667,338.333 51.5,339C 54.0292,341.029 56.6959,342.862 59.5,344.5C 63.634,342.234 67.9673,340.568 72.5,339.5C 71.7792,330.516 75.4459,324.516 83.5,321.5 Z"/></g>
<g><path style="opacity:1" fill="#fae684" d="M 102.5,336.5 C 103.139,340.527 103.972,344.527 105,348.5C 106.33,349.582 107.83,350.249 109.5,350.5C 117.339,353.891 125.339,356.891 133.5,359.5C 138.216,358.13 142.549,356.297 146.5,354C 150.349,357.682 154.016,361.515 157.5,365.5C 155.807,368.184 154.14,370.851 152.5,373.5C 149.753,374.973 148.919,377.306 150,380.5C 152.305,385.609 154.471,390.776 156.5,396C 156.836,397.03 157.503,397.53 158.5,397.5C 159.783,399.868 161.45,402.035 163.5,404C 166.678,404.66 169.678,405.493 172.5,406.5C 172.178,412.358 172.511,418.025 173.5,423.5C 166.444,423.19 161.444,426.19 158.5,432.5C 158.19,431.262 157.69,431.262 157,432.5C 154.667,438.167 152.333,443.833 150,449.5C 149.023,452.817 149.856,455.484 152.5,457.5C 154.497,459.513 156.164,461.846 157.5,464.5C 154.016,468.485 150.349,472.318 146.5,476C 143.199,475.176 140.199,473.51 137.5,471C 134.833,470.333 132.167,470.333 129.5,471C 122.31,473.89 115.31,477.057 108.5,480.5C 106.638,479.424 105.305,480.091 104.5,482.5C 103.574,486.13 102.907,489.797 102.5,493.5C 97.5,493.5 92.5,493.5 87.5,493.5C 87.36,488.623 86.0266,484.123 83.5,480C 75.2442,476.12 66.7442,472.953 58,470.5C 53.7253,471.555 49.892,473.555 46.5,476.5C 42.5151,473.016 38.6818,469.349 35,465.5C 35.8235,462.199 37.4902,459.199 40,456.5C 40.6667,453.833 40.6667,451.167 40,448.5C 37,441.5 34,434.5 31,427.5C 27.1005,425.376 22.9338,424.043 18.5,423.5C 17.3368,417.863 17.1701,412.196 18,406.5C 21.4049,405.418 24.9049,404.584 28.5,404C 30,403.167 31.1667,402 32,400.5C 35.2371,392.787 38.0704,384.953 40.5,377C 39.4452,372.725 37.4452,368.892 34.5,365.5C 37.9844,361.515 41.651,357.682 45.5,354C 48.9659,355.066 52.2993,356.733 55.5,359C 65.2977,357.567 74.631,354.4 83.5,349.5C 85.6987,345.618 87.032,341.451 87.5,337C 92.4889,336.501 97.4889,336.334 102.5,336.5 Z"/></g>
<g><path style="opacity:1" fill="#e9b930" d="M 102.5,336.5 C 103.496,336.414 104.329,336.748 105,337.5C 105.324,342.365 106.824,346.698 109.5,350.5C 107.83,350.249 106.33,349.582 105,348.5C 103.972,344.527 103.139,340.527 102.5,336.5 Z"/></g>
<g><path style="opacity:1" fill="#050503" d="M 85.5,364.5 C 114.534,361.589 134.367,373.589 145,400.5C 150.658,430.021 139.824,450.854 112.5,463C 80.1213,470.397 58.288,458.564 47,427.5C 42.4954,395.834 55.3288,374.834 85.5,364.5 Z"/></g>
<g><path style="opacity:1" fill="#e6b832" d="M 152.5,373.5 C 151.463,375.738 151.297,378.071 152,380.5C 154.471,386.085 156.638,391.752 158.5,397.5C 157.503,397.53 156.836,397.03 156.5,396C 154.471,390.776 152.305,385.609 150,380.5C 148.919,377.306 149.753,374.973 152.5,373.5 Z"/></g>
<g><path style="opacity:1" fill="#fdfdfd" d="M 86.5,378.5 C 118.029,376.532 133.196,391.198 132,422.5C 128.611,437.556 119.445,447.056 104.5,451C 82.2409,453.725 67.4076,444.558 60,423.5C 57.4292,401.611 66.2625,386.611 86.5,378.5 Z"/></g>
<g><path style="opacity:0.923" fill="#000000" d="M 422.5,378.5 C 430.179,379.018 433.012,383.018 431,390.5C 376.875,455.789 307.375,483.956 222.5,475C 226.5,479.333 226.5,483.667 222.5,488C 219.5,490 216.5,490 213.5,488C 207.452,480.74 201.285,473.573 195,466.5C 194.034,462.882 194.534,459.549 196.5,456.5C 205.591,451.288 214.924,446.621 224.5,442.5C 231.497,444.531 233.33,448.864 230,455.5C 228.082,456.542 226.249,457.708 224.5,459C 289.6,467.628 346.6,450.295 395.5,407C 403.372,398.797 410.872,390.297 418,381.5C 419.652,380.601 421.152,379.601 422.5,378.5 Z"/></g>
<g><path style="opacity:1" fill="#fcc62e" d="M 172.5,406.5 C 173.814,408.915 174.481,411.748 174.5,415C 174.498,418.021 174.164,420.854 173.5,423.5C 172.511,418.025 172.178,412.358 172.5,406.5 Z"/></g>
<g><path style="opacity:1" fill="#e8ba35" d="M 158.5,432.5 C 156.347,438.146 154.18,443.812 152,449.5C 151.398,452.221 151.565,454.887 152.5,457.5C 149.856,455.484 149.023,452.817 150,449.5C 152.333,443.833 154.667,438.167 157,432.5C 157.69,431.262 158.19,431.262 158.5,432.5 Z"/></g>
<g><path style="opacity:1" fill="#f0bf32" d="M 108.5,480.5 C 106.282,483.719 105.115,487.386 105,491.5C 104.583,492.756 103.75,493.423 102.5,493.5C 102.907,489.797 103.574,486.13 104.5,482.5C 105.305,480.091 106.638,479.424 108.5,480.5 Z"/></g>
</svg>
