<?xml version="1.0" encoding="UTF-8"?>
<!DOCTYPE svg PUBLIC "-//W3C//DTD SVG 1.1//EN" "http://www.w3.org/Graphics/SVG/1.1/DTD/svg11.dtd">
<svg xmlns="http://www.w3.org/2000/svg" version="1.1" width="512px" height="512px" style="shape-rendering:geometricPrecision; text-rendering:geometricPrecision; image-rendering:optimizeQuality; fill-rule:evenodd; clip-rule:evenodd" xmlns:xlink="http://www.w3.org/1999/xlink">
<g><path style="opacity:0.913" fill="#000000" d="M 189.5,11.5 C 192.187,11.3359 194.854,11.5026 197.5,12C 199.259,13.008 200.426,14.508 201,16.5C 201.667,30.8333 201.667,45.1667 201,59.5C 197.987,64.5352 193.82,65.7019 188.5,63C 187.874,62.2496 187.374,61.4162 187,60.5C 186.333,45.5 186.333,30.5 187,15.5C 187.662,14.0161 188.496,12.6828 189.5,11.5 Z"/></g>
<g><path style="opacity:0.905" fill="#000000" d="M 81.5,40.5 C 86.2225,39.5531 90.0558,40.8864 93,44.5C 99.3333,55.8333 105.667,67.1667 112,78.5C 111.959,86.1895 108.126,89.0229 100.5,87C 92.9564,75.4161 85.7897,63.5828 79,51.5C 77.8118,47.2586 78.6451,43.5919 81.5,40.5 Z"/></g>
<g><path style="opacity:0.9" fill="#000000" d="M 297.5,40.5 C 306.156,38.7041 309.989,42.0375 309,50.5C 302.113,63.1211 294.613,75.2877 286.5,87C 278.225,89.0571 274.725,85.8905 276,77.5C 282.673,64.8115 289.84,52.4782 297.5,40.5 Z"/></g>
<g><path style="opacity:0.972" fill="#010101" d="M 511.5,200.5 C 511.5,211.5 511.5,222.5 511.5,233.5C 503.313,286.196 474.646,323.029 425.5,344C 419.01,346.553 412.343,348.387 405.5,349.5C 405.667,392.168 405.5,434.835 405,477.5C 400.891,491.772 391.391,499.105 376.5,499.5C 362.473,499.309 352.973,492.642 348,479.5C 346.527,436.206 346.027,392.873 346.5,349.5C 338.907,348.247 331.574,346.08 324.5,343C 315.688,338.594 307.021,334.261 298.5,330C 289.305,340.894 280.472,352.06 272,363.5C 267.434,370.408 263.268,377.574 259.5,385C 271.082,394.037 273.582,405.203 267,418.5C 264.478,422.355 261.311,425.522 257.5,428C 262.09,453.252 251.424,464.752 225.5,462.5C 226.551,485.077 215.884,497.743 193.5,500.5C 171.661,497.322 160.994,484.656 161.5,462.5C 142.309,465.263 130.976,457.263 127.5,438.5C 128.122,434.723 129.122,431.056 130.5,427.5C 116.76,418.3 113.593,406.3 121,391.5C 123.35,389.317 125.517,386.984 127.5,384.5C 123.598,376.443 119.098,368.777 114,361.5C 98.233,342.402 83.233,322.735 69,302.5C 46.0909,260.787 43.4242,217.787 61,173.5C 87.7706,117.931 132.104,88.9313 194,86.5C 227.493,86.6076 257.327,96.9409 283.5,117.5C 328.671,79.6947 378.671,71.8614 433.5,94C 477.44,116.388 503.44,151.888 511.5,200.5 Z"/></g>
<g><path style="opacity:1" fill="#66a3f9" d="M 328.5,328.5 C 278.116,293.344 258.949,245.344 271,184.5C 282.043,147.975 304.21,120.642 337.5,102.5C 393.011,87.1711 438.844,101.838 475,146.5C 503.121,190.096 504.788,234.762 480,280.5C 451.681,322.241 412.181,341.407 361.5,338C 349.893,336.519 338.893,333.352 328.5,328.5 Z"/></g>
<g><path style="opacity:1" fill="#fed13a" d="M 206.5,237.5 C 198.167,237.5 189.833,237.5 181.5,237.5C 181.823,230.978 181.49,224.645 180.5,218.5C 177.761,205.927 170.094,198.093 157.5,195C 140.417,193.629 129.25,201.129 124,217.5C 122.368,232.405 128.201,243.238 141.5,250C 143.74,250.977 146.073,251.477 148.5,251.5C 154.31,252.49 160.31,252.823 166.5,252.5C 166.5,295.5 166.5,338.5 166.5,381.5C 162.5,381.5 158.5,381.5 154.5,381.5C 150.1,372.365 144.933,363.698 139,355.5C 126.62,340.789 114.62,325.789 103,310.5C 77.7599,273.726 71.0932,233.726 83,190.5C 96.3539,152.992 120.521,124.992 155.5,106.5C 197.882,94.841 236.882,101.841 272.5,127.5C 273.583,128.365 273.749,129.365 273,130.5C 256.671,149.162 246.838,170.829 243.5,195.5C 226.983,192.342 215.15,198.342 208,213.5C 206.679,221.439 206.179,229.439 206.5,237.5 Z"/></g>
<g><path style="opacity:1" fill="#4b8ce9" d="M 337.5,102.5 C 304.21,120.642 282.043,147.975 271,184.5C 258.949,245.344 278.116,293.344 328.5,328.5C 287.494,309.879 263.328,278.212 256,233.5C 251.406,179.855 271.906,139.021 317.5,111C 323.986,107.673 330.653,104.84 337.5,102.5 Z"/></g>
<g><path style="opacity:1" fill="#030405" d="M 365.5,109.5 C 419.381,108.262 456.881,132.262 478,181.5C 491.504,228.323 480.338,268.156 444.5,301C 415.063,323.021 382.396,329.688 346.5,321C 299.91,305.069 274.076,272.569 269,223.5C 268.804,172.045 292.304,136.212 339.5,116C 348.183,113.37 356.849,111.203 365.5,109.5 Z"/></g>
<g><path style="opacity:1" fill="#dab129" d="M 155.5,106.5 C 120.521,124.992 96.3539,152.992 83,190.5C 71.0932,233.726 77.7599,273.726 103,310.5C 114.62,325.789 126.62,340.789 139,355.5C 144.933,363.698 150.1,372.365 154.5,381.5C 150.116,381.826 145.783,381.492 141.5,380.5C 137.441,371.381 132.608,362.714 127,354.5C 111.951,335.785 97.284,316.785 83,297.5C 63.6066,264.895 58.9399,230.228 69,193.5C 83.3178,150.016 112.151,121.016 155.5,106.5 Z"/></g>
<g><path style="opacity:0.904" fill="#000000" d="M -0.5,130.5 C -0.5,127.833 -0.5,125.167 -0.5,122.5C 2.59189,119.645 6.25856,118.812 10.5,120C 21.9994,126.582 33.3327,133.415 44.5,140.5C 47.3014,149.101 44.3014,152.935 35.5,152C 23.0903,145.403 11.0903,138.236 -0.5,130.5 Z"/></g>
<g><path style="opacity:1" fill="#d3e1f0" d="M 305.5,278.5 C 302.893,271.952 299.726,265.619 296,259.5C 278.953,216.237 286.453,177.904 318.5,144.5C 340.021,126.784 364.688,120.284 392.5,125C 434.447,134.613 459.947,160.447 469,202.5C 473.406,244.515 457.906,276.682 422.5,299C 396.68,311.96 370.014,313.96 342.5,305C 328.056,299.047 315.723,290.214 305.5,278.5 Z"/></g>
<g><path style="opacity:1" fill="#b0c6de" d="M 318.5,144.5 C 286.453,177.904 278.953,216.237 296,259.5C 299.726,265.619 302.893,271.952 305.5,278.5C 282.998,250.794 277.165,219.794 288,185.5C 293.852,168.5 304.019,154.834 318.5,144.5 Z"/></g>
<g><path style="opacity:1" fill="#070708" d="M 313.5,179.5 C 319.621,179.09 325.621,179.59 331.5,181C 334.69,186.051 333.69,190.051 328.5,193C 323.051,193.896 317.718,193.563 312.5,192C 309.598,187.501 309.932,183.335 313.5,179.5 Z"/></g>
<g><path style="opacity:1" fill="#040505" d="M 342.5,179.5 C 374.502,179.333 406.502,179.5 438.5,180C 443.951,184.754 443.617,189.087 437.5,193C 406.167,193.667 374.833,193.667 343.5,193C 339.788,190.487 338.622,186.987 340,182.5C 341.045,181.627 341.878,180.627 342.5,179.5 Z"/></g>
<g><path style="opacity:1" fill="#f7cb39" d="M 148.5,208.5 C 157.9,207.612 164.066,211.612 167,220.5C 167.499,226.157 167.666,231.824 167.5,237.5C 160.492,237.666 153.492,237.5 146.5,237C 136.315,230.037 134.982,221.704 142.5,212C 144.432,210.541 146.432,209.375 148.5,208.5 Z"/></g>
<g><path style="opacity:1" fill="#f8cc39" d="M 230.5,208.5 C 234.215,208.423 237.881,208.756 241.5,209.5C 241.32,218.528 241.653,227.528 242.5,236.5C 235.209,237.392 227.876,237.726 220.5,237.5C 220.334,231.158 220.5,224.825 221,218.5C 223.022,213.98 226.189,210.647 230.5,208.5 Z"/></g>
<g><path style="opacity:1" fill="#060607" d="M 314.5,210.5 C 320.29,210.096 325.956,210.596 331.5,212C 334.866,217.156 333.866,221.156 328.5,224C 323.051,224.896 317.718,224.563 312.5,223C 309.326,218.031 309.992,213.864 314.5,210.5 Z"/></g>
<g><path style="opacity:1" fill="#030303" d="M 343.5,210.5 C 375.168,210.333 406.835,210.5 438.5,211C 443.951,215.754 443.617,220.087 437.5,224C 406.167,224.667 374.833,224.667 343.5,224C 339.788,221.487 338.622,217.987 340,213.5C 341.145,212.364 342.312,211.364 343.5,210.5 Z"/></g>
<g><path style="opacity:1" fill="#6f5c1a" d="M 180.5,218.5 C 181.49,224.645 181.823,230.978 181.5,237.5C 189.833,237.5 198.167,237.5 206.5,237.5C 198.016,238.493 189.349,238.826 180.5,238.5C 180.5,231.833 180.5,225.167 180.5,218.5 Z"/></g>
<g><path style="opacity:1" fill="#040405" d="M 314.5,241.5 C 319.511,241.334 324.511,241.501 329.5,242C 335.079,246.845 334.746,251.178 328.5,255C 323.051,255.896 317.718,255.563 312.5,254C 309.326,249.031 309.992,244.864 314.5,241.5 Z"/></g>
<g><path style="opacity:1" fill="#010102" d="M 343.5,241.5 C 375.168,241.333 406.835,241.5 438.5,242C 443.951,246.754 443.617,251.087 437.5,255C 406.167,255.667 374.833,255.667 343.5,255C 339.788,252.487 338.622,248.987 340,244.5C 341.145,243.364 342.312,242.364 343.5,241.5 Z"/></g>
<g><path style="opacity:1" fill="#fdd03a" d="M 242.5,250.5 C 243.675,250.281 244.675,250.614 245.5,251.5C 253.056,278.477 267.056,301.31 287.5,320C 279.367,331.088 270.867,341.921 262,352.5C 255.602,361.46 250.102,370.96 245.5,381C 237.173,381.5 228.84,381.666 220.5,381.5C 220.5,338.167 220.5,294.833 220.5,251.5C 228.019,251.825 235.352,251.492 242.5,250.5 Z"/></g>
<g><path style="opacity:1" fill="#7a641c" d="M 148.5,251.5 C 154.833,251.5 161.167,251.5 167.5,251.5C 167.832,295.003 167.499,338.337 166.5,381.5C 166.5,338.5 166.5,295.5 166.5,252.5C 160.31,252.823 154.31,252.49 148.5,251.5 Z"/></g>
<g><path style="opacity:1" fill="#826b1d" d="M 206.5,252.5 C 198.167,252.5 189.833,252.5 181.5,252.5C 181.5,295.5 181.5,338.5 181.5,381.5C 189.833,381.5 198.167,381.5 206.5,381.5C 198.016,382.493 189.349,382.826 180.5,382.5C 180.5,338.833 180.5,295.167 180.5,251.5C 189.349,251.174 198.016,251.507 206.5,252.5 Z"/></g>
<g><path style="opacity:1" fill="#fed23a" d="M 206.5,252.5 C 206.5,295.5 206.5,338.5 206.5,381.5C 198.167,381.5 189.833,381.5 181.5,381.5C 181.5,338.5 181.5,295.5 181.5,252.5C 189.833,252.5 198.167,252.5 206.5,252.5 Z"/></g>
<g><path style="opacity:1" fill="#111a25" d="M 369.5,352.5 C 366.833,352.5 364.167,352.5 361.5,352.5C 361.5,392.167 361.5,431.833 361.5,471.5C 360.501,431.67 360.168,391.67 360.5,351.5C 363.713,351.19 366.713,351.523 369.5,352.5 Z"/></g>
<g><path style="opacity:1" fill="#3b5c82" d="M 369.5,352.5 C 370.833,352.5 372.167,352.5 373.5,352.5C 373.333,394.168 373.5,435.835 374,477.5C 374.912,480.705 376.745,483.039 379.5,484.5C 369.422,486.107 363.422,481.774 361.5,471.5C 361.5,431.833 361.5,392.167 361.5,352.5C 364.167,352.5 366.833,352.5 369.5,352.5 Z"/></g>
<g><path style="opacity:1" fill="#4c6a8d" d="M 379.5,484.5 C 376.745,483.039 374.912,480.705 374,477.5C 373.5,435.835 373.333,394.168 373.5,352.5C 379.545,352.697 385.545,352.363 391.5,351.5C 391.667,391.835 391.5,432.168 391,472.5C 389.685,478.98 385.852,482.98 379.5,484.5 Z"/></g>
<g><path style="opacity:1" fill="#28476b" d="M 248.5,396.5 C 219.167,396.5 189.833,396.5 160.5,396.5C 161.957,402.401 162.624,408.401 162.5,414.5C 153.827,414.666 145.16,414.5 136.5,414C 129.313,406.989 129.98,400.989 138.5,396C 175.336,395.169 212.002,395.336 248.5,396.5 Z"/></g>
<g><path style="opacity:1" fill="#3a5b81" d="M 248.5,396.5 C 256.479,399.139 258.312,404.139 254,411.5C 253.097,412.701 251.931,413.535 250.5,414C 221.169,414.5 191.835,414.667 162.5,414.5C 162.624,408.401 161.957,402.401 160.5,396.5C 189.833,396.5 219.167,396.5 248.5,396.5 Z"/></g>
<g><path style="opacity:1" fill="#355071" d="M 237.5,429.5 C 212.833,429.5 188.167,429.5 163.5,429.5C 163.425,435.529 163.759,441.529 164.5,447.5C 188.833,447.5 213.167,447.5 237.5,447.5C 208.336,448.664 179.003,448.83 149.5,448C 142.505,444.492 140.839,439.325 144.5,432.5C 146.028,431.139 147.695,429.972 149.5,429C 179.003,428.17 208.336,428.336 237.5,429.5 Z"/></g>
<g><path style="opacity:1" fill="#4c6b8e" d="M 237.5,429.5 C 245.159,432.309 246.993,437.309 243,444.5C 241.512,446.16 239.679,447.16 237.5,447.5C 213.167,447.5 188.833,447.5 164.5,447.5C 163.759,441.529 163.425,435.529 163.5,429.5C 188.167,429.5 212.833,429.5 237.5,429.5 Z"/></g>
<g><path style="opacity:1" fill="#274568" d="M 210.5,470.5 C 210.5,467.833 210.5,465.167 210.5,462.5C 202.833,462.5 195.167,462.5 187.5,462.5C 186.543,471.009 188.543,478.676 193.5,485.5C 180.187,483.156 174.521,475.156 176.5,461.5C 188.167,461.5 199.833,461.5 211.5,461.5C 211.81,464.713 211.477,467.713 210.5,470.5 Z"/></g>
<g><path style="opacity:1" fill="#3a5b81" d="M 210.5,470.5 C 208.928,480.069 203.261,485.069 193.5,485.5C 188.543,478.676 186.543,471.009 187.5,462.5C 195.167,462.5 202.833,462.5 210.5,462.5C 210.5,465.167 210.5,467.833 210.5,470.5 Z"/></g>
</svg>
