<?xml version="1.0" encoding="UTF-8"?>
<svg version="1.1" xmlns="http://www.w3.org/2000/svg" width="300" height="168">
<path d="M0 0 C99 0 198 0 300 0 C300 55.44 300 110.88 300 168 C201 168 102 168 0 168 C0 112.56 0 57.12 0 0 Z " fill="#0093D8" transform="translate(0,0)"/>
<path d="M0 0 C1.48680519 -0.00472824 1.48680519 -0.00472824 3.00364685 -0.009552 C4.6145797 -0.00651566 4.6145797 -0.00651566 6.25805664 -0.00341797 C7.90784264 -0.00485306 7.90784264 -0.00485306 9.59095764 -0.00631714 C11.92033953 -0.00699859 14.24972331 -0.00514676 16.57910156 -0.00097656 C20.14986431 0.00436707 23.72050098 -0.00092015 27.29125977 -0.00732422 C29.55102567 -0.00666333 31.81079149 -0.00538195 34.07055664 -0.00341797 C35.14248764 -0.0054422 36.21441864 -0.00746643 37.3188324 -0.009552 C38.81036583 -0.00482376 38.81036583 -0.00482376 40.33203125 0 C41.20758163 0.00079559 42.08313202 0.00159119 42.98521423 0.00241089 C45.23071289 0.12939453 45.23071289 0.12939453 48.23071289 1.12939453 C48.72571289 4.09939453 48.72571289 4.09939453 49.23071289 7.12939453 C50.55071289 7.45939453 51.87071289 7.78939453 53.23071289 8.12939453 C53.2812908 15.78317452 53.31639473 23.43691166 53.34057617 31.09082031 C53.35065353 33.69630544 53.36431559 36.30177922 53.3815918 38.90722656 C53.40576391 42.64537352 53.41717849 46.38337138 53.42602539 50.12158203 C53.43634796 51.29244354 53.44667053 52.46330505 53.45730591 53.66964722 C53.45745697 54.75061676 53.45760803 55.8315863 53.45776367 56.9453125 C53.4622049 57.90017548 53.46664612 58.85503845 53.47122192 59.83883667 C53.23071289 62.12939453 53.23071289 62.12939453 51.23071289 64.12939453 C49.25952148 64.35644531 49.25952148 64.35644531 46.87915039 64.32470703 C45.60297852 64.31503906 45.60297852 64.31503906 44.30102539 64.30517578 C42.9668457 64.28003906 42.9668457 64.28003906 41.60571289 64.25439453 C40.70852539 64.24537109 39.81133789 64.23634766 38.88696289 64.22705078 C36.66794703 64.20344423 34.44946212 64.17051763 32.23071289 64.12939453 C32.10571289 56.37939453 32.10571289 56.37939453 33.23071289 54.12939453 C35.54071289 54.12939453 37.85071289 54.12939453 40.23071289 54.12939453 C40.56071289 51.48939453 40.89071289 48.84939453 41.23071289 46.12939453 C39.25071289 46.12939453 37.27071289 46.12939453 35.23071289 46.12939453 C34.93184234 38.3587603 34.93184234 38.3587603 37.23071289 35.12939453 C39.61352539 34.30126953 39.61352539 34.30126953 42.35571289 33.87939453 C43.26579102 33.72986328 44.17586914 33.58033203 45.11352539 33.42626953 C45.81219727 33.32830078 46.51086914 33.23033203 47.23071289 33.12939453 C46.73571289 29.16939453 46.73571289 29.16939453 46.23071289 25.12939453 C39.03885327 25.59286993 33.94566582 26.54071848 28.54321289 31.69189453 C25.45062268 35.63245302 24.3959281 40.33590758 23.23071289 45.12939453 C22.31547852 45.18998047 21.40024414 45.25056641 20.45727539 45.31298828 C19.26875977 45.39677734 18.08024414 45.48056641 16.85571289 45.56689453 C15.67235352 45.64810547 14.48899414 45.72931641 13.26977539 45.81298828 C10.31552388 45.94024389 10.31552388 45.94024389 8.23071289 47.12939453 C9.55071289 47.45939453 10.87071289 47.78939453 12.23071289 48.12939453 C12.23071289 49.44939453 12.23071289 50.76939453 12.23071289 52.12939453 C9.92071289 52.12939453 7.61071289 52.12939453 5.23071289 52.12939453 C5.23071289 52.78939453 5.23071289 53.44939453 5.23071289 54.12939453 C10.51071289 54.12939453 15.79071289 54.12939453 21.23071289 54.12939453 C20.73571289 59.07939453 20.73571289 59.07939453 20.23071289 64.12939453 C15.99488962 64.17878081 11.75921824 64.21510716 7.52319336 64.23925781 C6.08175742 64.24932416 4.64034194 64.26297833 3.19897461 64.28027344 C1.12877356 64.30449465 -0.94115787 64.31587095 -3.01147461 64.32470703 C-4.88101807 64.34041748 -4.88101807 64.34041748 -6.78833008 64.35644531 C-9.76928711 64.12939453 -9.76928711 64.12939453 -11.76928711 62.12939453 C-12.03671265 59.89698792 -12.03671265 59.89698792 -12.05981445 57.0847168 C-12.07257416 56.03345108 -12.08533386 54.98218536 -12.09848022 53.89906311 C-12.10070587 52.75948654 -12.10293152 51.61990997 -12.10522461 50.44580078 C-12.11188141 49.27935532 -12.11853821 48.11290985 -12.12539673 46.91111755 C-12.13553674 44.44051698 -12.14021333 41.96988894 -12.13989258 39.49926758 C-12.14426528 35.71080598 -12.18057158 31.92350915 -12.21850586 28.13525391 C-12.22437367 25.73877353 -12.2283433 23.3422876 -12.23022461 20.94580078 C-12.24459564 19.80824844 -12.25896667 18.67069611 -12.27377319 17.49867249 C-12.26761993 16.44425461 -12.26146667 15.38983673 -12.25512695 14.3034668 C-12.25797699 13.37462173 -12.26082703 12.44577667 -12.26376343 11.48878479 C-11.61629048 8.39937219 -10.32646676 7.83615587 -7.76928711 6.12939453 C-7.12160918 3.55878142 -7.12160918 3.55878142 -6.76928711 1.12939453 C-4.32241211 -0.09404297 -2.73498952 0.00248748 0 0 Z " fill="#FBF00B" transform="translate(127.769287109375,12.87060546875)"/>
<path d="M0 0 C4.122392 -0.01469397 8.24477712 -0.023464 12.3671875 -0.03125 C14.10005005 -0.03753418 14.10005005 -0.03753418 15.86791992 -0.04394531 C24.94679709 -0.05677311 33.95079191 0.29421218 43 1 C43.2109375 7.6328125 43.2109375 7.6328125 41.3125 10.9375 C36.10107862 14.18234728 30.96773162 13.93596794 25 13 C22.01259232 11.66682171 21.11645903 10.64557379 19 8 C18.125 5.1875 18.125 5.1875 18 3 C18.12375 4.6396875 18.12375 4.6396875 18.25 6.3125 C18.61241455 10.00772267 18.61241455 10.00772267 20.9375 11.6875 C21.9584375 12.3371875 21.9584375 12.3371875 23 13 C23.26683594 13.66128906 23.53367188 14.32257812 23.80859375 15.00390625 C24.8495163 17.23383087 24.8495163 17.23383087 27.3828125 17.828125 C28.28773438 17.96734375 29.19265625 18.1065625 30.125 18.25 C31.03507812 18.39953125 31.94515625 18.5490625 32.8828125 18.703125 C33.58148438 18.80109375 34.28015625 18.8990625 35 19 C36.18609365 24.6932495 35.66251802 28.42567486 34 34 C33.08476562 34.06058594 32.16953125 34.12117188 31.2265625 34.18359375 C30.03804687 34.26738281 28.84953125 34.35117187 27.625 34.4375 C26.44164062 34.51871094 25.25828125 34.59992187 24.0390625 34.68359375 C21.08481099 34.81084936 21.08481099 34.81084936 19 36 C20.32 36.33 21.64 36.66 23 37 C23 38.32 23 39.64 23 41 C20.69 41 18.38 41 16 41 C16 41.66 16 42.32 16 43 C21.28 43 26.56 43 32 43 C31.67 46.3 31.34 49.6 31 53 C26.74585377 53.02465622 22.49174502 53.04283899 18.23754883 53.05493164 C16.78929927 53.05997101 15.34105483 53.06680253 13.89282227 53.07543945 C11.81525412 53.08752247 9.73775303 53.09323211 7.66015625 53.09765625 C6.40855713 53.10289307 5.15695801 53.10812988 3.86743164 53.11352539 C1 53 1 53 0 52 C-0.09340434 50.37325222 -0.11745171 48.74245949 -0.11352539 47.11303711 C-0.11344986 46.07203354 -0.11337433 45.03102997 -0.11329651 43.95848083 C-0.10813522 42.8262056 -0.10297394 41.69393036 -0.09765625 40.52734375 C-0.0962413 39.37456436 -0.09482635 38.22178497 -0.09336853 37.03407288 C-0.08775005 33.33518936 -0.07519442 29.63636536 -0.0625 25.9375 C-0.05748738 23.43684983 -0.05292406 20.93619871 -0.04882812 18.43554688 C-0.03777462 12.29034412 -0.02101852 6.14517631 0 0 Z " fill="#FCEE03" transform="translate(117,24)"/>
<path d="M0 0 C0.33 0 0.66 0 1 0 C1.0506268 7.4930534 1.08570263 14.98606284 1.10986328 22.47924805 C1.11993328 25.02939502 1.13359004 27.57953042 1.15087891 30.12963867 C1.17508312 33.7908819 1.18647305 37.45197274 1.1953125 41.11328125 C1.20563507 42.2571077 1.21595764 43.40093414 1.22659302 44.579422 C1.22674408 45.64029526 1.22689514 46.70116852 1.22705078 47.79418945 C1.231492 48.72906693 1.23593323 49.6639444 1.24050903 50.62715149 C1 53 1 53 -1 56 C-3.55630493 56.36076355 -3.55630493 56.36076355 -6.82666016 56.34057617 C-8.04777496 56.34034958 -9.26888977 56.34012299 -10.52700806 56.33988953 C-11.86436323 56.32456852 -13.2017147 56.30892051 -14.5390625 56.29296875 C-15.90383438 56.28737422 -17.26861228 56.28310344 -18.63339233 56.28010559 C-22.22730107 56.2686454 -25.82084667 56.23916871 -29.41461182 56.20599365 C-33.0810454 56.17531771 -36.7475376 56.16160559 -40.4140625 56.14648438 C-47.60954064 56.11429964 -54.80471946 56.06308972 -62 56 C-62.33 55.34 -62.66 54.68 -63 54 C-53.1 54 -43.2 54 -33 54 C-32.67 50.7 -32.34 47.4 -32 44 C-37.28 44 -42.56 44 -48 44 C-48 43.34 -48 42.68 -48 42 C-45.03 41.505 -45.03 41.505 -42 41 C-41.67 40.01 -41.34 39.02 -41 38 C-43.64 37.67 -46.28 37.34 -49 37 C-49 36.67 -49 36.34 -49 36 C-44.64667264 35.15976812 -40.55557481 34.89229005 -36.125 34.9375 C-34.97257812 34.94652344 -33.82015625 34.95554688 -32.6328125 34.96484375 C-31.76398438 34.97644531 -30.89515625 34.98804688 -30 35 C-29.9175 33.80375 -29.835 32.6075 -29.75 31.375 C-28.98828824 25.3027626 -25.60563027 20.90780751 -21 17 C-16.52139663 14.44079807 -12.00421685 14.8037562 -7 15 C-5.05433049 18.47547073 -4.92362873 20.12506344 -6 24 C-9.3 24.33 -12.6 24.66 -16 25 C-16.66 28.63 -17.32 32.26 -18 36 C-16.02 36 -14.04 36 -12 36 C-12.33 38.64 -12.66 41.28 -13 44 C-15.31 44 -17.62 44 -20 44 C-20.495 48.95 -20.495 48.95 -21 54 C-17.85381791 53.85983833 -14.70818184 53.71315095 -11.5625 53.5625 C-10.66466797 53.52318359 -9.76683594 53.48386719 -8.84179688 53.44335938 C-7.98779297 53.40146484 -7.13378906 53.35957031 -6.25390625 53.31640625 C-5.46314697 53.27974854 -4.6723877 53.24309082 -3.85766602 53.20532227 C-1.98598559 53.19436743 -1.98598559 53.19436743 -1 52 C-0.87718048 50.37420782 -0.82217496 48.74322996 -0.79467773 47.11303711 C-0.77473251 46.07203354 -0.75478729 45.03102997 -0.73423767 43.95848083 C-0.71752518 42.8262056 -0.70081268 41.69393036 -0.68359375 40.52734375 C-0.66281265 39.37456436 -0.64203156 38.22178497 -0.62062073 37.03407288 C-0.55500036 33.33527843 -0.49618245 29.63641041 -0.4375 25.9375 C-0.39432665 23.43684121 -0.35071276 20.93618999 -0.30664062 18.43554688 C-0.19930632 12.29044338 -0.09756357 6.14526596 0 0 Z " fill="#0993D1" transform="translate(181,23)"/>
<path d="M0 0 C6.66666667 0 13.33333333 0 20 0 C20.82203195 3.370331 21.06964936 5.75947005 20.25 9.125 C18.87758312 15.25886318 17.97108039 21.44759465 17.05371094 27.66259766 C16.10666954 33.89333046 16.10666954 33.89333046 15 35 C13.00041636 35.04080783 10.99954746 35.04254356 9 35 C8.89748328 29.87416389 8.96409801 25.05002222 10 20 C9.67 20 9.34 20 9 20 C8.67 23.3 8.34 26.6 8 30 C7.34 30 6.68 30 6 30 C5.855625 30.639375 5.71125 31.27875 5.5625 31.9375 C5 34 5 34 4 35 C-1.35724816 35.46584767 -1.35724816 35.46584767 -3.703125 33.765625 C-5.42262057 31.42462501 -5.22834482 30.36299909 -4.875 27.5 C-4.75898437 26.54222656 -4.64296875 25.58445312 -4.5234375 24.59765625 C-4.35070312 23.41042969 -4.17796875 22.22320312 -4 21 C-3.88817383 20.22769043 -3.77634766 19.45538086 -3.66113281 18.65966797 C-3.04032084 14.42397056 -2.39613648 10.19187243 -1.71875 5.96484375 C-1.54762695 4.89157837 -1.54762695 4.89157837 -1.37304688 3.79663086 C-1 2 -1 2 0 0 Z " fill="#0491D9" transform="translate(95,99)"/>
<path d="M0 0 C2.36497439 1.86708505 3.66030715 3.32061431 5 6 C5.54510836 12.32325698 4.70612028 16.76510511 1 22 C-2.71151042 25.53477183 -5.39973275 26.22189115 -10.375 26.25 C-11.90125 26.1675 -13.4275 26.085 -15 26 C-15.33 29.3 -15.66 32.6 -16 36 C-18.31 36 -20.62 36 -23 36 C-23.27017725 28.87080682 -22.23419541 22.14706387 -21.0625 15.125 C-20.88009766 13.98546875 -20.69769531 12.8459375 -20.50976562 11.671875 C-19.13904734 3.27809469 -19.13904734 3.27809469 -18 1 C-16.02 1 -14.04 1 -12 1 C-11.67 1.66 -11.34 2.32 -11 3 C-10.484375 2.505 -9.96875 2.01 -9.4375 1.5 C-6.0761612 -0.56851618 -3.88040089 -0.48505011 0 0 Z " fill="#F6FAF8" transform="translate(137,108)"/>
<path d="M0 0 C0.66 0 1.32 0 2 0 C2.05057791 7.65377999 2.08568184 15.30751713 2.10986328 22.96142578 C2.11994064 25.56691091 2.1336027 28.17238469 2.15087891 30.77783203 C2.17505102 34.51597899 2.1864656 38.25397685 2.1953125 41.9921875 C2.20563507 43.16304901 2.21595764 44.33391052 2.22659302 45.54025269 C2.22674408 46.62122223 2.22689514 47.70219177 2.22705078 48.81591797 C2.231492 49.77078094 2.23593323 50.72564392 2.24050903 51.70944214 C2 54 2 54 0 56 C-1.97119141 56.22705078 -1.97119141 56.22705078 -4.3515625 56.1953125 C-5.20234375 56.18886719 -6.053125 56.18242188 -6.9296875 56.17578125 C-7.81914062 56.15902344 -8.70859375 56.14226562 -9.625 56.125 C-10.97078125 56.11146484 -10.97078125 56.11146484 -12.34375 56.09765625 C-14.56276586 56.0740497 -16.78125077 56.0411231 -19 56 C-19.125 48.25 -19.125 48.25 -18 46 C-15.69 46 -13.38 46 -11 46 C-10.67 43.36 -10.34 40.72 -10 38 C-11.98 38 -13.96 38 -16 38 C-16.29887055 30.22936577 -16.29887055 30.22936577 -14 27 C-11.6171875 26.171875 -11.6171875 26.171875 -8.875 25.75 C-7.26625 25.5025 -5.6575 25.255 -4 25 C-4 20.71 -4 16.42 -4 12 C-3.34 12 -2.68 12 -2 12 C-2 9.03 -2 6.06 -2 3 C-1.01 3 -0.02 3 1 3 C0.67 2.01 0.34 1.02 0 0 Z " fill="#FBD506" transform="translate(179,21)"/>
<path d="M0 0 C1.051875 -0.00257812 2.10375 -0.00515625 3.1875 -0.0078125 C6 0.125 6 0.125 9 1.125 C8.38541771 9.1954358 7.30774665 17.13885781 6 25.125 C4.35 25.455 2.7 25.785 1 26.125 C0.34 25.135 -0.32 24.145 -1 23.125 C-1.680625 23.62 -2.36125 24.115 -3.0625 24.625 C-6.72999792 26.49776489 -8.93187045 26.71672793 -13 26.125 C-15.67041455 24.00236279 -16.78569456 22.42787969 -17.34375 19.03515625 C-17.55887208 13.79155559 -16.62665308 9.74428645 -14 5.125 C-9.48272181 0.83358572 -6.11602308 -0.01499025 0 0 Z " fill="#F0F9F7" transform="translate(186,107.875)"/>
<path d="M0 0 C0.99 0 1.98 0 3 0 C4.09848966 13.33880305 4.10890351 26.62329823 4 40 C6.31 40 8.62 40 11 40 C11 39.01 11 38.02 11 37 C11.99 36.505 11.99 36.505 13 36 C13 35.34 13 34.68 13 34 C15.64 34 18.28 34 21 34 C20.34 34.66 19.68 35.32 19 36 C20.32 36.33 21.64 36.66 23 37 C23 38.32 23 39.64 23 41 C20.69 41 18.38 41 16 41 C16 41.66 16 42.32 16 43 C21.28 43 26.56 43 32 43 C31.67 46.3 31.34 49.6 31 53 C26.74585377 53.02465622 22.49174502 53.04283899 18.23754883 53.05493164 C16.78929927 53.05997101 15.34105483 53.06680253 13.89282227 53.07543945 C11.81525412 53.08752247 9.73775303 53.09323211 7.66015625 53.09765625 C6.40855713 53.10289307 5.15695801 53.10812988 3.86743164 53.11352539 C1 53 1 53 0 52 C-0.09340434 50.37325222 -0.11745171 48.74245949 -0.11352539 47.11303711 C-0.11344986 46.07203354 -0.11337433 45.03102997 -0.11329651 43.95848083 C-0.10813522 42.8262056 -0.10297394 41.69393036 -0.09765625 40.52734375 C-0.0962413 39.37456436 -0.09482635 38.22178497 -0.09336853 37.03407288 C-0.08775005 33.33518936 -0.07519442 29.63636536 -0.0625 25.9375 C-0.05748738 23.43684983 -0.05292406 20.93619871 -0.04882812 18.43554688 C-0.03777462 12.29034412 -0.02101852 6.14517631 0 0 Z " fill="#F7DB06" transform="translate(117,24)"/>
<path d="M0 0 C1.4540625 0.0309375 1.4540625 0.0309375 2.9375 0.0625 C3.15182579 6.70659958 2.44983701 12.59455867 0.9375 19.0625 C5.44885667 16.86778594 7.00023348 14.65076282 8.9375 10.0625 C11.2475 10.0625 13.5575 10.0625 15.9375 10.0625 C15.63623112 14.28026431 15.21388951 15.77982891 12.1875 18.875 C9.62229114 21.72785805 9.62229114 21.72785805 10.27734375 24.30078125 C11.09058268 26.68326613 11.09058268 26.68326613 12.10546875 28.9140625 C12.9375 31.0625 12.9375 31.0625 12.9375 35.0625 C10.6275 35.0625 8.3175 35.0625 5.9375 35.0625 C2.9375 28.4375 2.9375 28.4375 2.9375 25.0625 C1.9475 25.0625 0.9575 25.0625 -0.0625 25.0625 C-0.12308594 25.70058594 -0.18367187 26.33867188 -0.24609375 26.99609375 C-0.37177734 28.23552734 -0.37177734 28.23552734 -0.5 29.5 C-0.58121094 30.32371094 -0.66242188 31.14742187 -0.74609375 31.99609375 C-1.0625 34.0625 -1.0625 34.0625 -2.0625 35.0625 C-4.06208364 35.10330783 -6.06295254 35.10504356 -8.0625 35.0625 C-8.3097426 27.53356392 -7.36702268 20.48025485 -6.125 13.0625 C-5.85139648 11.34740234 -5.85139648 11.34740234 -5.57226562 9.59765625 C-4.01649039 0.08196919 -4.01649039 0.08196919 0 0 Z " fill="#F2F9F8" transform="translate(152.0625,98.9375)"/>
<path d="M0 0 C6.93 0 13.86 0 21 0 C22 3 22 3 21 6 C16.38 6.33 11.76 6.66 7 7 C6.67 9.64 6.34 12.28 6 15 C9.63 15 13.26 15 17 15 C17 16.65 17 18.3 17 20 C16 21 16 21 13.27734375 21.09765625 C12.17519531 21.08605469 11.07304688 21.07445313 9.9375 21.0625 C8.28041016 21.04896484 8.28041016 21.04896484 6.58984375 21.03515625 C5.73519531 21.02355469 4.88054687 21.01195313 4 21 C3.93941406 21.92683594 3.87882812 22.85367188 3.81640625 23.80859375 C3.73261719 25.00613281 3.64882812 26.20367187 3.5625 27.4375 C3.48128906 28.63246094 3.40007812 29.82742187 3.31640625 31.05859375 C3 34 3 34 2 35 C-0.33297433 35.04092937 -2.66705225 35.04241723 -5 35 C-4.55283576 27.41362732 -3.62330848 19.94966776 -2.5 12.4375 C-2.36940186 11.55674805 -2.23880371 10.67599609 -2.10424805 9.76855469 C-1.58628011 6.37929268 -1.08709464 3.26128391 0 0 Z " fill="#FAFCF8" transform="translate(69,99)"/>
<path d="M0 0 C16.17 0 32.34 0 49 0 C49 1.65 49 3.3 49 5 C48.01 5 47.02 5 46 5 C45.67 6.32 45.34 7.64 45 9 C21.735 8.505 21.735 8.505 -2 8 C-2 7.01 -2 6.02 -2 5 C-1.01 4.34 -0.02 3.68 1 3 C0.67 2.01 0.34 1.02 0 0 Z " fill="#FAB606" transform="translate(127,14)"/>
<path d="M0 0 C1.98 0 3.96 0 6 0 C6 2.31 6 4.62 6 7 C7.32 7 8.64 7 10 7 C9.67 8.65 9.34 10.3 9 12 C7.68 12 6.36 12 5 12 C4.67 16.29 4.34 20.58 4 25 C4.99 25.33 5.98 25.66 7 26 C7.042721 27.66611905 7.04063832 29.33382885 7 31 C5.13077346 32.86922654 2.50248831 32.29230229 0.0078125 32.42578125 C-2 32 -2 32 -3.7734375 30.28515625 C-5.25365028 27.527435 -5.18986074 26.194463 -4.75 23.125 C-4.63269531 22.25359375 -4.51539063 21.3821875 -4.39453125 20.484375 C-4.26433594 19.66453125 -4.13414062 18.8446875 -4 18 C-3.814375 16.80375 -3.62875 15.6075 -3.4375 14.375 C-3.293125 13.59125 -3.14875 12.8075 -3 12 C-3.66 12 -4.32 12 -5 12 C-5 10.35 -5 8.7 -5 7 C-3.68 6.67 -2.36 6.34 -1 6 C-0.67 4.02 -0.34 2.04 0 0 Z " fill="#EAF6F7" transform="translate(222,102)"/>
<path d="M0 0 C0 0.33 0 0.66 0 1 C-1.65 1 -3.3 1 -5 1 C-5.6751323 5.35289756 -6.33859376 9.70749743 -7 14.0625 C-7.19078125 15.29162109 -7.3815625 16.52074219 -7.578125 17.78710938 C-7.75859375 18.98271484 -7.9390625 20.17832031 -8.125 21.41015625 C-8.29257813 22.50465088 -8.46015625 23.59914551 -8.6328125 24.72680664 C-9.0199049 28.17743681 -9.06143853 31.53064309 -9 35 C-6.36 35 -3.72 35 -1 35 C-0.34 33.68 0.32 32.36 1 31 C1.66 31 2.32 31 3 31 C3 27.37 3 23.74 3 20 C3.99 19.67 4.98 19.34 6 19 C5.34 24.28 4.68 29.56 4 35 C3.01 35 2.02 35 1 35 C1 35.66 1 36.32 1 37 C-0.4370809 37.05422947 -1.87475462 37.09289723 -3.3125 37.125 C-4.11300781 37.14820313 -4.91351563 37.17140625 -5.73828125 37.1953125 C-8 37 -8 37 -11 35 C-11.2578125 32.13671875 -11.2578125 32.13671875 -11.125 28.6875 C-10.98480774 24.58921306 -11.02598692 20.99345363 -12 17 C-12.33 18.65 -12.66 20.3 -13 22 C-13.66 21.67 -14.32 21.34 -15 21 C-14.67 19.35 -14.34 17.7 -14 16 C-17.63 16 -21.26 16 -25 16 C-25.09765625 9.84765625 -25.09765625 9.84765625 -25 8 C-24 7 -24 7 -20.83984375 6.90234375 C-18.90818359 6.91974609 -18.90818359 6.91974609 -16.9375 6.9375 C-15.64714844 6.94652344 -14.35679688 6.95554687 -13.02734375 6.96484375 C-12.02832031 6.97644531 -11.02929688 6.98804687 -10 7 C-10.061875 6.05125 -10.12375 5.1025 -10.1875 4.125 C-10.125625 3.09375 -10.06375 2.0625 -10 1 C-6.1496895 -1.56687367 -4.41430237 -0.83288724 0 0 Z " fill="#1B93C9" transform="translate(100,98)"/>
<path d="M0 0 C0.66 0.33 1.32 0.66 2 1 C2 8.26 2 15.52 2 23 C0.02 23 -1.96 23 -4 23 C-4 23.99 -4 24.98 -4 26 C-7.3 26 -10.6 26 -14 26 C-13.67 24.02 -13.34 22.04 -13 20 C-10.69 20 -8.38 20 -6 20 C-5.67 17.36 -5.34 14.72 -5 12 C-6.98 12 -8.96 12 -11 12 C-11.29554656 4.31578947 -11.29554656 4.31578947 -9 1 C-6.01405576 -0.49297212 -3.29146376 -0.11755228 0 0 Z " fill="#F8DB06" transform="translate(174,47)"/>
<path d="M0 0 C1.00088654 0.00007553 2.00177307 0.00015106 3.0329895 0.00022888 C4.1163559 0.00539017 5.19972229 0.01055145 6.31591797 0.01586914 C7.42289032 0.01728409 8.52986267 0.01869904 9.67037964 0.02015686 C13.2163154 0.02576767 16.7621887 0.03832203 20.30810547 0.05102539 C22.70784414 0.056039 25.1075838 0.06060215 27.50732422 0.06469727 C33.39927272 0.07574061 39.29118463 0.09248929 45.18310547 0.11352539 C45.18310547 0.44352539 45.18310547 0.77352539 45.18310547 1.11352539 C30.33310547 1.44352539 15.48310547 1.77352539 0.18310547 2.11352539 C0.18310547 2.77352539 0.18310547 3.43352539 0.18310547 4.11352539 C0.84310547 4.44352539 1.50310547 4.77352539 2.18310547 5.11352539 C0.53310547 5.44352539 -1.11689453 5.77352539 -2.81689453 6.11352539 C-2.81689453 7.10352539 -2.81689453 8.09352539 -2.81689453 9.11352539 C12.69310547 9.11352539 28.20310547 9.11352539 44.18310547 9.11352539 C44.18310547 9.77352539 44.18310547 10.43352539 44.18310547 11.11352539 C26.03310547 11.11352539 7.88310547 11.11352539 -10.81689453 11.11352539 C-10.81689453 27.94352539 -10.81689453 44.77352539 -10.81689453 62.11352539 C-11.14689453 62.11352539 -11.47689453 62.11352539 -11.81689453 62.11352539 C-11.91814694 54.62055984 -11.9882978 47.12777006 -12.03662109 39.63427734 C-12.0567615 37.08408007 -12.0840755 34.53392911 -12.11865234 31.98388672 C-12.16706192 28.32255642 -12.18983927 24.66183557 -12.20751953 21.00024414 C-12.22816467 19.85641769 -12.24880981 18.71259125 -12.27008057 17.53410339 C-12.27038269 16.47323013 -12.27068481 15.41235687 -12.27099609 14.31933594 C-12.27987854 13.38445847 -12.28876099 12.44958099 -12.2979126 11.4863739 C-11.66784457 8.37826616 -10.38689799 7.82461814 -7.81689453 6.11352539 C-7.1692166 3.54291228 -7.1692166 3.54291228 -6.81689453 1.11352539 C-4.35528436 -0.1172797 -2.7519246 -0.00691438 0 0 Z " fill="#C6B239" transform="translate(127.81689453125,12.886474609375)"/>
<path d="M0 0 C2.36497439 1.86708505 3.66030715 3.32061431 5 6 C5.35555556 13.46666667 5.35555556 13.46666667 3 17 C3 16.01 3 15.02 3 14 C2.34 14 1.68 14 1 14 C0.67 11.69 0.34 9.38 0 7 C-1.55400314 8.55400314 -1.1905996 10.22258725 -1.3125 12.375 C-1.78128941 16.71130202 -1.78128941 16.71130202 -3.5625 19.0625 C-7.1447192 20.44027661 -10.17399094 20.19130045 -14 20 C-13.87431641 18.95199219 -13.87431641 18.95199219 -13.74609375 17.8828125 C-13.64425781 16.97273438 -13.54242188 16.06265625 -13.4375 15.125 C-13.33308594 14.22007813 -13.22867188 13.31515625 -13.12109375 12.3828125 C-12.80325148 9.98346943 -12.80325148 9.98346943 -14 8 C-13.71758117 5.6599583 -13.38749213 3.32495277 -13 1 C-12.34 1.66 -11.68 2.32 -11 3 C-10.484375 2.505 -9.96875 2.01 -9.4375 1.5 C-6.0761612 -0.56851618 -3.88040089 -0.48505011 0 0 Z " fill="#EAF7F8" transform="translate(137,108)"/>
<path d="M0 0 C1.98 0 3.96 0 6 0 C6.48538224 9.86943894 4.67113686 19.3113851 3 29 C3.99 29.33 4.98 29.66 6 30 C5.125 33.875 5.125 33.875 4 35 C-1.35724816 35.46584767 -1.35724816 35.46584767 -3.703125 33.765625 C-5.42262057 31.42462501 -5.22834482 30.36299909 -4.875 27.5 C-4.75898437 26.54222656 -4.64296875 25.58445312 -4.5234375 24.59765625 C-4.35070312 23.41042969 -4.17796875 22.22320312 -4 21 C-3.88817383 20.22769043 -3.77634766 19.45538086 -3.66113281 18.65966797 C-3.04032084 14.42397056 -2.39613648 10.19187243 -1.71875 5.96484375 C-1.54762695 4.89157837 -1.54762695 4.89157837 -1.37304688 3.79663086 C-1 2 -1 2 0 0 Z " fill="#F0F8F8" transform="translate(95,99)"/>
<path d="M0 0 C0 3.1875 0 3.1875 -1 7 C-2.77734375 8.15625 -2.77734375 8.15625 -4.9375 9.1875 C-8.03074954 10.82250333 -8.84211075 11.51054334 -9.9375 14.90625 C-10.39916734 17.93594194 -10.7072192 20.9505754 -11 24 C-11.33 24.66 -11.66 25.32 -12 26 C-13.98 26 -15.96 26 -18 26 C-18.95166463 22.92693447 -18.99362812 20.68803964 -18.4765625 17.5234375 C-18.3425 16.688125 -18.2084375 15.8528125 -18.0703125 14.9921875 C-17.92335937 14.12851563 -17.77640625 13.26484375 -17.625 12.375 C-17.48578125 11.50359375 -17.3465625 10.6321875 -17.203125 9.734375 C-16.14602535 3.29205069 -16.14602535 3.29205069 -15 1 C-13.35 1 -11.7 1 -10 1 C-10 2.32 -10 3.64 -10 5 C-9.52949219 4.6390625 -9.05898437 4.278125 -8.57421875 3.90625 C-7.95160156 3.4421875 -7.32898438 2.978125 -6.6875 2.5 C-6.07261719 2.0359375 -5.45773438 1.571875 -4.82421875 1.09375 C-3 0 -3 0 0 0 Z " fill="#EEF8F8" transform="translate(215,108)"/>
<path d="M0 0 C0.66 0 1.32 0 2 0 C2.33 10.23 2.66 20.46 3 31 C3.99 31 4.98 31 6 31 C5.01 29.68 4.02 28.36 3 27 C5.87526069 27.1416533 8.75013536 27.28818532 11.625 27.4375 C12.43324219 27.47681641 13.24148437 27.51613281 14.07421875 27.55664062 C18.45150865 27.78796082 22.68547281 28.16920917 27 29 C27 29.66 27 30.32 27 31 C25.35 31 23.7 31 22 31 C22 31.66 22 32.32 22 33 C23.65 33.33 25.3 33.66 27 34 C27 34.33 27 34.66 27 35 C24.56274876 35.17124977 22.12530903 35.33703896 19.6875 35.5 C19.01654297 35.54769531 18.34558594 35.59539062 17.65429688 35.64453125 C11.72956849 36.03395002 5.97915009 36 0 36 C0 24.12 0 12.24 0 0 Z " fill="#FCCF05" transform="translate(117,40)"/>
<path d="M0 0 C1.98 0 3.96 0 6 0 C6.99 2.64 7.98 5.28 9 8 C9.78375 7.95875 10.5675 7.9175 11.375 7.875 C14 8 14 8 16 10 C17.31747324 10.69748583 18.64914193 11.36959957 20 12 C18.35 12.99 16.7 13.98 15 15 C15 14.01 15 13.02 15 12 C13.02 12 11.04 12 9 12 C8.88930176 12.78648926 8.77860352 13.57297852 8.66455078 14.38330078 C8.15714443 17.96471315 7.64115819 21.54483893 7.125 25.125 C6.95097656 26.3625 6.77695313 27.6 6.59765625 28.875 C6.42363281 30.07382813 6.24960938 31.27265625 6.0703125 32.5078125 C5.91320801 33.60754395 5.75610352 34.70727539 5.59423828 35.84033203 C4.99502555 39.02645 4.09609064 41.95262711 3 45 C1.84607545 42.6921509 1.46562834 40.52769669 1 38 C-0.98 38 -2.96 38 -5 38 C-5 37.67 -5 37.34 -5 37 C-2.525 36.505 -2.525 36.505 0 36 C0.64646209 31.81259682 1.29205735 27.62506043 1.9375 23.4375 C2.11990234 22.25607422 2.30230469 21.07464844 2.49023438 19.85742188 C3.35535063 14.2420309 4.21500254 8.6271923 5 3 C2.03 2.505 2.03 2.505 -1 2 C-0.67 1.34 -0.34 0.68 0 0 Z " fill="#1291CE" transform="translate(110,97)"/>
<path d="M0 0 C0.99 0.495 0.99 0.495 2 1 C2.433125 2.423125 2.433125 2.423125 2.875 3.875 C4.14800348 7.41112078 4.79809876 8.17416668 8 10 C11.13529983 10.51179179 11.13529983 10.51179179 14.5 10.4375 C15.6240625 10.45683594 16.748125 10.47617187 17.90625 10.49609375 C21.62298096 9.9001028 22.73520896 8.94740329 25 6 C26.26784124 2.86649283 26.26784124 2.86649283 27 0 C27.66 0 28.32 0 29 0 C28.67 3.63 28.34 7.26 28 11 C28.99 11.66 29.98 12.32 31 13 C29.6696875 13.556875 29.6696875 13.556875 28.3125 14.125 C24.41600116 16.33056538 22.67369422 18.46128706 20 22 C18 19 18 19 18 17 C16.7625 17.061875 15.525 17.12375 14.25 17.1875 C11.36821352 17.1875 10.15555852 17.08376228 7.5625 15.6875 C6 14 6 14 5 11 C4.154375 10.236875 3.30875 9.47375 2.4375 8.6875 C0 6 0 6 -0.3125 2.6875 C-0.209375 1.800625 -0.10625 0.91375 0 0 Z " fill="#E4DE1A" transform="translate(134,26)"/>
<path d="M0 0 C0.33 0 0.66 0 1 0 C1.0506268 7.4930534 1.08570263 14.98606284 1.10986328 22.47924805 C1.11993328 25.02939502 1.13359004 27.57953042 1.15087891 30.12963867 C1.17508312 33.7908819 1.18647305 37.45197274 1.1953125 41.11328125 C1.20563507 42.2571077 1.21595764 43.40093414 1.22659302 44.579422 C1.22674408 45.64029526 1.22689514 46.70116852 1.22705078 47.79418945 C1.231492 48.72906693 1.23593323 49.6639444 1.24050903 50.62715149 C1 53 1 53 -1 56 C-3.55630493 56.36076355 -3.55630493 56.36076355 -6.82666016 56.34057617 C-8.04777496 56.34034958 -9.26888977 56.34012299 -10.52700806 56.33988953 C-11.86436323 56.32456852 -13.2017147 56.30892051 -14.5390625 56.29296875 C-15.90383438 56.28737422 -17.26861228 56.28310344 -18.63339233 56.28010559 C-22.22730107 56.2686454 -25.82084667 56.23916871 -29.41461182 56.20599365 C-33.0810454 56.17531771 -36.7475376 56.16160559 -40.4140625 56.14648438 C-47.60954064 56.11429964 -54.80471946 56.06308972 -62 56 C-62.33 55.34 -62.66 54.68 -63 54 C-49.47 54 -35.94 54 -22 54 C-21.67 53.01 -21.34 52.02 -21 51 C-21 51.99 -21 52.98 -21 54 C-17.85378318 53.86177801 -14.70814434 53.71314916 -11.5625 53.5625 C-10.66466797 53.52318359 -9.76683594 53.48386719 -8.84179688 53.44335938 C-7.98779297 53.40146484 -7.13378906 53.35957031 -6.25390625 53.31640625 C-5.46314697 53.27974854 -4.6723877 53.24309082 -3.85766602 53.20532227 C-1.98598559 53.19436743 -1.98598559 53.19436743 -1 52 C-0.87718048 50.37420782 -0.82217496 48.74322996 -0.79467773 47.11303711 C-0.77473251 46.07203354 -0.75478729 45.03102997 -0.73423767 43.95848083 C-0.71752518 42.8262056 -0.70081268 41.69393036 -0.68359375 40.52734375 C-0.66281265 39.37456436 -0.64203156 38.22178497 -0.62062073 37.03407288 C-0.55500036 33.33527843 -0.49618245 29.63641041 -0.4375 25.9375 C-0.39432665 23.43684121 -0.35071276 20.93618999 -0.30664062 18.43554688 C-0.19930632 12.29044338 -0.09756357 6.14526596 0 0 Z " fill="#1E5A77" transform="translate(181,23)"/>
<path d="M0 0 C2.31 0 4.62 0 7 0 C5.64974619 22.35025381 5.64974619 22.35025381 3 25 C1.00041636 25.04080783 -1.00045254 25.04254356 -3 25 C-3.46112386 16.39235455 -1.72848437 8.38520694 0 0 Z " fill="#F9FBFD" transform="translate(107,109)"/>
<path d="M0 0 C0.99 0 1.98 0 3 0 C3.66 0.99 4.32 1.98 5 3 C8.06057486 3.28919919 8.06057486 3.28919919 11.5 3.0625 C15.03125 2.91015625 15.03125 2.91015625 18 3 C18.66 3.66 19.32 4.32 20 5 C15.25 9 15.25 9 13 9 C13 7.68 13 6.36 13 5 C11.35 5 9.7 5 8 5 C7.95101562 5.64324219 7.90203125 6.28648438 7.8515625 6.94921875 C7.23832612 14.36092052 6.20157431 21.66223066 5 29 C6.65 29.33 8.3 29.66 10 30 C10 30.33 10 30.66 10 31 C8.54207116 31.05399736 7.08357288 31.09279177 5.625 31.125 C4.40683594 31.15980469 4.40683594 31.15980469 3.1640625 31.1953125 C1 31 1 31 -1 29 C-0.85986328 26.56982422 -0.85986328 26.56982422 -0.3203125 23.5546875 C-0.13339844 22.47832031 0.05351562 21.40195313 0.24609375 20.29296875 C0.45363281 19.16503906 0.66117188 18.03710938 0.875 16.875 C1.07480469 15.73933594 1.27460938 14.60367188 1.48046875 13.43359375 C1.97690725 10.62044224 2.48382472 7.80958563 3 5 C2.01 5 1.02 5 0 5 C0 3.35 0 1.7 0 0 Z " fill="#0E92D4" transform="translate(192,104)"/>
<path d="M0 0 C0.66 0 1.32 0 2 0 C2 0.99 2 1.98 2 3 C2.99 3.33 3.98 3.66 5 4 C4.505 4.969375 4.01 5.93875 3.5 6.9375 C1.67632584 11.26872614 1.05883671 15.36140948 2 20 C3.43937768 22.43894551 4.94625139 23.9975951 7 26 C3.26512223 25.5020163 1.18762365 25.12508244 -2 23 C-2 23.99 -2 24.98 -2 26 C-8.435 26.495 -8.435 26.495 -15 27 C-14.79375 25.7625 -14.5875 24.525 -14.375 23.25 C-13.93892876 19.88090165 -13.96596361 17.87158079 -16 15 C-15.01 15 -14.02 15 -13 15 C-12.01 18.3 -11.02 21.6 -10 25 C-7.69 25 -5.38 25 -3 25 C-3.31195313 24.25234375 -3.62390625 23.5046875 -3.9453125 22.734375 C-4.52925781 21.25710937 -4.52925781 21.25710937 -5.125 19.75 C-5.51945313 18.77546875 -5.91390625 17.8009375 -6.3203125 16.796875 C-7 14 -7 14 -6.24609375 11.828125 C-5.1472378 10.21601031 -4.04279732 8.6077052 -2.9375 7 C-1.3098164 4.47971572 -0.44658072 2.90277468 0 0 Z " fill="#1093D0" transform="translate(168,109)"/>
<path d="M0 0 C0.77601563 0.31710938 1.55203125 0.63421875 2.3515625 0.9609375 C7.04967323 2.29894334 11.51331289 2.45855137 16.375 2.625 C17.30183594 2.66367187 18.22867188 2.70234375 19.18359375 2.7421875 C21.4555377 2.83587591 23.72748596 2.92159348 26 3 C26 2.34 26 1.68 26 1 C26.99 1 27.98 1 29 1 C29 2.32 29 3.64 29 5 C31.64 4.67 34.28 4.34 37 4 C37.495 4.99 37.495 4.99 38 6 C22.49 6 6.98 6 -9 6 C-6 4 -6 4 -3.8125 4.375 C-3.214375 4.58125 -2.61625 4.7875 -2 5 C-1.34 3.35 -0.68 1.7 0 0 Z " fill="#F08805" transform="translate(134,16)"/>
<path d="M0 0 C0.66 0.33 1.32 0.66 2 1 C2.33163713 7.1905598 1.62872033 11.3531193 -1 17 C-1.99 17.66 -2.98 18.32 -4 19 C-4 16 -4 13 -4 10 C-4.66 10 -5.32 10 -6 10 C-6 9.34 -6 8.68 -6 8 C-6.99 7.67 -7.98 7.34 -9 7 C-9.875 5.125 -9.875 5.125 -10 3 C-7.70449316 -1.01713697 -4.18268498 -0.30419527 0 0 Z " fill="#F6EB08" transform="translate(174,47)"/>
<path d="M0 0 C0.66 0 1.32 0 2 0 C2 17.82 2 35.64 2 54 C1.505 52.515 1.505 52.515 1 51 C0.34 51 -0.32 51 -1 51 C-1 40.44 -1 29.88 -1 19 C-0.34 19 0.32 19 1 19 C0.67 12.73 0.34 6.46 0 0 Z " fill="#D3B81C" transform="translate(179,21)"/>
<path d="M0 0 C1.65 0.33 3.3 0.66 5 1 C5.45235602 8.8408377 5.45235602 8.8408377 4 12.5625 C0.78316135 14.87460278 -2.11107127 14.25501172 -6 14 C-5.66290194 7.48277089 -4.55774263 4.67460782 0 0 Z " fill="#1996D2" transform="translate(129,114)"/>
<path d="M0 0 C-0.33 3.3 -0.66 6.6 -1 10 C-10.9 10 -20.8 10 -31 10 C-31 9.67 -31 9.34 -31 9 C-27.7 8.67 -24.4 8.34 -21 8 C-23.64 7.67 -26.28 7.34 -29 7 C-29 6.67 -29 6.34 -29 6 C-22.73 6 -16.46 6 -10 6 C-10 5.34 -10 4.68 -10 4 C-8.35 4 -6.7 4 -5 4 C-5 3.01 -5 2.02 -5 1 C-2 0 -2 0 0 0 Z " fill="#F6D307" transform="translate(149,67)"/>
<path d="M0 0 C1.60875 0.185625 1.60875 0.185625 3.25 0.375 C3.66838867 3.79184083 3.84452863 6.36857572 2.0546875 9.3984375 C0.52482842 11.28193234 -0.81049683 12.91147582 -2.75 14.375 C-4.07 14.375 -5.39 14.375 -6.75 14.375 C-7.73216905 9.62784958 -8.18501417 7.39003307 -6.25 2.875 C-3.75 0.375 -3.75 0.375 0 0 Z " fill="#1093D1" transform="translate(183.75,113.625)"/>
<path d="M0 0 C0.9590625 0.2784375 0.9590625 0.2784375 1.9375 0.5625 C6.07334611 1.15333516 9.8851173 0.58271759 14 0 C14.95024979 3.69541586 14.95024979 6.30458414 14 10 C12.741875 10.04125 11.48375 10.0825 10.1875 10.125 C9.47980469 10.14820312 8.77210937 10.17140625 8.04296875 10.1953125 C6 10 6 10 3 8 C3.66 8 4.32 8 5 8 C5 7.34 5 6.68 5 6 C3.35 5.67 1.7 5.34 0 5 C0 3.35 0 1.7 0 0 Z " fill="#2899CC" transform="translate(101,99)"/>
<path d="M0 0 C0.33 0.66 0.66 1.32 1 2 C1.66 2 2.32 2 3 2 C3.33 1.34 3.66 0.68 4 0 C3.37600612 7.60045005 2.5002187 15.13660396 1.4375 22.6875 C1.29892578 23.68716797 1.16035156 24.68683594 1.01757812 25.71679688 C0.68066996 28.14485914 0.34145223 30.57257335 0 33 C-0.66 33 -1.32 33 -2 33 C-2.12375 32.21625 -2.2475 31.4325 -2.375 30.625 C-2.79117993 27.85942178 -2.79117993 27.85942178 -5 26 C-4.53787109 24.95779297 -4.53787109 24.95779297 -4.06640625 23.89453125 C-2.92645368 20.80037428 -2.40236351 17.94935742 -1.9375 14.6875 C-1.77378906 13.553125 -1.61007813 12.41875 -1.44140625 11.25 C-0.93244555 7.50260794 -0.44187059 3.75590002 0 0 Z " fill="#1293D1" transform="translate(144,101)"/>
<path d="M0 0 C1.22589844 0.01353516 1.22589844 0.01353516 2.4765625 0.02734375 C3.41628906 0.04474609 3.41628906 0.04474609 4.375 0.0625 C6.32066951 3.53797073 6.45137127 5.18756344 5.375 9.0625 C4.67632812 9.08828125 3.97765625 9.1140625 3.2578125 9.140625 C2.34773437 9.19734375 1.43765625 9.2540625 0.5 9.3125 C-0.40492188 9.35890625 -1.30984375 9.4053125 -2.2421875 9.453125 C-4.79610544 9.81861148 -4.79610544 9.81861148 -5.9453125 12.109375 C-6.16960937 12.75390625 -6.39390625 13.3984375 -6.625 14.0625 C-7.3125 11.8125 -7.3125 11.8125 -7.625 9.0625 C-6.1875 6.75 -6.1875 6.75 -4.625 5.0625 C-2.975 5.3925 -1.325 5.7225 0.375 6.0625 C0.375 5.4025 0.375 4.7425 0.375 4.0625 C-3.46797855 2.58443133 -5.85837109 3.7523682 -9.625 5.0625 C-10.285 4.7325 -10.945 4.4025 -11.625 4.0625 C-4.79975728 -0.06856796 -4.79975728 -0.06856796 0 0 Z " fill="#0594D4" transform="translate(169.625,37.9375)"/>
<path d="M0 0 C0.33 0 0.66 0 1 0 C0.67 3.96 0.34 7.92 0 12 C-0.33 12 -0.66 12 -1 12 C-1 10.35 -1 8.7 -1 7 C-1.99 7.495 -1.99 7.495 -3 8 C-5.2072923 8.07092842 -7.41667452 8.08415025 -9.625 8.0625 C-10.81351562 8.05347656 -12.00203125 8.04445313 -13.2265625 8.03515625 C-14.14179687 8.02355469 -15.05703125 8.01195313 -16 8 C-16 5.69 -16 3.38 -16 1 C-10.72 1.33 -5.44 1.66 0 2 C0 1.34 0 0.68 0 0 Z " fill="#0594DD" transform="translate(91,105)"/>
<path d="M0 0 C6.93 0 13.86 0 21 0 C22 3 22 3 21 6 C18.54171921 6.16747412 16.08338135 6.3340144 13.625 6.5 C12.92632812 6.54769531 12.22765625 6.59539062 11.5078125 6.64453125 C6.2265625 7 6.2265625 7 4 7 C3.34 7.66 2.68 8.32 2 9 C2.33 6.69 2.66 4.38 3 2 C4.14339844 2.01160156 5.28679687 2.02320312 6.46484375 2.03515625 C7.95572754 2.04453288 9.44661309 2.05363321 10.9375 2.0625 C11.69224609 2.07087891 12.44699219 2.07925781 13.22460938 2.08789062 C15.14994313 2.09652441 17.07535581 2.05224333 19 2 C19.33 1.67 19.66 1.34 20 1 C13.4 1 6.8 1 0 1 C0 0.67 0 0.34 0 0 Z " fill="#ECFAFC" transform="translate(69,99)"/>
<path d="M0 0 C0.66 0 1.32 0 2 0 C3.29914639 4.61918716 2.77764428 8.33413434 2 13 C1 14 1 14 -2.5625 14.0625 C-3.696875 14.041875 -4.83125 14.02125 -6 14 C-5.67 10.04 -5.34 6.08 -5 2 C-3.68 2.66 -2.36 3.32 -1 4 C-0.67 2.68 -0.34 1.36 0 0 Z " fill="#F2F8F7" transform="translate(70,120)"/>
<path d="M0 0 C0.99 0.495 0.99 0.495 2 1 C2.433125 2.423125 2.433125 2.423125 2.875 3.875 C4.14800348 7.41112078 4.79809876 8.17416668 8 10 C11.13529983 10.51179179 11.13529983 10.51179179 14.5 10.4375 C15.6240625 10.45683594 16.748125 10.47617187 17.90625 10.49609375 C21.62298096 9.9001028 22.73520896 8.94740329 25 6 C26.26784124 2.86649283 26.26784124 2.86649283 27 0 C27.66 0 28.32 0 29 0 C28.98017342 4.63942016 28.89784094 7.94824347 25.8125 11.5625 C20.48937978 14.35326206 13.76492668 13.79585415 8 13 C4.45285485 11.45453965 1.77732407 9.55464815 0 6 C-0.039992 4.00039988 -0.04346799 1.99952758 0 0 Z " fill="#EFE8AC" transform="translate(134,26)"/>
<path d="M0 0 C0.66 0 1.32 0 2 0 C2 0.66 2 1.32 2 2 C2.99 2.33 3.98 2.66 5 3 C1.7 3 -1.6 3 -5 3 C-5.33 6.3 -5.66 9.6 -6 13 C-8.31 13 -10.62 13 -13 13 C-13.49230769 5.61538462 -13.49230769 5.61538462 -11 2.5 C-10.34 2.005 -9.68 1.51 -9 1 C-9 2.32 -9 3.64 -9 5 C-8.34 4.67 -7.68 4.34 -7 4 C-7 3.34 -7 2.68 -7 2 C-4.69 2 -2.38 2 0 2 C0 1.34 0 0.68 0 0 Z " fill="#E5F3F5" transform="translate(127,131)"/>
<path d="M0 0 C0.495 0.391875 0.99 0.78375 1.5 1.1875 C1.5 1.8475 1.5 2.5075 1.5 3.1875 C-0.15 2.8575 -1.8 2.5275 -3.5 2.1875 C-5.62046792 5.72161321 -6.03199289 9.13143835 -6.5 13.1875 C-7.16 13.1875 -7.82 13.1875 -8.5 13.1875 C-8.83 13.8475 -9.16 14.5075 -9.5 15.1875 C-10.16 15.1875 -10.82 15.1875 -11.5 15.1875 C-12.16 12.2175 -12.82 9.2475 -13.5 6.1875 C-12.51 5.8575 -11.52 5.5275 -10.5 5.1875 C-10.5 4.1975 -10.5 3.2075 -10.5 2.1875 C-3.28774617 -1.06851751 -3.28774617 -1.06851751 0 0 Z " fill="#0492DF" transform="translate(168.5,40.8125)"/>
<path d="M0 0 C2.64 0 5.28 0 8 0 C7.34 0.66 6.68 1.32 6 2 C7.32 2.33 8.64 2.66 10 3 C10 4.32 10 5.64 10 7 C7.69 7 5.38 7 3 7 C3 7.66 3 8.32 3 9 C0.36 9 -2.28 9 -5 9 C-5 8.34 -5 7.68 -5 7 C-3.68 6.34 -2.36 5.68 -1 5 C-1.33 4.34 -1.66 3.68 -2 3 C-1.34 2.67 -0.68 2.34 0 2 C0 1.34 0 0.68 0 0 Z " fill="#D4D82C" transform="translate(130,58)"/>
<path d="M0 0 C0.66 0 1.32 0 2 0 C1.22095672 11.52164009 1.22095672 11.52164009 -1 17 C-2.98 17 -4.96 17 -7 17 C-7 14.03 -7 11.06 -7 8 C-6.67 8.99 -6.34 9.98 -6 11 C-4.68 11 -3.36 11 -2 11 C-1.7834375 9.1128125 -1.7834375 9.1128125 -1.5625 7.1875 C-1.26251314 4.57332877 -0.84186703 2.52560108 0 0 Z " fill="#E2F1F4" transform="translate(111,117)"/>
<path d="M0 0 C1.98 0 3.96 0 6 0 C6.99 2.64 7.98 5.28 9 8 C9.78375 7.95875 10.5675 7.9175 11.375 7.875 C14 8 14 8 16 10 C17.31747324 10.69748583 18.64914193 11.36959957 20 12 C18.35 12.99 16.7 13.98 15 15 C15 14.01 15 13.02 15 12 C13.02 12 11.04 12 9 12 C8.67 14.64 8.34 17.28 8 20 C6 17 6 17 6.2421875 14.95703125 C6.828125 12.97135417 7.4140625 10.98567708 8 9 C7.01 9 6.02 9 5 9 C5 7.02 5 5.04 5 3 C2.03 2.505 2.03 2.505 -1 2 C-0.67 1.34 -0.34 0.68 0 0 Z " fill="#158EC7" transform="translate(110,97)"/>
<path d="M0 0 C1.32 0 2.64 0 4 0 C4.33 0.99 4.66 1.98 5 3 C7.97 3.33 10.94 3.66 14 4 C13.67 6.64 13.34 9.28 13 12 C13.99 12.33 14.98 12.66 16 13 C14.68 13 13.36 13 12 13 C12 10.69 12 8.38 12 6 C10.02 6 8.04 6 6 6 C5.67 7.98 5.34 9.96 5 12 C4.01 12.33 3.02 12.66 2 13 C0.78130071 15.50447516 0.78130071 15.50447516 0 18 C-0.33 18 -0.66 18 -1 18 C-1 16.02 -1 14.04 -1 12 C0.65 11.67 2.3 11.34 4 11 C3.71125 9.741875 3.4225 8.48375 3.125 7.1875 C2.96257812 6.47980469 2.80015625 5.77210937 2.6328125 5.04296875 C2.01992277 2.72257026 2.01992277 2.72257026 0 0 Z " fill="#1393CA" transform="translate(216,96)"/>
<path d="M0 0 C2 0 2 0 3.625 1.375 C5 3 5 3 5 5 C6.32 4.67 7.64 4.34 9 4 C8.67 4.66 8.34 5.32 8 6 C7.77532169 7.53668865 7.59203195 9.07968054 7.4375 10.625 C7.35371094 11.44226562 7.26992187 12.25953125 7.18359375 13.1015625 C7.12300781 13.72804688 7.06242188 14.35453125 7 15 C5.35 15.33 3.7 15.66 2 16 C2 16.66 2 17.32 2 18 C1.34 18 0.68 18 0 18 C0 17.34 0 16.68 0 16 C-0.66 15.67 -1.32 15.34 -2 15 C0.31 15 2.62 15 5 15 C5.33 12.36 5.66 9.72 6 7 C4.02 7 2.04 7 0 7 C0 4.69 0 2.38 0 0 Z " fill="#D7DE26" transform="translate(163,52)"/>
<path d="M0 0 C0.33 0 0.66 0 1 0 C1.02505615 1.28688721 1.0501123 2.57377441 1.07592773 3.8996582 C1.17001572 8.66880454 1.27023313 13.43780571 1.37231445 18.20678711 C1.41565803 20.27185676 1.45733352 22.33696212 1.49731445 24.40209961 C1.55503083 27.36843635 1.61872151 30.33459345 1.68359375 33.30078125 C1.70030624 34.2258699 1.71701874 35.15095856 1.73423767 36.1040802 C1.75418289 36.96474594 1.77412811 37.82541168 1.79467773 38.7121582 C1.81022202 39.46938675 1.8257663 40.2266153 1.84178162 41.00679016 C1.93632323 43.20924815 1.93632323 43.20924815 3 46 C1.02 46.495 1.02 46.495 -1 47 C-1 44.53711676 -0.96463728 42.08230125 -0.90820312 39.62036133 C-0.88818237 38.73967484 -0.86816162 37.85898834 -0.84753418 36.95161438 C-0.81472351 35.53117073 -0.81472351 35.53117073 -0.78125 34.08203125 C-0.75905396 33.10965012 -0.73685791 32.13726898 -0.71398926 31.13542175 C-0.64297905 28.02777376 -0.57149508 24.92013687 -0.5 21.8125 C-0.45179173 19.70638092 -0.40361426 17.60026114 -0.35546875 15.49414062 C-0.2373367 10.32941883 -0.11877973 5.16470694 0 0 Z " fill="#008AD2" transform="translate(115,32)"/>
<path d="M0 0 C-0.33 3.3 -0.66 6.6 -1 10 C-10.9 10 -20.8 10 -31 10 C-31 9.67 -31 9.34 -31 9 C-21.43 9 -11.86 9 -2 9 C-2 7.35 -2 5.7 -2 4 C-2.99 4 -3.98 4 -5 4 C-5 3.01 -5 2.02 -5 1 C-2 0 -2 0 0 0 Z " fill="#F9D618" transform="translate(149,67)"/>
<path d="M0 0 C0.66 0 1.32 0 2 0 C1.67 2.64 1.34 5.28 1 8 C1.99 8.33 2.98 8.66 4 9 C2.1875 11.5 2.1875 11.5 0 14 C-0.99 14 -1.98 14 -3 14 C-2.88512252 12.41590006 -2.75765492 10.83271037 -2.625 9.25 C-2.55539063 8.36828125 -2.48578125 7.4865625 -2.4140625 6.578125 C-2.00149945 4.00933618 -1.28839043 2.24158985 0 0 Z " fill="#0A94DC" transform="translate(156,104)"/>
<path d="M0 0 C0 3.3 0 6.6 0 10 C3.63 10 7.26 10 11 10 C11 11.65 11 13.3 11 15 C10.67 13.68 10.34 12.36 10 11 C3.565 11.495 3.565 11.495 -3 12 C-4.35 4.63636364 -4.35 4.63636364 -2.625 1.5 C-1 0 -1 0 0 0 Z " fill="#DEF2F6" transform="translate(75,104)"/>
<path d="M0 0 C1.98 0 3.96 0 6 0 C6.625 2.375 6.625 2.375 7 5 C5 7 5 7 2.375 7.125 C1.59125 7.08375 0.8075 7.0425 0 7 C-1.125 2.25 -1.125 2.25 0 0 Z " fill="#EAF8F6" transform="translate(109,99)"/>
<path d="M0 0 C0.33 1.32 0.66 2.64 1 4 C-0.32 4 -1.64 4 -3 4 C-3.99 4.66 -4.98 5.32 -6 6 C-8.69921875 6.1953125 -8.69921875 6.1953125 -11.6875 6.125 C-13.17830078 6.09792969 -13.17830078 6.09792969 -14.69921875 6.0703125 C-15.45847656 6.04710937 -16.21773438 6.02390625 -17 6 C-17 6.66 -17 7.32 -17 8 C-16.34 8 -15.68 8 -15 8 C-16.75 11.875 -16.75 11.875 -19 13 C-18.67 10.36 -18.34 7.72 -18 5 C-17.02160156 4.96132812 -17.02160156 4.96132812 -16.0234375 4.921875 C-10.22421105 4.54552402 -4.76956537 0 0 0 Z " fill="#178EC4" transform="translate(140,129)"/>
<path d="M0 0 C0.66 0.33 1.32 0.66 2 1 C2.625 3.0625 2.625 3.0625 3 5 C4.65 4.67 6.3 4.34 8 4 C8 5.65 8 7.3 8 9 C6.35 9.33 4.7 9.66 3 10 C2.7525 9.030625 2.505 8.06125 2.25 7.0625 C1.63125 5.5465625 1.63125 5.5465625 1 4 C-1.03243548 3.03122943 -1.03243548 3.03122943 -3 3 C-2.01 2.01 -1.02 1.02 0 0 Z " fill="#E0F1F7" transform="translate(184,124)"/>
<path d="M0 0 C1.32 0 2.64 0 4 0 C5.08456932 5.01613312 4.89761353 8.95092391 4 14 C3.67 13.01 3.34 12.02 3 11 C2.34 11 1.68 11 1 11 C0.67 11.66 0.34 12.32 0 13 C0 11.68 0 10.36 0 9 C0.66 9 1.32 9 2 9 C1.67 8.071875 1.34 7.14375 1 6.1875 C0 3 0 3 0 0 Z " fill="#FAFAFA" transform="translate(120,109)"/>
<path d="M0 0 C2.62901288 1.52206009 4.84365964 2.84365964 7 5 C6.625 7.125 6.625 7.125 6 9 C4.02 9 2.04 9 0 9 C0 6.03 0 3.06 0 0 Z " fill="#E0F1F3" transform="translate(144,125)"/>
<path d="M0 0 C-3 2 -3 2 -6.625 3.5 C-10.06527351 4.60079098 -10.06527351 4.60079098 -11 7 C-10.34 7.33 -9.68 7.66 -9 8 C-10.32 9.32 -11.64 10.64 -13 12 C-14.37432457 8.18243176 -13.67975039 4.92744671 -13 1 C-12.34 1.66 -11.68 2.32 -11 3 C-10.484375 2.505 -9.96875 2.01 -9.4375 1.5 C-6.19319983 -0.49649241 -3.73782666 -0.21564385 0 0 Z " fill="#D5EEF4" transform="translate(137,108)"/>
<path d="M0 0 C0.99 0 1.98 0 3 0 C3 1.65 3 3.3 3 5 C4.65 5 6.3 5 8 5 C5 7 5 7 2.9375 7.875 C0.56354464 9.25342569 0.11586977 10.55004594 -1 13 C-1.02696365 11.20841511 -1.04637917 9.41671527 -1.0625 7.625 C-1.07410156 6.62726563 -1.08570313 5.62953125 -1.09765625 4.6015625 C-1 2 -1 2 0 0 Z " fill="#FAF9F4" transform="translate(201,110)"/>
<path d="M0 0 C1.98 0 3.96 0 6 0 C6 3.3 6 6.6 6 10 C5.34 9.01 4.68 8.02 4 7 C3.34 6.34 2.68 5.68 2 5 C1.01 5.33 0.02 5.66 -1 6 C-0.67 4.02 -0.34 2.04 0 0 Z " fill="#E3F5F8" transform="translate(95,99)"/>
<path d="M0 0 C0.33 0 0.66 0 1 0 C1.042721 1.66611905 1.04063832 3.33382885 1 5 C-0.97749822 6.97749822 -4.60531808 6.49756675 -7.3125 6.6875 C-7.98990234 6.74744141 -8.66730469 6.80738281 -9.36523438 6.86914062 C-13.14840919 7.13910325 -15.79809079 7.14832469 -19 5 C-14.64667264 4.15976812 -10.55557481 3.89229005 -6.125 3.9375 C-4.97257813 3.94652344 -3.82015625 3.95554688 -2.6328125 3.96484375 C-1.76398438 3.97644531 -0.89515625 3.98804688 0 4 C0 2.68 0 1.36 0 0 Z " fill="#33798C" transform="translate(151,54)"/>
<path d="M0 0 C0.99 0 1.98 0 3 0 C3.99 3.3 4.98 6.6 6 10 C8.31 10 10.62 10 13 10 C13.33 9.01 13.66 8.02 14 7 C14 8.32 14 9.64 14 11 C7.565 11.495 7.565 11.495 1 12 C1.20625 10.7625 1.4125 9.525 1.625 8.25 C2.06107124 4.88090165 2.03403639 2.87158079 0 0 Z " fill="#1A90C4" transform="translate(152,124)"/>
<path d="M0 0 C2.33095076 3.49642614 1.92333313 4.73672679 1.29296875 8.7265625 C0.80954097 12.47796209 0.9213491 16.22475683 1 20 C0.01 19.67 -0.98 19.34 -2 19 C-2.24794402 12.4294834 -1.32388229 6.43028541 0 0 Z " fill="#1B96CC" transform="translate(100,109)"/>
<path d="M0 0 C0.99 0.495 0.99 0.495 2 1 C2.2475 1.928125 2.495 2.85625 2.75 3.8125 C4.39820923 8.01543353 5.96928275 9.02128426 10 11 C12.99675009 11.58175083 15.95236044 11.86454935 19 12 C19 12.33 19 12.66 19 13 C8.42044849 13.86090383 8.42044849 13.86090383 3.875 10.625 C1 8 1 8 0 6 C-0.039992 4.00039988 -0.04346799 1.99952758 0 0 Z " fill="#F1E6CB" transform="translate(134,26)"/>
<path d="M0 0 C0.33 0 0.66 0 1 0 C1 2.31 1 4.62 1 7 C2.98 6.67 4.96 6.34 7 6 C6.67 7.65 6.34 9.3 6 11 C4.02 11 2.04 11 0 11 C-1.37432457 7.18243176 -0.67975039 3.92744671 0 0 Z " fill="#D1EBF2" transform="translate(197,123)"/>
<path d="M0 0 C0 1.32 0 2.64 0 4 C-2.31 4 -4.62 4 -7 4 C-7 4.66 -7 5.32 -7 6 C-7.99 6.33 -8.98 6.66 -10 7 C-10 5.02 -10 3.04 -10 1 C-6.59437148 0.22157062 -3.49234244 -0.09978121 0 0 Z " fill="#F8F8F0" transform="translate(186,109)"/>
<path d="M0 0 C0.66 0.28875 1.32 0.5775 2 0.875 C0 2.875 0 2.875 -2.3125 4.1875 C-5.32560356 6.07944875 -7.56202771 8.297715 -10 10.875 C-10.33 9.225 -10.66 7.575 -11 5.875 C-3.9452954 -0.16438731 -3.9452954 -0.16438731 0 0 Z " fill="#E9E71D" transform="translate(163,37.125)"/>
<path d="M0 0 C0.99 0.99 1.98 1.98 3 3 C-0.625 7.875 -0.625 7.875 -4 9 C-4 8.34 -4 7.68 -4 7 C-4.66 7 -5.32 7 -6 7 C-6 6.34 -6 5.68 -6 5 C-7.98 5 -9.96 5 -12 5 C-12 4.67 -12 4.34 -12 4 C-8.535 3.505 -8.535 3.505 -5 3 C-5 3.66 -5 4.32 -5 5 C-3.35 4.67 -1.7 4.34 0 4 C0 2.68 0 1.36 0 0 Z " fill="#E0F2F3" transform="translate(137,124)"/>
<path d="M0 0 C0.74926071 3.66305234 1.2380014 6.42355152 0 10 C-1.32 9.67 -2.64 9.34 -4 9 C-4.33 6.69 -4.66 4.38 -5 2 C-2 0 -2 0 0 0 Z " fill="#F5ED11" transform="translate(151,48)"/>
<path d="M0 0 C0.93423645 3.01031744 1.04449911 3.86650268 0 7 C-3 9 -3 9 -6 9 C-6.33 10.32 -6.66 11.64 -7 13 C-6.67 10.69 -6.34 8.38 -6 6 C-5.01 6 -4.02 6 -3 6 C-3 5.34 -3 4.68 -3 4 C-3.99 3.67 -4.98 3.34 -6 3 C-5.195625 2.690625 -4.39125 2.38125 -3.5625 2.0625 C-1.10919595 1.23664655 -1.10919595 1.23664655 0 0 Z " fill="#DDF0F3" transform="translate(158,115)"/>
<path d="M0 0 C-1.62339805 1.70884005 -3.29319053 3.37446717 -5 5 C-5.66 5 -6.32 5 -7 5 C-7 3.68 -7 2.36 -7 1 C-8.65 1 -10.3 1 -12 1 C-12.33 1.99 -12.66 2.98 -13 4 C-13.33 2.68 -13.66 1.36 -14 0 C-4.58997722 -1.33257403 -4.58997722 -1.33257403 0 0 Z " fill="#309DD0" transform="translate(212,108)"/>
<path d="M0 0 C0.33 0 0.66 0 1 0 C1.375 2.1875 1.375 2.1875 1 5 C-0.83961648 6.99022836 -2.79186148 8.38989899 -5 10 C-8 6.25 -8 6.25 -8 4 C-2.25 3 -2.25 3 0 3 C0 2.01 0 1.02 0 0 Z " fill="#0892C9" transform="translate(120,14)"/>
<path d="M0 0 C1.98 0 3.96 0 6 0 C6 3.3 6 6.6 6 10 C6.66 10.33 7.32 10.66 8 11 C6.68 11 5.36 11 4 11 C4 9.02 4 7.04 4 5 C3.34 4.67 2.68 4.34 2 4 C2 3.34 2 2.68 2 2 C1.34 1.34 0.68 0.68 0 0 Z " fill="#E5F0F3" transform="translate(222,102)"/>
<path d="M0 0 C1.32 0.66 2.64 1.32 4 2 C4 2.66 4 3.32 4 4 C3.34 4 2.68 4 2 4 C1.67 4.99 1.34 5.98 1 7 C0.34 6.67 -0.32 6.34 -1 6 C-1.33 7.98 -1.66 9.96 -2 12 C-2.66 12 -3.32 12 -4 12 C-3.28571429 3.42857143 -3.28571429 3.42857143 0 0 Z " fill="#1E96CF" transform="translate(127,116)"/>
<path d="M0 0 C0 1.32 0 2.64 0 4 C-3.3 4.33 -6.6 4.66 -10 5 C-9 2 -9 2 -6.6875 0.8125 C-4 0 -4 0 0 0 Z " fill="#F8FBF7" transform="translate(136,110)"/>
<path d="M0 0 C2.97 0.33 5.94 0.66 9 1 C8.67 3.64 8.34 6.28 8 9 C8.99 9.33 9.98 9.66 11 10 C9.68 10 8.36 10 7 10 C7 7.69 7 5.38 7 3 C4.69 3 2.38 3 0 3 C0 2.01 0 1.02 0 0 Z " fill="#1896D3" transform="translate(221,99)"/>
<path d="M0 0 C0.66 0.33 1.32 0.66 2 1 C1 4 1 4 -1 5 C-0.67 6.98 -0.34 8.96 0 11 C-0.66 11 -1.32 11 -2 11 C-2.33 10.34 -2.66 9.68 -3 9 C-3.66 9.66 -4.32 10.32 -5 11 C-4.54663921 6.12637153 -3.2910841 3.60957611 0 0 Z " fill="#087BB0" transform="translate(157,43)"/>
<path d="M0 0 C2.31 0 4.62 0 7 0 C6.67 1.98 6.34 3.96 6 6 C4.68 5.01 3.36 4.02 2 3 C2 3.66 2 4.32 2 5 C0.68 5.33 -0.64 5.66 -2 6 C-1.34 4.02 -0.68 2.04 0 0 Z " fill="#E7F7F9" transform="translate(161,109)"/>
<path d="M0 0 C0.33 0 0.66 0 1 0 C1 1.98 1 3.96 1 6 C1.99 6 2.98 6 4 6 C4 7.32 4 8.64 4 10 C3.01 9.67 2.02 9.34 1 9 C0.67 9.66 0.34 10.32 0 11 C1.98 11 3.96 11 6 11 C6 11.33 6 11.66 6 12 C3.69 12 1.38 12 -1 12 C-0.67 8.04 -0.34 4.08 0 0 Z " fill="#D2EBF5" transform="translate(65,122)"/>
<path d="M0 0 C0.66 0.66 1.32 1.32 2 2 C2.33 1.34 2.66 0.68 3 0 C3.99 0.33 4.98 0.66 6 1 C4.02 3.97 4.02 3.97 2 7 C2.66 7.33 3.32 7.66 4 8 C2.35 8 0.7 8 -1 8 C-1.125 2.25 -1.125 2.25 0 0 Z " fill="#0290D6" transform="translate(126,120)"/>
<path d="M0 0 C0.99 0 1.98 0 3 0 C2.835 1.19625 2.67 2.3925 2.5 3.625 C2.06029433 7.10548715 1.91219287 10.48771488 2 14 C1.34 14 0.68 14 0 14 C0 9.33333333 0 4.66666667 0 0 Z " fill="#0396E1" transform="translate(115,106)"/>
<path d="M0 0 C2.64 0.33 5.28 0.66 8 1 C7.01 1.495 7.01 1.495 6 2 C6 2.99 6 3.98 6 5 C3 6 3 6 0 5 C0 3.35 0 1.7 0 0 Z " fill="#1E9AD5" transform="translate(101,99)"/>
<path d="M0 0 C0.66 0 1.32 0 2 0 C2 1.65 2 3.3 2 5 C1.01 5 0.02 5 -1 5 C-1.33 6.32 -1.66 7.64 -2 9 C-2 7.35 -2 5.7 -2 4 C-3.98 4.33 -5.96 4.66 -8 5 C-4.93882432 2.37613513 -4.26826873 2 0 2 C0 1.34 0 0.68 0 0 Z " fill="#EFB017" transform="translate(174,14)"/>
<path d="M0 0 C0.33 0.99 0.66 1.98 1 3 C3.01508358 3.73323796 3.01508358 3.73323796 5 4 C3.35 4 1.7 4 0 4 C0.75150023 7.27773504 0.75150023 7.27773504 4 9 C1.69 9 -0.62 9 -3 9 C-2.44271087 5.65626525 -1.64826111 2.96687001 0 0 Z " fill="#E6F4F6" transform="translate(176,125)"/>
<path d="M0 0 C2.12508244 3.18762365 2.5020163 5.26512223 3 9 C2.01 9.33 1.02 9.66 0 10 C-0.66 10.66 -1.32 11.32 -2 12 C-1.85904936 10.3745692 -1.71207913 8.74965949 -1.5625 7.125 C-1.48128906 6.22007813 -1.40007812 5.31515625 -1.31640625 4.3828125 C-1 2 -1 2 0 0 Z " fill="#E2F3F6" transform="translate(119,109)"/>
<path d="M0 0 C0.33 0 0.66 0 1 0 C1.08076963 2.45898655 1.14037143 4.91533742 1.1875 7.375 C1.21263672 8.07367188 1.23777344 8.77234375 1.26367188 9.4921875 C1.29296875 11.5234375 1.29296875 11.5234375 1 15 C0.01 15.66 -0.98 16.32 -2 17 C-1.34 11.39 -0.68 5.78 0 0 Z " fill="#D5ECF6" transform="translate(68,102)"/>
<path d="M0 0 C2.96175123 0.61277612 4.38058783 1.25372522 7 3 C7 3.66 7 4.32 7 5 C4.36 5 1.72 5 -1 5 C-0.67 3.35 -0.34 1.7 0 0 Z " fill="#F5EF32" transform="translate(173,19)"/>
<path d="M0 0 C0 0.33 0 0.66 0 1 C-1.11375 1.12375 -2.2275 1.2475 -3.375 1.375 C-7.03103677 1.6465813 -7.03103677 1.6465813 -9 4 C-11.32275177 4.40047444 -13.65739357 4.7397104 -16 5 C-12.04373903 -0.93439145 -6.51538162 -0.25550516 0 0 Z " fill="#287E91" transform="translate(174,38)"/>
<path d="M0 0 C2.31 0 4.62 0 7 0 C7 1.65 7 3.3 7 5 C4.625 4.75 4.625 4.75 2 4 C0.6875 1.9375 0.6875 1.9375 0 0 Z " fill="#EBF7F6" transform="translate(107,109)"/>
<path d="M0 0 C-1.32 0.33 -2.64 0.66 -4 1 C-4 1.66 -4 2.32 -4 3 C-3.01 3 -2.02 3 -1 3 C-1 3.66 -1 4.32 -1 5 C-3.31 5 -5.62 5 -8 5 C-8.33 5.99 -8.66 6.98 -9 8 C-8.64005447 5.3364031 -8.28838998 3.41816548 -6.75 1.1875 C-4.41988723 -0.39364795 -2.75498245 -0.22337696 0 0 Z " fill="#2897CC" transform="translate(169,104)"/>
<path d="M0 0 C3.63 0 7.26 0 11 0 C10.67 0.66 10.34 1.32 10 2 C9.030625 2.144375 8.06125 2.28875 7.0625 2.4375 C6.051875 2.623125 5.04125 2.80875 4 3 C3.01 4.485 3.01 4.485 2 6 C2 4.68 2 3.36 2 2 C1.34 2 0.68 2 0 2 C0 1.34 0 0.68 0 0 Z " fill="#FAF021" transform="translate(131,24)"/>
<path d="M0 0 C3.19902639 -0.08886184 5.92677456 0.08941469 9 1 C8.67 1.99 8.34 2.98 8 4 C5.36 4 2.72 4 0 4 C0 2.68 0 1.36 0 0 Z " fill="#F2A105" transform="translate(163,17)"/>
<path d="M0 0 C2.35333796 4.70667591 2.17102038 6.8693886 2 12 C1.01 12 0.02 12 -1 12 C-0.67 8.04 -0.34 4.08 0 0 Z " fill="#DDEFF1" transform="translate(106,112)"/>
<path d="M0 0 C1.875 0.8125 1.875 0.8125 4 2 C4.7425 2.37125 5.485 2.7425 6.25 3.125 C6.8275 3.41375 7.405 3.7025 8 4 C5.525 5.485 5.525 5.485 3 7 C3 6.01 3 5.02 3 4 C1.35 4 -0.3 4 -2 4 C-2 3.01 -2 2.02 -2 1 C-1.34 0.67 -0.68 0.34 0 0 Z " fill="#1E99D3" transform="translate(122,105)"/>
<path d="M0 0 C2.12508244 3.18762365 2.5020163 5.26512223 3 9 C2.76539063 8.36578125 2.53078125 7.7315625 2.2890625 7.078125 C1.17709092 4.81749261 1.17709092 4.81749261 -1.1640625 4.171875 C-2.38222656 3.96304688 -2.38222656 3.96304688 -3.625 3.75 C-4.44226563 3.60046875 -5.25953125 3.4509375 -6.1015625 3.296875 C-7.04128906 3.14992188 -7.04128906 3.14992188 -8 3 C-8 2.67 -8 2.34 -8 2 C-6.865625 1.855625 -5.73125 1.71125 -4.5625 1.5625 C-1.19222799 1.38828522 -1.19222799 1.38828522 0 0 Z " fill="#1493C7" transform="translate(139,105)"/>
<path d="M0 0 C3.63 0 7.26 0 11 0 C10.01 0.33 9.02 0.66 8 1 C7.26676204 3.01508358 7.26676204 3.01508358 7 5 C7 4.34 7 3.68 7 3 C6.01 3.33 5.02 3.66 4 4 C3.67 3.67 3.34 3.34 3 3 C2.34 3 1.68 3 1 3 C0.67 2.01 0.34 1.02 0 0 Z " fill="#0394E3" transform="translate(140,60)"/>
<path d="M0 0 C-1.8125 2.5 -1.8125 2.5 -4 5 C-4.99 5 -5.98 5 -7 5 C-7 3.35 -7 1.7 -7 0 C-3.86650268 -1.04449911 -3.01031744 -0.93423645 0 0 Z " fill="#1691C6" transform="translate(160,113)"/>
<path d="M0 0 C-0.33 3.3 -0.66 6.6 -1 10 C-1.33 10 -1.66 10 -2 10 C-2 8.02 -2 6.04 -2 4 C-2.99 4 -3.98 4 -5 4 C-5 3.01 -5 2.02 -5 1 C-2 0 -2 0 0 0 Z " fill="#D3C522" transform="translate(149,67)"/>
<path d="M0 0 C0.99 0.33 1.98 0.66 3 1 C2.67 2.32 2.34 3.64 2 5 C-0.31 5 -2.62 5 -5 5 C-5 4.34 -5 3.68 -5 3 C-3.35 2.67 -1.7 2.34 0 2 C0 1.34 0 0.68 0 0 Z " fill="#FAA203" transform="translate(130,16)"/>
<path d="M0 0 C0.66 0 1.32 0 2 0 C1.67 1.65 1.34 3.3 1 5 C1.99 4.67 2.98 4.34 4 4 C7.1875 4.9375 7.1875 4.9375 10 6 C10 6.33 10 6.66 10 7 C8.54207116 7.05399736 7.08357288 7.09279177 5.625 7.125 C4.81289062 7.14820313 4.00078125 7.17140625 3.1640625 7.1953125 C1 7 1 7 -1 5 C-0.625 2.375 -0.625 2.375 0 0 Z " fill="#138FC5" transform="translate(192,128)"/>
<path d="M0 0 C0.33 0 0.66 0 1 0 C1.06058594 0.75925781 1.12117188 1.51851563 1.18359375 2.30078125 C1.26738281 3.29464844 1.35117188 4.28851563 1.4375 5.3125 C1.55931641 6.79169922 1.55931641 6.79169922 1.68359375 8.30078125 C1.91812559 11.09375599 1.91812559 11.09375599 3 14 C1.68 14.33 0.36 14.66 -1 15 C-1 11.90522086 -0.76520744 8.89553654 -0.5 5.8125 C-0.4071875 4.72582031 -0.314375 3.63914062 -0.21875 2.51953125 C-0.11046875 1.27236328 -0.11046875 1.27236328 0 0 Z " fill="#0E8CC7" transform="translate(115,64)"/>
<path d="M0 0 C2.31 0 4.62 0 7 0 C7 0.33 7 0.66 7 1 C5.02 1 3.04 1 1 1 C1 1.66 1 2.32 1 3 C1.66 3 2.32 3 3 3 C1.25 6.875 1.25 6.875 -1 8 C-0.67 5.36 -0.34 2.72 0 0 Z " fill="#2995CD" transform="translate(122,134)"/>
<path d="M0 0 C0.66 0.66 1.32 1.32 2 2 C1.625 4.625 1.625 4.625 1 7 C-3.455 7.495 -3.455 7.495 -8 8 C-8 7.34 -8 6.68 -8 6 C-5.36 5.67 -2.72 5.34 0 5 C0 3.35 0 1.7 0 0 Z " fill="#419CA4" transform="translate(174,40)"/>
<path d="M0 0 C1.98 0 3.96 0 6 0 C6 1.32 6 2.64 6 4 C3.69 4 1.38 4 -1 4 C-0.67 2.68 -0.34 1.36 0 0 Z " fill="#F9FCFC" transform="translate(221,129)"/>
<path d="M0 0 C2 3 2 3 2 5 C2.66 5.33 3.32 5.66 4 6 C3.34 7.32 2.68 8.64 2 10 C1.34 10 0.68 10 0 10 C-0.19412181 8.52168779 -0.38012131 7.04230684 -0.5625 5.5625 C-0.66691406 4.73878906 -0.77132812 3.91507812 -0.87890625 3.06640625 C-0.91886719 2.38449219 -0.95882812 1.70257813 -1 1 C-0.67 0.67 -0.34 0.34 0 0 Z " fill="#DBF2F6" transform="translate(175,110)"/>
<path d="M0 0 C0.33 1.32 0.66 2.64 1 4 C-1.31 4 -3.62 4 -6 4 C-5.67 3.01 -5.34 2.02 -5 1 C-3.35 0.67 -1.7 0.34 0 0 Z " fill="#C1D73C" transform="translate(139,61)"/>
<path d="M0 0 C0 2.31 0 4.62 0 7 C-0.99 7.33 -1.98 7.66 -3 8 C-3 5.69 -3 3.38 -3 1 C-1 0 -1 0 0 0 Z " fill="#0195E2" transform="translate(196,125)"/>
<path d="M0 0 C2 3 2 3 2 7 C-0.31 7 -2.62 7 -5 7 C-5 6.67 -5 6.34 -5 6 C-3.02 6 -1.04 6 1 6 C0.01 5.67 -0.98 5.34 -2 5 C-1.34 3.35 -0.68 1.7 0 0 Z " fill="#C3E7F1" transform="translate(163,127)"/>
<path d="M0 0 C0.33 0.99 0.66 1.98 1 3 C1.66 3 2.32 3 3 3 C3.33 2.34 3.66 1.68 4 1 C4 3.31 4 5.62 4 8 C3.34 8 2.68 8 2 8 C2 7.01 2 6.02 2 5 C1.34 5 0.68 5 0 5 C0 3.35 0 1.7 0 0 Z " fill="#1A8FCC" transform="translate(159,51)"/>
<path d="M0 0 C1.32 0 2.64 0 4 0 C4.33 1.32 4.66 2.64 5 4 C3.35 4 1.7 4 0 4 C0 2.68 0 1.36 0 0 Z " fill="#FBF003" transform="translate(162,34)"/>
<path d="M0 0 C0.66 0.33 1.32 0.66 2 1 C1.67 2.32 1.34 3.64 1 5 C1.66 5 2.32 5 3 5 C3 5.66 3 6.32 3 7 C-1.875 5.25 -1.875 5.25 -3 3 C-2.01 2.01 -1.02 1.02 0 0 Z " fill="#F4EF27" transform="translate(141,30)"/>
<path d="M0 0 C0.66 0 1.32 0 2 0 C2 1.65 2 3.3 2 5 C0.02 5 -1.96 5 -4 5 C-3.67 4.34 -3.34 3.68 -3 3 C-2.34 3 -1.68 3 -1 3 C-0.67 2.01 -0.34 1.02 0 0 Z " fill="#F9EB12" transform="translate(122,18)"/>
<path d="M0 0 C1.32 0 2.64 0 4 0 C3.125 3.875 3.125 3.875 2 5 C0.00041636 5.04080783 -2.00045254 5.04254356 -4 5 C-3.34 4.54625 -2.68 4.0925 -2 3.625 C-1.34 3.08875 -0.68 2.5525 0 2 C0 1.34 0 0.68 0 0 Z " fill="#DDF4FB" transform="translate(97,129)"/>
<path d="M0 0 C3.3 0 6.6 0 10 0 C8.515 1.485 8.515 1.485 7 3 C3.3125 2.6875 3.3125 2.6875 0 2 C0 1.34 0 0.68 0 0 Z " fill="#1893CB" transform="translate(73,120)"/>
<path d="M0 0 C1.485 0.99 1.485 0.99 3 2 C3.66 1.34 4.32 0.68 5 0 C5 1.98 5 3.96 5 6 C4.01 6 3.02 6 2 6 C1.34 5.34 0.68 4.68 0 4 C0 2.68 0 1.36 0 0 Z " fill="#349FD2" transform="translate(194,114)"/>
<path d="M0 0 C0.99 0.495 0.99 0.495 2 1 C4.09821215 0.60061233 4.09821215 0.60061233 6 0 C5 3 5 3 3 5 C2.01 5 1.02 5 0 5 C0 3.35 0 1.7 0 0 Z " fill="#0784C6" transform="translate(148,72)"/>
<path d="M0 0 C3.37462715 0.54723683 5.08235 1.0549 8 3 C6.02 3.33 4.04 3.66 2 4 C1.34 2.68 0.68 1.36 0 0 Z " fill="#FAF9F4" transform="translate(91,129)"/>
<path d="M0 0 C0.33 0 0.66 0 1 0 C1.25 7.625 1.25 7.625 -1 11 C-1 10.01 -1 9.02 -1 8 C-1.66 8 -2.32 8 -3 8 C-3 7.34 -3 6.68 -3 6 C-2.01 6 -1.02 6 0 6 C0 4.02 0 2.04 0 0 Z " fill="#BEE1F0" transform="translate(141,114)"/>
<path d="M0 0 C0.99 0 1.98 0 3 0 C2.67 1.65 2.34 3.3 2 5 C-0.31 5 -2.62 5 -5 5 C-5 4.67 -5 4.34 -5 4 C-3.35 4 -1.7 4 0 4 C0 2.68 0 1.36 0 0 Z " fill="#2495B9" transform="translate(166,62)"/>
</svg>
