<?xml version="1.0" encoding="UTF-8"?>
<!DOCTYPE svg PUBLIC "-//W3C//DTD SVG 1.1//EN" "http://www.w3.org/Graphics/SVG/1.1/DTD/svg11.dtd">
<svg xmlns="http://www.w3.org/2000/svg" version="1.1" width="512px" height="512px" style="shape-rendering:geometricPrecision; text-rendering:geometricPrecision; image-rendering:optimizeQuality; fill-rule:evenodd; clip-rule:evenodd" xmlns:xlink="http://www.w3.org/1999/xlink">
<g><path style="opacity:0.992" fill="#ffe076" d="M 125.5,15.5 C 173.967,24.3023 199.967,53.3023 203.5,102.5C 201.961,141.524 183.294,168.69 147.5,184C 140.74,185.653 134.74,187.486 129.5,189.5C 91.8473,189.066 64.6806,171.733 48,137.5C 33.5268,97.2273 42.0268,62.7273 73.5,34C 88.788,22.1811 106.121,16.0145 125.5,15.5 Z"/></g>
<g><path style="opacity:0.998" fill="#ffd164" d="M 125.5,15.5 C 164.21,15.4354 192.044,32.7688 209,67.5C 223.993,110.04 214.16,145.54 179.5,174C 164.573,184.697 147.906,189.864 129.5,189.5C 134.74,187.486 140.74,185.653 147.5,184C 183.294,168.69 201.961,141.524 203.5,102.5C 199.967,53.3023 173.967,24.3023 125.5,15.5 Z"/></g>
<g><path style="opacity:1" fill="#f5b92b" d="M 121.5,36.5 C 123.527,36.3379 125.527,36.5045 127.5,37C 96.6935,44.1408 78.5269,63.3075 73,94.5C 71.9256,132.878 89.759,157.378 126.5,168C 124.866,168.494 123.199,168.66 121.5,168.5C 84.5767,162.04 64.5767,140.04 61.5,102.5C 64.5729,64.973 84.5729,42.973 121.5,36.5 Z"/></g>
<g><path style="opacity:1" fill="#fec338" d="M 121.5,36.5 C 151.982,34.784 174.482,47.4506 189,74.5C 199.872,102.492 195.372,127.659 175.5,150C 160.022,163.881 142.022,170.047 121.5,168.5C 123.199,168.66 124.866,168.494 126.5,168C 89.759,157.378 71.9256,132.878 73,94.5C 78.5269,63.3075 96.6935,44.1408 127.5,37C 125.527,36.5045 123.527,36.3379 121.5,36.5 Z"/></g>
<g><path style="opacity:0.958" fill="#a79ba7" d="M 395.5,48.5 C 402.498,48.0066 406.165,51.1732 406.5,58C 404.76,71.1791 402.927,84.3458 401,97.5C 400.26,104.578 396.427,107.411 389.5,106C 387,104.833 385.167,103 384,100.5C 384.086,93.9013 384.919,87.4013 386.5,81C 289.171,164.211 179.171,226.711 56.5,268.5C 47.7151,265.98 45.7151,260.814 50.5,253C 170.729,212.089 278.396,150.422 373.5,68C 368.113,67.2155 362.78,67.3822 357.5,68.5C 352.171,67.8379 349.171,64.8379 348.5,59.5C 349.468,53.3343 353.135,50.501 359.5,51C 371.678,50.4923 383.678,49.6589 395.5,48.5 Z"/></g>
<g><path style="opacity:1" fill="#ffe076" d="M 125.5,52.5 C 133.519,51.8528 137.186,55.5195 136.5,63.5C 149.203,66.0259 155.37,73.6926 155,86.5C 152.588,89.792 149.421,90.9587 145.5,90C 142.285,86.9375 139.285,83.6042 136.5,80C 130.291,76.3975 124.458,76.8975 119,81.5C 116.187,87.0386 117.687,90.8719 123.5,93C 132.821,94.2177 141.488,97.2177 149.5,102C 156.602,108.307 159.102,116.14 157,125.5C 153.542,134.504 147.042,140.17 137.5,142.5C 135.562,152.39 130.396,154.723 122,149.5C 121.04,147.02 120.207,144.52 119.5,142C 106.331,138.46 99.831,129.96 100,116.5C 107.58,110.271 112.914,111.938 116,121.5C 124.055,129.062 132.388,129.396 141,122.5C 142.123,119.044 141.29,116.21 138.5,114C 130.144,111.46 121.811,108.794 113.5,106C 101.074,97.7155 98.2404,86.8822 105,73.5C 108.824,68.0093 113.991,64.676 120.5,63.5C 119.775,58.6229 121.442,54.9563 125.5,52.5 Z"/></g>
<g><path style="opacity:0.988" fill="#89c8fd" d="M 381.5,154.5 C 383.761,155.59 385.594,157.256 387,159.5C 387.5,198.165 387.667,236.832 387.5,275.5C 374.1,272.03 360.433,270.697 346.5,271.5C 346.333,234.165 346.5,196.832 347,159.5C 347.785,157.714 348.951,156.214 350.5,155C 360.828,154.5 371.161,154.334 381.5,154.5 Z"/></g>
<g><path style="opacity:1" fill="#61b7fe" d="M 381.5,154.5 C 385.846,154.334 390.179,154.501 394.5,155C 395.667,156.167 396.833,157.333 398,158.5C 398.5,198.499 398.667,238.499 398.5,278.5C 394.777,277.703 391.11,276.703 387.5,275.5C 387.667,236.832 387.5,198.165 387,159.5C 385.594,157.256 383.761,155.59 381.5,154.5 Z"/></g>
<g><path style="opacity:0.987" fill="#6bf4c1" d="M 286.5,202.5 C 288.807,203.977 290.64,205.977 292,208.5C 292.168,236.336 292.668,264.003 293.5,291.5C 274.659,305.681 260.659,323.681 251.5,345.5C 251.333,299.499 251.5,253.499 252,207.5C 252.833,205.333 254.333,203.833 256.5,203C 266.494,202.5 276.494,202.334 286.5,202.5 Z"/></g>
<g><path style="opacity:1" fill="#06e49a" d="M 286.5,202.5 C 290.514,202.334 294.514,202.501 298.5,203C 300.667,203.833 302.167,205.333 303,207.5C 303.5,233.165 303.667,258.831 303.5,284.5C 300.554,287.313 297.221,289.646 293.5,291.5C 292.668,264.003 292.168,236.336 292,208.5C 290.64,205.977 288.807,203.977 286.5,202.5 Z"/></g>
<g><path style="opacity:0.991" fill="#ffe076" d="M 192.5,256.5 C 194.168,258.34 195.668,260.34 197,262.5C 197.667,308.5 197.667,354.5 197,400.5C 195.668,402.66 194.168,404.66 192.5,406.5C 181.828,406.667 171.161,406.5 160.5,406C 159.333,404.833 158.167,403.667 157,402.5C 156.333,355.167 156.333,307.833 157,260.5C 158.167,259.333 159.333,258.167 160.5,257C 171.161,256.5 181.828,256.333 192.5,256.5 Z"/></g>
<g><path style="opacity:1" fill="#ffd064" d="M 192.5,256.5 C 196.182,256.335 199.848,256.501 203.5,257C 205.667,257.833 207.167,259.333 208,261.5C 208.667,308.167 208.667,354.833 208,401.5C 207.215,403.286 206.049,404.786 204.5,406C 200.514,406.499 196.514,406.666 192.5,406.5C 194.168,404.66 195.668,402.66 197,400.5C 197.667,354.5 197.667,308.5 197,262.5C 195.668,260.34 194.168,258.34 192.5,256.5 Z"/></g>
<g><path style="opacity:0.996" fill="#ebeef0" d="M 346.5,271.5 C 395.339,275.497 429.173,300.163 448,345.5C 460.948,387.761 453.281,425.761 425,459.5C 404.981,479.926 380.814,491.926 352.5,495.5C 305.271,491.983 272.104,468.65 253,425.5C 243.6,398.984 243.1,372.318 251.5,345.5C 260.659,323.681 274.659,305.681 293.5,291.5C 297.221,289.646 300.554,287.313 303.5,284.5C 317.002,277.539 331.335,273.206 346.5,271.5 Z"/></g>
<g><path style="opacity:1" fill="#d2d3d7" d="M 346.5,271.5 C 360.433,270.697 374.1,272.03 387.5,275.5C 391.11,276.703 394.777,277.703 398.5,278.5C 444.024,298.496 468.024,333.496 470.5,383.5C 468.403,431.722 445.737,466.222 402.5,487C 386.516,493.784 369.849,496.617 352.5,495.5C 380.814,491.926 404.981,479.926 425,459.5C 453.281,425.761 460.948,387.761 448,345.5C 429.173,300.163 395.339,275.497 346.5,271.5 Z"/></g>
<g><path style="opacity:1" fill="#e3a76f" d="M 382.5,318.5 C 359.365,331.235 336.365,344.235 313.5,357.5C 305.517,353.195 297.517,348.862 289.5,344.5C 290.716,342.549 292.382,341.049 294.5,340C 314.833,328.333 335.167,316.667 355.5,305C 356.833,304.333 358.167,304.333 359.5,305C 367.23,309.526 374.896,314.026 382.5,318.5 Z"/></g>
<g><path style="opacity:0.993" fill="#fd636e" d="M 95.5,307.5 C 98.3397,308.686 100.506,310.686 102,313.5C 102.667,342.5 102.667,371.5 102,400.5C 100.64,403.023 98.807,405.023 96.5,406.5C 86.1613,406.666 75.828,406.5 65.5,406C 64.5838,405.626 63.7504,405.126 63,404.5C 61.8477,388.922 61.3477,373.256 61.5,357.5C 61.3477,341.744 61.8477,326.078 63,310.5C 64.1711,309.107 65.6711,308.273 67.5,308C 76.8274,307.5 86.1607,307.334 95.5,307.5 Z"/></g>
<g><path style="opacity:1" fill="#fd4855" d="M 95.5,307.5 C 100.699,307.014 105.699,307.681 110.5,309.5C 111.584,310.665 112.417,311.998 113,313.5C 113.667,342.833 113.667,372.167 113,401.5C 112.215,403.286 111.049,404.786 109.5,406C 105.179,406.499 100.846,406.666 96.5,406.5C 98.807,405.023 100.64,403.023 102,400.5C 102.667,371.5 102.667,342.5 102,313.5C 100.506,310.686 98.3397,308.686 95.5,307.5 Z"/></g>
<g><path style="opacity:1" fill="#c48958" d="M 382.5,318.5 C 388.473,321.821 394.473,325.155 400.5,328.5C 399.969,330.624 398.635,332.124 396.5,333C 375.089,344.788 353.922,356.954 333,369.5C 326.594,365.577 320.094,361.911 313.5,358.5C 313.5,358.167 313.5,357.833 313.5,357.5C 336.365,344.235 359.365,331.235 382.5,318.5 Z"/></g>
<g><path style="opacity:1" fill="#e2a76f" d="M 400.5,328.5 C 406.976,332.574 413.643,336.408 420.5,340C 422.618,341.049 424.284,342.549 425.5,344.5C 404.725,356.057 384.059,367.89 363.5,380C 361.35,381.411 359.016,382.245 356.5,382.5C 349.221,378.525 341.887,374.525 334.5,370.5C 333.668,379.148 333.168,387.814 333,396.5C 330.21,398.831 327.376,398.664 324.5,396C 320.522,394.101 317.022,391.601 314,388.5C 313.5,378.506 313.334,368.506 313.5,358.5C 320.094,361.911 326.594,365.577 333,369.5C 353.922,356.954 375.089,344.788 396.5,333C 398.635,332.124 399.969,330.624 400.5,328.5 Z"/></g>
<g><path style="opacity:1" fill="#ecba78" d="M 425.5,344.5 C 426.663,370.33 426.83,396.33 426,422.5C 404.353,436.406 382.187,449.406 359.5,461.5C 357.822,435.447 356.822,409.114 356.5,382.5C 359.016,382.245 361.35,381.411 363.5,380C 384.059,367.89 404.725,356.057 425.5,344.5 Z"/></g>
<g><path style="opacity:1" fill="#f1d0a5" d="M 289.5,344.5 C 297.517,348.862 305.517,353.195 313.5,357.5C 313.5,357.833 313.5,358.167 313.5,358.5C 313.334,368.506 313.5,378.506 314,388.5C 317.022,391.601 320.522,394.101 324.5,396C 327.376,398.664 330.21,398.831 333,396.5C 333.168,387.814 333.668,379.148 334.5,370.5C 341.887,374.525 349.221,378.525 356.5,382.5C 356.822,409.114 357.822,435.447 359.5,461.5C 357.565,462.709 355.565,462.542 353.5,461C 332.333,448.5 311.167,436 290,423.5C 288.85,410.091 288.35,396.591 288.5,383C 288.5,369.996 288.833,357.162 289.5,344.5 Z"/></g>
</svg>
