<?xml version="1.0" standalone="no"?>
<!DOCTYPE svg PUBLIC "-//W3C//DTD SVG 20010904//EN"
 "http://www.w3.org/TR/2001/REC-SVG-20010904/DTD/svg10.dtd">
<svg version="1.0" xmlns="http://www.w3.org/2000/svg"
 width="795.000000pt" height="206.000000pt" viewBox="0 0 795.000000 206.000000"
 preserveAspectRatio="xMidYMid meet">

<g transform="translate(0.000000,206.000000) scale(0.100000,-0.100000)"
fill="#000000" stroke="none">
<path d="M915 1920 c-110 -17 -251 -69 -347 -129 -213 -135 -364 -346 -414
-581 -14 -65 -19 -284 -8 -314 5 -14 36 -16 240 -16 l234 0 0 395 0 395 120 0
120 0 0 -245 0 -245 175 0 175 0 0 245 0 245 120 0 120 0 0 -130 0 -130 200 0
200 0 -21 43 c-110 215 -325 386 -563 447 -91 23 -264 33 -351 20z"/>
<path d="M5815 1466 c-66 -28 -92 -80 -97 -191 l-3 -50 -42 -3 c-42 -3 -43 -4
-43 -38 0 -34 0 -34 45 -34 l45 0 0 -245 0 -245 50 0 50 0 0 245 0 245 60 0
60 0 0 35 0 34 -57 3 -58 3 0 63 c0 58 3 66 29 89 24 20 37 24 67 20 36 -5 37
-4 44 31 4 24 2 38 -7 43 -20 13 -109 10 -143 -5z"/>
<path d="M4190 1064 l0 -405 48 3 47 3 3 403 2 402 -50 0 -50 0 0 -406z"/>
<path d="M4810 1065 l0 -405 50 0 50 0 0 208 0 208 28 26 c63 59 132 66 184
19 l33 -29 3 -216 3 -216 50 0 49 0 0 218 c0 206 -1 220 -22 262 -33 64 -66
84 -147 88 -72 4 -112 -9 -158 -51 l-23 -20 0 156 0 157 -50 0 -50 0 0 -405z"/>
<path d="M5420 1420 l0 -50 50 0 50 0 0 50 0 50 -50 0 -50 0 0 -50z"/>
<path d="M2300 1040 l0 -380 50 0 50 0 2 168 3 167 180 0 180 0 3 -167 2 -168
50 0 50 0 0 380 0 380 -50 0 -50 0 0 -170 0 -170 -185 0 -185 0 0 170 0 170
-50 0 -50 0 0 -380z"/>
<path d="M6590 1040 l0 -370 51 0 52 0 -5 295 c-2 162 -2 292 1 289 4 -3 58
-134 122 -292 l115 -287 36 -3 35 -3 119 295 c65 163 121 296 124 296 3 0 4
-133 2 -295 l-3 -295 46 0 45 0 0 370 0 370 -64 0 -63 0 -46 -117 c-143 -369
-190 -483 -196 -479 -3 2 -58 137 -121 300 l-115 296 -67 0 -68 0 0 -370z"/>
<path d="M4478 1293 l-3 -68 -42 -3 c-42 -3 -43 -4 -43 -37 0 -33 1 -34 43
-37 l42 -3 5 -212 c5 -207 6 -212 29 -237 34 -36 90 -50 142 -36 35 10 40 14
35 33 -3 12 -6 28 -6 35 0 7 -13 12 -33 12 -63 0 -67 14 -67 223 l0 187 50 0
50 0 0 35 0 35 -50 0 -50 0 0 70 0 70 -50 0 -49 0 -3 -67z"/>
<path d="M3153 1209 c-91 -45 -136 -134 -137 -264 0 -134 44 -218 139 -268 74
-38 210 -25 292 29 l22 14 -20 34 -20 34 -45 -25 c-60 -33 -150 -37 -191 -7
-34 24 -73 98 -73 136 l0 28 181 0 182 0 -5 84 c-5 105 -38 166 -107 203 -59
31 -158 32 -218 2z m171 -80 c32 -25 56 -69 56 -104 l0 -25 -130 0 -130 0 6
28 c19 78 65 122 129 122 28 0 51 -7 69 -21z"/>
<path d="M3702 1209 c-47 -24 -86 -69 -96 -111 -6 -28 -6 -28 44 -28 44 0 52
3 60 24 13 36 49 56 98 56 81 0 122 -42 122 -126 l0 -32 -107 -4 c-126 -4
-188 -27 -223 -82 -26 -43 -27 -128 -2 -176 51 -94 210 -100 305 -12 l27 26 0
-26 c0 -49 9 -58 59 -58 l46 0 -3 217 c-4 247 -11 277 -79 323 -31 21 -50 25
-122 28 -72 3 -93 0 -129 -19z m228 -333 c0 -53 -27 -91 -84 -117 -84 -38
-166 -10 -166 56 0 71 54 105 168 105 l82 0 0 -44z"/>
<path d="M7620 1208 c-94 -51 -147 -163 -137 -293 9 -118 55 -196 142 -236 57
-26 175 -25 234 2 62 28 73 38 61 58 -25 44 -25 44 -71 20 -60 -31 -156 -33
-195 -3 -33 24 -63 78 -71 128 l-6 36 182 0 181 0 0 73 c0 148 -68 226 -203
234 -62 4 -78 1 -117 -19z m148 -63 c42 -17 67 -51 77 -107 l7 -38 -135 0
-136 0 9 31 c15 53 44 93 80 111 43 22 50 22 98 3z"/>
<path d="M5420 940 l0 -280 50 0 50 0 0 280 0 280 -50 0 -50 0 0 -280z"/>
<path d="M5995 1183 c8 -21 55 -144 104 -273 l89 -234 -24 -55 c-34 -75 -50
-91 -94 -91 -35 0 -38 -2 -43 -37 -4 -20 -4 -40 0 -46 3 -5 32 -7 64 -5 66 5
105 33 139 99 17 32 250 662 250 675 0 3 -26 4 -57 2 l-57 -3 -66 -205 c-37
-113 -69 -198 -72 -190 -3 8 -34 102 -68 208 l-64 192 -58 0 -58 0 15 -37z"/>
<path d="M1480 810 l0 -400 -130 0 -130 0 0 255 0 255 -175 0 -175 0 0 -265 0
-266 -122 3 -123 3 -3 143 -3 142 -200 0 -200 0 6 -22 c15 -48 102 -175 169
-246 119 -125 278 -216 452 -259 103 -25 295 -23 406 5 342 84 603 365 664
714 16 91 15 301 -1 328 -4 6 -83 10 -221 10 l-214 0 0 -400z"/>
</g>
</svg>
