<?xml version="1.0" standalone="no"?>
<!DOCTYPE svg PUBLIC "-//W3C//DTD SVG 20010904//EN"
 "http://www.w3.org/TR/2001/REC-SVG-20010904/DTD/svg10.dtd">
<svg version="1.0" xmlns="http://www.w3.org/2000/svg"
 width="512.000000pt" height="512.000000pt" viewBox="0 0 512.000000 512.000000"
 preserveAspectRatio="xMidYMid meet">

<g transform="translate(0.000000,512.000000) scale(0.100000,-0.100000)"
fill="#000000" stroke="none">
<path d="M830 5010 c-17 -17 -20 -33 -20 -113 0 -105 11 -127 67 -127 51 0 63
24 63 128 0 102 -15 132 -65 132 -14 0 -34 -9 -45 -20z"/>
<path d="M419 4902 c-33 -27 -28 -68 17 -145 48 -81 81 -100 122 -70 40 29 39
64 -3 138 -52 93 -89 114 -136 77z"/>
<path d="M1252 4905 c-31 -22 -92 -131 -92 -165 0 -52 53 -83 95 -56 35 23 95
131 95 171 0 55 -52 81 -98 50z"/>
<path d="M735 4653 c-122 -44 -224 -135 -278 -250 -27 -59 -32 -81 -35 -168
-5 -120 9 -168 86 -293 33 -54 56 -106 66 -150 14 -63 14 -68 -3 -87 -35 -38
-41 -64 -41 -172 0 -144 12 -164 113 -197 9 -3 17 -15 17 -26 0 -11 15 -37 34
-58 l34 -37 146 0 145 0 30 29 c16 16 33 42 36 58 4 16 14 32 23 34 94 28 112
61 112 199 0 107 -6 132 -42 172 -19 20 -19 23 -3 85 9 34 41 107 71 160 31
54 62 119 70 144 31 104 10 255 -49 356 -38 66 -129 145 -205 181 -59 27 -79
31 -172 34 -82 3 -116 -1 -155 -14z m264 -144 c64 -28 109 -65 142 -118 37
-58 51 -108 50 -186 0 -68 -9 -94 -59 -174 -48 -75 -81 -154 -96 -225 l-12
-61 -42 -3 -42 -3 2 182 3 183 61 35 c83 48 104 69 104 102 0 29 -39 69 -69
69 -9 0 -50 -20 -92 -43 l-76 -44 -74 44 c-40 23 -83 43 -94 43 -29 0 -65 -36
-65 -65 0 -42 11 -54 86 -97 l74 -42 0 -183 0 -183 -40 0 c-36 0 -40 3 -40 24
0 50 -43 164 -96 253 -64 109 -80 168 -65 248 39 209 251 326 440 244z m91
-974 l0 -65 -43 0 c-62 0 -85 -20 -89 -78 l-3 -47 -80 0 -80 0 -3 47 c-4 58
-27 78 -89 78 l-43 0 0 65 0 65 215 0 215 0 0 -65z"/>
<path d="M2345 4660 c-220 -25 -485 -93 -505 -130 -24 -44 -1 -96 46 -102 10
-2 71 12 134 29 177 50 278 65 480 70 427 12 809 -96 1150 -325 150 -101 141
-92 129 -138 -46 -166 114 -329 279 -285 52 14 39 25 147 -134 170 -253 278
-550 316 -870 12 -104 7 -430 -9 -495 l-8 -35 -57 77 c-31 42 -65 82 -76 88
-26 14 -69 3 -81 -20 -23 -42 -10 -70 97 -218 58 -81 111 -150 117 -154 34
-23 71 -6 221 102 167 121 183 141 147 189 -32 43 -67 39 -147 -19 -38 -28
-71 -46 -73 -40 -2 5 1 58 7 117 50 496 -92 1015 -394 1433 -61 86 -62 87 -47
116 23 43 20 140 -5 189 -55 106 -164 153 -277 121 l-56 -17 -90 65 c-265 190
-569 314 -910 371 -113 19 -422 27 -535 15z m1699 -570 c59 -22 71 -119 19
-160 -61 -48 -153 -3 -153 75 0 27 8 44 29 66 31 30 61 36 105 19z"/>
<path d="M130 4607 c-35 -18 -48 -59 -27 -91 23 -35 139 -98 173 -94 15 2 36
15 47 30 30 41 11 76 -66 120 -80 46 -97 50 -127 35z"/>
<path d="M1570 4613 c-8 -3 -45 -23 -82 -45 -73 -42 -89 -68 -67 -110 15 -29
28 -38 57 -38 32 0 149 67 168 95 33 50 -20 118 -76 98z"/>
<path d="M2345 3743 c-99 -58 -340 -197 -535 -310 -195 -112 -361 -212 -367
-221 -10 -12 -13 -158 -13 -652 l0 -637 23 -21 c40 -38 1081 -632 1107 -632
26 0 1066 594 1108 633 l22 20 0 637 c0 494 -3 640 -12 652 -7 9 -255 156
-552 327 -409 236 -546 311 -570 310 -20 -1 -93 -37 -211 -106z m455 -174
c124 -71 328 -189 453 -261 125 -72 224 -135 220 -139 -4 -4 -59 -37 -121 -72
l-114 -65 -246 142 c-136 78 -343 198 -460 266 -117 67 -210 126 -205 130 21
19 220 130 233 130 8 0 116 -59 240 -131z m-155 -354 c245 -141 445 -260 445
-264 -1 -8 -141 -87 -151 -84 -15 5 -885 507 -897 518 -11 10 -1 20 55 54 37
23 76 40 86 37 9 -2 217 -120 462 -261z m-387 -117 c202 -116 406 -234 454
-262 48 -27 85 -53 83 -56 -2 -4 -56 -37 -120 -74 l-115 -66 -452 261 c-249
144 -456 264 -461 268 -8 8 209 139 231 140 8 1 179 -94 380 -211z m-203 -326
l430 -248 3 -533 c1 -306 -2 -531 -7 -529 -5 1 -211 120 -459 263 l-451 260
-1 533 0 533 28 -15 c15 -8 221 -127 457 -264z m1495 -254 l0 -533 -455 -262
c-249 -145 -457 -263 -460 -263 -3 0 -4 240 -3 532 l3 533 115 66 115 67 5
-201 c5 -216 11 -240 55 -251 29 -7 24 -10 218 102 104 59 151 92 158 109 5
13 9 131 9 261 l0 237 118 67 c64 38 118 68 120 68 1 0 2 -240 2 -532z m-380
138 l0 -174 -71 -41 c-39 -23 -75 -41 -80 -41 -5 0 -9 74 -9 170 l0 170 77 45
c43 25 79 45 80 45 2 0 3 -78 3 -174z"/>
<path d="M547 3105 c-16 -8 -91 -60 -167 -115 -142 -103 -163 -128 -140 -170
12 -23 41 -40 66 -40 10 0 49 23 87 51 38 27 71 48 74 46 2 -3 0 -56 -6 -118
-50 -526 97 -1037 423 -1480 l27 -35 -16 -60 c-32 -121 20 -233 130 -280 49
-21 142 -21 181 -1 28 14 32 14 54 -5 78 -62 253 -170 373 -229 384 -188 819
-256 1238 -194 176 26 362 77 397 109 31 27 26 72 -10 99 l-27 20 -88 -26
c-568 -173 -1180 -85 -1673 241 -137 91 -141 96 -128 147 26 98 -26 209 -122
258 -47 25 -63 28 -115 24 -33 -3 -67 -8 -75 -11 -10 -4 -31 16 -67 67 -173
242 -288 513 -345 815 -20 101 -23 149 -22 347 0 127 5 248 10 270 l10 40 58
-78 c62 -84 93 -104 129 -86 63 34 53 68 -69 237 -91 126 -130 170 -154 172
-3 0 -18 -7 -33 -15z m635 -1922 c52 -50 27 -143 -43 -158 -93 -21 -156 89
-90 156 40 39 93 40 133 2z"/>
<path d="M3985 1817 c-25 -25 -35 -46 -41 -82 -16 -107 -113 -147 -192 -80
-34 29 -79 40 -118 31 -35 -9 -172 -141 -190 -183 -21 -49 -17 -74 21 -133 40
-62 43 -91 15 -138 -22 -35 -44 -47 -104 -57 -26 -4 -51 -18 -73 -40 l-33 -33
0 -121 c0 -91 4 -130 16 -152 15 -31 66 -59 104 -59 54 0 110 -57 110 -112 0
-13 -16 -48 -35 -78 -58 -90 -48 -124 68 -239 69 -68 79 -74 124 -78 41 -4 54
-1 88 24 53 39 87 47 129 29 42 -17 62 -47 70 -104 14 -95 59 -122 200 -122
62 0 109 5 131 14 41 17 75 68 75 113 0 40 39 88 84 103 39 13 73 2 118 -35
35 -30 100 -34 138 -9 39 26 109 95 141 138 40 53 40 108 0 162 -46 62 -45
112 3 160 25 25 43 34 68 34 45 0 96 33 114 75 9 22 14 69 14 130 0 146 -26
188 -123 201 -35 5 -56 15 -78 36 -44 44 -43 89 1 158 21 33 30 59 30 90 0 39
-5 48 -77 122 -119 122 -152 132 -243 73 -60 -39 -75 -41 -125 -21 -37 16 -65
59 -65 101 0 34 -24 80 -52 99 -18 13 -51 16 -151 16 l-129 0 -33 -33z m231
-124 c18 -85 76 -158 153 -191 61 -26 148 -21 209 13 l53 29 43 -43 44 -43
-29 -55 c-73 -138 4 -316 152 -354 l49 -13 0 -63 c0 -60 -1 -63 -27 -69 -86
-18 -145 -64 -179 -139 -37 -79 -30 -178 17 -246 l18 -26 -48 -47 c-33 -33
-51 -44 -56 -36 -15 25 -90 50 -150 50 -115 0 -209 -69 -241 -177 l-15 -53
-63 0 -62 0 -13 49 c-15 61 -79 136 -136 162 -64 29 -151 25 -218 -10 l-55
-29 -43 44 -43 43 26 48 c36 68 43 121 23 188 -25 89 -102 160 -192 180 l-33
7 0 63 0 63 40 7 c22 4 61 21 87 38 103 71 139 215 80 322 l-28 49 44 43 43
44 53 -27 c142 -74 330 14 356 166 l7 40 64 0 c61 0 64 -1 70 -27z"/>
<path d="M4008 1411 c-280 -92 -404 -419 -255 -673 37 -64 128 -145 199 -178
371 -172 766 189 625 570 -43 117 -119 200 -236 258 -69 34 -82 37 -175 39
-78 2 -114 -1 -158 -16z m268 -146 c71 -31 128 -86 161 -153 23 -48 28 -70 28
-137 0 -95 -21 -150 -85 -219 -193 -209 -549 -75 -551 207 -1 81 13 131 51
189 87 132 251 178 396 113z"/>
</g>
</svg>
