<?xml version="1.0" encoding="UTF-8"?>
<!DOCTYPE svg PUBLIC "-//W3C//DTD SVG 1.1//EN" "http://www.w3.org/Graphics/SVG/1.1/DTD/svg11.dtd">
<svg xmlns="http://www.w3.org/2000/svg" version="1.1" width="512px" height="512px" style="shape-rendering:geometricPrecision; text-rendering:geometricPrecision; image-rendering:optimizeQuality; fill-rule:evenodd; clip-rule:evenodd" xmlns:xlink="http://www.w3.org/1999/xlink">
<g><path style="opacity:0.992" fill="#012f46" d="M 255.5,-0.5 C 331.5,-0.5 407.5,-0.5 483.5,-0.5C 497.833,3.83333 507.167,13.1667 511.5,27.5C 511.5,103.5 511.5,179.5 511.5,255.5C 486.833,255.5 462.167,255.5 437.5,255.5C 437.667,212.499 437.5,169.499 437,126.5C 361.167,202.333 285.333,278.167 209.5,354C 208.5,354.667 207.5,354.667 206.5,354C 190,337.5 173.5,321 157,304.5C 156.333,303.5 156.333,302.5 157,301.5C 232.833,225.667 308.667,149.833 384.5,74C 341.501,73.5 298.501,73.3333 255.5,73.5C 255.5,48.8333 255.5,24.1667 255.5,-0.5 Z"/></g>
<g><path style="opacity:0.991" fill="#ffb702" d="M 366.5,511.5 C 268.167,511.5 169.833,511.5 71.5,511.5C 32.5,502.5 8.5,478.5 -0.5,439.5C -0.5,341.167 -0.5,242.833 -0.5,144.5C 8.4314,105.07 32.7647,81.2363 72.5,73C 109.165,72.5 145.832,72.3333 182.5,72.5C 182.5,97.1667 182.5,121.833 182.5,146.5C 148.832,146.333 115.165,146.5 81.5,147C 78.0629,148.105 75.5629,150.272 74,153.5C 73.0051,246.581 73.3384,339.581 75,432.5C 76.5429,434.378 78.3762,435.878 80.5,437C 172.833,437.667 265.167,437.667 357.5,437C 360.728,435.437 362.895,432.937 364,429.5C 364.5,395.835 364.667,362.168 364.5,328.5C 389.167,328.5 413.833,328.5 438.5,328.5C 438.667,365.168 438.5,401.835 438,438.5C 429.764,478.235 405.93,502.569 366.5,511.5 Z"/></g>
</svg>
