<?xml version="1.0" encoding="UTF-8"?>
<!DOCTYPE svg PUBLIC "-//W3C//DTD SVG 1.1//EN" "http://www.w3.org/Graphics/SVG/1.1/DTD/svg11.dtd">
<svg xmlns="http://www.w3.org/2000/svg" version="1.1" width="512px" height="512px" style="shape-rendering:geometricPrecision; text-rendering:geometricPrecision; image-rendering:optimizeQuality; fill-rule:evenodd; clip-rule:evenodd" xmlns:xlink="http://www.w3.org/1999/xlink">
<g><path style="opacity:0.985" fill="#010101" d="M 402.5,7.5 C 446.112,4.04562 477.612,21.7123 497,60.5C 511.657,102.044 502.491,137.21 469.5,166C 464.5,169.167 459.5,172.333 454.5,175.5C 495.952,199.759 511.118,235.426 500,282.5C 491.429,305.899 476.262,323.566 454.5,335.5C 490.983,356.127 507.149,387.461 503,429.5C 494.379,470.455 469.545,494.955 428.5,503C 384.861,506.939 353.361,489.439 334,450.5C 327.387,433.001 325.72,415.001 329,396.5C 330.715,389.354 333.215,382.521 336.5,376C 298.835,375.5 261.168,375.333 223.5,375.5C 223.333,391.503 223.5,407.503 224,423.5C 247.712,431.239 258.046,447.573 255,472.5C 246.492,497.957 228.992,507.791 202.5,502C 181.388,493.179 172.555,477.346 176,454.5C 180.333,438.167 190.667,427.833 207,423.5C 207.5,407.503 207.667,391.503 207.5,375.5C 146.167,375.5 84.8333,375.5 23.5,375.5C 23.8333,284.498 23.5,193.498 22.5,102.5C 11.9105,97.9867 6.91049,89.9867 7.5,78.5C 8.43935,58.129 18.7727,45.2957 38.5,40C 141.5,39.6667 244.5,39.3333 347.5,39C 361.975,21.7627 380.308,11.2627 402.5,7.5 Z M 208.5,440.5 C 222.981,438.318 232.814,443.985 238,457.5C 240.366,471.606 234.866,481.106 221.5,486C 207.394,488.366 197.894,482.866 193,469.5C 190.831,455.834 195.998,446.167 208.5,440.5 Z"/></g>
<g><path style="opacity:1" fill="#e3e6ea" d="M 404.5,23.5 C 444.062,21.3526 470.896,38.6859 485,75.5C 490.244,97.0052 486.911,117.005 475,135.5C 466.987,123.239 456.153,114.406 442.5,109C 457.009,93.3792 459.176,76.2125 449,57.5C 436.659,41.7199 420.826,36.5532 401.5,42C 381.279,51.6095 373.112,67.4428 377,89.5C 379.175,97.0016 383.009,103.502 388.5,109C 374.883,114.395 364.05,123.229 356,135.5C 335.199,99.5033 340.032,67.3366 370.5,39C 380.795,31.3489 392.129,26.1822 404.5,23.5 Z"/></g>
<g><path style="opacity:1" fill="#a9b1bc" d="M 41.5,55.5 C 139.836,55.1667 238.169,55.5 336.5,56.5C 331.549,66.2623 328.882,76.5957 328.5,87.5C 228.499,87.6667 128.499,87.5 28.5,87C 26.3333,86.1667 24.8333,84.6667 24,82.5C 23.2787,69.2806 29.1121,60.2806 41.5,55.5 Z"/></g>
<g><path style="opacity:1" fill="#edcdb1" d="M 409.5,55.5 C 423.792,54.2278 433.625,60.2278 439,73.5C 440.761,87.8083 434.928,97.6416 421.5,103C 407.192,104.761 397.358,98.9276 392,85.5C 389.861,70.7695 395.695,60.7695 409.5,55.5 Z"/></g>
<g><path style="opacity:1" fill="#fee9a6" d="M 39.5,103.5 C 135.833,103.5 232.167,103.5 328.5,103.5C 332.231,136.552 348.898,160.552 378.5,175.5C 337.152,198.336 321.318,233.002 331,279.5C 338.79,304.449 354.29,322.782 377.5,334.5C 378.833,335.167 378.833,335.833 377.5,336.5C 365.947,341.605 356.281,349.105 348.5,359C 245.501,359.5 142.501,359.667 39.5,359.5C 39.5,274.167 39.5,188.833 39.5,103.5 Z"/></g>
<g><path style="opacity:1" fill="#000000" d="M 55.5,119.5 C 66.1667,119.5 76.8333,119.5 87.5,119.5C 87.5,124.833 87.5,130.167 87.5,135.5C 76.8333,135.5 66.1667,135.5 55.5,135.5C 55.5,130.167 55.5,124.833 55.5,119.5 Z"/></g>
<g><path style="opacity:1" fill="#000000" d="M 103.5,119.5 C 135.5,119.5 167.5,119.5 199.5,119.5C 199.5,124.833 199.5,130.167 199.5,135.5C 167.5,135.5 135.5,135.5 103.5,135.5C 103.5,130.167 103.5,124.833 103.5,119.5 Z"/></g>
<g><path style="opacity:1" fill="#fc806c" d="M 406.5,119.5 C 431.611,117.556 450.944,127.056 464.5,148C 441.652,167.735 415.985,172.401 387.5,162C 379.684,158.51 372.684,153.843 366.5,148C 376.128,133.192 389.461,123.692 406.5,119.5 Z"/></g>
<g><path style="opacity:1" fill="#000000" d="M 55.5,151.5 C 103.5,151.5 151.5,151.5 199.5,151.5C 199.5,156.833 199.5,162.167 199.5,167.5C 151.5,167.5 103.5,167.5 55.5,167.5C 55.5,162.167 55.5,156.833 55.5,151.5 Z"/></g>
<g><path style="opacity:1" fill="#000000" d="M 55.5,183.5 C 103.5,183.5 151.5,183.5 199.5,183.5C 199.5,188.833 199.5,194.167 199.5,199.5C 151.5,199.5 103.5,199.5 55.5,199.5C 55.5,194.167 55.5,188.833 55.5,183.5 Z"/></g>
<g><path style="opacity:1" fill="#e3e6ea" d="M 404.5,183.5 C 444.062,181.353 470.896,198.686 485,235.5C 490.244,257.005 486.911,277.005 475,295.5C 466.987,283.239 456.153,274.406 442.5,269C 457.009,253.379 459.176,236.212 449,217.5C 436.659,201.72 420.826,196.553 401.5,202C 381.279,211.61 373.112,227.443 377,249.5C 379.175,257.002 383.009,263.502 388.5,269C 374.883,274.395 364.05,283.229 356,295.5C 335.199,259.503 340.032,227.337 370.5,199C 380.795,191.349 392.129,186.182 404.5,183.5 Z"/></g>
<g><path style="opacity:1" fill="#000000" d="M 215.5,215.5 C 236.833,215.5 258.167,215.5 279.5,215.5C 279.5,258.167 279.5,300.833 279.5,343.5C 258.167,343.5 236.833,343.5 215.5,343.5C 215.5,300.833 215.5,258.167 215.5,215.5 Z"/></g>
<g><path style="opacity:1" fill="#edcdb1" d="M 409.5,215.5 C 424.128,213.727 433.961,219.727 439,233.5C 440.761,247.808 434.928,257.642 421.5,263C 407.192,264.761 397.358,258.928 392,245.5C 389.836,234.991 393.002,226.491 401.5,220C 404.099,218.205 406.766,216.705 409.5,215.5 Z"/></g>
<g><path style="opacity:1" fill="#000000" d="M 135.5,231.5 C 156.833,231.5 178.167,231.5 199.5,231.5C 199.5,268.833 199.5,306.167 199.5,343.5C 178.167,343.5 156.833,343.5 135.5,343.5C 135.5,306.167 135.5,268.833 135.5,231.5 Z"/></g>
<g><path style="opacity:1" fill="#fe826d" d="M 231.5,231.5 C 242.167,231.5 252.833,231.5 263.5,231.5C 263.5,263.5 263.5,295.5 263.5,327.5C 252.833,327.5 242.167,327.5 231.5,327.5C 231.5,295.5 231.5,263.5 231.5,231.5 Z"/></g>
<g><path style="opacity:1" fill="#000000" d="M 55.5,247.5 C 76.8333,247.5 98.1667,247.5 119.5,247.5C 119.5,279.5 119.5,311.5 119.5,343.5C 98.1667,343.5 76.8333,343.5 55.5,343.5C 55.5,311.5 55.5,279.5 55.5,247.5 Z"/></g>
<g><path style="opacity:1" fill="#fe826d" d="M 151.5,247.5 C 162.167,247.5 172.833,247.5 183.5,247.5C 183.5,274.167 183.5,300.833 183.5,327.5C 172.833,327.5 162.167,327.5 151.5,327.5C 151.5,300.833 151.5,274.167 151.5,247.5 Z"/></g>
<g><path style="opacity:1" fill="#fe826d" d="M 71.5,263.5 C 82.1667,263.5 92.8333,263.5 103.5,263.5C 103.5,284.833 103.5,306.167 103.5,327.5C 92.8333,327.5 82.1667,327.5 71.5,327.5C 71.5,306.167 71.5,284.833 71.5,263.5 Z"/></g>
<g><path style="opacity:1" fill="#4ebfe6" d="M 406.5,279.5 C 431.611,277.556 450.944,287.056 464.5,308C 441.652,327.735 415.985,332.401 387.5,322C 379.684,318.51 372.684,313.843 366.5,308C 376.128,293.192 389.461,283.692 406.5,279.5 Z"/></g>
<g><path style="opacity:1" fill="#e3e6ea" d="M 404.5,343.5 C 444.062,341.353 470.896,358.686 485,395.5C 490.244,417.005 486.911,437.005 475,455.5C 466.987,443.239 456.153,434.406 442.5,429C 457.009,413.379 459.176,396.212 449,377.5C 436.659,361.72 420.826,356.553 401.5,362C 381.279,371.61 373.112,387.443 377,409.5C 378.916,417.171 382.75,423.671 388.5,429C 374.883,434.395 364.05,443.229 356,455.5C 335.199,419.503 340.032,387.337 370.5,359C 380.795,351.349 392.129,346.182 404.5,343.5 Z"/></g>
<g><path style="opacity:1" fill="#edcdb1" d="M 409.5,375.5 C 424.128,373.727 433.961,379.727 439,393.5C 440.761,407.808 434.928,417.642 421.5,423C 407.192,424.761 397.358,418.928 392,405.5C 389.836,394.991 393.002,386.491 401.5,380C 404.099,378.205 406.766,376.705 409.5,375.5 Z"/></g>
<g><path style="opacity:1" fill="#f9d46e" d="M 406.5,439.5 C 431.611,437.556 450.944,447.056 464.5,468C 441.652,487.735 415.985,492.401 387.5,482C 379.684,478.51 372.684,473.843 366.5,468C 375.827,452.84 389.161,443.34 406.5,439.5 Z"/></g>
</svg>
