<?xml version="1.0" encoding="UTF-8"?>
<svg version="1.1" xmlns="http://www.w3.org/2000/svg" width="400" height="225">
<path d="M0 0 C132 0 264 0 400 0 C400 74.25 400 148.5 400 225 C268 225 136 225 0 225 C0 150.75 0 76.5 0 0 Z " fill="#5F259E" transform="translate(0,0)"/>
<path d="M0 0 C2.92670088 2.45105132 5.0455011 4.93669877 7.35546875 7.97265625 C7.35546875 8.63265625 7.35546875 9.29265625 7.35546875 9.97265625 C8.01546875 9.97265625 8.67546875 9.97265625 9.35546875 9.97265625 C16.0153055 25.2241908 18.71557353 37.69600107 13.35546875 53.97265625 C11.56724161 57.78117054 9.56985085 61.39667998 7.35546875 64.97265625 C6.69546875 64.97265625 6.03546875 64.97265625 5.35546875 64.97265625 C4.98035156 65.84277344 4.98035156 65.84277344 4.59765625 66.73046875 C-0.05084454 75.12115885 -10.5775776 80.87259273 -19.5144043 83.52832031 C-31.94221873 86.12071255 -47.23545848 85.18277196 -58.078125 78.46484375 C-68.69201744 70.76842934 -77.7372367 59.46942733 -80.3984375 46.35546875 C-81.92491987 31.57524265 -79.98132816 18.0743052 -71.05859375 5.7890625 C-68.28065085 2.42165367 -68.28065085 2.42165367 -66.64453125 0.97265625 C-65.98453125 0.97265625 -65.32453125 0.97265625 -64.64453125 0.97265625 C-64.64453125 0.31265625 -64.64453125 -0.34734375 -64.64453125 -1.02734375 C-44.09746743 -16.63648417 -20.12599149 -15.42893587 0 0 Z " fill="#FCFAFC" transform="translate(101.64453125,76.02734375)"/>
<path d="M0 0 C2.68597389 2.38271878 4.78656144 5.18420019 7 8 C8.28503618 9.4434303 9.57647041 10.88119642 10.875 12.3125 C13.01950228 14.68299243 13.97081546 15.91244638 15 19 C16.258125 18.938125 17.51625 18.87625 18.8125 18.8125 C22.70743136 18.82628737 22.70743136 18.82628737 25 20.1875 C26.30894168 22.55995679 26.21620175 24.3335118 26 27 C23.69 27 21.38 27 19 27 C19 40.2 19 53.4 19 67 C12 67 12 67 10.07421875 65.82421875 C8.62937941 63.37061886 8.70232323 61.64037035 8.8125 58.8125 C8.83957031 57.91144531 8.86664063 57.01039063 8.89453125 56.08203125 C8.92933594 55.39496094 8.96414062 54.70789063 9 54 C8.01 54.495 8.01 54.495 7 55 C1.71979005 55.47576486 -3.23806035 55.86299085 -8.0625 53.5 C-14.3075114 45.44192078 -13.31679589 36.66814129 -13 27 C-13.78375 27.04125 -14.5675 27.0825 -15.375 27.125 C-18 27 -18 27 -20 25 C-20 23.02 -20 21.04 -20 19 C-11.75 19 -3.5 19 5 19 C3.35 17.35 1.7 15.7 0 14 C-1.66666667 12.33333333 -3.33333333 10.66666667 -5 9 C-5.928125 8.13375 -6.85625 7.2675 -7.8125 6.375 C-10 4 -10 4 -10 1 C-6.497507 -0.07769015 -3.63507916 -0.64148456 0 0 Z " fill="#6834A1" transform="translate(65,77)"/>
<path d="M0 0 C7.27691606 6.90374088 7.27691606 6.90374088 7.640625 12.359375 C7.65609375 13.58140625 7.6715625 14.8034375 7.6875 16.0625 C7.71328125 17.27421875 7.7390625 18.4859375 7.765625 19.734375 C7.41229348 23.5873711 6.37144605 25.99425572 4.4375 29.3125 C3.7775 29.3125 3.1175 29.3125 2.4375 29.3125 C2.4375 29.9725 2.4375 30.6325 2.4375 31.3125 C0.4575 31.8075 0.4575 31.8075 -1.5625 32.3125 C-1.5625 32.9725 -1.5625 33.6325 -1.5625 34.3125 C-5.5225 34.3125 -9.4825 34.3125 -13.5625 34.3125 C-13.5625 38.6025 -13.5625 42.8925 -13.5625 47.3125 C-16.8625 47.3125 -20.1625 47.3125 -23.5625 47.3125 C-23.5625 31.8025 -23.5625 16.2925 -23.5625 0.3125 C-15.63712908 -1.95189169 -7.7128308 -3.65344617 0 0 Z " fill="#F7F2F8" transform="translate(163.5625,96.6875)"/>
<path d="M0 0 C1.97391222 1.64492685 2.8563446 2.71268921 4 5 C4.26518877 8.26463453 4.23154074 11.53828887 4.25 14.8125 C4.270625 15.71548828 4.29125 16.61847656 4.3125 17.54882812 C4.34163016 22.50459665 4.31508583 26.02807899 1 30 C-4.49479297 34.14912939 -9.18815533 34.93996494 -16 34 C-20.34811122 32.26075551 -23.68902246 29.08150593 -26 25 C-26.61616507 21.7433832 -26.52149526 18.61369492 -26.375 15.3125 C-26.36082031 14.45849609 -26.34664062 13.60449219 -26.33203125 12.72460938 C-26.24876108 9.19117849 -26.12558855 6.37676564 -25 3 C-24.34 3 -23.68 3 -23 3 C-22.814375 2.38125 -22.62875 1.7625 -22.4375 1.125 C-17.60662339 -6.01629585 -6.33851167 -3.29115029 0 0 Z " fill="#F7F1F9" transform="translate(236,111)"/>
<path d="M0 0 C2.64 0 5.28 0 8 0 C9 1 9 1 9.09765625 3.72265625 C9.08605469 4.82480469 9.07445312 5.92695312 9.0625 7.0625 C9.05347656 8.16722656 9.04445312 9.27195312 9.03515625 10.41015625 C9.02355469 11.26480469 9.01195312 12.11945313 9 13 C9.79664063 12.95359375 10.59328125 12.9071875 11.4140625 12.859375 C20.06490889 12.56469897 20.06490889 12.56469897 24.625 14.6875 C27.8979887 17.87435741 28.88784918 20.49537014 29.22705078 25.04614258 C29.21657715 26.15111084 29.20610352 27.2560791 29.1953125 28.39453125 C29.18886719 29.59658203 29.18242187 30.79863281 29.17578125 32.03710938 C29.15902344 33.28298828 29.14226562 34.52886719 29.125 35.8125 C29.11597656 37.07771484 29.10695312 38.34292969 29.09765625 39.64648438 C29.07412394 42.76451564 29.04124545 45.88216097 29 49 C22.375 49.25 22.375 49.25 19 47 C18.65942383 44.56982422 18.65942383 44.56982422 18.70703125 41.5546875 C18.71669922 40.47832031 18.72636719 39.40195313 18.73632812 38.29296875 C18.76146484 37.16503906 18.78660156 36.03710938 18.8125 34.875 C18.83280273 33.17150391 18.83280273 33.17150391 18.85351562 31.43359375 C18.88895681 28.62192613 18.93836483 25.81119583 19 23 C15.7 22.34 12.4 21.68 9 21 C9 30.24 9 39.48 9 49 C6.03 49 3.06 49 0 49 C0 32.83 0 16.66 0 0 Z " fill="#F8F2FB" transform="translate(176,95)"/>
<path d="M0 0 C2.72241398 1.41289839 4.41440195 2.79248606 5.83203125 5.5234375 C7.30522762 10.39259357 6.77517451 15.21784097 6.6640625 20.2734375 C0.0640625 20.2734375 -6.5359375 20.2734375 -13.3359375 20.2734375 C-12.6759375 22.2534375 -12.0159375 24.2334375 -11.3359375 26.2734375 C-7.71672128 28.08304561 -3.96155209 27.393748 -0.0859375 26.6484375 C0.8215625 26.5246875 1.7290625 26.4009375 2.6640625 26.2734375 C4.6640625 28.2734375 4.6640625 28.2734375 4.7265625 30.7109375 C3.6640625 33.2734375 3.6640625 33.2734375 0.6015625 35.0859375 C-4.92398348 37.06338238 -9.51042477 36.82109132 -15.0859375 35.1484375 C-18.9941933 32.89367454 -20.24171236 31.26457321 -22.3359375 27.2734375 C-22.87218536 24.08816819 -22.85112144 20.99606786 -22.7734375 17.7734375 C-22.78052734 16.94457031 -22.78761719 16.11570312 -22.79492188 15.26171875 C-22.73327032 9.29574488 -21.85383193 4.86813046 -17.54296875 0.42578125 C-12.4715495 -2.22212791 -5.36007732 -1.66718124 0 0 Z " fill="#F3EAF7" transform="translate(371.3359375,108.7265625)"/>
<path d="M0 0 C0.33 0.66 0.66 1.32 1 2 C1.99 2.33 2.98 2.66 4 3 C4 3.99 4 4.98 4 6 C3.01 6.495 3.01 6.495 2 7 C2.99 7.33 3.98 7.66 5 8 C5.08724706 11.4165052 5.14047325 14.83272313 5.1875 18.25 C5.21263672 19.21808594 5.23777344 20.18617187 5.26367188 21.18359375 C5.27333984 22.11816406 5.28300781 23.05273438 5.29296875 24.015625 C5.3086792 24.87446289 5.32438965 25.73330078 5.34057617 26.61816406 C4.93095949 29.48283816 3.886136 30.85063164 2 33 C2.33 33.66 2.66 34.32 3 35 C-0.36974887 35.8985997 -3.65441178 36.14852081 -7.125 36.25 C-7.97320312 36.27578125 -8.82140625 36.3015625 -9.6953125 36.328125 C-12.51563405 35.92658769 -13.28054464 35.22548127 -15 33 C-19.04910668 25.35168739 -18.27593591 17.4211552 -18 9 C-18.78375 9.04125 -19.5675 9.0825 -20.375 9.125 C-23 9 -23 9 -25 7 C-25 5.02 -25 3.04 -25 1 C-12.625 0.505 -12.625 0.505 0 0 Z " fill="#67359D" transform="translate(70,95)"/>
<path d="M0 0 C2.67105693 1.40074535 4.23993117 2.83900734 5.61669922 5.5222168 C6.59776485 8.70912689 6.69174494 11.33926771 6.66015625 14.671875 C6.65371094 15.87392578 6.64726562 17.07597656 6.640625 18.31445312 C6.62386719 19.56033203 6.60710937 20.80621094 6.58984375 22.08984375 C6.58082031 23.35505859 6.57179688 24.62027344 6.5625 25.92382812 C6.53896769 29.04185939 6.5060892 32.15950472 6.46484375 35.27734375 C5.18609375 35.33921875 3.90734375 35.40109375 2.58984375 35.46484375 C1.51089844 35.51705078 1.51089844 35.51705078 0.41015625 35.5703125 C-0.23179687 35.47363281 -0.87375 35.37695312 -1.53515625 35.27734375 C-3.79385733 31.88929214 -3.82775038 30.50383634 -3.94921875 26.515625 C-3.98789062 25.39736328 -4.0265625 24.27910156 -4.06640625 23.12695312 C-4.09734375 21.95970703 -4.12828125 20.79246094 -4.16015625 19.58984375 C-4.19882812 18.41099609 -4.2375 17.23214844 -4.27734375 16.01757812 C-4.37170016 13.10432398 -4.45728786 10.19107768 -4.53515625 7.27734375 C-7.50515625 7.27734375 -10.47515625 7.27734375 -13.53515625 7.27734375 C-13.53515625 16.51734375 -13.53515625 25.75734375 -13.53515625 35.27734375 C-16.50515625 35.27734375 -19.47515625 35.27734375 -22.53515625 35.27734375 C-22.53515625 24.05734375 -22.53515625 12.83734375 -22.53515625 1.27734375 C-16.07045589 -1.95500643 -7.00014673 -1.99541933 0 0 Z " fill="#F9F3FC" transform="translate(268.53515625,108.72265625)"/>
<path d="M0 0 C3.415661 1.41337697 5.15184594 2.78265012 7 6 C7.29475698 8.72216744 7.41981161 11.16140783 7.375 13.875 C7.38660156 14.56980469 7.39820313 15.26460937 7.41015625 15.98046875 C7.37466241 22.26287861 5.56930393 26.14902613 1.5625 30.875 C-2.91801092 34.44344763 -8.60627029 33.29965165 -14 33 C-14 37.29 -14 41.58 -14 46 C-16.97 46 -19.94 46 -23 46 C-23.0251057 42.08969115 -23.04304746 38.17941485 -23.05493164 34.26904297 C-23.06231093 32.3004389 -23.07503058 30.33185714 -23.08789062 28.36328125 C-23.10329057 22.29570109 -23.05672338 16.23232241 -22.74609375 10.171875 C-22.70025146 9.21893555 -22.65440918 8.26599609 -22.60717773 7.28417969 C-22 5 -22 5 -20.20336914 3.55175781 C-18 3 -18 3 -14 5 C-14 11.6 -14 18.2 -14 25 C-11.03 24.67 -8.06 24.34 -5 24 C-3.09177986 20.18355971 -3.58346193 15.49378047 -3.37890625 11.28515625 C-3 8 -3 8 -1 5 C-1.33 4.67 -1.66 4.34 -2 4 C-2 3.34 -2 2.68 -2 2 C-1.34 2 -0.68 2 0 2 C0 1.34 0 0.68 0 0 Z " fill="#FAF5FA" transform="translate(338,98)"/>
<path d="M0 0 C4.50800883 5.23510703 3.19850292 12.5155712 3 19 C-3.27 19 -9.54 19 -16 19 C-15.67 20.98 -15.34 22.96 -15 25 C-10.99249988 25.75140627 -7.67368142 26.07733905 -3.625 25.5 C-1.830625 25.2525 -1.830625 25.2525 0 25 C1 26 1 26 1.0625 28.5625 C1.041875 29.366875 1.02125 30.17125 1 31 C-4.76211185 34.35250144 -9.29437416 36.19184373 -16 35 C-19.56862727 33.70921992 -22.2422686 31.92161284 -24.6796875 28.95703125 C-26.56434716 24.73606272 -26.36067483 20.94033655 -26.25 16.375 C-26.24484375 15.51648438 -26.2396875 14.65796875 -26.234375 13.7734375 C-26.1898076 10.2080454 -26.13651556 7.40954668 -25 4 C-24.34 4 -23.68 4 -23 4 C-22.67 3.01 -22.34 2.02 -22 1 C-20.35 1 -18.7 1 -17 1 C-17.33 2.98 -17.66 4.96 -18 7 C-17.34 7 -16.68 7 -16 7 C-16 8.98 -16 10.96 -16 13 C-12.7 13 -9.4 13 -6 13 C-7.16142685 8.64464931 -8.07699505 6.35380297 -12 4 C-11.67 3.67 -11.34 3.34 -11 3 C-11.66 2.34 -12.32 1.68 -13 1 C-8.29136742 -0.95235985 -4.9344439 -1.48964344 0 0 Z " fill="#F5EDF9" transform="translate(306,110)"/>
<path d="M0 0 C4.60291437 2.42931592 7.65601848 5.31203695 10 10 C10.14977039 12.24655587 10.22150174 14.49863768 10.25 16.75 C10.27578125 17.96171875 10.3015625 19.1734375 10.328125 20.421875 C9.97479348 24.2748711 8.93394605 26.68175572 7 30 C6.34 30 5.68 30 5 30 C5 30.66 5 31.32 5 32 C3.02 32.495 3.02 32.495 1 33 C1 33.66 1 34.32 1 35 C-0.65 35 -2.3 35 -4 35 C-3.67 34.01 -3.34 33.02 -3 32 C-4.98 32 -6.96 32 -9 32 C-11.64381296 27.05586159 -11.22504028 22.13199976 -11.125 16.6875 C-11.11597656 15.75615234 -11.10695312 14.82480469 -11.09765625 13.86523438 C-11.07418422 11.57671177 -11.03831609 9.28832221 -11 7 C-4.565 6.505 -4.565 6.505 2 6 C2 5.34 2 4.68 2 4 C1.01 4.33 0.02 4.66 -1 5 C-0.67 3.35 -0.34 1.7 0 0 Z " fill="#F4EDF8" transform="translate(161,96)"/>
<path d="M0 0 C0 0.99 0 1.98 0 3 C-0.66 3 -1.32 3 -2 3 C-2 3.66 -2 4.32 -2 5 C-1.34 5 -0.68 5 0 5 C-0.47953125 5.77150391 -0.47953125 5.77150391 -0.96875 6.55859375 C-2.7486878 10.77246164 -2.46640952 15.26220671 -2.65625 19.78515625 C-3 23 -3 23 -5 26 C-7.97 26 -10.94 26 -14 26 C-14.33 19.4 -14.66 12.8 -15 6 C-18.85938975 4.65486576 -18.85938975 4.65486576 -22 6 C-22.33 19.53 -22.66 33.06 -23 47 C-23.33 47 -23.66 47 -24 47 C-24 31.49 -24 15.98 -24 0 C-6.7027027 -3.45945946 -6.7027027 -3.45945946 0 0 Z " fill="#EADEF0" transform="translate(338,97)"/>
<path d="M0 0 C1.9453125 -0.29296875 1.9453125 -0.29296875 4.125 -0.1875 C5.40375 -0.125625 6.6825 -0.06375 8 0 C8.33 0.66 8.66 1.32 9 2 C8.67 2.99 8.34 3.98 8 5 C8.66 5.66 9.32 6.32 10 7 C7.69 7 5.38 7 3 7 C3 16.24 3 25.48 3 35 C0.03 35 -2.94 35 -6 35 C-6 24.44 -6 13.88 -6 3 C-4.68 3 -3.36 3 -2 3 C-1.34 2.01 -0.68 1.02 0 0 Z " fill="#FBF7FB" transform="translate(252,109)"/>
<path d="M0 0 C2.67927341 4.01891012 2.15601248 6.24161923 2 11 C3.32 10.67 4.64 10.34 6 10 C6.33 10.99 6.66 11.98 7 13 C7.66 13 8.32 13 9 13 C9.28875 13.804375 9.5775 14.60875 9.875 15.4375 C10.73262568 18.1326468 10.73262568 18.1326468 13 19 C16.2397452 19.14726115 19.05881091 18.98869021 22.25 18.375 C23.1575 18.25125 24.065 18.1275 25 18 C27 20 27 20 27.0625 22.4375 C26 25 26 25 22.9375 26.8125 C17.41195402 28.78994488 12.82551273 28.54765382 7.25 26.875 C3.32905714 24.61291758 2.08092599 23.01833983 0 19 C-0.46325726 15.68806696 -0.38061181 12.46062458 -0.25 9.125 C-0.23195313 8.24585937 -0.21390625 7.36671875 -0.1953125 6.4609375 C-0.14848379 4.3068168 -0.07674994 2.15326226 0 0 Z " fill="#FBFBF9" transform="translate(349,117)"/>
<path d="M0 0 C0.66 0 1.32 0 2 0 C2.33 1.65 2.66 3.3 3 5 C3.66 5 4.32 5 5 5 C5.02465881 8.96930989 5.04284023 12.93859034 5.05493164 16.90795898 C5.05997057 18.25920386 5.06680177 19.61044326 5.07543945 20.96166992 C5.08752419 22.90020434 5.09269828 24.838778 5.09765625 26.77734375 C5.10551147 28.52905884 5.10551147 28.52905884 5.11352539 30.31616211 C5 33 5 33 4 34 C2.189715 34.09879565 0.37547273 34.12971514 -1.4375 34.125 C-2.42621094 34.12757813 -3.41492188 34.13015625 -4.43359375 34.1328125 C-7 34 -7 34 -9 33 C-9.33 25.08 -9.66 17.16 -10 9 C-11.65 9 -13.3 9 -15 9 C-14.814375 10.175625 -14.62875 11.35125 -14.4375 12.5625 C-13.66648595 19.34959548 -14.22293662 26.23091459 -15 33 C-16 34 -16 34 -17.84765625 34.09765625 C-19.8984375 34.06510417 -21.94921875 34.03255208 -24 34 C-24 33.67 -24 33.34 -24 33 C-21.69 33 -19.38 33 -17 33 C-17 23.76 -17 14.52 -17 5 C-14.03 5 -11.06 5 -8 5 C-6.75157392 7.49685215 -6.80928753 9.32960028 -6.71875 12.12109375 C-6.68136719 13.13880859 -6.64398438 14.15652344 -6.60546875 15.20507812 C-6.55326172 16.80512695 -6.55326172 16.80512695 -6.5 18.4375 C-6.43113277 20.54050109 -6.35838941 22.64337984 -6.28125 24.74609375 C-6.25095703 25.68122803 -6.22066406 26.6163623 -6.18945312 27.57983398 C-6.08681227 30.14160629 -6.08681227 30.14160629 -5 33 C-2.36 33 0.28 33 3 33 C2.88973844 28.62449858 2.75919716 24.24982758 2.625 19.875 C2.5940625 18.6375 2.563125 17.4 2.53125 16.125 C2.49257813 14.92617187 2.45390625 13.72734375 2.4140625 12.4921875 C2.36693115 10.84259033 2.36693115 10.84259033 2.31884766 9.15966797 C1.98563457 5.85764366 1.16353429 3.09867553 0 0 Z " fill="#613590" transform="translate(272,111)"/>
<path d="M0 0 C3.96 0 7.92 0 12 0 C12 6.27 12 12.54 12 19 C4 20 4 20 1.515625 18.578125 C-0.58742173 15.00077747 -0.43453742 11.76723771 -0.25 7.75 C-0.23195312 7.00492187 -0.21390625 6.25984375 -0.1953125 5.4921875 C-0.14835649 3.66090299 -0.07661652 1.83028351 0 0 Z " fill="#F5ECFB" transform="translate(62,104)"/>
<path d="M0 0 C1.77074917 -0.02705729 3.54161711 -0.04642195 5.3125 -0.0625 C6.29863281 -0.07410156 7.28476562 -0.08570312 8.30078125 -0.09765625 C11 0 11 0 14 1 C14.33 1.66 14.66 2.32 15 3 C15.66 3.268125 16.32 3.53625 17 3.8125 C19 5 19 5 19.75 7.0625 C20.08750665 11.0282031 20 15.01996083 20 19 C14.06 19 8.12 19 2 19 C2 17.68 2 16.36 2 15 C5.3 15 8.6 15 12 15 C11.67 12.36 11.34 9.72 11 7 C8.03 6.67 5.06 6.34 2 6 C1.67 4.68 1.34 3.36 1 2 C0.67 1.34 0.34 0.68 0 0 Z " fill="#FDF9FA" transform="translate(357,109)"/>
<path d="M0 0 C3.62397244 0.28423313 4.70984885 0.63971227 7.1875 3.25 C7.6484375 6.5 7.6484375 6.5 7.5625 10.25 C7.54960937 11.4875 7.53671875 12.725 7.5234375 14 C7.1875 17.25 7.1875 17.25 5.1875 20.25 C3.0234375 20.54296875 3.0234375 20.54296875 0.5625 20.4375 C-0.66339844 20.39689453 -0.66339844 20.39689453 -1.9140625 20.35546875 C-2.54054688 20.32066406 -3.16703125 20.28585938 -3.8125 20.25 C-3.84138514 17.10418577 -3.85925923 13.95840531 -3.875 10.8125 C-3.88337891 9.91466797 -3.89175781 9.01683594 -3.90039062 8.09179688 C-3.90361328 7.23779297 -3.90683594 6.38378906 -3.91015625 5.50390625 C-3.91801147 4.31776733 -3.91801147 4.31776733 -3.92602539 3.10766602 C-3.73887291 0.04520744 -3.09254344 0.27489275 0 0 Z " fill="#6222A8" transform="translate(327.8125,102.75)"/>
<path d="M0 0 C0.66 0.66 1.32 1.32 2 2 C-0.88762493 2.96254164 -2.35569642 3.02820226 -5.3125 2.875 C-9.59373481 2.82619113 -12.35889391 3.60219843 -16 6 C-16.99 7.485 -16.99 7.485 -18 9 C-18.66 9 -19.32 9 -20 9 C-20.01458252 9.59014893 -20.02916504 10.18029785 -20.04418945 10.78833008 C-20.11868844 13.46371229 -20.21533995 16.13784892 -20.3125 18.8125 C-20.34633789 20.2056543 -20.34633789 20.2056543 -20.38085938 21.62695312 C-20.41630859 22.51962891 -20.45175781 23.41230469 -20.48828125 24.33203125 C-20.51446533 25.15421143 -20.54064941 25.9763916 -20.56762695 26.82348633 C-21.0913479 29.45983428 -22.05102419 30.22485432 -24 32 C-24.72197162 34.60611077 -24.72197162 34.60611077 -25 37 C-25.33 37 -25.66 37 -26 37 C-26.01981934 36.27409668 -26.03963867 35.54819336 -26.06005859 34.80029297 C-26.1556819 31.49151525 -26.26521007 28.1833367 -26.375 24.875 C-26.42140625 23.16183594 -26.42140625 23.16183594 -26.46875 21.4140625 C-26.50742188 20.30546875 -26.54609375 19.196875 -26.5859375 18.0546875 C-26.6173584 17.03874512 -26.6487793 16.02280273 -26.68115234 14.97607422 C-27.02591445 11.75811858 -27.87550812 9.0262641 -29 6 C-25.98968256 5.06576355 -25.13349732 4.95550089 -22 6 C-22 5.01 -22 4.02 -22 3 C-20.68 3.33 -19.36 3.66 -18 4 C-18 3.34 -18 2.68 -18 2 C-12.1071696 0.43972339 -6.11504862 -0.87911904 0 0 Z " fill="#5E308E" transform="translate(231,105)"/>
<path d="M0 0 C3.375 -0.1875 3.375 -0.1875 7 0 C9.45281911 3.67922867 9.26823919 5.62259351 9.25 10 C9.25515625 11.2375 9.2603125 12.475 9.265625 13.75 C9 17 9 17 7 20 C5.0546875 20.29296875 5.0546875 20.29296875 2.875 20.1875 C1.59625 20.125625 0.3175 20.06375 -1 20 C-2.4706777 17.0586446 -2.17048999 14.39772595 -2.1875 11.125 C-2.20167969 9.89007813 -2.21585938 8.65515625 -2.23046875 7.3828125 C-2.01765455 4.25913288 -1.65237226 2.59938404 0 0 Z " fill="#6D36A4" transform="translate(222,116)"/>
<path d="M0 0 C8 0 8 0 9.96875 1.09375 C11.49802196 3.92058605 11.47120902 6.304201 11.5 9.5 C11.5309375 10.6446875 11.561875 11.789375 11.59375 12.96875 C11 16 11 16 8.84375 17.90625 C6 19 6 19 0 19 C0 12.73 0 6.46 0 0 Z " fill="#68369C" transform="translate(150,104)"/>
<path d="M0 0 C0.33 0 0.66 0 1 0 C1.13277344 0.90363281 1.26554688 1.80726562 1.40234375 2.73828125 C1.66724609 4.50751953 1.66724609 4.50751953 1.9375 6.3125 C2.11152344 7.48425781 2.28554687 8.65601562 2.46484375 9.86328125 C3.07277635 13.42656502 3.41787078 15.41787078 6 18 C5.62875 18.66 5.2575 19.32 4.875 20 C3.63590872 24.24831296 4.7187537 26.80035936 6 31 C6.66 31 7.32 31 8 31 C8 33.64 8 36.28 8 39 C5.36 39 2.72 39 0 39 C0 26.13 0 13.26 0 0 Z M3 17 C4 19 4 19 4 19 Z " fill="#FEFAFB" transform="translate(141,104)"/>
<path d="M0 0 C0.71542969 -0.00128906 1.43085938 -0.00257812 2.16796875 -0.00390625 C7.67324118 0.10700583 10.92740843 0.96692675 15.1875 4.375 C14.8575 5.035 14.5275 5.695 14.1875 6.375 C12.2075 5.715 10.2275 5.055 8.1875 4.375 C8.1875 5.365 8.1875 6.355 8.1875 7.375 C8.8475 7.705 9.5075 8.035 10.1875 8.375 C10.07770915 11.97979946 9.94705955 15.58354679 9.8125 19.1875 C9.7815625 20.21166016 9.750625 21.23582031 9.71875 22.29101562 C9.68007813 23.27392578 9.64140625 24.25683594 9.6015625 25.26953125 C9.5701416 26.17550049 9.5387207 27.08146973 9.50634766 28.01489258 C9.1875 30.375 9.1875 30.375 7.1875 33.375 C6.6925 21 6.6925 21 6.1875 8.375 C3.7125 7.88 3.7125 7.88 1.1875 7.375 C1.5175 5.725 1.8475 4.075 2.1875 2.375 C-0.4525 2.375 -3.0925 2.375 -5.8125 2.375 C-6.4725 3.695 -7.1325 5.015 -7.8125 6.375 C-8.1425 5.715 -8.4725 5.055 -8.8125 4.375 C-9.8025 4.375 -10.7925 4.375 -11.8125 4.375 C-11.8125 3.715 -11.8125 3.055 -11.8125 2.375 C-8.07779581 -0.03759961 -4.30687245 -0.00791704 0 0 Z " fill="#FDF9F9" transform="translate(257.8125,107.625)"/>
<path d="M0 0 C0.98484375 0.01804687 1.9696875 0.03609375 2.984375 0.0546875 C4.10585938 0.08949219 4.10585938 0.08949219 5.25 0.125 C5.25 0.785 5.25 1.445 5.25 2.125 C3.6 2.455 1.95 2.785 0.25 3.125 C0.91 3.785 1.57 4.445 2.25 5.125 C1.92 5.455 1.59 5.785 1.25 6.125 C2.4875 6.9603125 2.4875 6.9603125 3.75 7.8125 C4.575 8.575625 5.4 9.33875 6.25 10.125 C6.25 11.775 6.25 13.425 6.25 15.125 C2.95 15.125 -0.35 15.125 -3.75 15.125 C-3.75 13.145 -3.75 11.165 -3.75 9.125 C-4.41 9.125 -5.07 9.125 -5.75 9.125 C-5.75 7.475 -5.75 5.825 -5.75 4.125 C-7.07 3.465 -8.39 2.805 -9.75 2.125 C-6.40060119 0.09941119 -3.88037449 -0.09238987 0 0 Z " fill="#F0ECF3" transform="translate(293.75,107.875)"/>
<path d="M0 0 C3.10408807 -0.05807043 6.2080364 -0.09361914 9.3125 -0.125 C10.19357422 -0.14175781 11.07464844 -0.15851563 11.98242188 -0.17578125 C12.82998047 -0.18222656 13.67753906 -0.18867188 14.55078125 -0.1953125 C15.72120972 -0.21102295 15.72120972 -0.21102295 16.9152832 -0.22705078 C19 0 19 0 22 2 C21.360625 2.268125 20.72125 2.53625 20.0625 2.8125 C17.66868314 3.88667752 17.66868314 3.88667752 17 7 C14.73044814 7.22185844 12.45926245 7.42705515 10.1875 7.625 C8.29064453 7.79902344 8.29064453 7.79902344 6.35546875 7.9765625 C3 8 3 8 0 6 C-0.1875 2.875 -0.1875 2.875 0 0 Z " fill="#582D87" transform="translate(290,129)"/>
<path d="M0 0 C2.64586609 2.43291912 4.83825936 5.1347343 7 8 C6.01 8.495 6.01 8.495 5 9 C4.67 9.99 4.34 10.98 4 12 C3.01 12 2.02 12 1 12 C0.67 12.66 0.34 13.32 0 14 C-1.66666667 12.33333333 -3.33333333 10.66666667 -5 9 C-5.928125 8.13375 -6.85625 7.2675 -7.8125 6.375 C-10 4 -10 4 -10 1 C-6.497507 -0.07769015 -3.63507916 -0.64148456 0 0 Z " fill="#6C4297" transform="translate(65,77)"/>
<path d="M0 0 C2.52775351 3.79163027 2.22443035 6.80874031 2.125 11.1875 C2.11597656 11.93708984 2.10695313 12.68667969 2.09765625 13.45898438 C2.07412578 15.30612654 2.03825561 17.15310412 2 19 C2.66 19 3.32 19 4 19 C4.103125 19.639375 4.20625 20.27875 4.3125 20.9375 C4.6528125 21.9584375 4.6528125 21.9584375 5 23 C5.99 23.33 6.98 23.66 8 24 C8 24.66 8 25.32 8 26 C11.63 26 15.26 26 19 26 C19 25.34 19 24.68 19 24 C19.639375 23.87625 20.27875 23.7525 20.9375 23.625 C21.618125 23.41875 22.29875 23.2125 23 23 C23.33 22.34 23.66 21.68 24 21 C23.16855469 21.10699219 22.33710938 21.21398437 21.48046875 21.32421875 C19.85044922 21.50404297 19.85044922 21.50404297 18.1875 21.6875 C17.10855469 21.81511719 16.02960938 21.94273437 14.91796875 22.07421875 C12 22 12 22 10.11328125 20.51953125 C9.74589844 20.01808594 9.37851562 19.51664063 9 19 C9.33 18.34 9.66 17.68 10 17 C10.99 17.66 11.98 18.32 13 19 C16.26138059 19.21742537 19.0367019 18.99294194 22.25 18.375 C23.1575 18.25125 24.065 18.1275 25 18 C27 20 27 20 27.0625 22.4375 C26 25 26 25 22.9375 26.8125 C17.41195402 28.78994488 12.82551273 28.54765382 7.25 26.875 C3.32905714 24.61291758 2.08092599 23.01833983 0 19 C-0.46325726 15.68806696 -0.38061181 12.46062458 -0.25 9.125 C-0.23195313 8.24585937 -0.21390625 7.36671875 -0.1953125 6.4609375 C-0.14848379 4.3068168 -0.07674994 2.15326226 0 0 Z " fill="#EBD7F7" transform="translate(349,117)"/>
<path d="M0 0 C0.66 0 1.32 0 2 0 C2 13.86 2 27.72 2 42 C-4 42 -4 42 -5.86328125 40.82421875 C-7.3915442 38.37164556 -7.29920218 36.67952274 -7.1875 33.8125 C-7.16042969 32.91144531 -7.13335937 32.01039063 -7.10546875 31.08203125 C-7.07066406 30.39496094 -7.03585938 29.70789063 -7 29 C-6.34 29.33 -5.68 29.66 -5 30 C-4.855625 31.134375 -4.71125 32.26875 -4.5625 33.4375 C-4.376875 34.613125 -4.19125 35.78875 -4 37 C-3.01 37.66 -2.02 38.32 -1 39 C-0.67 26.13 -0.34 13.26 0 0 Z " fill="#5A2A8F" transform="translate(81,102)"/>
<path d="M0 0 C2.31 0 4.62 0 7 0 C9 2 9 2 9.125 4.625 C9.08375 5.40875 9.0425 6.1925 9 7 C8.67 5.68 8.34 4.36 8 3 C6.35 3 4.7 3 3 3 C3.165 4.27875 3.33 5.5575 3.5 6.875 C4.28836201 14.13021564 4.98279751 21.15711159 2 28 C1 29 1 29 -1.28515625 29.09765625 C-2.65994141 29.08025391 -2.65994141 29.08025391 -4.0625 29.0625 C-4.98160156 29.05347656 -5.90070313 29.04445312 -6.84765625 29.03515625 C-7.55792969 29.02355469 -8.26820313 29.01195312 -9 29 C-9 28.67 -9 28.34 -9 28 C-6.03 28 -3.06 28 0 28 C0 18.76 0 9.52 0 0 Z " fill="#663E97" transform="translate(185,116)"/>
<path d="M0 0 C0.66 0.33 1.32 0.66 2 1 C1.52372025 2.95903745 1.04388577 4.91721097 0.5625 6.875 C0.29566406 7.96554688 0.02882813 9.05609375 -0.24609375 10.1796875 C-1 13 -1 13 -2 15 C-2.15266612 16.73868744 -2.24932596 18.48247501 -2.31640625 20.2265625 C-2.35830078 21.2578125 -2.40019531 22.2890625 -2.44335938 23.3515625 C-2.50233398 24.97191406 -2.50233398 24.97191406 -2.5625 26.625 C-2.60568359 27.71296875 -2.64886719 28.8009375 -2.69335938 29.921875 C-2.7996453 32.6144517 -2.90168057 35.30712253 -3 38 C-3.33 38 -3.66 38 -4 38 C-5.64050831 32.25822092 -6.21690015 26.83848902 -6.25 20.875 C-6.25902344 20.20662109 -6.26804687 19.53824219 -6.27734375 18.84960938 C-6.247254 13.75942728 -5.9530456 8.18741107 -2.4375 4.25 C-1.7259375 3.63125 -1.7259375 3.63125 -1 3 C-0.67 2.01 -0.34 1.02 0 0 Z " fill="#61388F" transform="translate(24,89)"/>
<path d="M0 0 C0.33 0.66 0.66 1.32 1 2 C1.99 2.33 2.98 2.66 4 3 C4 3.99 4 4.98 4 6 C0.83598119 7.58200941 -2.53874837 7.06168567 -6 7 C-6.99 7 -7.98 7 -9 7 C-9.66 7 -10.32 7 -11 7 C-11 7.66 -11 8.32 -11 9 C-11.66 9 -12.32 9 -13 9 C-13 8.34 -13 7.68 -13 7 C-13.99 6.67 -14.98 6.34 -16 6 C-15.34 5.67 -14.68 5.34 -14 5 C-13.67 4.34 -13.34 3.68 -13 3 C-11.68 3.33 -10.36 3.66 -9 4 C-9 3.34 -9 2.68 -9 2 C-13.95 2 -18.9 2 -24 2 C-24 3.65 -24 5.3 -24 7 C-24.33 7 -24.66 7 -25 7 C-25 5.02 -25 3.04 -25 1 C-12.625 0.505 -12.625 0.505 0 0 Z " fill="#6D3AA5" transform="translate(70,95)"/>
<path d="M0 0 C0.66 0 1.32 0 2 0 C2.03738281 1.12019531 2.07476562 2.24039063 2.11328125 3.39453125 C2.17894257 4.8672209 2.24538986 6.33987566 2.3125 7.8125 C2.33505859 8.55048828 2.35761719 9.28847656 2.38085938 10.04882812 C2.57342024 14.23020439 2.57342024 14.23020439 4.28125 17.96875 C6.32256073 19.19353644 7.82091637 19.49351774 10.1875 19.6875 C11.445625 19.790625 12.70375 19.89375 14 20 C13.649375 20.61875 13.29875 21.2375 12.9375 21.875 C12.628125 22.57625 12.31875 23.2775 12 24 C12.33 24.66 12.66 25.32 13 26 C8.56151204 27.10962199 4.54854894 27.2982655 0 27 C-0.66 26.01 -1.32 25.02 -2 24 C-0.35 24 1.3 24 3 24 C3 24.66 3 25.32 3 26 C3.99 26 4.98 26 6 26 C6 24.68 6 23.36 6 22 C5.071875 21.9071875 5.071875 21.9071875 4.125 21.8125 C2 21 2 21 0.875 18.96875 C-0.24201025 15.17889378 -0.21582019 11.59626134 -0.125 7.6875 C-0.11597656 6.94693359 -0.10695312 6.20636719 -0.09765625 5.44335938 C-0.07424213 3.62876533 -0.03837615 1.81433929 0 0 Z " fill="#582392" transform="translate(60,104)"/>
<path d="M0 0 C2.97 0 5.94 0 9 0 C8.67 2.97 8.34 5.94 8 9 C7.67 9 7.34 9 7 9 C7 7.35 7 5.7 7 4 C5.35 4 3.7 4 2 4 C2.185625 5.175625 2.37125 6.35125 2.5625 7.5625 C3.33351405 14.34959548 2.77706338 21.23091459 2 28 C1 29 1 29 -0.84765625 29.09765625 C-2.8984375 29.06510417 -4.94921875 29.03255208 -7 29 C-7 28.67 -7 28.34 -7 28 C-4.69 28 -2.38 28 0 28 C0 18.76 0 9.52 0 0 Z " fill="#673D95" transform="translate(255,116)"/>
<path d="M0 0 C0.66 0 1.32 0 2 0 C2 10.89 2 21.78 2 33 C1.67 33 1.34 33 1 33 C1 25.08 1 17.16 1 9 C0.34 9 -0.32 9 -1 9 C-1.33 14.61 -1.66 20.22 -2 26 C-2.33 26 -2.66 26 -3 26 C-3.07347656 24.69675781 -3.07347656 24.69675781 -3.1484375 23.3671875 C-3.22320312 22.21476562 -3.29796875 21.06234375 -3.375 19.875 C-3.47941406 18.16957031 -3.47941406 18.16957031 -3.5859375 16.4296875 C-4.00011105 12.99908013 -4.61836665 10.16741796 -6 7 C-6.99 6.67 -7.98 6.34 -9 6 C-5.67465243 4.89155081 -3.37817425 5.15545644 0 6 C-0.185625 5.38125 -0.37125 4.7625 -0.5625 4.125 C-1 2 -1 2 0 0 Z " fill="#56268A" transform="translate(312,103)"/>
<path d="M0 0 C0.33 0 0.66 0 1 0 C1.12375 0.94875 1.2475 1.8975 1.375 2.875 C1.71687177 6.08667191 1.71687177 6.08667191 4 8 C3.01 8.495 3.01 8.495 2 9 C2.33 9.66 2.66 10.32 3 11 C1.68 11.33 0.36 11.66 -1 12 C-1 12.66 -1 13.32 -1 14 C3.62 14 8.24 14 13 14 C8.944841 16.70343933 5.76263835 16.65446852 1 16 C-1.77258152 14.95771473 -3.56142174 13.77812998 -6 12 C-6.33 11.01 -6.66 10.02 -7 9 C-6.01 9 -5.02 9 -4 9 C-4.33 8.67 -4.66 8.34 -5 8 C-5.04063832 6.33382885 -5.042721 4.66611905 -5 3 C-3.68 3 -2.36 3 -1 3 C-0.67 2.01 -0.34 1.02 0 0 Z " fill="#F6F0F5" transform="translate(289,129)"/>
<path d="M0 0 C2.0625 0.4375 2.0625 0.4375 4 1 C3.01 1.33 2.02 1.66 1 2 C1 6.29 1 10.58 1 15 C2.65 14.67 4.3 14.34 6 14 C6 11.36 6 8.72 6 6 C5.67 6 5.34 6 5 6 C5 4.35 5 2.7 5 1 C6.32 1.66 7.64 2.32 9 3 C9.08082094 4.95766281 9.13910778 6.91626728 9.1875 8.875 C9.22230469 9.96554688 9.25710938 11.05609375 9.29296875 12.1796875 C9.19628906 13.11039063 9.09960938 14.04109375 9 15 C5.3558226 17.4294516 3.28758728 17.16179575 -1 17 C-1.02684679 14.35409986 -1.04676357 11.70846904 -1.0625 9.0625 C-1.07087891 8.30775391 -1.07925781 7.55300781 -1.08789062 6.77539062 C-1.09652441 4.85005687 -1.05224333 2.92464419 -1 1 C-0.67 0.67 -0.34 0.34 0 0 Z " fill="#5A2E89" transform="translate(326,105)"/>
<path d="M0 0 C0.99 0.33 1.98 0.66 3 1 C4.31778245 4.25658881 4.13352829 7.6539843 4.125 11.125 C4.12757813 12.17945313 4.13015625 13.23390625 4.1328125 14.3203125 C4 17 4 17 3 19 C0.36 19 -2.28 19 -5 19 C-6.48619895 16.02760209 -6.13177009 13.30380422 -6.125 10 C-6.12757813 8.741875 -6.13015625 7.48375 -6.1328125 6.1875 C-6 3 -6 3 -5 1 C-4.34 1 -3.68 1 -3 1 C-2.81548975 11.55808656 -2.81548975 11.55808656 -4 16 C-2.02 16 -0.04 16 2 16 C1.85890014 13.89551062 1.71195825 11.7914123 1.5625 9.6875 C1.48128906 8.51574219 1.40007812 7.34398438 1.31640625 6.13671875 C1.1132629 2.97409042 1.1132629 2.97409042 0 0 Z " fill="#5B2F8D" transform="translate(226,117)"/>
<path d="M0 0 C0.66 1.98 1.32 3.96 2 6 C0.88625 5.814375 -0.2275 5.62875 -1.375 5.4375 C-4.82568861 4.68319343 -4.82568861 4.68319343 -7 6 C-8.97123511 6.30632143 -10.95286711 6.54792829 -12.9375 6.75 C-14.52884766 6.92789063 -14.52884766 6.92789063 -16.15234375 7.109375 C-19 7 -19 7 -20.87890625 5.515625 C-21.24886719 5.01546875 -21.61882812 4.5153125 -22 4 C-20.79296875 2.48046875 -20.79296875 2.48046875 -19 1 C-16.73828125 0.92578125 -16.73828125 0.92578125 -14.3125 1.3125 C-13.50425781 1.43238281 -12.69601562 1.55226562 -11.86328125 1.67578125 C-11.24839844 1.78277344 -10.63351562 1.88976562 -10 2 C-10 2.66 -10 3.32 -10 4 C-9.16855469 3.566875 -9.16855469 3.566875 -8.3203125 3.125 C-7.23363281 2.568125 -7.23363281 2.568125 -6.125 2 C-5.40570313 1.62875 -4.68640625 1.2575 -3.9453125 0.875 C-2 0 -2 0 0 0 Z " fill="#5E249E" transform="translate(381,130)"/>
<path d="M0 0 C2.23413013 3.35119519 2.23847762 4.4177755 2.1953125 8.32421875 C2.18886719 9.35224609 2.18242187 10.38027344 2.17578125 11.43945312 C2.15902344 12.51130859 2.14226562 13.58316406 2.125 14.6875 C2.11597656 15.77095703 2.10695312 16.85441406 2.09765625 17.97070312 C2.0740734 20.6473571 2.04116126 23.32356797 2 26 C1.01 25.67 0.02 25.34 -1 25 C-2.14850697 20.26120232 -2.32901557 15.53708638 -2.5625 10.6875 C-2.60568359 9.85154297 -2.64886719 9.01558594 -2.69335938 8.15429688 C-2.79885307 6.10303065 -2.89987315 4.0515352 -3 2 C-2.34 2.66 -1.68 3.32 -1 4 C-0.67 2.68 -0.34 1.36 0 0 Z " fill="#58298C" transform="translate(173,100)"/>
<path d="M0 0 C0.33 0 0.66 0 1 0 C1 1.98 1 3.96 1 6 C0.01 6.495 0.01 6.495 -1 7 C-1 8.98 -1 10.96 -1 13 C-6.25432063 15.45946923 -11.30860098 16.90301833 -17 18 C-16.319375 17.484375 -15.63875 16.96875 -14.9375 16.4375 C-8.66536718 11.4016446 -8.66536718 11.4016446 -4 5 C-3.34 5 -2.68 5 -2 5 C-1.34 3.35 -0.68 1.7 0 0 Z " fill="#603493" transform="translate(111,136)"/>
<path d="M0 0 C0.99 0.33 1.98 0.66 3 1 C2.84152588 1.63446045 2.68305176 2.2689209 2.51977539 2.92260742 C1.8255617 7.0327829 1.76550644 11.07638129 1.68359375 15.23828125 C1.66281265 16.11904831 1.64203156 16.99981537 1.62062073 17.90727234 C1.55546063 20.70893879 1.49639679 23.51069557 1.4375 26.3125 C1.39428285 28.21680606 1.35066756 30.12110312 1.30664062 32.02539062 C1.19981377 36.68350218 1.0984526 41.34170422 1 46 C3.64 46 6.28 46 9 46 C9 42.04 9 38.08 9 34 C9.33 34 9.66 34 10 34 C10 38.29 10 42.58 10 47 C6.7 47 3.4 47 0 47 C0 31.49 0 15.98 0 0 Z " fill="#EAD4F7" transform="translate(140,97)"/>
<path d="M0 0 C0.99 0 1.98 0 3 0 C5.60018816 3.90028225 5.15085514 7.47434569 5 12 C5.66 12 6.32 12 7 12 C7 19.26 7 26.52 7 34 C6.67 34 6.34 34 6 34 C5.67 29.38 5.34 24.76 5 20 C4.34 20 3.68 20 3 20 C2.92652344 18.33710937 2.92652344 18.33710937 2.8515625 16.640625 C2.77650785 15.17705935 2.70096119 13.71351888 2.625 12.25 C2.5940625 11.52039063 2.563125 10.79078125 2.53125 10.0390625 C2.3251506 6.26057344 2.08487157 3.22053332 0 0 Z " fill="#653D95" transform="translate(342,100)"/>
<path d="M0 0 C1.11665039 0.01450195 1.11665039 0.01450195 2.25585938 0.02929688 C3.00802734 0.05443359 3.76019531 0.07957031 4.53515625 0.10546875 C5.31439453 0.11900391 6.09363281 0.13253906 6.89648438 0.14648438 C8.79718029 0.18146651 10.69751459 0.23525916 12.59765625 0.29296875 C12.59765625 0.62296875 12.59765625 0.95296875 12.59765625 1.29296875 C10.84388672 1.49212891 10.84388672 1.49212891 9.0546875 1.6953125 C7.50649786 1.87358888 5.95832147 2.05198036 4.41015625 2.23046875 C3.64123047 2.31748047 2.87230469 2.40449219 2.08007812 2.49414062 C0.95375977 2.6246582 0.95375977 2.6246582 -0.1953125 2.7578125 C-1.22434692 2.87564087 -1.22434692 2.87564087 -2.27416992 2.99584961 C-4.66604885 3.32978521 -7.03416573 3.81933315 -9.40234375 4.29296875 C-9.40234375 15.51296875 -9.40234375 26.73296875 -9.40234375 38.29296875 C-9.73234375 38.29296875 -10.06234375 38.29296875 -10.40234375 38.29296875 C-10.89734375 20.96796875 -10.89734375 20.96796875 -11.40234375 3.29296875 C-3.52734375 -0.08203125 -3.52734375 -0.08203125 0 0 Z " fill="#562D88" transform="translate(254.40234375,105.70703125)"/>
<path d="M0 0 C-1.17578125 1.984375 -1.17578125 1.984375 -3 4 C-5.48046875 4.390625 -5.48046875 4.390625 -8.1875 4.25 C-9.08855469 4.21390625 -9.98960937 4.1778125 -10.91796875 4.140625 C-11.94857422 4.07101563 -11.94857422 4.07101563 -13 4 C-12.938125 4.928125 -12.87625 5.85625 -12.8125 6.8125 C-13 10 -13 10 -16 13 C-16 8.71 -16 4.42 -16 0 C-14.1025 -0.185625 -12.205 -0.37125 -10.25 -0.5625 C-8.64898437 -0.71912109 -8.64898437 -0.71912109 -7.015625 -0.87890625 C-4.35858796 -0.98560074 -2.50039428 -0.81930395 0 0 Z " fill="#5C318B" transform="translate(166,131)"/>
<path d="M0 0 C2.05078125 0.03255208 4.1015625 0.06510417 6.15234375 0.09765625 C6.48234375 2.40765625 6.81234375 4.71765625 7.15234375 7.09765625 C3.85234375 7.09765625 0.55234375 7.09765625 -2.84765625 7.09765625 C-2.89019981 5.09810879 -2.88846408 3.09723989 -2.84765625 1.09765625 C-1.84765625 0.09765625 -1.84765625 0.09765625 0 0 Z " fill="#66389B" transform="translate(361.84765625,115.90234375)"/>
<path d="M0 0 C0.1727834 10.44379636 0.1727834 10.44379636 -0.5625 15.5625 C-1.30533512 18.85312994 -1.30533512 18.85312994 0 21 C-1.32 20.67 -2.64 20.34 -4 20 C-4 13.73 -4 7.46 -4 1 C-2 0 -2 0 0 0 Z " fill="#FAFCF6" transform="translate(286,118)"/>
<path d="M0 0 C3.5625 0.1875 3.5625 0.1875 5.5625 2.1875 C5.5625 3.8375 5.5625 5.4875 5.5625 7.1875 C2.2625 7.1875 -1.0375 7.1875 -4.4375 7.1875 C-4.48004356 5.18795254 -4.47830783 3.18708364 -4.4375 1.1875 C-3.4375 0.1875 -3.4375 0.1875 0 0 Z " fill="#5D3883" transform="translate(294.4375,115.8125)"/>
<path d="M0 0 C1.87365234 0.00966797 1.87365234 0.00966797 3.78515625 0.01953125 C6.9375 0.1875 6.9375 0.1875 8.9375 1.1875 C8.9375 2.1775 8.9375 3.1675 8.9375 4.1875 C9.9275 4.5175 10.9175 4.8475 11.9375 5.1875 C13.24225618 7.79701236 13.05051572 9.71451285 13.03515625 12.6328125 C13.03193359 13.70917969 13.02871094 14.78554687 13.02539062 15.89453125 C13.01701172 17.02246094 13.00863281 18.15039062 13 19.3125 C12.99548828 20.44816406 12.99097656 21.58382812 12.98632812 22.75390625 C12.97451615 25.56515638 12.95804507 28.3763023 12.9375 31.1875 C12.2775 31.1875 11.6175 31.1875 10.9375 31.1875 C10.94273682 30.54200195 10.94797363 29.89650391 10.95336914 29.23144531 C10.97418657 26.30014015 10.98717534 23.36885057 11 20.4375 C11.00837891 19.42171875 11.01675781 18.4059375 11.02539062 17.359375 C11.02861328 16.3796875 11.03183594 15.4 11.03515625 14.390625 C11.04039307 13.48989258 11.04562988 12.58916016 11.05102539 11.66113281 C10.94400478 9.32923434 10.696311 7.39247546 9.9375 5.1875 C3.98946633 1.48035343 -3.32463003 1.84745796 -10.0625 2.1875 C-6.36008718 -0.28077522 -4.4033889 -0.05009026 0 0 Z " fill="#7C53A4" transform="translate(228.0625,106.8125)"/>
<path d="M0 0 C0.33 0 0.66 0 1 0 C1.02686553 1.97909398 1.04633375 3.95828971 1.0625 5.9375 C1.07410156 7.03964844 1.08570313 8.14179687 1.09765625 9.27734375 C1 12 1 12 0 13 C-2.33944736 12.71269945 -4.6739143 12.38063221 -7 12 C-6.45276317 8.62537285 -5.9451 6.91765 -4 4 C-2.68 4 -1.36 4 0 4 C0 2.68 0 1.36 0 0 Z " fill="#5F22A1" transform="translate(159,108)"/>
<path d="M0 0 C0 0.66 0 1.32 0 2 C-0.56589844 2.10957031 -1.13179687 2.21914062 -1.71484375 2.33203125 C-2.44832031 2.49058594 -3.18179688 2.64914063 -3.9375 2.8125 C-4.66839844 2.96332031 -5.39929688 3.11414063 -6.15234375 3.26953125 C-7.06693359 3.63111328 -7.06693359 3.63111328 -8 4 C-8.33 4.99 -8.66 5.98 -9 7 C-9.66386719 6.84660156 -10.32773438 6.69320312 -11.01171875 6.53515625 C-14.60155922 5.89226979 -18.17795419 5.64966009 -21.8125 5.4375 C-22.85180664 5.37272461 -22.85180664 5.37272461 -23.91210938 5.30664062 C-25.60788686 5.20138547 -27.30392052 5.10027137 -29 5 C-29 4.67 -29 4.34 -29 4 C-28.38479492 3.91435791 -27.76958984 3.82871582 -27.13574219 3.74047852 C-24.34017963 3.35003829 -21.54509064 2.95630373 -18.75 2.5625 C-17.78191406 2.42779297 -16.81382813 2.29308594 -15.81640625 2.15429688 C-14.88183594 2.02216797 -13.94726562 1.89003906 -12.984375 1.75390625 C-11.69611816 1.57323608 -11.69611816 1.57323608 -10.38183594 1.38891602 C-8.03793584 1.0458923 -8.03793584 1.0458923 -5.93847656 0.45288086 C-4 0 -4 0 0 0 Z " fill="#5E2B91" transform="translate(88,158)"/>
<path d="M0 0 C3.97256398 2.09663099 6.43898489 4.30075595 9 8 C9 8.66 9 9.32 9 10 C6.33333333 9.33333333 3.66666667 8.66666667 1 8 C0.01 9.485 0.01 9.485 -1 11 C-1 10.34 -1 9.68 -1 9 C-4.3 8.67 -7.6 8.34 -11 8 C-11 7.67 -11 7.34 -11 7 C-4.565 6.505 -4.565 6.505 2 6 C2 5.34 2 4.68 2 4 C1.01 4.33 0.02 4.66 -1 5 C-0.67 3.35 -0.34 1.7 0 0 Z " fill="#EADFF3" transform="translate(161,96)"/>
<path d="M0 0 C0.05790353 3.29159316 0.09356261 6.58305603 0.125 9.875 C0.14175781 10.81214844 0.15851563 11.74929687 0.17578125 12.71484375 C0.18222656 13.61074219 0.18867187 14.50664063 0.1953125 15.4296875 C0.20578613 16.25710449 0.21625977 17.08452148 0.22705078 17.93701172 C0 20 0 20 -2 22 C-2 15.07 -2 8.14 -2 1 C-5.96 1 -9.92 1 -14 1 C-14 0.67 -14 0.34 -14 0 C-12.60554251 -0.19747219 -11.20931848 -0.38248587 -9.8125 -0.5625 C-8.64654297 -0.71912109 -8.64654297 -0.71912109 -7.45703125 -0.87890625 C-4.80087506 -1.00981379 -2.57758371 -0.6180707 0 0 Z " fill="#57298E" transform="translate(77,102)"/>
<path d="M0 0 C4.95 0 9.9 0 15 0 C15 0.66 15 1.32 15 2 C14.401875 2.12375 13.80375 2.2475 13.1875 2.375 C10.73768652 2.95475985 10.73768652 2.95475985 8 5 C5.95703125 5.1953125 5.95703125 5.1953125 3.8125 5.125 C1.9253125 5.063125 1.9253125 5.063125 0 5 C0 3.35 0 1.7 0 0 Z " fill="#5C2794" transform="translate(46,97)"/>
<path d="M0 0 C0.804375 0.495 0.804375 0.495 1.625 1 C5.58401137 2.66695216 9.09892489 2.17328367 13.25 1.375 C14.61125 1.189375 14.61125 1.189375 16 1 C16.66 1.66 17.32 2.32 18 3 C17.8125 5.5 17.8125 5.5 17 8 C14 10 14 10 11 10 C11 8 11 8 13 5.875 C13.66 5.25625 14.32 4.6375 15 4 C14.16855469 4.10699219 13.33710938 4.21398437 12.48046875 4.32421875 C11.39378906 4.44410156 10.30710937 4.56398437 9.1875 4.6875 C8.10855469 4.81511719 7.02960938 4.94273437 5.91796875 5.07421875 C3 5 3 5 1.11328125 3.64453125 C0 2 0 2 0 0 Z " fill="#F1E3FA" transform="translate(358,134)"/>
<path d="M0 0 C2.125 0.9375 2.125 0.9375 4 2 C3.360625 2.2475 2.72125 2.495 2.0625 2.75 C-0.18741541 3.81562433 -0.18741541 3.81562433 -0.75 6.125 C-0.8325 6.74375 -0.915 7.3625 -1 8 C-1.66 8 -2.32 8 -3 8 C-3 15.59 -3 23.18 -3 31 C-3.66 31 -4.32 31 -5 31 C-5.08834684 27.68767302 -5.14083584 24.37565565 -5.1875 21.0625 C-5.21263672 20.13630859 -5.23777344 19.21011719 -5.26367188 18.25585938 C-5.32814907 12.13052575 -4.79550097 6.54980848 -2 1 C-1.34 0.67 -0.68 0.34 0 0 Z " fill="#633C93" transform="translate(284,106)"/>
<path d="M0 0 C3.46464111 0.27173656 4.68165104 0.93690865 7.1875 3.25 C6.8575 3.91 6.5275 4.57 6.1875 5.25 C4.8675 4.92 3.5475 4.59 2.1875 4.25 C2.1875 3.59 2.1875 2.93 2.1875 2.25 C0.8675 2.58 -0.4525 2.91 -1.8125 3.25 C-2.1425 8.53 -2.4725 13.81 -2.8125 19.25 C0.1575 18.92 3.1275 18.59 6.1875 18.25 C5.8575 18.91 5.5275 19.57 5.1875 20.25 C2.2175 20.25 -0.7525 20.25 -3.8125 20.25 C-3.83933697 17.10411056 -3.85925902 13.95844729 -3.875 10.8125 C-3.88337891 9.91466797 -3.89175781 9.01683594 -3.90039062 8.09179688 C-3.90361328 7.23779297 -3.90683594 6.38378906 -3.91015625 5.50390625 C-3.91801147 4.31776733 -3.91801147 4.31776733 -3.92602539 3.10766602 C-3.73887291 0.04520744 -3.09254344 0.27489275 0 0 Z " fill="#8366A2" transform="translate(327.8125,102.75)"/>
<path d="M0 0 C2.51920469 1.25960235 3.78152832 2.39605735 4.74609375 5.0625 C5.70321876 9.07582417 6.26696174 11.99858846 5 16 C4.34 16 3.68 16 3 16 C2.29954544 14.08802961 1.615081 12.17019565 0.9375 10.25 C0.55464844 9.18265625 0.17179687 8.1153125 -0.22265625 7.015625 C-0.98010011 4.07719958 -1.07151741 2.77651052 0 0 Z " fill="#663292" transform="translate(114,88)"/>
<path d="M0 0 C0.66 0 1.32 0 2 0 C1.89020915 3.60479946 1.75955955 7.20854679 1.625 10.8125 C1.5940625 11.83666016 1.563125 12.86082031 1.53125 13.91601562 C1.49257813 14.89892578 1.45390625 15.88183594 1.4140625 16.89453125 C1.36693115 18.25348511 1.36693115 18.25348511 1.31884766 19.63989258 C1 22 1 22 -1 25 C-1.02886984 21.02084841 -1.04675406 17.04172347 -1.0625 13.0625 C-1.07087891 11.92619141 -1.07925781 10.78988281 -1.08789062 9.61914062 C-1.09111328 8.53955078 -1.09433594 7.45996094 -1.09765625 6.34765625 C-1.10289307 5.34742432 -1.10812988 4.34719238 -1.11352539 3.31665039 C-1 1 -1 1 0 0 Z " fill="#DFCAEC" transform="translate(266,116)"/>
<path d="M0 0 C6.93570808 2.003649 6.93570808 2.003649 9 5 C9.14453125 8.3203125 9.14453125 8.3203125 8.8125 12.125 C8.71582031 13.38570312 8.61914062 14.64640625 8.51953125 15.9453125 C8.34808594 16.95335938 8.17664063 17.96140625 8 19 C7.34 19.33 6.68 19.66 6 20 C5.93941406 19.19175781 5.87882812 18.38351563 5.81640625 17.55078125 C5.73261719 16.48214844 5.64882813 15.41351563 5.5625 14.3125 C5.48128906 13.25675781 5.40007812 12.20101562 5.31640625 11.11328125 C5.03345399 8.32917077 4.73308037 5.70082243 4 3 C2.03241727 1.63979849 2.03241727 1.63979849 0 1 C0 0.67 0 0.34 0 0 Z " fill="#5C358C" transform="translate(372,109)"/>
<path d="M0 0 C0.49628906 0.38671875 0.99257813 0.7734375 1.50390625 1.171875 C5.84883147 4.50270951 10.18629161 7.39257462 15 10 C15 10.33 15 10.66 15 11 C12.1875 11.1875 12.1875 11.1875 9 11 C7.375 9.5625 7.375 9.5625 6 8 C4.67139075 7.64830932 3.33841672 7.31229724 2 7 C1.67 6.34 1.34 5.68 1 5 C0.01 5 -0.98 5 -2 5 C-1.34 3.35 -0.68 1.7 0 0 Z " fill="#5C328D" transform="translate(34,146)"/>
<path d="M0 0 C2.97 0 5.94 0 9 0 C9 0.33 9 0.66 9 1 C7.824375 1.2165625 7.824375 1.2165625 6.625 1.4375 C4.03578982 1.87798925 4.03578982 1.87798925 2 3 C2.01160156 3.71027344 2.02320313 4.42054688 2.03515625 5.15234375 C2.04869141 6.53099609 2.04869141 6.53099609 2.0625 7.9375 C2.07410156 8.85402344 2.08570313 9.77054688 2.09765625 10.71484375 C2 13 2 13 1 14 C-0.85287502 14.07226502 -2.70833878 14.0838122 -4.5625 14.0625 C-5.57441406 14.05347656 -6.58632813 14.04445312 -7.62890625 14.03515625 C-8.41136719 14.02355469 -9.19382812 14.01195312 -10 14 C-10 13.67 -10 13.34 -10 13 C-6.7 13 -3.4 13 0 13 C0 8.71 0 4.42 0 0 Z " fill="#633F90" transform="translate(324,131)"/>
<path d="M0 0 C5.28 0 10.56 0 16 0 C16 1.32 16 2.64 16 4 C10.72 4 5.44 4 0 4 C0 2.68 0 1.36 0 0 Z " fill="#572792" transform="translate(320,91)"/>
<path d="M0 0 C0.99 0.495 0.99 0.495 2 1 C2.144375 2.134375 2.28875 3.26875 2.4375 4.4375 C2.623125 5.613125 2.80875 6.78875 3 8 C3.99 8.66 4.98 9.32 6 10 C6.66 8.68 7.32 7.36 8 6 C8.33 8.31 8.66 10.62 9 13 C3.51923077 13.36538462 3.51923077 13.36538462 1.3125 11.8125 C-0.45312631 9.37425415 -0.30348915 7.78955493 -0.1875 4.8125 C-0.16042969 3.91144531 -0.13335937 3.01039063 -0.10546875 2.08203125 C-0.07066406 1.39496094 -0.03585938 0.70789063 0 0 Z " fill="#613690" transform="translate(74,131)"/>
<path d="M0 0 C2.64 0 5.28 0 8 0 C8 0.99 8 1.98 8 3 C6.02 3 4.04 3 2 3 C2.226875 4.093125 2.45375 5.18625 2.6875 6.3125 C2.790625 7.529375 2.89375 8.74625 3 10 C2.01 10.99 1.02 11.98 0 13 C0 8.71 0 4.42 0 0 Z " fill="#5A2E87" transform="translate(150,104)"/>
<path d="M0 0 C3.10408807 -0.05807043 6.2080364 -0.09361914 9.3125 -0.125 C10.19357422 -0.14175781 11.07464844 -0.15851563 11.98242188 -0.17578125 C12.82998047 -0.18222656 13.67753906 -0.18867188 14.55078125 -0.1953125 C15.72120972 -0.21102295 15.72120972 -0.21102295 16.9152832 -0.22705078 C19 0 19 0 22 2 C21.360625 2.268125 20.72125 2.53625 20.0625 2.8125 C17.66868314 3.88667752 17.66868314 3.88667752 17 7 C15.02 7 13.04 7 11 7 C11.33 6.34 11.66 5.68 12 5 C12.66 5 13.32 5 14 5 C14 4.34 14 3.68 14 3 C14.66 2.67 15.32 2.34 16 2 C10.72 1.67 5.44 1.34 0 1 C0 0.67 0 0.34 0 0 Z " fill="#764FAA" transform="translate(290,129)"/>
<path d="M0 0 C0.66 0 1.32 0 2 0 C2 1.65 2 3.3 2 5 C-1.3 5.33 -4.6 5.66 -8 6 C-8 5.34 -8 4.68 -8 4 C-9.98 4.33 -11.96 4.66 -14 5 C-14 4.34 -14 3.68 -14 3 C-9.31506124 0.51112628 -6.0555786 1.14312227 -1 2 C-0.67 1.34 -0.34 0.68 0 0 Z " fill="#FBFAF7" transform="translate(302,123)"/>
<path d="M0 0 C6.27 0 12.54 0 19 0 C17.68 1.32 16.36 2.64 15 4 C14.01 4 13.02 4 12 4 C12 3.34 12 2.68 12 2 C10.5629191 1.94577053 9.12524538 1.90710277 7.6875 1.875 C6.48673828 1.84019531 6.48673828 1.84019531 5.26171875 1.8046875 C2.71611424 1.84182678 2.71611424 1.84182678 0 4 C0 2.68 0 1.36 0 0 Z " fill="#582988" transform="translate(359,130)"/>
<path d="M0 0 C2 2 2 2 2.23046875 4.75 C2.20919922 6.35875 2.20919922 6.35875 2.1875 8 C2.18105469 9.0725 2.17460937 10.145 2.16796875 11.25 C2 14 2 14 1 16 C0.34 16 -0.32 16 -1 16 C-1.22127098 13.70954632 -1.4266504 11.41755236 -1.625 9.125 C-1.74101562 7.84882813 -1.85703125 6.57265625 -1.9765625 5.2578125 C-1.98816406 3.64519531 -1.98816406 3.64519531 -2 2 C-1.34 1.34 -0.68 0.68 0 0 Z " fill="#FCFDF2" transform="translate(200,127)"/>
<path d="M0 0 C0.66 0 1.32 0 2 0 C2.03738281 1.10859375 2.07476562 2.2171875 2.11328125 3.359375 C2.17895448 4.82294974 2.24540135 6.28648991 2.3125 7.75 C2.33505859 8.47960937 2.35761719 9.20921875 2.38085938 9.9609375 C2.59309781 14.20570619 2.97070799 16.913858 6 20 C4.35 19.67 2.7 19.34 1 19 C-0.25433458 15.23699626 -0.10695422 11.72789091 -0.0625 7.8125 C-0.05798828 7.06291016 -0.05347656 6.31332031 -0.04882812 5.54101562 C-0.03706354 3.69397617 -0.01912865 1.84697787 0 0 Z " fill="#5A3382" transform="translate(60,104)"/>
<path d="M0 0 C0.33 0 0.66 0 1 0 C2.33257403 14.59681093 2.33257403 14.59681093 1 22 C-0.32 21.67 -1.64 21.34 -3 21 C-2.01 14.07 -1.02 7.14 0 0 Z " fill="#572886" transform="translate(118,107)"/>
<path d="M0 0 C1.32 0.33 2.64 0.66 4 1 C4.1799928 6.21979128 3.97094808 10.07262981 2 15 C1.67 15 1.34 15 1 15 C-0.32286246 10.03926578 -0.08893197 5.08888488 0 0 Z " fill="#6021A7" transform="translate(55,109)"/>
<path d="M0 0 C4.36771632 6.55157448 3.52291936 15.14346969 2.5 22.6875 C2.335 23.450625 2.17 24.21375 2 25 C1.67 25 1.34 25 1 25 C0.24524649 16.64380043 -0.13605482 8.39004715 0 0 Z " fill="#D9C0EB" transform="translate(115,98)"/>
<path d="M0 0 C2.64 0 5.28 0 8 0 C8 1.98 8 3.96 8 6 C6.02 6 4.04 6 2 6 C1.34 4.02 0.68 2.04 0 0 Z " fill="#5A298B" transform="translate(82,97)"/>
<path d="M0 0 C1.9375 0.8125 1.9375 0.8125 4 2 C4.33 2.99 4.66 3.98 5 5 C-3.25 5 -11.5 5 -20 5 C-20 4.67 -20 4.34 -20 4 C-10.1 3.505 -10.1 3.505 0 3 C0 2.01 0 1.02 0 0 Z " fill="#F0DFF8" transform="translate(65,91)"/>
<path d="M0 0 C2.01136276 2.55991624 3.62845496 5.04590299 5 8 C4.34 8 3.68 8 3 8 C2.67 8.66 2.34 9.32 2 10 C0.68 9.67 -0.64 9.34 -2 9 C-2 7.02 -2 5.04 -2 3 C-1.34 3 -0.68 3 0 3 C0 2.01 0 1.02 0 0 Z " fill="#6B3AA6" transform="translate(26,134)"/>
<path d="M0 0 C2.64 0 5.28 0 8 0 C8 0.66 8 1.32 8 2 C6.68662604 3.0260734 5.35335895 4.02727325 4 5 C4 5.33 4 5.66 4 6 C2.35 6 0.7 6 -1 6 C-0.67 4.02 -0.34 2.04 0 0 Z " fill="#6731A1" transform="translate(294,131)"/>
<path d="M0 0 C0.66 0 1.32 0 2 0 C4.5654594 2.5654594 4.54046087 4.47686668 5 8 C4.34 8 3.68 8 3 8 C3 10.64 3 13.28 3 16 C2.67 16 2.34 16 2 16 C1.34 12.7 0.68 9.4 0 6 C-0.66 6 -1.32 6 -2 6 C-1.34 4.02 -0.68 2.04 0 0 Z " fill="#63339C" transform="translate(170,120)"/>
<path d="M0 0 C0.33 0.99 0.66 1.98 1 3 C1.66 3 2.32 3 3 3 C3.99 4.485 3.99 4.485 5 6 C5.99 6.66 6.98 7.32 8 8 C6.02 8.33 4.04 8.66 2 9 C2.33 9.66 2.66 10.32 3 11 C1.0625 10.1875 1.0625 10.1875 -1 9 C-1.33 8.01 -1.66 7.02 -2 6 C-1.34 6 -0.68 6 0 6 C0 4.02 0 2.04 0 0 Z " fill="#6C38A7" transform="translate(57,120)"/>
<path d="M0 0 C2.79324931 1.04746849 4.58446181 2.20239018 7 4 C6.67 4.66 6.34 5.32 6 6 C4.68 5.34 3.36 4.68 2 4 C2 3.34 2 2.68 2 2 C-0.10388569 1.94597726 -2.20816714 1.90719744 -4.3125 1.875 C-5.48425781 1.85179688 -6.65601563 1.82859375 -7.86328125 1.8046875 C-11.16393661 1.74679382 -11.16393661 1.74679382 -14 4 C-14.99 3.67 -15.98 3.34 -17 3 C-12.10593459 -1.48920355 -6.27055857 -0.72294061 0 0 Z " fill="#E2D1F3" transform="translate(369,108)"/>
<path d="M0 0 C0.33 0 0.66 0 1 0 C1.04898438 0.75023438 1.09796875 1.50046875 1.1484375 2.2734375 C1.63877844 8.98603585 2.50458926 15.43761499 4 22 C3.01 21.67 2.02 21.34 1 21 C-0.17426264 18.65147472 -0.11508173 17.26225935 -0.09765625 14.6484375 C-0.09443359 13.79765625 -0.09121094 12.946875 -0.08789062 12.0703125 C-0.07951172 11.18085937 -0.07113281 10.29140625 -0.0625 9.375 C-0.05798828 8.4778125 -0.05347656 7.580625 -0.04882812 6.65625 C-0.03702591 4.43743352 -0.02056155 2.21874982 0 0 Z " fill="#5B3085" transform="translate(53,104)"/>
<path d="M0 0 C1.32 0 2.64 0 4 0 C7 4.07142857 7 4.07142857 7 7 C7.99 7.33 8.98 7.66 10 8 C10 9.98 10 11.96 10 14 C9.34 12.68 8.68 11.36 8 10 C7.34 10 6.68 10 6 10 C3.68853415 7.41115825 2.77677973 5.32905597 2 2 C1.34 1.34 0.68 0.68 0 0 Z " fill="#5E3490" transform="translate(103,76)"/>
<path d="M0 0 C2.97 0.33 5.94 0.66 9 1 C7.4375 3.5 7.4375 3.5 5 6 C1.25 6.3125 1.25 6.3125 -2 6 C-2 5.34 -2 4.68 -2 4 C-1.01 3.34 -0.02 2.68 1 2 C0.67 1.34 0.34 0.68 0 0 Z " fill="#FBFBFD" transform="translate(290,137)"/>
<path d="M0 0 C1.5625 1 1.5625 1 3 3 C3.06745073 5.74861744 2.74713966 8.35411443 2 11 C1.34 11.66 0.68 12.32 0 13 C-0.28875 12.195625 -0.5775 11.39125 -0.875 10.5625 C-1.73262568 7.8673532 -1.73262568 7.8673532 -4 7 C-3.525625 6.401875 -3.05125 5.80375 -2.5625 5.1875 C-0.83534256 2.99617076 -0.83534256 2.99617076 0 0 Z " fill="#6328A3" transform="translate(344,120)"/>
<path d="M0 0 C2.64 0 5.28 0 8 0 C8.33 0.99 8.66 1.98 9 3 C7 5 7 5 4.375 5.125 C3.59125 5.08375 2.8075 5.0425 2 5 C1.34 3.35 0.68 1.7 0 0 Z " fill="#5E278E" transform="translate(360,145)"/>
<path d="M0 0 C0.66 0 1.32 0 2 0 C3.585869 3.171738 3.37866445 6.63513822 3.5625 10.125 C3.60568359 10.87910156 3.64886719 11.63320312 3.69335938 12.41015625 C3.7994832 14.27321888 3.90025001 16.13658524 4 18 C3.67 17.34 3.34 16.68 3 16 C2.34 16 1.68 16 1 16 C1 12.37 1 8.74 1 5 C0.67 5 0.34 5 0 5 C0 3.35 0 1.7 0 0 Z " fill="#582B8C" transform="translate(345,120)"/>
<path d="M0 0 C1.98 0.495 1.98 0.495 4 1 C5.125 5.75 5.125 5.75 4 8 C4.66 8.33 5.32 8.66 6 9 C5.01 9 4.02 9 3 9 C2.34 7.35 1.68 5.7 1 4 C0.34 4 -0.32 4 -1 4 C-0.67 2.68 -0.34 1.36 0 0 Z " fill="#FAFDF0" transform="translate(162,103)"/>
<path d="M0 0 C1 2 1 2 0.3125 4.5 C-1.21709421 7.41351277 -1.92440669 7.97480223 -5 9 C-6.99110401 9.38290462 -8.99100513 9.72604615 -11 10 C-10.29875 9.46375 -9.5975 8.9275 -8.875 8.375 C-5.69584371 5.74874046 -2.880978 2.94797749 0 0 Z " fill="#6A4497" transform="translate(105,144)"/>
<path d="M0 0 C1.65 0 3.3 0 5 0 C5 0.99 5 1.98 5 3 C9.62 3 14.24 3 19 3 C14.95688404 5.69541064 11.75134778 5.6753982 7 5 C4.38495462 3.90444365 2.3622095 2.60831285 0 1 C0 0.67 0 0.34 0 0 Z " fill="#E4CBF3" transform="translate(283,140)"/>
<path d="M0 0 C0.66 1.98 1.32 3.96 2 6 C0.88625 5.814375 -0.2275 5.62875 -1.375 5.4375 C-4.82568861 4.68319343 -4.82568861 4.68319343 -7 6 C-7.99 5.34 -8.98 4.68 -10 4 C-8.71086513 3.32845067 -7.41859796 2.66291141 -6.125 2 C-5.40570313 1.62875 -4.68640625 1.2575 -3.9453125 0.875 C-2 0 -2 0 0 0 Z " fill="#6B2DA8" transform="translate(381,130)"/>
<path d="M0 0 C3 1 3 1 3 1 Z M0 1 C0.99 1.99 1.98 2.98 3 4 C-0.3 4 -3.6 4 -7 4 C-7 4.66 -7 5.32 -7 6 C-8.98 6 -10.96 6 -13 6 C-12.01 5.67 -11.02 5.34 -10 5 C-10 4.34 -10 3.68 -10 3 C-6.30513897 0.53675931 -4.36706908 0.61008312 0 1 Z " fill="#5A2193" transform="translate(229,145)"/>
<path d="M0 0 C2.64 0 5.28 0 8 0 C8 3.57643579 7.74637226 7.12176091 7.5 10.6875 C7.45230469 11.38939453 7.40460937 12.09128906 7.35546875 12.81445312 C7.23787848 14.54303016 7.11905865 16.27152348 7 18 C6.67 18 6.34 18 6 18 C6 12.72 6 7.44 6 2 C4.35 2 2.7 2 1 2 C0.67 1.34 0.34 0.68 0 0 Z " fill="#906EB5" transform="translate(46,102)"/>
<path d="M0 0 C1.32 0 2.64 0 4 0 C3.67 2.64 3.34 5.28 3 8 C5.97 8.495 5.97 8.495 9 9 C8.67 9.66 8.34 10.32 8 11 C5.69 11 3.38 11 1 11 C0.67 7.37 0.34 3.74 0 0 Z " fill="#542A87" transform="translate(185,96)"/>
<path d="M0 0 C0.98484375 0.01804687 1.9696875 0.03609375 2.984375 0.0546875 C4.10585938 0.08949219 4.10585938 0.08949219 5.25 0.125 C5.25 0.785 5.25 1.445 5.25 2.125 C4.32767578 2.21587891 4.32767578 2.21587891 3.38671875 2.30859375 C2.57847656 2.39238281 1.77023437 2.47617188 0.9375 2.5625 C0.13699219 2.64371094 -0.66351563 2.72492188 -1.48828125 2.80859375 C-3.91087179 3.07765693 -3.91087179 3.07765693 -6.75 4.125 C-7.74 3.465 -8.73 2.805 -9.75 2.125 C-6.40060119 0.09941119 -3.88037449 -0.09238987 0 0 Z " fill="#EDDDF7" transform="translate(293.75,107.875)"/>
<path d="M0 0 C0.74507813 0.00902344 1.49015625 0.01804687 2.2578125 0.02734375 C4.08868059 0.05081642 5.91938238 0.08668475 7.75 0.125 C7.75 0.455 7.75 0.785 7.75 1.125 C6.26886719 1.16367188 6.26886719 1.16367188 4.7578125 1.203125 C3.47648437 1.25984375 2.19515625 1.3165625 0.875 1.375 C-0.40117187 1.42140625 -1.67734375 1.4678125 -2.9921875 1.515625 C-6.34188105 1.75055056 -6.34188105 1.75055056 -7.6953125 4.171875 C-7.87835938 4.81640625 -8.06140625 5.4609375 -8.25 6.125 C-8.58 5.465 -8.91 4.805 -9.25 4.125 C-10.24 4.125 -11.23 4.125 -12.25 4.125 C-12.25 3.465 -12.25 2.805 -12.25 2.125 C-8.4084024 -0.44280471 -4.4360825 -0.10188882 0 0 Z " fill="#E2CFEF" transform="translate(258.25,107.875)"/>
<path d="M0 0 C2.0625 0.4375 2.0625 0.4375 4 1 C3.01 1.33 2.02 1.66 1 2 C1 6.29 1 10.58 1 15 C1.99 15.33 2.98 15.66 4 16 C2.68 16 1.36 16 0 16 C-0.19389096 13.5211787 -0.38040123 11.04219069 -0.5625 8.5625 C-0.61857422 7.85544922 -0.67464844 7.14839844 -0.73242188 6.41992188 C-0.86190993 4.61572163 -0.93521608 2.80768048 -1 1 C-0.67 0.67 -0.34 0.34 0 0 Z " fill="#5B2996" transform="translate(326,105)"/>
<path d="M0 0 C3.96 0 7.92 0 12 0 C11.34 1.32 10.68 2.64 10 4 C6.44219804 3.39009109 3.3171411 2.4216319 0 1 C0 0.67 0 0.34 0 0 Z " fill="#572988" transform="translate(62,124)"/>
<path d="M0 0 C1.9375 0.3125 1.9375 0.3125 4 1 C4.33 1.99 4.66 2.98 5 4 C5.66 4.33 6.32 4.66 7 5 C6.01 6.32 5.02 7.64 4 9 C3.67 7.35 3.34 5.7 3 4 C2.01 4 1.02 4 0 4 C0 2.68 0 1.36 0 0 Z " fill="#5F23A6" transform="translate(61,79)"/>
<path d="M0 0 C3.63 0.66 7.26 1.32 11 2 C11.33 3.32 11.66 4.64 12 6 C10.948125 5.5359375 10.948125 5.5359375 9.875 5.0625 C6.91063343 3.96697322 4.12301892 3.43577008 1 3 C0.67 2.01 0.34 1.02 0 0 Z " fill="#F5E8FB" transform="translate(77,65)"/>
<path d="M0 0 C1.4540625 0.0309375 1.4540625 0.0309375 2.9375 0.0625 C1.9475 0.3925 0.9575 0.7225 -0.0625 1.0625 C-0.3925 2.7125 -0.7225 4.3625 -1.0625 6.0625 C-2.0525 6.3925 -3.0425 6.7225 -4.0625 7.0625 C-4.10504356 5.06295254 -4.10330783 3.06208364 -4.0625 1.0625 C-3.0625 0.0625 -3.0625 0.0625 0 0 Z " fill="#563383" transform="translate(363.0625,115.9375)"/>
<path d="M0 0 C1.65 0 3.3 0 5 0 C8.22265625 5.17578125 8.22265625 5.17578125 9 7 C8.67 7.99 8.34 8.98 8 10 C7.67386719 9.52949219 7.34773438 9.05898437 7.01171875 8.57421875 C6.35623047 7.64029297 6.35623047 7.64029297 5.6875 6.6875 C5.25824219 6.07261719 4.82898438 5.45773438 4.38671875 4.82421875 C3.04070466 3.05354669 1.60807197 1.53261991 0 0 Z " fill="#E3D2EE" transform="translate(65,78)"/>
<path d="M0 0 C2.35953094 2.35953094 2.49141413 3.77895617 3 7 C2.01 7.33 1.02 7.66 0 8 C-0.99 7.01 -1.98 6.02 -3 5 C-2.67 4.01 -2.34 3.02 -2 2 C-1.34 2 -0.68 2 0 2 C0 1.34 0 0.68 0 0 Z " fill="#562886" transform="translate(209,134)"/>
<path d="M0 0 C5.39449293 -0.27429625 8.51925805 -0.36055646 13 3 C12.67 3.66 12.34 4.32 12 5 C8.04 3.68 4.08 2.36 0 1 C0 0.67 0 0.34 0 0 Z " fill="#F2E2F7" transform="translate(260,109)"/>
<path d="M0 0 C0.99 0.33 1.98 0.66 3 1 C2.67 2.32 2.34 3.64 2 5 C-2.62 4.34 -7.24 3.68 -12 3 C-12 2.67 -12 2.34 -12 2 C-11.21753906 1.93941406 -10.43507813 1.87882812 -9.62890625 1.81640625 C-8.61699219 1.73261719 -7.60507812 1.64882812 -6.5625 1.5625 C-5.55316406 1.48128906 -4.54382813 1.40007812 -3.50390625 1.31640625 C-1.06359221 1.26788532 -1.06359221 1.26788532 0 0 Z " fill="#7F5DB0" transform="translate(302,105)"/>
<path d="M0 0 C0.66 0 1.32 0 2 0 C2.84454356 3.37817425 3.10844919 5.67465243 2 9 C1.34 9 0.68 9 0 9 C-0.87890625 2.84765625 -0.87890625 2.84765625 -1 1 C-0.67 0.67 -0.34 0.34 0 0 Z " fill="#5C2D89" transform="translate(117,95)"/>
<path d="M0 0 C0.7425 0.763125 1.485 1.52625 2.25 2.3125 C4.4263323 4.4393702 6.52167796 6.2559956 9 8 C7.35 8 5.7 8 4 8 C4 7.34 4 6.68 4 6 C2.68 6 1.36 6 0 6 C0 5.34 0 4.68 0 4 C-0.66 3.34 -1.32 2.68 -2 2 C-1.34 2 -0.68 2 0 2 C0 1.34 0 0.68 0 0 Z " fill="#6D459A" transform="translate(211,137)"/>
<path d="M0 0 C1.65 0.33 3.3 0.66 5 1 C5 1.66 5 2.32 5 3 C-0.03733166 4.5111995 -4.88171027 3.64599773 -10 3 C-10 2.67 -10 2.34 -10 2 C-6.7 1.67 -3.4 1.34 0 1 C0 0.67 0 0.34 0 0 Z " fill="#7852A8" transform="translate(369,105)"/>
<path d="M0 0 C1.98 0 3.96 0 6 0 C5.67 1.32 5.34 2.64 5 4 C3.35 4.33 1.7 4.66 0 5 C0 3.35 0 1.7 0 0 Z " fill="#622599" transform="translate(292,118)"/>
<path d="M0 0 C2.31 0 4.62 0 7 0 C7 0.66 7 1.32 7 2 C6.34 2 5.68 2 5 2 C4.67 2.99 4.34 3.98 4 5 C2.68 4.67 1.36 4.34 0 4 C0 2.68 0 1.36 0 0 Z " fill="#6930A2" transform="translate(206,112)"/>
<path d="M0 0 C5.41538462 -0.36923077 5.41538462 -0.36923077 8.375 1.5 C8.91125 1.995 9.4475 2.49 10 3 C9.67 3.66 9.34 4.32 9 5 C7.68 4.67 6.36 4.34 5 4 C5 3.34 5 2.68 5 2 C3.35 2.33 1.7 2.66 0 3 C0 2.01 0 1.02 0 0 Z " fill="#75559B" transform="translate(325,103)"/>
<path d="M0 0 C0.33 0 0.66 0 1 0 C1 3.96 1 7.92 1 12 C-0.32 12.33 -1.64 12.66 -3 13 C-3 12.01 -3 11.02 -3 10 C-2.34 9.67 -1.68 9.34 -1 9 C-0.53348793 6.87423218 -0.53348793 6.87423218 -0.375 4.4375 C-0.30023438 3.61121094 -0.22546875 2.78492187 -0.1484375 1.93359375 C-0.09945312 1.29550781 -0.05046875 0.65742187 0 0 Z " fill="#5D2D8C" transform="translate(159,108)"/>
<path d="M0 0 C0.99 0.33 1.98 0.66 3 1 C3 6.28 3 11.56 3 17 C2.67 17 2.34 17 2 17 C1.93941406 16.10796875 1.87882812 15.2159375 1.81640625 14.296875 C1.73261719 13.12640625 1.64882813 11.9559375 1.5625 10.75 C1.48128906 9.58984375 1.40007812 8.4296875 1.31640625 7.234375 C1.06752213 4.69022624 0.71885058 2.44046752 0 0 Z " fill="#603988" transform="translate(307,112)"/>
<path d="M0 0 C2.875 -0.125 2.875 -0.125 6 0 C8 2 8 2 8.125 4.625 C8.08375 5.40875 8.0425 6.1925 8 7 C7.67 5.68 7.34 4.36 7 3 C4.03 2.505 4.03 2.505 1 2 C0.67 2.66 0.34 3.32 0 4 C0 2.68 0 1.36 0 0 Z " fill="#593380" transform="translate(186,116)"/>
<path d="M0 0 C0.66 0 1.32 0 2 0 C2.33 1.65 2.66 3.3 3 5 C1.68 5.33 0.36 5.66 -1 6 C-1.625 4.125 -1.625 4.125 -2 2 C-1.34 1.34 -0.68 0.68 0 0 Z " fill="#FDFFEF" transform="translate(68,115)"/>
<path d="M0 0 C-0.375 2.9375 -0.375 2.9375 -1 6 C-1.99 6.495 -1.99 6.495 -3 7 C-3.66 5.02 -4.32 3.04 -5 1 C-2 0 -2 0 0 0 Z " fill="#5A22A9" transform="translate(312,131)"/>
<path d="M0 0 C1.69752187 0.25245197 3.38471545 0.57645775 5.0625 0.9375 C5.98160156 1.13214844 6.90070313 1.32679688 7.84765625 1.52734375 C8.91306641 1.76130859 8.91306641 1.76130859 10 2 C8 4 8 4 5.0625 4.3125 C2 4 2 4 0.125 2.5 C-0.24625 2.005 -0.6175 1.51 -1 1 C-0.67 0.67 -0.34 0.34 0 0 Z " fill="#714A9D" transform="translate(360,133)"/>
<path d="M0 0 C0.33 0.99 0.66 1.98 1 3 C3.31 3.33 5.62 3.66 8 4 C6 6 6 6 2.875 6.125 C1.451875 6.063125 1.451875 6.063125 0 6 C0 4.02 0 2.04 0 0 Z " fill="#663F91" transform="translate(150,117)"/>
<path d="M0 0 C1.17755859 -0.00773437 1.17755859 -0.00773437 2.37890625 -0.015625 C4.4375 0.25 4.4375 0.25 6.4375 2.25 C3.1263987 3.35370043 1.19001051 3.17673641 -2.25 2.8125 C-3.24386719 2.71066406 -4.23773438 2.60882813 -5.26171875 2.50390625 C-6.02097656 2.42011719 -6.78023437 2.33632812 -7.5625 2.25 C-4.42838698 0.16059132 -3.58799528 -0.02364412 0 0 Z " fill="#56278B" transform="translate(226.5625,104.75)"/>
<path d="M0 0 C1.74965358 -0.05429959 3.49979787 -0.09292823 5.25 -0.125 C6.22453125 -0.14820312 7.1990625 -0.17140625 8.203125 -0.1953125 C11 0 11 0 15 2 C10.38 2.33 5.76 2.66 1 3 C0.67 2.01 0.34 1.02 0 0 Z " fill="#552B8A" transform="translate(286,105)"/>
<path d="M0 0 C-7.5 5 -7.5 5 -10 5 C-9.6875 3.0625 -9.6875 3.0625 -9 1 C-5.8035914 -0.06546953 -3.34252724 -0.07427838 0 0 Z " fill="#5F3887" transform="translate(53,66)"/>
<path d="M0 0 C0.33 0 0.66 0 1 0 C1 3.96 1 7.92 1 12 C0.01 11.67 -0.98 11.34 -2 11 C-1.34 7.37 -0.68 3.74 0 0 Z " fill="#68468D" transform="translate(117,117)"/>
<path d="M0 0 C1.32 0.33 2.64 0.66 4 1 C1.36 2.98 -1.28 4.96 -4 7 C-2.92598892 4.08482708 -2.22189824 2.22189824 0 0 Z " fill="#EFE0F6" transform="translate(216,109)"/>
<path d="M0 0 C0.99 0 1.98 0 3 0 C3 1.98 3 3.96 3 6 C1.68 5.67 0.36 5.34 -1 5 C-0.67 3.35 -0.34 1.7 0 0 Z " fill="#FEF6FC" transform="translate(167,106)"/>
<path d="M0 0 C0.66 0.33 1.32 0.66 2 1 C-1.96 4.465 -1.96 4.465 -6 8 C-6.66 7.67 -7.32 7.34 -8 7 C-6.625 5.5 -6.625 5.5 -5 4 C-4.34 4 -3.68 4 -3 4 C-3 3.34 -3 2.68 -3 2 C-2.01 1.34 -1.02 0.68 0 0 Z " fill="#DBC6EF" transform="translate(40,73)"/>
<path d="M0 0 C0 1.32 0 2.64 0 4 C-2.31 4.33 -4.62 4.66 -7 5 C-6.67 4.34 -6.34 3.68 -6 3 C-5.34 3 -4.68 3 -4 3 C-4 2.34 -4 1.68 -4 1 C-2 0 -2 0 0 0 Z " fill="#E9DEEF" transform="translate(84,155)"/>
<path d="M0 0 C0.66 0 1.32 0 2 0 C2.33 2.31 2.66 4.62 3 7 C1.68 7 0.36 7 -1 7 C-0.67 4.69 -0.34 2.38 0 0 Z " fill="#59298D" transform="translate(106,143)"/>
<path d="M0 0 C2.9375 0.375 2.9375 0.375 6 1 C6.33 1.66 6.66 2.32 7 3 C5.02 3.33 3.04 3.66 1 4 C0.67 2.68 0.34 1.36 0 0 Z " fill="#F3FDEB" transform="translate(355,137)"/>
<path d="M0 0 C0.99 0.33 1.98 0.66 3 1 C3 1.99 3 2.98 3 4 C2.34 4 1.68 4 1 4 C0.67 4.99 0.34 5.98 0 7 C-0.66 7 -1.32 7 -2 7 C-1.125 2.25 -1.125 2.25 0 0 Z " fill="#532E85" transform="translate(115,128)"/>
<path d="M0 0 C0.99 0.33 1.98 0.66 3 1 C3 1.66 3 2.32 3 3 C0 5 0 5 -3 5 C-2.625 3.0625 -2.625 3.0625 -2 1 C-1.34 0.67 -0.68 0.34 0 0 Z " fill="#663799" transform="translate(339,128)"/>
<path d="M0 0 C2.97 0 5.94 0 9 0 C8.67 0.99 8.34 1.98 8 3 C5.03 2.67 2.06 2.34 -1 2 C-0.67 1.34 -0.34 0.68 0 0 Z " fill="#FEFAFE" transform="translate(149,128)"/>
<path d="M0 0 C0.886875 0.185625 1.77375 0.37125 2.6875 0.5625 C5.85178811 0.98042484 7.94839642 0.80777742 11 0 C9.68 1.32 8.36 2.64 7 4 C4.97954558 3.39816251 2.97888961 2.72693904 1 2 C0.67 1.34 0.34 0.68 0 0 Z " fill="#DFCEEA" transform="translate(44,153)"/>
<path d="M0 0 C0.66 0.33 1.32 0.66 2 1 C2 2.65 2 4.3 2 6 C0.02 6 -1.96 6 -4 6 C-3.67 5.01 -3.34 4.02 -3 3 C-3 3.66 -3 4.32 -3 5 C-2.34 4.67 -1.68 4.34 -1 4 C-0.34786708 1.97536745 -0.34786708 1.97536745 0 0 Z " fill="#643991" transform="translate(298,117)"/>
<path d="M0 0 C0.99 0.33 1.98 0.66 3 1 C3 1.66 3 2.32 3 3 C2.34 3 1.68 3 1 3 C0.34 4.65 -0.32 6.3 -1 8 C-1.93065133 5.39417629 -2.14917407 4.35801776 -1.0625 1.75 C-0.711875 1.1725 -0.36125 0.595 0 0 Z " fill="#F2FBF0" transform="translate(216,112)"/>
<path d="M0 0 C0.99 0 1.98 0 3 0 C3.33 2.64 3.66 5.28 4 8 C3.34 8 2.68 8 2 8 C1.34 5.36 0.68 2.72 0 0 Z " fill="#612D96" transform="translate(117,104)"/>
<path d="M0 0 C0.99 0.495 0.99 0.495 2 1 C2 1.99 2 2.98 2 4 C2.99 4.33 3.98 4.66 5 5 C2.525 6.485 2.525 6.485 0 8 C0 5.36 0 2.72 0 0 Z " fill="#5F298E" transform="translate(350,105)"/>
<path d="M0 0 C2.64 0.66 5.28 1.32 8 2 C7.67 2.66 7.34 3.32 7 4 C4.36 3.67 1.72 3.34 -1 3 C-0.67 2.01 -0.34 1.02 0 0 Z " fill="#5F3890" transform="translate(50,157)"/>
<path d="M0 0 C1.32 0.33 2.64 0.66 4 1 C4 2.65 4 4.3 4 6 C2.68 5.34 1.36 4.68 0 4 C0 2.68 0 1.36 0 0 Z " fill="#F4DDF9" transform="translate(303,135)"/>
<path d="M0 0 C0.66 0.33 1.32 0.66 2 1 C2 2.98 2 4.96 2 7 C1.01 7 0.02 7 -1 7 C-1.04254356 5.00045254 -1.04080783 2.99958364 -1 1 C-0.67 0.67 -0.34 0.34 0 0 Z " fill="#6327AC" transform="translate(79,135)"/>
<path d="M0 0 C0.33 0 0.66 0 1 0 C1.33 1.98 1.66 3.96 2 6 C0.02 6.66 -1.96 7.32 -4 8 C-2.68 5.36 -1.36 2.72 0 0 Z " fill="#764FA3" transform="translate(344,120)"/>
<path d="M0 0 C2.475 0.495 2.475 0.495 5 1 C4.67 1.99 4.34 2.98 4 4 C2.68 3.67 1.36 3.34 0 3 C0 2.01 0 1.02 0 0 Z " fill="#FDFFEE" transform="translate(65,106)"/>
<path d="M0 0 C0.99 0.33 1.98 0.66 3 1 C2.319375 1.61875 2.319375 1.61875 1.625 2.25 C-0.05950374 4.06408095 -0.99265971 5.75285627 -2 8 C-2.6875 6.25 -2.6875 6.25 -3 4 C-1.5625 1.75 -1.5625 1.75 0 0 Z " fill="#623991" transform="translate(29,81)"/>
</svg>
