<?xml version="1.0" encoding="UTF-8"?>
<!DOCTYPE svg PUBLIC "-//W3C//DTD SVG 1.1//EN" "http://www.w3.org/Graphics/SVG/1.1/DTD/svg11.dtd">
<svg xmlns="http://www.w3.org/2000/svg" version="1.1" width="512px" height="512px" style="shape-rendering:geometricPrecision; text-rendering:geometricPrecision; image-rendering:optimizeQuality; fill-rule:evenodd; clip-rule:evenodd" xmlns:xlink="http://www.w3.org/1999/xlink">
<g><path style="opacity:0.919" fill="#000000" d="M 251.5,7.5 C 258.663,5.81706 262.829,8.48373 264,15.5C 264.829,22.2342 264.496,28.9008 263,35.5C 259.278,40.518 254.778,41.3513 249.5,38C 248.874,37.2496 248.374,36.4162 248,35.5C 247.333,27.5 247.333,19.5 248,11.5C 248.69,9.64977 249.856,8.31643 251.5,7.5 Z"/></g>
<g><path style="opacity:0.905" fill="#000000" d="M 191.5,23.5 C 197.694,21.9926 202.194,23.9926 205,29.5C 207.333,33.8333 209.667,38.1667 212,42.5C 212.829,51.6606 208.662,55.1606 199.5,53C 194.321,46.4742 190.321,39.3075 187.5,31.5C 187.782,28.2691 189.115,25.6024 191.5,23.5 Z"/></g>
<g><path style="opacity:0.904" fill="#000000" d="M 310.5,23.5 C 319.606,21.7794 323.773,25.4461 323,34.5C 319.793,41.0863 315.959,47.253 311.5,53C 302.338,55.1606 298.171,51.6606 299,42.5C 302.342,35.8063 306.175,29.473 310.5,23.5 Z"/></g>
<g><path style="opacity:0.982" fill="#020101" d="M 244.5,46.5 C 287.613,43.9509 316.113,62.9509 330,103.5C 334.521,121.718 332.687,139.218 324.5,156C 356.167,174.333 387.833,192.667 419.5,211C 421.709,212.873 423.542,215.04 425,217.5C 432.667,230.833 440.333,244.167 448,257.5C 451.804,263.217 451.304,268.384 446.5,273C 439.038,276.967 431.705,281.133 424.5,285.5C 423.667,326.163 423.167,366.829 423,407.5C 421.833,408.667 420.667,409.833 419.5,411C 367.908,440.267 316.575,469.934 265.5,500C 261.278,503.111 256.611,504.111 251.5,503C 196.481,471.965 141.981,440.131 88,407.5C 87.8333,366.829 87.3333,326.163 86.5,285.5C 77.579,280.792 69.079,275.459 61,269.5C 60.0349,265.218 60.7016,261.218 63,257.5C 70.6667,244.167 78.3333,230.833 86,217.5C 87.4578,215.04 89.2911,212.873 91.5,211C 123.167,192.667 154.833,174.333 186.5,156C 171.283,118.746 178.949,87.0792 209.5,61C 220.166,53.5071 231.832,48.6738 244.5,46.5 Z"/></g>
<g><path style="opacity:1" fill="#fcdf75" d="M 292.5,75.5 C 307.291,92.7237 313.125,112.724 310,135.5C 308.964,139.91 307.631,144.244 306,148.5C 299.552,159.061 293.886,170.061 289,181.5C 286.639,189.664 285.139,197.997 284.5,206.5C 263.5,206.5 242.5,206.5 221.5,206.5C 220.963,196.612 219.129,186.945 216,177.5C 211.448,166.728 206.114,156.394 200,146.5C 189.578,116.772 196.745,92.272 221.5,73C 245.771,58.4142 269.438,59.2475 292.5,75.5 Z"/></g>
<g><path style="opacity:0.895" fill="#000000" d="M 149.5,66.5 C 151.527,66.3379 153.527,66.5045 155.5,67C 160.833,70 166.167,73 171.5,76C 174.803,79.795 175.303,83.9617 173,88.5C 170.005,91.2648 166.505,92.0981 162.5,91C 157.002,88.0852 151.668,84.9185 146.5,81.5C 141.988,75.3921 142.988,70.3921 149.5,66.5 Z"/></g>
<g><path style="opacity:0.895" fill="#000000" d="M 355.5,66.5 C 365.586,66.5642 368.919,71.2308 365.5,80.5C 360.168,84.5013 354.502,88.0013 348.5,91C 337.947,92.0739 334.447,87.5739 338,77.5C 343.813,73.6835 349.647,70.0168 355.5,66.5 Z"/></g>
<g><path style="opacity:1" fill="#050402" d="M 251.5,78.5 C 256.447,77.6276 260.613,78.9609 264,82.5C 266.5,88.8333 269,95.1667 271.5,101.5C 278.754,102.947 286.087,103.78 293.5,104C 300.948,107.718 302.448,113.218 298,120.5C 292.19,124.646 286.69,129.146 281.5,134C 283.809,140.901 285.809,147.901 287.5,155C 286.12,163.027 281.453,166.027 273.5,164C 267.634,159.969 261.634,156.136 255.5,152.5C 249.366,156.136 243.366,159.969 237.5,164C 228.041,165.87 223.541,162.037 224,152.5C 225.603,146.253 227.436,140.087 229.5,134C 224.31,129.146 218.81,124.646 213,120.5C 208.817,113.745 209.983,108.245 216.5,104C 224.247,103.806 231.914,102.973 239.5,101.5C 242,95.1667 244.5,88.8333 247,82.5C 248.397,80.9297 249.897,79.5964 251.5,78.5 Z"/></g>
<g><path style="opacity:1" fill="#f7ca61" d="M 292.5,75.5 C 313.294,93.0532 320.127,115.053 313,141.5C 307.937,151.959 302.604,162.292 297,172.5C 292.462,183.402 289.962,194.735 289.5,206.5C 287.833,206.5 286.167,206.5 284.5,206.5C 285.139,197.997 286.639,189.664 289,181.5C 293.886,170.061 299.552,159.061 306,148.5C 307.631,144.244 308.964,139.91 310,135.5C 313.125,112.724 307.291,92.7237 292.5,75.5 Z"/></g>
<g><path style="opacity:1" fill="#f6bc36" d="M 254.5,106.5 C 255.376,106.369 256.043,106.702 256.5,107.5C 258.787,116.153 264.453,120.153 273.5,119.5C 269.849,121.739 267.015,124.739 265,128.5C 265.018,132.554 265.351,136.554 266,140.5C 258.967,133.921 251.967,133.921 245,140.5C 245.54,136.533 245.874,132.533 246,128.5C 243.985,124.739 241.151,121.739 237.5,119.5C 247.22,120.168 252.887,115.834 254.5,106.5 Z"/></g>
<g><path style="opacity:1" fill="#e0a56e" d="M 255.5,289.5 C 255.815,293.371 255.482,297.038 254.5,300.5C 206.895,273.695 159.561,246.362 112.5,218.5C 139.833,202.5 167.167,186.5 194.5,170.5C 199.962,178.628 203.462,187.628 205,197.5C 205.894,209.203 206.894,220.869 208,232.5C 209.925,236.593 212.758,239.926 216.5,242.5C 216.518,252.544 220.685,260.211 229,265.5C 229.413,282.745 238.246,290.745 255.5,289.5 Z"/></g>
<g><path style="opacity:1" fill="#c28757" d="M 254.5,300.5 C 255.482,297.038 255.815,293.371 255.5,289.5C 272.784,290.712 281.617,282.712 282,265.5C 290.298,260.248 294.464,252.582 294.5,242.5C 298.242,239.926 301.075,236.593 303,232.5C 304.106,220.869 305.106,209.203 306,197.5C 307.461,187.601 310.961,178.601 316.5,170.5C 343.833,186.5 371.167,202.5 398.5,218.5C 350.997,246.419 303.33,274.086 255.5,301.5C 254.893,301.376 254.56,301.043 254.5,300.5 Z"/></g>
<g><path style="opacity:1" fill="#9fa1a3" d="M 224.5,228.5 C 244.167,228.5 263.833,228.5 283.5,228.5C 283.5,226.833 283.5,225.167 283.5,223.5C 263.5,223.5 243.5,223.5 223.5,223.5C 223.5,224.833 223.5,226.167 223.5,227.5C 222.549,226.081 222.216,224.415 222.5,222.5C 244.5,222.5 266.5,222.5 288.5,222.5C 288.896,225.044 288.229,227.211 286.5,229C 265.663,229.829 244.996,229.663 224.5,228.5 Z"/></g>
<g><path style="opacity:1" fill="#ebeef0" d="M 224.5,228.5 C 223.833,228.5 223.5,228.167 223.5,227.5C 223.5,226.167 223.5,224.833 223.5,223.5C 243.5,223.5 263.5,223.5 283.5,223.5C 283.5,225.167 283.5,226.833 283.5,228.5C 263.833,228.5 244.167,228.5 224.5,228.5 Z"/></g>
<g><path style="opacity:1" fill="#efcfa3" d="M 98.5,229.5 C 147.303,257.402 195.969,285.569 244.5,314C 238.293,324.915 231.959,335.749 225.5,346.5C 176.67,318.586 128.003,290.419 79.5,262C 85.7188,251.057 92.0521,240.224 98.5,229.5 Z"/></g>
<g><path style="opacity:1" fill="#e9b876" d="M 411.5,229.5 C 418.7,239.897 425.367,250.73 431.5,262C 382.997,290.419 334.33,318.586 285.5,346.5C 279.041,335.749 272.707,324.915 266.5,314C 314.896,285.807 363.23,257.64 411.5,229.5 Z"/></g>
<g><path style="opacity:1" fill="#7a7a7d" d="M 276.5,249.5 C 276.5,248.167 276.5,246.833 276.5,245.5C 262.5,245.5 248.5,245.5 234.5,245.5C 234.5,246.833 234.5,248.167 234.5,249.5C 233.549,248.081 233.216,246.415 233.5,244.5C 248.167,244.5 262.833,244.5 277.5,244.5C 277.784,246.415 277.451,248.081 276.5,249.5 Z"/></g>
<g><path style="opacity:1" fill="#c1c1c6" d="M 276.5,249.5 C 276.389,250.117 276.056,250.617 275.5,251C 262.167,251.667 248.833,251.667 235.5,251C 234.944,250.617 234.611,250.117 234.5,249.5C 234.5,248.167 234.5,246.833 234.5,245.5C 248.5,245.5 262.5,245.5 276.5,245.5C 276.5,246.833 276.5,248.167 276.5,249.5 Z"/></g>
<g><path style="opacity:1" fill="#ababaf" d="M 245.5,267.5 C 252.167,267.5 258.833,267.5 265.5,267.5C 265.739,269.467 265.406,271.301 264.5,273C 258.5,273.667 252.5,273.667 246.5,273C 245.594,271.301 245.261,269.467 245.5,267.5 Z"/></g>
<g><path style="opacity:1" fill="#c18757" d="M 234.5,363.5 C 233.644,372.864 228.644,376.698 219.5,375C 181.186,352.178 142.519,330.012 103.5,308.5C 103.334,303.821 103.501,299.155 104,294.5C 145.016,319.089 186.516,342.756 228.5,365.5C 230.714,365.389 232.714,364.722 234.5,363.5 Z"/></g>
<g><path style="opacity:1" fill="#c28757" d="M 407.5,308.5 C 368.896,329.804 330.563,351.637 292.5,374C 282.909,377.268 277.576,373.768 276.5,363.5C 280.889,366.219 285.222,366.052 289.5,363C 328.913,340.545 368.079,317.712 407,294.5C 407.499,299.155 407.666,303.821 407.5,308.5 Z"/></g>
<g><path style="opacity:1" fill="#f1d0a4" d="M 103.5,308.5 C 142.519,330.012 181.186,352.178 219.5,375C 228.644,376.698 233.644,372.864 234.5,363.5C 238.402,356.032 242.568,348.698 247,341.5C 247.667,388.167 247.667,434.833 247,481.5C 199.333,453.833 151.667,426.167 104,398.5C 103.5,368.502 103.333,338.502 103.5,308.5 Z"/></g>
<g><path style="opacity:1" fill="#ebb977" d="M 407.5,308.5 C 407.667,338.502 407.5,368.502 407,398.5C 359.333,426.167 311.667,453.833 264,481.5C 263.333,434.833 263.333,388.167 264,341.5C 268.432,348.698 272.598,356.032 276.5,363.5C 277.576,373.768 282.909,377.268 292.5,374C 330.563,351.637 368.896,329.804 407.5,308.5 Z"/></g>
</svg>
