<?xml version="1.0" standalone="no"?>
<!DOCTYPE svg PUBLIC "-//W3C//DTD SVG 20010904//EN"
 "http://www.w3.org/TR/2001/REC-SVG-20010904/DTD/svg10.dtd">
<svg version="1.0" xmlns="http://www.w3.org/2000/svg"
 width="1920.000000pt" height="1920.000000pt" viewBox="0 0 1920.000000 1920.000000"
 preserveAspectRatio="xMidYMid meet">

<g transform="translate(0.000000,1920.000000) scale(0.100000,-0.100000)"
fill="#000000" stroke="none">
<path d="M1638 17850 c-159 -40 -285 -115 -406 -245 -86 -92 -160 -231 -189
-352 -17 -75 -18 -281 -18 -5728 0 -5350 1 -5654 18 -5718 79 -308 327 -544
634 -603 64 -12 528 -14 3223 -14 l3148 0 21 -90 c46 -192 55 -285 56 -540 0
-268 -10 -362 -65 -580 -102 -407 -313 -783 -624 -1107 l-88 -93 -598 0 c-564
0 -601 -1 -676 -20 -256 -65 -450 -246 -541 -505 l-28 -80 0 -392 0 -391 31
-39 c16 -21 50 -48 74 -60 l44 -23 3953 0 c3546 0 3957 2 3991 15 47 20 79 50
103 97 18 34 19 63 19 385 0 310 -2 357 -20 429 -68 284 -273 492 -555 564
-74 19 -111 20 -674 20 l-596 0 -81 83 c-396 403 -640 917 -695 1462 -23 230
-2 548 52 776 l21 89 3147 0 c2157 0 3166 3 3207 11 318 56 565 286 650 604
18 68 19 235 19 5725 0 5388 -1 5658 -18 5725 -31 121 -106 261 -188 349 -124
133 -248 207 -412 246 -81 20 -153 20 -7972 19 -7704 0 -7892 -1 -7967 -19z
m15858 -384 c154 -41 267 -158 299 -312 13 -60 15 -802 15 -5620 0 -3958 -3
-5567 -11 -5609 -31 -168 -164 -304 -328 -335 -80 -15 -15652 -14 -15723 1
-173 37 -303 176 -328 351 -14 92 -13 11105 1 11187 26 160 136 287 294 337
62 20 15708 20 15781 0z m-6730 -12293 c-3 -10 -14 -70 -25 -133 -62 -366 -50
-770 33 -1121 87 -368 257 -729 487 -1036 38 -50 69 -94 69 -97 0 -3 -774 -6
-1720 -6 -946 0 -1720 3 -1720 6 0 4 29 45 64 93 473 639 654 1382 525 2156
-11 66 -22 128 -25 138 -5 16 55 17 1156 17 1101 0 1161 -1 1156 -17z m2355
-2820 c79 -39 140 -102 177 -181 26 -56 27 -62 30 -284 l3 -228 -3721 0 -3722
0 4 228 c3 221 4 228 29 283 47 100 130 172 232 205 34 10 655 12 3472 11
l3430 -2 66 -32z"/>
<path d="M2206 16815 c-57 -20 -87 -45 -113 -95 l-23 -43 2 -5157 3 -5157 28
-40 c15 -22 45 -49 66 -61 l39 -22 7404 0 7404 0 46 29 c30 19 52 44 67 73
l21 44 -2 5156 -3 5156 -30 43 c-16 23 -48 52 -70 63 l-40 21 -7380 2 c-6318
2 -7386 0 -7419 -12z m14538 -381 c15 -6 16 -457 16 -4905 l0 -4899 -7150 0
-7150 0 0 4898 c0 2694 3 4902 7 4905 8 9 14256 9 14277 1z"/>
<path d="M4868 15783 c-49 -23 -656 -627 -674 -670 -20 -46 -17 -117 5 -161
11 -20 160 -177 333 -348 304 -303 314 -312 365 -323 72 -15 139 6 186 58 32
36 57 92 57 131 0 61 -25 98 -151 225 -71 72 -129 134 -129 138 0 4 543 7
1207 7 l1208 0 -132 -132 c-72 -73 -137 -144 -144 -158 -18 -35 -15 -129 4
-167 40 -77 134 -119 225 -101 44 10 64 28 360 322 173 171 322 328 333 348
22 44 25 115 5 161 -18 45 -624 647 -673 669 -53 25 -101 22 -161 -8 -84 -42
-124 -128 -101 -220 11 -43 28 -65 147 -186 l136 -138 -1207 0 c-664 0 -1207
3 -1207 7 0 3 58 65 128 137 139 142 160 179 147 256 -10 57 -56 123 -101 145
-56 26 -121 29 -166 8z"/>
<path d="M10146 15786 c-89 -33 -77 -9 -441 -952 l-335 -872 0 -3124 c0 -2773
2 -3130 15 -3183 50 -191 206 -339 400 -380 84 -18 729 -21 835 -5 188 30 354
176 413 365 l22 70 0 3130 0 3130 -334 865 c-183 476 -344 879 -356 896 -46
60 -145 87 -219 60z m253 -1215 c94 -244 170 -446 168 -448 -2 -2 -164 -2
-359 -1 l-355 3 171 445 c95 245 176 454 180 465 l8 20 8 -20 c5 -11 85 -220
179 -464z m261 -3301 l0 -2460 -450 0 -450 0 0 2460 0 2460 450 0 450 0 0
-2460z m0 -3190 c0 -276 -3 -336 -15 -360 -30 -59 -38 -60 -440 -60 l-365 0
-38 34 -37 34 -3 341 -3 341 451 0 450 0 0 -330z"/>
<path d="M11961 15275 c-83 -26 -134 -96 -134 -185 0 -60 11 -90 52 -133 62
-67 -93 -62 1801 -65 1173 -2 1731 1 1764 8 96 20 156 94 156 190 0 79 -34
136 -105 174 l-40 21 -1725 2 c-1437 1 -1732 0 -1769 -12z"/>
<path d="M5998 14269 c-60 -22 -2295 -1232 -2322 -1257 -59 -56 -56 25 -56
-1411 0 -908 3 -1328 11 -1348 5 -15 22 -41 37 -56 27 -29 2262 -1375 2327
-1403 43 -18 86 -18 129 0 60 25 2280 1358 2315 1390 65 60 61 -33 61 1416 0
1437 3 1356 -56 1412 -29 27 -2266 1236 -2325 1257 -38 13 -84 13 -121 0z
m988 -906 c508 -273 922 -498 921 -499 -7 -8 -1841 -1104 -1846 -1104 -13 0
-1834 1096 -1835 1104 -1 7 1817 994 1833 996 2 0 419 -224 927 -497z m-2035
-1399 l909 -545 0 -1045 0 -1045 -24 13 c-13 7 -429 256 -925 553 l-901 540 0
1044 c0 951 1 1043 16 1037 9 -3 425 -252 925 -552z m3159 -487 l0 -1042 -916
-550 c-504 -303 -920 -551 -925 -553 -5 -2 -9 450 -9 1042 l0 1046 918 549
c504 303 920 550 925 551 4 0 7 -469 7 -1043z"/>
<path d="M11955 14087 c-71 -28 -115 -81 -129 -156 -14 -77 36 -170 110 -202
41 -19 95 -19 1791 -17 l1749 3 36 24 c62 43 83 85 83 167 0 65 -3 76 -31 111
-16 21 -50 48 -74 61 l-44 22 -1731 -1 c-1299 0 -1737 -3 -1760 -12z"/>
<path d="M11928 12890 c-76 -41 -120 -138 -98 -219 14 -52 63 -109 115 -132
38 -18 118 -19 1760 -19 1153 0 1732 4 1757 10 21 6 51 22 68 37 106 88 88
264 -32 322 l-44 21 -1745 0 c-1710 -1 -1745 -1 -1781 -20z"/>
<path d="M11956 11715 c-100 -36 -152 -138 -121 -241 15 -53 48 -90 105 -120
34 -18 96 -19 1775 -19 l1740 0 42 23 c121 64 138 237 33 325 -17 15 -47 31
-68 37 -25 6 -602 10 -1752 10 -1430 -1 -1721 -3 -1754 -15z"/>
<path d="M11929 10517 c-130 -69 -140 -253 -17 -334 l42 -28 1748 -3 c1706 -2
1749 -2 1786 17 75 39 112 97 112 176 0 79 -37 137 -112 176 -36 18 -85 19
-1776 19 l-1739 0 -44 -23z"/>
<path d="M11940 9339 c-93 -37 -143 -173 -97 -264 15 -31 59 -75 92 -93 28
-16 169 -17 1750 -20 1235 -2 1733 0 1765 8 92 23 150 96 150 190 0 78 -35
137 -102 171 -36 18 -89 19 -1785 18 -1131 0 -1757 -4 -1773 -10z"/>
<path d="M4876 8775 c-31 -11 -114 -88 -353 -327 -172 -172 -320 -327 -328
-344 -20 -42 -19 -117 1 -157 9 -18 156 -173 327 -345 284 -285 316 -314 362
-327 79 -24 147 -4 203 59 28 33 52 89 52 126 0 62 -25 98 -158 233 l-136 137
1214 0 1215 0 -132 -132 c-72 -73 -137 -144 -144 -158 -17 -35 -15 -129 4
-166 50 -97 172 -137 267 -88 39 20 648 636 659 667 15 40 14 112 -3 150 -8
18 -156 173 -332 349 -282 280 -324 318 -363 328 -143 38 -274 -90 -240 -234
11 -46 25 -64 141 -182 70 -72 128 -134 128 -137 0 -4 -540 -7 -1200 -7 -660
0 -1200 3 -1200 7 0 4 58 66 129 138 107 107 131 138 141 174 27 101 -36 212
-137 240 -49 14 -69 13 -117 -4z"/>
<path d="M11932 8144 c-82 -41 -124 -130 -102 -216 15 -57 52 -103 100 -128
39 -20 62 -20 1781 -20 l1743 0 44 21 c26 13 54 38 70 62 23 35 27 51 27 113
0 65 -3 76 -31 111 -16 21 -50 48 -74 61 l-44 22 -1731 0 -1731 0 -52 -26z"/>
</g>
</svg>
