<?xml version="1.0" standalone="no"?>
<!DOCTYPE svg PUBLIC "-//W3C//DTD SVG 20010904//EN"
 "http://www.w3.org/TR/2001/REC-SVG-20010904/DTD/svg10.dtd">
<svg version="1.0" xmlns="http://www.w3.org/2000/svg"
 width="1000.000000pt" height="1000.000000pt" viewBox="0 0 1000.000000 1000.000000"
 preserveAspectRatio="xMidYMid meet">

<g transform="translate(0.000000,1000.000000) scale(0.100000,-0.100000)"
fill="#000000" stroke="none">
<path d="M1759 9214 c-701 -127 -1137 -822 -943 -1503 119 -418 470 -743 904
-837 112 -25 371 -25 479 0 481 108 839 473 928 946 l17 90 767 0 767 0 22
-72 c75 -249 269 -437 520 -504 87 -23 262 -24 350 0 250 65 444 249 518 489
l27 88 820 -4 c801 -3 822 -4 917 -25 274 -62 487 -175 679 -360 154 -148 260
-302 334 -485 43 -106 82 -261 90 -360 4 -39 8 -88 10 -108 6 -66 -14 -268
-36 -362 -60 -260 -192 -491 -393 -685 -225 -218 -500 -346 -818 -381 -141
-16 -478 -15 -482 2 -57 191 -91 252 -206 367 -128 128 -246 187 -420 212
-146 20 -326 -16 -458 -94 -78 -45 -211 -179 -256 -257 -21 -36 -51 -103 -66
-150 l-29 -86 -801 0 -801 0 -29 87 c-41 121 -101 217 -191 301 -126 120 -249
178 -420 199 -106 13 -213 1 -320 -36 -219 -76 -394 -264 -459 -491 l-17 -60
-279 -6 c-236 -5 -295 -9 -384 -28 -783 -166 -1330 -832 -1330 -1621 0 -744
487 -1385 1212 -1594 187 -54 228 -56 1100 -56 l804 0 13 -53 c91 -361 465
-603 828 -534 288 55 512 264 583 545 l11 42 768 0 769 0 6 -48 c54 -381 313
-729 669 -897 383 -181 820 -147 1181 93 91 60 248 217 307 307 242 365 276
797 94 1182 -159 337 -466 579 -835 659 -112 25 -371 25 -479 0 -481 -108
-839 -473 -928 -946 l-17 -90 -767 0 -767 0 -22 73 c-75 248 -269 436 -520
503 -87 23 -262 24 -350 0 -250 -65 -444 -249 -518 -489 l-27 -88 -820 4
c-801 3 -822 4 -917 25 -275 62 -491 177 -681 362 -110 106 -181 196 -250 315
-89 154 -158 365 -172 528 -3 39 -8 94 -11 122 -2 27 1 97 6 155 35 348 174
636 424 878 227 220 506 349 825 381 150 16 471 15 475 -1 34 -115 54 -168 85
-220 44 -78 187 -222 263 -266 132 -78 298 -113 447 -94 171 21 294 79 420
199 90 84 150 180 191 301 l29 87 801 0 801 0 29 -86 c40 -121 91 -202 184
-294 91 -90 161 -135 266 -171 155 -54 325 -54 481 0 219 76 397 267 459 491
l17 60 279 6 c236 5 295 9 384 28 865 184 1431 976 1316 1841 -97 724 -670
1308 -1389 1414 -88 14 -234 16 -909 16 l-804 0 -13 53 c-63 247 -272 458
-520 522 -391 101 -792 -139 -891 -532 l-11 -43 -768 0 -769 0 -6 48 c-54 381
-313 729 -669 897 -218 103 -482 140 -708 99z m410 -275 c362 -83 642 -383
702 -753 18 -114 7 -291 -25 -399 -92 -310 -328 -544 -641 -638 -101 -30 -312
-37 -426 -14 -301 60 -564 280 -678 565 -110 278 -77 595 88 846 216 327 598
481 980 393z m3362 -459 c183 -56 310 -216 326 -409 17 -208 -136 -422 -342
-475 -294 -77 -576 140 -576 444 -1 125 34 216 115 307 121 135 306 186 477
133z m-1936 -3034 c153 -40 278 -161 325 -313 90 -292 -133 -593 -440 -593
-255 0 -460 205 -460 460 0 207 139 390 340 446 60 16 173 17 235 0z m3040 0
c204 -54 345 -236 345 -446 0 -255 -205 -460 -460 -460 -307 0 -530 301 -440
593 46 150 171 271 320 313 60 16 174 17 235 0z m1593 -2582 c234 -48 449
-195 583 -398 194 -294 204 -660 28 -973 -61 -108 -224 -271 -332 -332 -519
-292 -1151 -51 -1343 511 -72 214 -54 490 47 691 132 261 361 440 644 502 85
19 279 18 373 -1z m-3513 -458 c391 -104 474 -618 135 -836 -140 -90 -343 -93
-484 -7 -156 96 -248 291 -219 464 31 178 168 332 333 377 70 19 170 20 235 2z"/>
<path d="M1960 8490 l0 -200 -253 0 c-183 0 -256 -3 -265 -12 -17 -17 -17
-459 0 -476 9 -9 82 -12 265 -12 l253 0 0 -195 c0 -151 3 -195 13 -195 17 0
637 622 637 640 0 14 -628 650 -642 650 -5 0 -8 -90 -8 -200z"/>
<path d="M7862 2630 c-302 -79 -512 -354 -512 -670 0 -321 213 -594 525 -675
84 -21 253 -20 341 3 246 65 443 265 500 509 25 106 15 296 -20 390 -67 180
-182 310 -349 395 -136 68 -333 88 -485 48z m330 -270 c293 -112 370 -494 143
-709 -171 -161 -429 -159 -594 6 -170 171 -171 432 -1 604 118 118 297 158
452 99z"/>
<path d="M7975 2146 c-22 -9 -57 -33 -77 -54 -126 -135 -16 -350 168 -329 149
16 223 195 132 318 -46 61 -150 91 -223 65z"/>
<path d="M270 2365 l0 -25 -20 20 c-11 11 -33 20 -50 20 -23 0 -31 -5 -36 -24
-6 -25 1 -46 15 -46 4 0 7 10 7 23 -1 32 34 34 64 2 32 -34 40 -32 40 15 0 22
-4 40 -10 40 -5 0 -10 -11 -10 -25z"/>
<path d="M160 2261 c0 -22 5 -43 10 -46 6 -4 10 7 10 25 0 28 2 31 23 24 12
-3 34 -13 49 -20 31 -16 38 -17 38 -5 0 7 -108 61 -124 61 -3 0 -6 -18 -6 -39z"/>
<path d="M222 2188 c-5 -7 -12 -22 -14 -33 -4 -18 -6 -17 -18 8 -14 30 -33 38
-23 10 11 -31 46 -63 69 -63 23 0 54 24 54 41 0 39 -46 64 -68 37z m43 -34 c0
-10 -8 -20 -17 -22 -18 -3 -26 27 -11 42 12 11 28 0 28 -20z"/>
<path d="M177 2072 c-22 -24 -21 -35 1 -55 25 -22 75 -21 95 1 23 25 21 38 -5
56 -30 21 -71 20 -91 -2z m77 -8 c24 -9 19 -33 -8 -40 -31 -7 -66 3 -66 21 0
21 41 32 74 19z"/>
<path d="M226 1971 c-3 -4 -17 -6 -30 -4 -20 4 -26 0 -31 -20 -7 -26 0 -47 14
-47 5 0 6 11 3 25 -3 18 0 25 12 25 9 0 16 -7 16 -15 0 -22 17 -18 23 6 8 29
32 18 32 -14 -1 -30 12 -36 22 -11 14 37 -41 87 -61 55z"/>
<path d="M222 1868 c-5 -7 -12 -22 -14 -33 -4 -18 -6 -17 -18 8 -14 30 -33 38
-23 10 11 -31 46 -63 69 -63 23 0 54 24 54 41 0 39 -46 64 -68 37z m43 -34 c0
-10 -8 -20 -17 -22 -18 -3 -26 27 -11 42 12 11 28 0 28 -20z"/>
<path d="M235 1760 c-4 -6 -16 -8 -26 -5 -35 11 -69 -42 -39 -60 20 -12 93
-15 107 -4 18 15 16 44 -3 63 -18 19 -30 20 -39 6z m-27 -37 c-4 -22 -22 -20
-26 1 -2 10 3 16 13 16 10 0 15 -7 13 -17z m60 0 c-2 -10 -10 -18 -18 -18 -8
0 -16 8 -18 18 -2 12 3 17 18 17 15 0 20 -5 18 -17z"/>
<path d="M177 1642 c-22 -24 -21 -35 1 -55 25 -22 75 -21 95 1 23 25 21 38 -5
56 -30 21 -71 20 -91 -2z m77 -8 c24 -9 19 -33 -8 -40 -31 -7 -66 3 -66 21 0
21 41 32 74 19z"/>
<path d="M226 1541 c-3 -4 -17 -6 -30 -4 -20 4 -26 0 -31 -20 -7 -26 0 -47 14
-47 5 0 6 11 3 25 -3 18 0 25 12 25 9 0 16 -7 16 -15 0 -22 17 -18 23 6 8 29
32 18 32 -14 -1 -30 12 -36 22 -11 14 37 -41 87 -61 55z"/>
<path d="M196 1451 c-4 -6 -12 -9 -17 -6 -5 4 -9 2 -9 -4 0 -5 6 -12 13 -15 9
-5 9 -7 0 -12 -10 -4 -9 -9 2 -20 8 -9 20 -12 26 -8 6 3 14 1 18 -5 5 -8 15
-9 31 -3 19 7 21 10 7 15 -23 9 -22 28 1 20 12 -4 11 0 -7 17 -17 17 -25 20
-31 10 -6 -9 -10 -8 -17 5 -7 12 -12 14 -17 6z m39 -41 c-3 -5 -10 -10 -16
-10 -5 0 -9 5 -9 10 0 6 7 10 16 10 8 0 12 -4 9 -10z"/>
<path d="M140 1280 c0 -6 38 -10 95 -10 57 0 95 4 95 10 0 6 -38 10 -95 10
-57 0 -95 -4 -95 -10z"/>
<path d="M261 1189 c-22 -18 -25 -19 -42 -3 -11 10 -22 14 -27 10 -4 -4 4 -16
17 -27 l23 -19 -46 0 c-34 0 -46 -4 -46 -15 0 -12 15 -15 75 -15 60 0 75 3 75
15 0 9 -9 15 -22 15 l-23 0 24 19 c13 10 22 23 20 29 -2 6 -14 3 -28 -9z"/>
<path d="M190 1081 c0 -27 27 -51 55 -51 24 0 45 25 45 54 0 25 -18 19 -22 -6
-2 -17 -10 -23 -28 -23 -18 0 -26 6 -28 23 -4 27 -22 30 -22 3z"/>
<path d="M206 994 c-19 -18 -20 -28 -6 -55 21 -39 90 -16 90 30 0 16 -30 41
-50 41 -10 0 -26 -7 -34 -16z m59 -29 c0 -22 -31 -33 -47 -17 -17 17 -1 44 24
40 15 -2 23 -10 23 -23z"/>
<path d="M190 900 c0 -5 -7 -10 -15 -10 -8 0 -15 -4 -15 -10 0 -5 6 -10 14
-10 8 0 17 -6 20 -12 5 -10 7 -10 12 0 3 6 21 12 40 12 34 0 56 22 39 38 -4 4
-10 1 -12 -5 -5 -15 -63 -18 -63 -3 0 6 -4 10 -10 10 -5 0 -10 -4 -10 -10z"/>
<path d="M212 810 c-19 -34 -35 -34 -40 -2 -5 30 -22 28 -22 -2 0 -50 54 -61
77 -16 17 34 38 32 38 -3 -1 -32 18 -31 23 2 8 53 -49 69 -76 21z"/>
<path d="M200 675 c-22 -26 3 -65 40 -65 35 0 58 36 45 67 -7 16 -9 15 -13 -7
-6 -40 -22 -48 -22 -12 0 25 -4 32 -19 32 -10 0 -24 -7 -31 -15z m30 -26 c0
-11 -4 -17 -10 -14 -5 3 -10 13 -10 21 0 8 5 14 10 14 6 0 10 -9 10 -21z"/>
<path d="M197 561 c-8 -22 -18 -31 -34 -31 -14 0 -23 -6 -23 -15 0 -23 138
-22 147 2 10 26 -19 68 -50 71 -24 3 -30 -2 -40 -27z m57 3 c28 -11 18 -34
-14 -34 -18 0 -30 5 -30 13 0 25 15 32 44 21z"/>
<path d="M206 464 c-19 -18 -20 -28 -6 -55 21 -39 90 -16 90 30 0 16 -30 41
-50 41 -10 0 -26 -7 -34 -16z m59 -29 c0 -22 -31 -33 -47 -17 -17 17 -1 44 24
40 15 -2 23 -10 23 -23z"/>
<path d="M140 350 c0 -5 11 -10 25 -10 15 0 25 -6 25 -14 0 -45 73 -62 92 -22
20 45 6 56 -72 56 -40 0 -70 -4 -70 -10z m128 -27 c-2 -12 -12 -18 -28 -18
-16 0 -26 6 -28 18 -3 13 3 17 28 17 25 0 31 -4 28 -17z"/>
<path d="M220 246 c-36 -13 -66 -29 -68 -37 -1 -9 20 -21 68 -35 38 -12 70
-17 70 -12 0 6 -9 12 -20 15 -14 4 -20 14 -20 34 0 22 5 29 20 29 11 0 20 7
20 15 0 8 -1 15 -2 14 -2 0 -32 -11 -68 -23z m8 -51 c-7 -7 -48 7 -48 15 0 15
45 16 48 2 2 -8 2 -15 0 -17z"/>
</g>
</svg>
