<?xml version="1.0" standalone="no"?>
<!DOCTYPE svg PUBLIC "-//W3C//DTD SVG 20010904//EN"
 "http://www.w3.org/TR/2001/REC-SVG-20010904/DTD/svg10.dtd">
<svg version="1.0" xmlns="http://www.w3.org/2000/svg"
 width="512.000000pt" height="512.000000pt" viewBox="0 0 512.000000 512.000000"
 preserveAspectRatio="xMidYMid meet">

<g transform="translate(0.000000,512.000000) scale(0.100000,-0.100000)"
fill="#000000" stroke="none">
<path d="M1240 2535 l0 -575 119 0 119 0 50 103 c27 56 74 136 105 177 l57 75
0 397 0 398 -225 0 -225 0 0 -575z"/>
<path d="M3085 875 l-30 -25 83 -83 c53 -53 83 -91 82 -103 -1 -10 -2 -28 -1
-39 1 -24 438 -466 500 -506 108 -70 244 -9 258 114 10 82 -1 96 -270 365
-241 240 -255 252 -291 252 -31 0 -46 -8 -92 -52 l-55 -52 -77 77 -77 76 -30
-24z"/>
</g>
</svg>
