<?xml version="1.0" encoding="UTF-8"?>
<!DOCTYPE svg PUBLIC "-//W3C//DTD SVG 1.1//EN" "http://www.w3.org/Graphics/SVG/1.1/DTD/svg11.dtd">
<svg xmlns="http://www.w3.org/2000/svg" version="1.1" width="512px" height="512px" style="shape-rendering:geometricPrecision; text-rendering:geometricPrecision; image-rendering:optimizeQuality; fill-rule:evenodd; clip-rule:evenodd" xmlns:xlink="http://www.w3.org/1999/xlink">
<g><path style="opacity:0.95" fill="#000100" d="M 511.5,170.5 C 511.5,178.833 511.5,187.167 511.5,195.5C 503.478,233.019 480.478,255.186 442.5,262C 415.08,262.982 387.747,262.649 360.5,261C 356.074,255.559 356.741,250.892 362.5,247C 388.833,246.667 415.167,246.333 441.5,246C 470.894,240.273 488.727,222.773 495,193.5C 497.882,156.056 481.382,131.889 445.5,121C 439.888,119.869 434.221,119.369 428.5,119.5C 428.666,125.176 428.499,130.843 428,136.5C 427.117,139.102 425.617,141.269 423.5,143C 407.996,152.253 392.33,161.253 376.5,170C 373.594,171.318 370.594,171.652 367.5,171C 362.608,169.106 357.941,166.772 353.5,164C 349.778,161.203 348.778,157.703 350.5,153.5C 353.952,149.119 358.118,148.453 363,151.5C 363.833,137.821 363.666,124.154 362.5,110.5C 351.636,103.902 340.636,97.5689 329.5,91.5C 329.44,90.9569 329.107,90.6236 328.5,90.5C 327.174,104.328 327.174,117.994 328.5,131.5C 334.302,133.722 335.969,137.722 333.5,143.5C 329.832,148.32 325.498,148.82 320.5,145C 316.687,142.876 314.187,139.709 313,135.5C 312.501,130.177 312.334,124.844 312.5,119.5C 257.167,119.5 201.833,119.5 146.5,119.5C 143.011,140.829 131.178,155.496 111,163.5C 84.1229,171.097 62.4562,163.764 46,141.5C 37.3647,126.687 35.3647,111.02 40,94.5C 40.9469,88.5573 44.2802,84.8906 50,83.5C 51.2559,83.6483 52.4226,83.9816 53.5,84.5C 55.4613,86.2916 56.7946,88.4582 57.5,91C 51.5222,105.9 52.3555,120.4 60,134.5C 63.4294,138.439 67.2628,141.772 71.5,144.5C 74.5464,147.357 78.2131,149.19 82.5,150C 106.943,153.537 123.11,143.704 131,120.5C 134.286,102.09 128.119,88.0905 112.5,78.5C 111.942,77.2101 110.942,76.3768 109.5,76C 98.0687,71.5239 86.5687,71.3572 75,75.5C 72.1142,74.4537 69.6142,72.7871 67.5,70.5C 67.1262,67.0283 68.1262,64.0283 70.5,61.5C 97.6298,51.5729 120.13,57.9062 138,80.5C 142.52,87.54 145.353,95.2067 146.5,103.5C 201.833,103.5 257.167,103.5 312.5,103.5C 312.334,94.8269 312.5,86.1603 313,77.5C 313.7,73.9338 315.533,71.1005 318.5,69C 333.663,60.586 348.663,51.9193 363.5,43C 368.984,40.8518 374.317,41.1852 379.5,44C 392.575,52.0663 405.909,59.733 419.5,67C 423.388,69.2215 426.221,72.3882 428,76.5C 428.5,85.4938 428.666,94.4938 428.5,103.5C 473.202,104.88 500.869,127.213 511.5,170.5 Z"/></g>
<g><path style="opacity:1" fill="#fbdd75" d="M 369.5,57.5 C 381.152,62.9622 392.485,69.1289 403.5,76C 404.451,76.7175 404.617,77.5509 404,78.5C 392.984,84.8402 381.984,91.1736 371,97.5C 359.107,91.4715 347.607,84.8048 336.5,77.5C 347.361,70.5709 358.361,63.9042 369.5,57.5 Z"/></g>
<g><path style="opacity:0.997" fill="#45c98b" d="M 67.5,70.5 C 69.6142,72.7871 72.1142,74.4537 75,75.5C 86.5687,71.3572 98.0687,71.5239 109.5,76C 110.942,76.3768 111.942,77.2101 112.5,78.5C 120.322,101.384 114.988,120.551 96.5,136C 88.7931,140.736 80.4597,143.569 71.5,144.5C 67.2628,141.772 63.4294,138.439 60,134.5C 52.3555,120.4 51.5222,105.9 57.5,91C 56.7946,88.4582 55.4613,86.2916 53.5,84.5C 57.194,78.806 61.8607,74.1393 67.5,70.5 Z"/></g>
<g><path style="opacity:1" fill="#01c078" d="M 112.5,78.5 C 128.119,88.0905 134.286,102.09 131,120.5C 123.11,143.704 106.943,153.537 82.5,150C 78.2131,149.19 74.5464,147.357 71.5,144.5C 80.4597,143.569 88.7931,140.736 96.5,136C 114.988,120.551 120.322,101.384 112.5,78.5 Z"/></g>
<g><path style="opacity:1" fill="#010402" d="M 84.5,88.5 C 87.3198,88.2475 89.9865,88.7475 92.5,90C 98.3333,95.8333 104.167,101.667 110,107.5C 112,110.167 112,112.833 110,115.5C 103.833,121.667 97.6667,127.833 91.5,134C 82.3047,135.101 79.138,131.268 82,122.5C 85.6824,118.985 89.1824,115.318 92.5,111.5C 88.4808,107.315 84.6475,102.982 81,98.5C 80.3333,96.5 80.3333,94.5 81,92.5C 82.3756,91.2949 83.5423,89.9616 84.5,88.5 Z"/></g>
<g><path style="opacity:1" fill="#7d6e3a" d="M 329.5,91.5 C 328.504,104.656 328.171,117.99 328.5,131.5C 327.174,117.994 327.174,104.328 328.5,90.5C 329.107,90.6236 329.44,90.9569 329.5,91.5 Z"/></g>
<g><path style="opacity:0.997" fill="#fbdd75" d="M 329.5,91.5 C 340.636,97.5689 351.636,103.902 362.5,110.5C 363.666,124.154 363.833,137.821 363,151.5C 358.118,148.453 353.952,149.119 350.5,153.5C 344.833,150.167 339.167,146.833 333.5,143.5C 335.969,137.722 334.302,133.722 328.5,131.5C 328.171,117.99 328.504,104.656 329.5,91.5 Z"/></g>
<g><path style="opacity:1" fill="#fccf5a" d="M 411.5,91.5 C 412.496,104.656 412.829,117.99 412.5,131.5C 401.663,138.086 390.663,144.419 379.5,150.5C 378.512,145.36 378.179,140.026 378.5,134.5C 384.556,130.719 390.723,127.052 397,123.5C 398.435,115.611 398.935,107.611 398.5,99.5C 402.63,96.5968 406.963,93.9301 411.5,91.5 Z"/></g>
<g><path style="opacity:1" fill="#c5a246" d="M 411.5,91.5 C 411.56,90.9569 411.893,90.6236 412.5,90.5C 413.826,104.328 413.826,117.994 412.5,131.5C 412.829,117.99 412.496,104.656 411.5,91.5 Z"/></g>
<g><path style="opacity:1" fill="#fddf76" d="M 398.5,99.5 C 398.935,107.611 398.435,115.611 397,123.5C 390.723,127.052 384.556,130.719 378.5,134.5C 378.5,126.5 378.5,118.5 378.5,110.5C 384.873,106.313 391.539,102.647 398.5,99.5 Z"/></g>
<g><path style="opacity:1" fill="#584a23" d="M 378.5,110.5 C 378.5,118.5 378.5,126.5 378.5,134.5C 378.179,140.026 378.512,145.36 379.5,150.5C 379.44,151.043 379.107,151.376 378.5,151.5C 377.174,137.672 377.174,124.006 378.5,110.5 Z"/></g>
<g><path style="opacity:0.958" fill="#010101" d="M 246.5,168.5 C 252.509,168.334 258.509,168.501 264.5,169C 270.666,169.496 274.833,172.662 277,178.5C 277.172,182.871 277.672,187.204 278.5,191.5C 280.295,192.265 282.128,192.932 284,193.5C 287.541,190.295 291.374,187.462 295.5,185C 300.44,183.959 305.106,184.626 309.5,187C 315.41,192.239 320.577,198.072 325,204.5C 325.667,208.167 325.667,211.833 325,215.5C 322.153,219.011 319.32,222.511 316.5,226C 317.609,228.047 318.276,230.213 318.5,232.5C 335.549,230.382 343.215,237.882 341.5,255C 342.7,271.633 335.033,278.8 318.5,276.5C 317.653,279.16 317.153,281.826 317,284.5C 325.764,290.846 327.764,298.846 323,308.5C 318.167,313.333 313.333,318.167 308.5,323C 299.059,326.968 291.392,324.635 285.5,316C 282.826,316.153 280.16,316.653 277.5,317.5C 279.719,334.281 272.386,341.948 255.5,340.5C 238.614,341.948 231.281,334.281 233.5,317.5C 230.84,316.653 228.174,316.153 225.5,316C 219.608,324.635 211.941,326.968 202.5,323C 196.258,317.429 190.758,311.262 186,304.5C 185.333,301.167 185.333,297.833 186,294.5C 188.462,290.374 191.295,286.541 194.5,283C 193.391,280.953 192.724,278.787 192.5,276.5C 175.967,278.8 168.3,271.633 169.5,255C 167.785,237.882 175.451,230.382 192.5,232.5C 193.347,229.84 193.847,227.174 194,224.5C 185.126,218.24 183.126,210.24 188,200.5C 193.239,194.59 199.072,189.423 205.5,185C 208.833,184.333 212.167,184.333 215.5,185C 219.626,187.462 223.459,190.295 227,193.5C 228.872,192.932 230.705,192.265 232.5,191.5C 233.328,187.204 233.828,182.871 234,178.5C 236.328,172.653 240.495,169.32 246.5,168.5 Z"/></g>
<g><path style="opacity:1" fill="#b2aab3" d="M 248.5,184.5 C 253.167,184.5 257.833,184.5 262.5,184.5C 262.112,189.628 262.612,194.628 264,199.5C 269.921,205.043 276.921,208.71 285,210.5C 291.123,209.389 295.957,206.223 299.5,201C 303.461,202.77 306.794,205.604 309.5,209.5C 306.479,212.686 303.646,216.02 301,219.5C 299.969,227.415 301.635,234.748 306,241.5C 307.663,243.917 309.829,245.75 312.5,247C 316.821,247.499 321.154,247.666 325.5,247.5C 325.5,252.167 325.5,256.833 325.5,261.5C 320.372,261.112 315.372,261.612 310.5,263C 302.268,270.946 299.435,280.446 302,291.5C 305.259,294.055 307.593,297.055 309,300.5C 306.318,303.35 303.484,306.016 300.5,308.5C 298.016,306.517 295.683,304.35 293.5,302C 290.963,300.162 288.129,299.329 285,299.5C 279.258,300.525 273.758,302.358 268.5,305C 266.291,306.873 264.458,309.04 263,311.5C 262.501,315.821 262.334,320.154 262.5,324.5C 257.833,324.5 253.167,324.5 248.5,324.5C 248.666,320.154 248.499,315.821 248,311.5C 246.542,309.04 244.709,306.873 242.5,305C 237.109,302.715 231.609,300.882 226,299.5C 219.773,299.867 214.939,302.7 211.5,308C 207.539,306.23 204.206,303.396 201.5,299.5C 203.817,296.683 206.317,294.016 209,291.5C 209.935,289.091 210.435,286.591 210.5,284C 209.475,278.258 207.642,272.758 205,267.5C 199.726,261.992 193.226,259.992 185.5,261.5C 185.5,256.833 185.5,252.167 185.5,247.5C 198.162,249.998 205.995,244.998 209,232.5C 210.457,228.259 210.791,223.926 210,219.5C 207.705,216.203 205.038,213.203 202,210.5C 203.77,206.539 206.604,203.206 210.5,200.5C 213.317,202.817 215.984,205.317 218.5,208C 223.473,209.939 228.473,209.939 233.5,208C 237.167,206.333 240.833,204.667 244.5,203C 248.184,197.458 249.518,191.292 248.5,184.5 Z"/></g>
<g><path style="opacity:1" fill="#030303" d="M 246.5,223.5 C 267.052,220.573 280.552,228.907 287,248.5C 288.759,266.497 281.259,278.664 264.5,285C 246.929,288.631 234.096,282.464 226,266.5C 220.481,246.206 227.315,231.872 246.5,223.5 Z"/></g>
<g><path style="opacity:1" fill="#8e7f8e" d="M 264.5,240.5 C 265.305,254.336 259.305,263.669 246.5,268.5C 238.017,261.867 236.517,253.867 242,244.5C 248.458,236.984 255.958,235.65 264.5,240.5 Z"/></g>
<g><path style="opacity:1" fill="#766a75" d="M 264.5,240.5 C 275.05,249.887 275.05,259.387 264.5,269C 258.257,272.46 252.257,272.294 246.5,268.5C 259.305,263.669 265.305,254.336 264.5,240.5 Z"/></g>
<g><path style="opacity:0.95" fill="#010100" d="M 357.5,388.5 C 362.341,393.258 362.841,398.591 359,404.5C 356.572,416.881 358.906,428.214 366,438.5C 368.766,441.777 371.933,444.443 375.5,446.5C 378.99,449.415 382.99,451.582 387.5,453C 411.93,456.543 428.097,446.709 436,423.5C 439.197,405.578 433.363,391.578 418.5,381.5C 414.864,379.063 410.864,377.396 406.5,376.5C 406.44,375.957 406.107,375.624 405.5,375.5C 404.184,381.32 404.184,386.987 405.5,392.5C 412.51,395.544 417.51,400.544 420.5,407.5C 422.514,423.761 415.847,434.094 400.5,438.5C 382.092,437.592 373.259,427.925 374,409.5C 376.226,401.109 381.393,395.442 389.5,392.5C 390.816,386.987 390.816,381.32 389.5,375.5C 388.893,375.624 388.56,375.957 388.5,376.5C 384.289,378.078 379.956,378.578 375.5,378C 374.295,376.624 372.962,375.458 371.5,374.5C 370.618,370.091 371.952,366.591 375.5,364C 380.023,362.203 384.69,361.036 389.5,360.5C 389.022,338.742 389.522,317.075 391,295.5C 393.441,293.031 396.274,291.198 399.5,290C 416.833,289.333 434.167,289.333 451.5,290C 456.428,291.927 459.594,295.427 461,300.5C 461.667,311.5 461.667,322.5 461,333.5C 459.895,338.206 457.062,341.373 452.5,343C 436.837,343.5 421.17,343.667 405.5,343.5C 405.5,349.167 405.5,354.833 405.5,360.5C 429.441,364.94 444.608,378.94 451,402.5C 455.56,433.554 443.393,455.054 414.5,467C 383.096,474.047 360.263,463.213 346,434.5C 344.53,430.622 343.697,426.622 343.5,422.5C 305.5,422.5 267.5,422.5 229.5,422.5C 226.108,438.053 217.108,448.887 202.5,455C 176.85,461.686 158.35,453.186 147,429.5C 146.023,427.26 145.523,424.927 145.5,422.5C 122.498,422.667 99.4976,422.5 76.5,422C 34.3374,414.669 8.6707,390.169 -0.5,348.5C -0.5,339.167 -0.5,329.833 -0.5,320.5C 5.91761,288.878 23.9176,266.378 53.5,253C 61.8761,249.739 70.5428,247.739 79.5,247C 103.921,246.02 128.254,246.353 152.5,248C 156.926,253.441 156.259,258.108 150.5,262C 126.833,262.333 103.167,262.667 79.5,263C 53.429,266.743 34.2623,280.243 22,303.5C 9.92591,332.689 13.9259,359.356 34,383.5C 46.2969,395.899 61.1303,403.399 78.5,406C 100.831,406.5 123.164,406.667 145.5,406.5C 153.148,379.713 170.815,368.546 198.5,373C 215.274,378.272 225.607,389.439 229.5,406.5C 267.5,406.5 305.5,406.5 343.5,406.5C 343.753,400.822 345.253,395.489 348,390.5C 350.904,388.773 354.07,388.107 357.5,388.5 Z"/></g>
<g><path style="opacity:0.951" fill="#010102" d="M 78.5,291.5 C 104.354,288.569 121.52,299.236 130,323.5C 134.114,343.089 128.28,358.922 112.5,371C 96.1667,381 79.8333,381 63.5,371C 42.9869,353.762 39.1536,333.262 52,309.5C 58.9362,300.622 67.7695,294.622 78.5,291.5 Z"/></g>
<g><path style="opacity:1" fill="#7d284f" d="M 445.5,305.5 C 442.167,305.5 438.833,305.5 435.5,305.5C 425.5,305.5 415.5,305.5 405.5,305.5C 405.5,309.833 405.5,314.167 405.5,318.5C 405.5,321.833 405.5,325.167 405.5,328.5C 404.508,320.684 404.174,312.684 404.5,304.5C 418.344,304.171 432.01,304.504 445.5,305.5 Z"/></g>
<g><path style="opacity:1" fill="#fe5ba6" d="M 435.5,305.5 C 435.665,308.85 435.498,312.183 435,315.5C 434.097,316.701 432.931,317.535 431.5,318C 422.84,318.5 414.173,318.666 405.5,318.5C 405.5,314.167 405.5,309.833 405.5,305.5C 415.5,305.5 425.5,305.5 435.5,305.5 Z"/></g>
<g><path style="opacity:1" fill="#f93c94" d="M 435.5,305.5 C 438.833,305.5 442.167,305.5 445.5,305.5C 445.5,313.167 445.5,320.833 445.5,328.5C 432.167,328.5 418.833,328.5 405.5,328.5C 405.5,325.167 405.5,321.833 405.5,318.5C 414.173,318.666 422.84,318.5 431.5,318C 432.931,317.535 434.097,316.701 435,315.5C 435.498,312.183 435.665,308.85 435.5,305.5 Z"/></g>
<g><path style="opacity:1" fill="#88c7fb" d="M 101.5,310.5 C 104.57,335.061 94.2366,350.394 70.5,356.5C 61.6593,348.472 58.4927,338.472 61,326.5C 69.4543,307.842 82.9543,302.509 101.5,310.5 Z"/></g>
<g><path style="opacity:1" fill="#5fb4fb" d="M 101.5,310.5 C 113.591,317.362 118.091,327.695 115,341.5C 109.499,357.343 98.3325,364.177 81.5,362C 77.5277,360.681 73.8611,358.847 70.5,356.5C 94.2366,350.394 104.57,335.061 101.5,310.5 Z"/></g>
<g><path style="opacity:0.996" fill="#fccbbc" d="M 371.5,374.5 C 372.962,375.458 374.295,376.624 375.5,378C 379.956,378.578 384.289,378.078 388.5,376.5C 389.488,381.64 389.821,386.974 389.5,392.5C 381.393,395.442 376.226,401.109 374,409.5C 373.259,427.925 382.092,437.592 400.5,438.5C 392.986,443.467 384.652,446.134 375.5,446.5C 371.933,444.443 368.766,441.777 366,438.5C 358.906,428.214 356.572,416.881 359,404.5C 362.841,398.591 362.341,393.258 357.5,388.5C 361.194,382.806 365.861,378.139 371.5,374.5 Z"/></g>
<g><path style="opacity:1" fill="#63504a" d="M 388.5,376.5 C 388.56,375.957 388.893,375.624 389.5,375.5C 390.816,381.32 390.816,386.987 389.5,392.5C 389.821,386.974 389.488,381.64 388.5,376.5 Z"/></g>
<g><path style="opacity:1" fill="#8e736a" d="M 406.5,376.5 C 405.512,381.64 405.179,386.974 405.5,392.5C 404.184,386.987 404.184,381.32 405.5,375.5C 406.107,375.624 406.44,375.957 406.5,376.5 Z"/></g>
<g><path style="opacity:1" fill="#fac9bb" d="M 406.5,376.5 C 410.864,377.396 414.864,379.063 418.5,381.5C 421.51,389.974 422.176,398.641 420.5,407.5C 417.51,400.544 412.51,395.544 405.5,392.5C 405.179,386.974 405.512,381.64 406.5,376.5 Z"/></g>
<g><path style="opacity:1" fill="#faad9b" d="M 418.5,381.5 C 433.363,391.578 439.197,405.578 436,423.5C 428.097,446.709 411.93,456.543 387.5,453C 382.99,451.582 378.99,449.415 375.5,446.5C 384.652,446.134 392.986,443.467 400.5,438.5C 415.847,434.094 422.514,423.761 420.5,407.5C 422.176,398.641 421.51,389.974 418.5,381.5 Z"/></g>
<g><path style="opacity:1" fill="#fddf76" d="M 200.5,390.5 C 204.033,414.618 194.033,429.618 170.5,435.5C 161.13,428.048 157.964,418.381 161,406.5C 169.171,388.831 182.337,383.498 200.5,390.5 Z"/></g>
<g><path style="opacity:1" fill="#facd59" d="M 200.5,390.5 C 214.649,399.455 218.483,411.788 212,427.5C 202.5,441.223 190,445.056 174.5,439C 172.907,438.051 171.574,436.885 170.5,435.5C 194.033,429.618 204.033,414.618 200.5,390.5 Z"/></g>
<g><path style="opacity:1" fill="#f34495" d="M 393.5,406.5 C 404.559,406.054 407.892,410.888 403.5,421C 393.647,425.48 388.814,422.313 389,411.5C 390.059,409.341 391.559,407.674 393.5,406.5 Z"/></g>
</svg>
