<?xml version="1.0" standalone="no"?>
<!DOCTYPE svg PUBLIC "-//W3C//DTD SVG 20010904//EN"
 "http://www.w3.org/TR/2001/REC-SVG-20010904/DTD/svg10.dtd">
<svg version="1.0" xmlns="http://www.w3.org/2000/svg"
 width="512.000000pt" height="512.000000pt" viewBox="0 0 512.000000 512.000000"
 preserveAspectRatio="xMidYMid meet">

<g transform="translate(0.000000,512.000000) scale(0.100000,-0.100000)"
fill="#000000" stroke="none">
<path d="M1970 5113 c-428 -42 -816 -191 -1131 -434 -83 -65 -94 -82 -85 -133
5 -28 1 -37 -43 -80 -30 -29 -51 -44 -55 -37 -4 6 -23 11 -43 11 -41 0 -63
-20 -168 -155 -221 -283 -374 -647 -426 -1015 -20 -141 -18 -468 4 -605 67
-411 233 -771 499 -1080 146 -169 345 -336 531 -445 42 -25 77 -48 77 -52 0
-3 -19 -34 -42 -67 l-42 -61 -147 0 c-133 0 -149 -2 -173 -21 -20 -16 -26 -29
-26 -59 0 -66 15 -70 232 -70 l187 0 25 33 c14 17 49 65 77 105 37 54 55 72
67 69 10 -3 69 -24 132 -47 238 -86 450 -123 710 -123 248 -1 467 33 675 103
l88 30 107 -103 c58 -57 127 -113 152 -126 93 -45 203 -37 294 21 l47 30 401
-401 c435 -435 429 -429 481 -376 14 13 25 31 25 40 0 13 38 15 320 15 l320 0
0 384 0 384 30 12 c17 7 35 21 40 31 23 43 11 61 -142 216 -131 132 -156 153
-183 153 -17 0 -36 -5 -43 -12 -9 -9 -22 -2 -57 32 -44 43 -45 45 -39 94 l6
51 -131 130 c-72 71 -131 134 -131 140 0 6 11 26 24 45 33 50 48 101 47 171 0
98 -32 153 -170 293 -110 112 -118 123 -109 146 19 50 58 228 72 330 43 310
25 580 -58 881 -58 207 -145 400 -266 588 l-61 93 59 72 58 71 197 5 c181 5
197 7 211 25 21 28 20 68 -3 96 -19 24 -22 24 -228 27 -123 2 -220 -1 -235 -7
-14 -5 -55 -46 -91 -90 l-64 -79 -77 83 c-280 306 -708 546 -1126 630 -190 38
-438 54 -600 38z m474 -493 c275 -54 526 -170 741 -343 81 -65 207 -192 258
-259 l28 -36 -80 -104 c-63 -81 -81 -110 -81 -135 0 -63 71 -96 118 -55 12 9
44 46 73 82 28 36 56 65 62 65 17 0 114 -203 156 -331 58 -172 82 -323 82
-514 0 -241 -33 -419 -118 -635 -199 -506 -664 -895 -1201 -1005 -111 -22
-129 -32 -140 -73 -8 -32 -9 -32 -75 -35 -52 -2 -67 0 -67 11 0 7 -10 23 -23
35 -20 19 -42 24 -148 32 -152 11 -265 32 -387 71 l-92 30 60 86 c65 93 73
125 40 161 -25 26 -81 30 -104 7 -8 -9 -43 -56 -77 -105 l-61 -89 -57 31
c-482 267 -795 723 -866 1265 -81 614 205 1240 725 1588 220 147 475 241 747
275 113 14 364 4 487 -20z m1747 -2532 c118 -121 119 -123 119 -182 0 -43 -6
-61 -29 -92 -16 -21 -228 -238 -472 -480 -473 -471 -477 -474 -557 -459 -27 5
-57 27 -119 88 l-83 80 91 49 c395 212 724 553 916 948 32 66 59 119 60 120 2
0 35 -33 74 -72z"/>
<path d="M2070 4551 c-85 -26 -151 -93 -176 -177 -33 -113 -7 -286 50 -333 17
-14 21 -58 8 -77 -4 -6 -35 -25 -69 -43 -120 -60 -138 -101 -116 -267 26 -204
29 -206 383 -202 294 3 302 5 333 71 20 41 42 223 33 270 -10 52 -49 93 -127
133 -65 32 -69 36 -69 69 0 18 5 37 11 41 6 3 22 30 35 58 21 44 24 66 24 162
0 103 -2 116 -28 165 -56 108 -181 163 -292 130z m143 -181 c25 -28 27 -37 27
-111 0 -93 -15 -130 -60 -149 -43 -18 -97 -3 -123 32 -25 34 -34 126 -18 186
23 84 116 106 174 42z m-23 -472 c23 -47 32 -56 103 -93 l78 -40 -6 -55 c-3
-30 -8 -67 -11 -82 l-6 -28 -208 0 c-115 0 -211 3 -213 8 -3 4 -8 41 -12 83
l-7 77 61 27 c68 31 119 81 128 126 5 25 10 29 37 29 27 0 34 -6 56 -52z"/>
<path d="M1116 4145 c-57 -20 -108 -66 -138 -125 -26 -48 -28 -62 -28 -161 0
-116 10 -156 54 -214 39 -51 27 -79 -54 -120 -118 -60 -139 -103 -121 -254 14
-117 32 -164 74 -195 27 -20 41 -21 301 -21 351 0 344 -4 372 199 15 109 15
121 0 161 -20 52 -38 69 -118 109 -80 41 -92 70 -53 126 42 61 54 107 55 211
0 87 -3 101 -30 156 -17 34 -46 73 -65 87 -70 54 -168 70 -249 41z m163 -169
c23 -24 26 -36 29 -109 3 -69 0 -87 -18 -115 -38 -61 -117 -67 -164 -11 -23
28 -26 39 -26 116 0 84 0 85 35 120 32 32 40 35 77 30 26 -3 51 -15 67 -31z
m-38 -458 c14 -52 49 -87 120 -120 l71 -33 -7 -70 c-4 -38 -9 -73 -12 -77 -2
-5 -98 -8 -212 -8 l-208 0 -7 53 c-12 101 -12 100 55 132 68 33 117 82 126
126 5 26 9 30 36 27 24 -2 32 -9 38 -30z"/>
<path d="M2902 4147 c-44 -14 -118 -80 -145 -131 -19 -36 -22 -56 -22 -161 0
-126 9 -159 57 -212 16 -17 19 -30 14 -55 -5 -30 -14 -37 -76 -66 -122 -57
-140 -106 -111 -305 15 -102 39 -140 99 -157 47 -13 486 -13 533 0 19 5 48 23
63 39 25 26 30 43 43 144 9 63 13 131 9 151 -10 51 -49 92 -127 131 -79 40
-91 68 -52 121 43 59 53 98 53 213 0 100 -2 113 -28 162 -59 113 -188 165
-310 126z m154 -171 c33 -33 34 -36 34 -119 0 -77 -3 -88 -26 -116 -48 -57
-135 -47 -169 19 -23 44 -20 157 5 198 38 62 105 69 156 18z m-16 -478 c23
-47 32 -56 103 -93 l78 -40 -6 -50 c-3 -27 -8 -62 -11 -77 l-6 -28 -212 0
-213 0 -7 53 c-12 105 -13 104 59 138 70 33 113 75 122 120 5 25 10 29 37 29
27 0 34 -6 56 -52z"/>
<path d="M2035 3331 c-96 -43 -145 -125 -153 -252 -6 -104 9 -174 49 -229 48
-66 39 -89 -51 -135 -72 -36 -107 -75 -120 -129 -9 -43 16 -239 35 -277 29
-56 47 -59 350 -59 l275 0 36 33 c33 30 36 39 50 127 24 165 18 204 -43 262
-15 15 -54 38 -85 52 -52 23 -58 29 -58 55 0 16 15 53 33 82 31 50 32 56 35
176 3 110 1 128 -18 168 -27 55 -96 118 -148 133 -57 17 -141 14 -187 -7z
m155 -146 c42 -22 50 -43 50 -139 0 -76 -3 -88 -25 -114 -30 -36 -66 -47 -110
-32 -45 15 -67 52 -73 125 -10 136 62 210 158 160z m-15 -472 c12 -49 53 -90
119 -122 35 -17 66 -34 69 -38 2 -4 0 -41 -6 -80 l-10 -73 -208 0 -207 0 -6
28 c-3 15 -8 50 -11 77 l-6 50 78 40 c71 36 80 45 103 92 21 44 29 53 51 53
21 0 28 -6 34 -27z"/>
<path d="M1207 3006 c-50 -18 -103 -60 -132 -104 -64 -98 -59 -308 10 -390 25
-29 32 -66 17 -88 -4 -6 -32 -24 -62 -39 -127 -63 -146 -110 -119 -302 12 -93
32 -132 79 -155 31 -16 67 -18 288 -18 280 0 307 5 341 60 19 31 41 166 41
249 0 76 -35 119 -137 170 -56 28 -63 34 -63 61 0 18 12 47 29 71 59 81 67
258 17 358 -57 112 -193 168 -309 127z m116 -145 c55 -21 67 -47 67 -146 0
-101 -10 -124 -59 -145 -42 -17 -95 -5 -121 27 -17 22 -20 40 -20 117 1 98 7
115 56 141 34 17 44 18 77 6z m8 -485 c12 -42 61 -88 130 -122 l61 -29 -7 -65
c-11 -110 12 -100 -225 -100 -169 0 -209 3 -213 14 -3 8 -9 45 -12 83 l-7 69
53 24 c52 24 129 84 129 101 0 4 4 20 10 34 8 22 15 26 42 23 25 -2 33 -9 39
-32z"/>
<path d="M2987 3005 c-60 -23 -113 -71 -141 -127 -23 -46 -26 -64 -26 -162 0
-95 4 -118 24 -161 12 -27 30 -56 38 -63 11 -9 14 -22 9 -45 -6 -27 -16 -36
-66 -60 -73 -35 -97 -56 -120 -108 -17 -36 -17 -49 -5 -154 23 -214 25 -215
375 -215 342 0 343 1 371 198 23 168 2 216 -124 276 -80 38 -86 60 -38 140 41
68 50 116 44 229 -6 117 -51 192 -143 239 -51 26 -147 33 -198 13z m134 -151
c39 -20 59 -68 59 -144 0 -120 -71 -181 -159 -136 -39 20 -51 55 -51 145 0 65
4 83 21 105 36 46 80 56 130 30z m-8 -473 c9 -45 60 -95 128 -126 l62 -27 -7
-75 c-3 -41 -8 -79 -12 -84 -3 -5 -99 -9 -214 -9 l-209 0 -6 43 c-3 23 -7 60
-8 82 -2 40 -2 40 62 72 80 40 96 55 118 109 16 39 22 44 49 44 27 0 32 -4 37
-29z"/>
<path d="M4571 4804 c-24 -30 -26 -43 -10 -77 19 -42 46 -47 275 -47 169 0
221 3 243 15 46 23 54 66 20 109 l-20 26 -244 0 -244 0 -20 -26z"/>
<path d="M4575 4535 c-14 -13 -25 -36 -25 -50 0 -14 11 -37 25 -50 l24 -25
236 0 236 0 24 25 c14 13 25 36 25 50 0 14 -11 37 -25 50 l-24 25 -236 0 -236
0 -24 -25z"/>
<path d="M4604 4280 c-26 -10 -54 -48 -54 -71 0 -9 9 -28 21 -43 l20 -26 244
0 c238 0 245 1 265 22 37 40 21 97 -34 118 -33 12 -431 13 -462 0z"/>
<path d="M25 1205 c-32 -31 -32 -69 0 -101 l25 -25 240 3 c263 3 264 4 276 65
5 26 1 37 -19 57 l-26 26 -236 0 -236 0 -24 -25z"/>
<path d="M43 950 c-45 -18 -55 -72 -22 -114 l20 -26 244 0 244 0 20 26 c12 15
21 33 21 40 0 26 -23 62 -47 73 -29 13 -447 14 -480 1z"/>
<path d="M21 654 c-26 -33 -27 -65 -2 -95 19 -24 21 -24 247 -27 244 -3 273 1
293 44 16 35 14 48 -10 78 l-20 26 -244 0 -244 0 -20 -26z"/>
</g>
</svg>
